<?xml version="1.0" encoding="UTF-8" standalone="no"?>
<svg
   xmlns:dc="http://purl.org/dc/elements/1.1/"
   xmlns:cc="http://creativecommons.org/ns#"
   xmlns:rdf="http://www.w3.org/1999/02/22-rdf-syntax-ns#"
   xmlns:svg="http://www.w3.org/2000/svg"
   xmlns="http://www.w3.org/2000/svg"
   xmlns:xlink="http://www.w3.org/1999/xlink"
   xmlns:sodipodi="http://sodipodi.sourceforge.net/DTD/sodipodi-0.dtd"
   xmlns:inkscape="http://www.inkscape.org/namespaces/inkscape"
   width="64"
   version="1.1"
   height="64"
   id="svg15"
   sodipodi:docname="folder-Reddit.svg"
   inkscape:version="1.0.2 (e86c870879, 2021-01-15)">
  <sodipodi:namedview
     pagecolor="#ffffff"
     bordercolor="#666666"
     borderopacity="1"
     objecttolerance="10"
     gridtolerance="10"
     guidetolerance="10"
     inkscape:pageopacity="0"
     inkscape:pageshadow="2"
     inkscape:window-width="1920"
     inkscape:window-height="1007"
     id="namedview17"
     showgrid="true"
     inkscape:zoom="9.8125"
     inkscape:cx="20.66658"
     inkscape:cy="36.831525"
     inkscape:window-x="0"
     inkscape:window-y="0"
     inkscape:window-maximized="1"
     inkscape:current-layer="layer1"
     inkscape:document-rotation="0">
    <inkscape:grid
       type="xygrid"
       id="grid919" />
  </sodipodi:namedview>
  <defs
     id="defs5455">
    <linearGradient
       inkscape:collect="always"
       id="linearGradient885">
      <stop
         style="stop-color:#a4adbe;stop-opacity:1"
         offset="0"
         id="stop881" />
      <stop
         style="stop-color:#434c5e;stop-opacity:1"
         offset="1"
         id="stop883" />
    </linearGradient>
    <linearGradient
       inkscape:collect="always"
       xlink:href="#linearGradient847"
       id="linearGradient859"
       x1="239.02225"
       y1="256.95679"
       x2="512"
       y2="256.82327"
       gradientUnits="userSpaceOnUse"
       gradientTransform="matrix(0.12132762,0,0,0.12349046,385.57143,484.06629)" />
    <linearGradient
       inkscape:collect="always"
       id="linearGradient847">
      <stop
         style="stop-color:#8fbcbb;stop-opacity:1"
         offset="0"
         id="stop843" />
      <stop
         style="stop-color:#88c0d0;stop-opacity:1"
         offset="1"
         id="stop845" />
    </linearGradient>
    <linearGradient
       inkscape:collect="always"
       xlink:href="#linearGradient885"
       id="linearGradient862"
       x1="476.689"
       y1="163.60085"
       x2="319.6994"
       y2="162.04736"
       gradientUnits="userSpaceOnUse"
       gradientTransform="matrix(0.12132762,0,0,0.12349046,385.57143,484.06629)" />
  </defs>
  <metadata
     id="metadata5458">
    <rdf:RDF>
      <cc:Work
         rdf:about="">
        <dc:format>image/svg+xml</dc:format>
        <dc:type
           rdf:resource="http://purl.org/dc/dcmitype/StillImage" />
      </cc:Work>
    </rdf:RDF>
  </metadata>
  <g
     inkscape:label="Capa 1"
     inkscape:groupmode="layer"
     id="layer1"
     transform="translate(-384.57143,-483.798)">
    <path
       style="fill:#81a1c1;fill-opacity:1;stroke-width:0.122405"
       d="m 418.27991,496.76498 c 1.00234,1.00832 2.35492,1.57376 3.76434,1.57376 h 2.08431 5.41297 c -1.40942,0 -2.76196,-0.56544 -3.76434,-1.57376 l -3.37309,-3.39306 c -1.00265,-1.00849 -2.35506,-1.57392 -3.76429,-1.57392 h -7.49732 c 1.40923,0 2.76181,0.56543 3.76434,1.57392 z"
       id="path2" />
    <path
       style="fill:#5e81ac;fill-opacity:1;stroke-width:0.122405"
       d="m 407.40937,493.37192 3.37327,3.39306 c 1.00233,1.00832 2.35487,1.57376 3.76429,1.57376 h 2.08436 5.41296 c -1.40942,0 -2.762,-0.56544 -3.76434,-1.57376 l -3.37308,-3.39306 c -1.00265,-1.00849 -2.35511,-1.57392 -3.76434,-1.57392 h -7.36358 -0.13375 c 1.40942,0 2.76182,0.56556 3.76421,1.57392 z"
       id="path4" />
    <path
       style="fill:url(#linearGradient859);fill-opacity:1;stroke-width:0.114828"
       d="m 444.47801,497.55407 h -12.85238 -2.08437 -5.41295 -2.08431 -5.41271 -2.08436 c -1.40942,0 -2.76196,-0.4976 -3.76429,-1.38504 l -3.37327,-2.98601 c -1.00251,-0.88742 -2.35492,-1.38502 -3.76432,-1.38502 h -7.36334 -7.49714 c -1.7745,0 -3.21314,1.28851 -3.21314,2.87804 v 5.75606 0.95938 35.49546 c 0,1.58953 1.43864,2.87804 3.21314,2.87804 h 55.69344 c 1.7745,0 3.21314,-1.28851 3.21314,-2.87804 V 500.4321 c 0,-1.58964 -1.43864,-2.87803 -3.21314,-2.87803 z m -22.54229,5.85455 0.008,-0.005 -0.007,-0.0104 v 0 l 0.007,0.0104 v 0 l -0.008,0.005 0.002,-0.015 z m 21.47142,0.86078 c 0,1.05956 -0.959,1.91865 -2.14214,1.91865 h -14.99442 c -1.18314,0 -2.14215,-0.85909 -2.14215,-1.91865 v -0.95937 c 0,-1.05956 0.95901,-1.91865 2.14215,-1.91865 h 14.99429 c 1.18315,0 2.14214,0.85909 2.14214,1.91865 v 0.95937 z"
       id="path6"
       sodipodi:nodetypes="scccccsccscssccssssssccccccccccssssssscc" />
    <path
       style="fill:url(#linearGradient862);fill-opacity:1;stroke-width:0.122405"
       d="m 441.26487,501.05685 h -14.99429 c -1.18314,0 -2.16639,0.97609 -2.16639,2.18013 v 1.09026 c 0,1.20403 0.98325,2.18014 2.16639,2.18014 h 14.99429 c 1.18315,0 2.29726,-0.97643 2.32413,-2.18014 l 0.0242,-1.09026 c 1.2e-4,-1.20404 -1.16511,-2.18013 -2.34837,-2.18013 z"
       id="path8"
       sodipodi:nodetypes="ssssssscs" />
    <path
       d="m 415.28698,520.9003 c 0,-1.64516 -1.33843,-2.97938 -2.97924,-2.97938 -0.64647,0 -1.26381,0.20718 -1.77351,0.58431 -1.44623,-0.72934 -3.16586,-1.16847 -4.98486,-1.27207 l 1.1892,-3.28595 2.8758,0.71688 c 0.0621,1.18095 1.04416,2.11731 2.23757,2.11731 1.23469,0 2.24163,-1.00693 2.24163,-2.24161 0,-1.23485 -1.00694,-2.24179 -2.24163,-2.24179 -0.84119,0 -1.57459,0.46406 -1.95998,1.15197 l -3.94068,-0.98623 -1.71542,4.7445 c -1.9765,0.058 -3.84956,0.5055 -5.41168,1.28874 -0.5097,-0.37714 -1.12284,-0.58011 -1.76932,-0.58011 -1.645,0.005 -2.98343,1.34248 -2.98343,2.98343 0,0.80381 0.33149,1.57864 0.89914,2.13399 -0.0372,0.23616 -0.058,0.47652 -0.058,0.71672 0,1.8025 1.05243,3.47664 2.95851,4.71148 1.82321,1.18499 4.239,1.83551 6.79981,1.83551 2.56082,0 4.9724,-0.65052 6.79965,-1.83551 1.90609,-1.23905 2.95867,-2.91303 2.95867,-4.71148 0,-0.23615 -0.0207,-0.47231 -0.0539,-0.70847 0.57591,-0.55113 0.91162,-1.33017 0.91162,-2.14224 z m -15.27361,1.74034 c 0,-0.95725 0.77904,-1.73629 1.73629,-1.73629 0.9571,0 1.73614,0.77904 1.73614,1.73629 0,0.95709 -0.77904,1.73613 -1.73614,1.73613 -0.95725,0 -1.73629,-0.77904 -1.73629,-1.73613 z m 4.77768,5.4944 c -1.34669,0 -2.6602,-0.38119 -3.7955,-1.10212 l 0.66704,-1.04837 c 0.93653,0.59662 2.02214,0.9116 3.13266,0.9116 1.11055,0 2.19194,-0.31498 3.13252,-0.9116 l 0.66719,1.04837 c -1.14371,0.72093 -2.45722,1.10212 -3.80391,1.10212 z m 3.07877,-3.75827 c -0.95725,0 -1.73613,-0.77904 -1.73613,-1.73613 0,-0.95725 0.77888,-1.73629 1.73613,-1.73629 0.95725,0 1.73613,0.77904 1.73613,1.73629 0,0.95709 -0.77888,1.73613 -1.73613,1.73613 z m 0,0"
       id="path2-3"
       style="fill:#434c5e;fill-opacity:1;stroke-width:0.0414367" />
  </g>
</svg>
