<?xml version="1.0" encoding="UTF-8" standalone="no"?>
<svg
   xmlns:dc="http://purl.org/dc/elements/1.1/"
   xmlns:cc="http://creativecommons.org/ns#"
   xmlns:rdf="http://www.w3.org/1999/02/22-rdf-syntax-ns#"
   xmlns:svg="http://www.w3.org/2000/svg"
   xmlns="http://www.w3.org/2000/svg"
   xmlns:xlink="http://www.w3.org/1999/xlink"
   xmlns:sodipodi="http://sodipodi.sourceforge.net/DTD/sodipodi-0.dtd"
   xmlns:inkscape="http://www.inkscape.org/namespaces/inkscape"
   width="64"
   version="1.1"
   height="64"
   id="svg17"
   sodipodi:docname="folder_html.svg"
   inkscape:version="1.0.2 (e86c870879, 2021-01-15)">
  <sodipodi:namedview
     pagecolor="#ffffff"
     bordercolor="#666666"
     borderopacity="1"
     objecttolerance="10"
     gridtolerance="10"
     guidetolerance="10"
     inkscape:pageopacity="0"
     inkscape:pageshadow="2"
     inkscape:window-width="1920"
     inkscape:window-height="1007"
     id="namedview19"
     showgrid="true"
     inkscape:zoom="6.9384853"
     inkscape:cx="21.939969"
     inkscape:cy="48.315024"
     inkscape:window-x="0"
     inkscape:window-y="0"
     inkscape:window-maximized="1"
     inkscape:current-layer="layer1"
     inkscape:document-rotation="0">
    <inkscape:grid
       type="xygrid"
       id="grid925" />
  </sodipodi:namedview>
  <defs
     id="defs5455">
    <linearGradient
       inkscape:collect="always"
       id="linearGradient850">
      <stop
         style="stop-color:#a7b0be;stop-opacity:1"
         offset="0"
         id="stop846" />
      <stop
         style="stop-color:#434c5e;stop-opacity:1"
         offset="1"
         id="stop848" />
    </linearGradient>
    <linearGradient
       inkscape:collect="always"
       xlink:href="#linearGradient847"
       id="linearGradient859"
       x1="239.02225"
       y1="257.01199"
       x2="512"
       y2="256.82327"
       gradientUnits="userSpaceOnUse"
       gradientTransform="matrix(0.12132762,0,0,0.12349046,385.57143,484.06629)" />
    <linearGradient
       inkscape:collect="always"
       id="linearGradient847">
      <stop
         style="stop-color:#8fbcbb;stop-opacity:1"
         offset="0"
         id="stop843" />
      <stop
         style="stop-color:#88c0d0;stop-opacity:1"
         offset="1"
         id="stop845" />
    </linearGradient>
    <linearGradient
       inkscape:collect="always"
       xlink:href="#linearGradient850"
       id="linearGradient862"
       x1="476.689"
       y1="163.60085"
       x2="319.6994"
       y2="162.04736"
       gradientUnits="userSpaceOnUse"
       gradientTransform="matrix(0.12132762,0,0,0.12349046,385.57143,484.06629)" />
  </defs>
  <metadata
     id="metadata5458">
    <rdf:RDF>
      <cc:Work
         rdf:about="">
        <dc:format>image/svg+xml</dc:format>
        <dc:type
           rdf:resource="http://purl.org/dc/dcmitype/StillImage" />
      </cc:Work>
    </rdf:RDF>
  </metadata>
  <g
     inkscape:label="Capa 1"
     inkscape:groupmode="layer"
     id="layer1"
     transform="translate(-384.57143,-483.798)">
    <path
       style="fill:#81a1c1;fill-opacity:1;stroke-width:0.122405"
       d="m 418.27991,496.76498 c 1.00234,1.00832 2.35492,1.57376 3.76434,1.57376 h 2.08431 5.41297 c -1.40942,0 -2.76196,-0.56544 -3.76434,-1.57376 l -3.37309,-3.39306 c -1.00265,-1.00849 -2.35506,-1.57392 -3.76429,-1.57392 h -7.49732 c 1.40923,0 2.76181,0.56543 3.76434,1.57392 z"
       id="path2" />
    <path
       style="fill:#5e81ac;fill-opacity:1;stroke-width:0.122405"
       d="m 407.40937,493.37192 3.37327,3.39306 c 1.00233,1.00832 2.35487,1.57376 3.76429,1.57376 h 2.08436 5.41296 c -1.40942,0 -2.762,-0.56544 -3.76434,-1.57376 l -3.37308,-3.39306 c -1.00265,-1.00849 -2.35511,-1.57392 -3.76434,-1.57392 h -7.36358 -0.13375 c 1.40942,0 2.76182,0.56556 3.76421,1.57392 z"
       id="path4" />
    <path
       style="fill:url(#linearGradient859);fill-opacity:1;stroke-width:0.114828"
       d="m 444.47801,497.55408 h -12.85238 -2.08437 -5.41295 -2.08431 -5.41271 -2.08436 c -1.40942,0 -2.76196,-0.4976 -3.76429,-1.38505 l -3.37327,-2.98601 c -1.00251,-0.88742 -2.35492,-1.38502 -3.76432,-1.38502 h -7.36334 -7.49714 c -1.7745,0 -3.21314,1.28851 -3.21314,2.87804 v 5.75606 0.95938 35.49546 c 0,1.58953 1.43864,2.87805 3.21314,2.87805 h 55.69344 c 1.7745,0 3.21314,-1.28851 3.21314,-2.87805 V 500.4321 c 0,-1.58964 -1.43864,-2.87803 -3.21314,-2.87802 z m -22.54229,5.85455 0.008,-0.005 -0.007,-0.0104 v 0 l 0.007,0.0104 v 0 l -0.008,0.005 0.002,-0.015 z m 21.47142,0.86077 c 0,1.05956 -0.959,1.91866 -2.14214,1.91866 h -14.99442 c -1.18314,0 -2.14215,-0.85909 -2.14215,-1.91866 v -0.95936 c 0,-1.05956 0.95901,-1.91865 2.14215,-1.91865 h 14.99429 c 1.18315,0 2.14214,0.85908 2.14214,1.91865 v 0.95936 z"
       id="path6"
       sodipodi:nodetypes="scccccsccscssccssssssccccccccccssssssscc" />
    <path
       style="fill:url(#linearGradient862);fill-opacity:1;stroke-width:0.122405"
       d="m 441.26487,501.05685 h -14.99429 c -1.18314,0 -2.16639,0.97609 -2.16639,2.18013 v 1.09026 c 0,1.20403 0.98325,2.18014 2.16639,2.18014 h 14.99429 c 1.18315,0 2.29726,-0.97643 2.32413,-2.18014 l 0.0242,-1.09026 c 1.2e-4,-1.20404 -1.16511,-2.18013 -2.34837,-2.18013 z"
       id="path8"
       sodipodi:nodetypes="ssssssscs" />
    <path
       style="color:#000000;fill:#434c5e;fill-opacity:1"
       id="path26-3-6-7"
       d="m 404.07143,512.298 c -0.34625,0 -0.69426,0.0285 -1.03125,0.0625 -0.67397,0.068 -1.31048,0.18079 -1.9375,0.375 -3.13511,0.97105 -5.6227,3.45864 -6.59375,6.59375 -0.19421,0.62702 -0.30696,1.26353 -0.375,1.9375 -0.034,0.33699 -0.0625,0.685 -0.0625,1.03125 0,0.34625 0.0285,0.69426 0.0625,1.03125 0.068,0.67397 0.18079,1.31048 0.375,1.9375 0.97105,3.13511 3.45864,5.6227 6.59375,6.59375 0.62702,0.19421 1.26353,0.30696 1.9375,0.375 0.33699,0.034 0.685,0.0625 1.03125,0.0625 0.34625,0 0.69426,-0.0285 1.03125,-0.0625 0.67397,-0.068 1.31048,-0.18079 1.9375,-0.375 0.62626,-0.19479 1.24573,-0.47336 1.8125,-0.78125 2.26746,-1.22871 4.00441,-3.30441 4.78125,-5.8125 0.19421,-0.62702 0.30696,-1.26353 0.375,-1.9375 0.034,-0.33699 0.0625,-0.685 0.0625,-1.03125 0,-0.34518 -0.0284,-0.69508 -0.0625,-1.03125 -0.068,-0.67397 -0.18079,-1.31048 -0.375,-1.9375 -0.38842,-1.25404 -1.02986,-2.41924 -1.84375,-3.40625 -0.20379,-0.24694 -0.43004,-0.46129 -0.65625,-0.6875 -0.90375,-0.90375 -1.95906,-1.65156 -3.15625,-2.15625 -0.2991,-0.12651 -0.62437,-0.24636 -0.9375,-0.34375 -0.62702,-0.19421 -1.26353,-0.30696 -1.9375,-0.375 -0.33699,-0.034 -0.685,-0.0625 -1.03125,-0.0625 z m 0,1 c 1.51331,0 2.93582,0.37141 4.1875,1.03125 0.0331,0.0174 0.0609,0.0447 0.0937,0.0625 0.0253,0.0335 0.018,0.0692 0.0625,0.0937 0.0327,0.0182 0.063,0.0462 0.0937,0.0625 0.0527,0.0291 0.10465,0.074 0.0937,0.125 -0.0145,0.0745 -0.1366,0.0704 -0.1875,0.125 0.007,0.10542 -0.0353,0.0854 -0.0625,0.15625 0.0164,0.0455 0.0553,0.0392 0.0625,0.0937 -0.009,0.0582 -0.0844,0.065 -0.0625,0.125 0.0982,0.0764 0.18853,0.0127 0.28125,0 0.20362,-0.0255 0.37455,0.004 0.5,-0.0937 -0.0133,-0.0778 0.0611,-0.1 0.0937,-0.15625 0.0664,0.0465 0.12246,0.10799 0.1875,0.15625 -0.0382,0.0164 -0.1217,0.0407 -0.15625,0.0625 -0.0509,0.0345 -0.0668,0.0868 -0.125,0.125 -0.0418,0.0291 -0.14386,0.125 -0.1875,0.125 -0.0527,0 -0.14932,-0.0439 -0.1875,-0.0312 -0.0546,0.0164 -0.0321,0.10319 -0.0937,0.125 -0.11999,0.0436 -0.33319,-0.1174 -0.375,0.0625 0.0509,0.1036 0.2216,0.0687 0.3125,0.125 0.0564,0.0364 0.14171,0.21945 0.15625,0.28125 0.0145,0.0509 0.0218,0.22673 0,0.28125 -0.0564,0.1454 -0.20775,0.12864 -0.375,0.125 -0.0455,0 -0.0831,0.004 -0.125,0 -0.28179,-0.0182 -0.56023,-0.10798 -0.6875,0.0937 0.009,0.15449 0.0346,0.2405 0,0.375 -0.0254,0.0981 -0.13046,0.16457 -0.125,0.25 0.002,0.0436 0.0829,0.12751 0.0937,0.1875 0.007,0.0327 -0.0146,0.096 0,0.125 0.0473,0.0891 0.16637,-0.0145 0.25,0 0.08,0.0127 0.15625,0.12969 0.15625,0.21875 0,0.0636 -0.0225,0.1882 -0.0625,0.25 -0.08,0.11995 -0.22921,0.0908 -0.34375,0.15625 -0.0945,0.0545 -0.13114,0.18673 -0.1875,0.28125 -0.06,0.10178 -0.11742,0.13585 -0.0937,0.28125 -0.0818,0.16176 -0.17468,0.26559 -0.34375,0.34375 -0.0491,0.0218 -0.1108,0.061 -0.15625,0.0937 -0.0364,0.0254 -0.074,0.0668 -0.125,0.125 -0.0636,0.0709 -0.15296,0.10172 -0.1875,0.15625 -0.0255,0.0418 -0.004,0.13116 -0.0312,0.1875 -0.04,0.0764 -0.10535,0.14241 -0.15625,0.21875 -0.0236,0.0364 -0.0684,0.0777 -0.0937,0.125 -0.0582,0.10542 -0.13591,0.18856 -0.125,0.28125 0.009,0.0891 0.11955,0.10934 0.125,0.1875 0.005,0.0436 -0.0331,0.0777 -0.0312,0.125 0.002,0.0691 0.0258,0.10172 0.0312,0.15625 0.0127,0.1345 -0.0684,0.18855 -0.0937,0.28125 -0.0127,0.0436 0.0109,0.0905 0,0.125 -0.0218,0.0673 -0.12318,0.10753 -0.125,0.1875 -0.002,0.0564 0.0883,0.10757 0.0937,0.1875 0.004,0.0545 -0.0421,0.10536 -0.0312,0.15625 0.02,0.0982 0.2049,0.23616 0.28125,0.3125 0.10363,0.10361 0.20456,0.17219 0.25,0.28125 0.0382,0.0927 0.0541,0.24343 0.125,0.3125 0.0527,0.0509 0.15149,0.0723 0.21875,0.125 0.0636,0.0491 0.15148,0.0723 0.21875,0.125 0.1109,0.0873 0.26114,0.26273 0.4375,0.25 0.0927,-0.007 0.17762,-0.0444 0.28125,-0.0625 0.10726,-0.0182 0.23467,-0.0734 0.34375,-0.0625 0.0836,0.009 0.16274,0.068 0.25,0.0625 0.0909,-0.005 0.20888,-0.0484 0.3125,-0.0937 0.17999,-0.0782 0.45696,-0.22567 0.71875,-0.1875 0.19998,0.0291 0.20376,0.25469 0.34375,0.34375 0.15998,0.0145 0.27899,-0.0309 0.40625,0 0.0964,0.0236 0.20966,0.20492 0.21875,0.28125 0.009,0.0782 -0.0516,0.13843 -0.0625,0.1875 -0.0254,0.10542 -0.0444,0.24525 -0.0625,0.3125 -0.0145,0.0527 -0.0331,0.10354 -0.0312,0.15625 0,0.0473 0.0759,0.15695 0.125,0.21875 0.06,0.0764 0.14603,0.13514 0.21875,0.21875 0.13272,0.15267 0.18853,0.36074 0.28125,0.5625 0.0236,0.0509 -0.0218,0.0614 0,0.125 -0.04,0.30536 -0.14377,0.50568 -0.34375,0.84375 -0.0945,0.10905 -0.18932,0.23869 -0.1875,0.375 -0.007,0.32716 0.1708,0.49624 0.15625,0.8125 -0.0327,0.42531 0.002,0.49156 -0.0312,0.71875 0.14363,0.0727 0.073,0.28664 0.0312,0.4375 -0.0618,0.17993 -0.12171,0.22379 -0.15625,0.34375 0.0746,0.0322 0.13704,0.0403 0.21875,0.0312 -1.63745,1.70242 -3.95137,2.75 -6.5,2.75 -1.193,0 -2.33313,-0.23471 -3.375,-0.65625 -0.004,-10e-4 0.003,-0.0298 0,-0.0312 0.0945,-0.04 0.27467,0.0702 0.34375,-0.0625 0.0346,-0.0636 -0.0455,-0.18638 0,-0.25 0.0327,-0.0436 0.24524,-0.0829 0.3125,-0.0937 0.0964,-0.0164 0.19546,0.003 0.25,-0.0312 0.06,-0.0382 0.13591,-0.13731 0.125,-0.25 -0.005,-0.0527 -0.0521,-0.0778 -0.0937,-0.125 -0.0345,-0.04 -0.008,-0.0886 -0.0312,-0.125 -0.0436,-0.0636 -0.10682,-0.0947 -0.125,-0.1875 0.1309,-0.0254 0.31093,0.14649 0.5,0.0937 0.0891,-0.0255 0.23943,-0.19765 0.28125,-0.28125 0.0127,-0.0255 -0.0145,-0.1253 0,-0.15625 0.0164,-0.0345 0.057,-0.0444 0.0625,-0.0625 0.0127,-0.0491 -0.0109,-0.063 0,-0.0937 0.0327,-0.0927 0.13295,-0.1515 0.1875,-0.21875 0.0418,-0.0509 0.0868,-0.10354 0.125,-0.15625 0.0436,-0.0564 0.0648,-0.0759 0.0937,-0.125 0.0273,-0.1654 -0.1025,-0.2921 -0.0625,-0.4375 0.0436,-0.16358 0.27934,-0.26923 0.4375,-0.34375 0.0545,-0.0255 0.1108,-0.0774 0.15625,-0.0937 0.10908,-0.0382 0.24194,-0.0262 0.34375,-0.0625 0.1709,-0.0618 0.22886,-0.24995 0.3125,-0.40625 0.04,-0.0727 0.0865,-0.13479 0.0937,-0.1875 0.007,-0.0473 -0.009,-0.10169 0,-0.15625 0.009,-0.0545 0.0168,-0.0963 0.0312,-0.15625 0.02,-0.0782 0.0312,-0.22526 0.0312,-0.3125 0,-0.0727 -0.0294,-0.0908 -0.0312,-0.15625 -0.0127,-0.23628 0.069,-0.24596 0.15625,-0.375 0.0436,-0.0636 0.063,-0.17332 0.0937,-0.21875 0.14726,-0.21811 0.39318,-0.32546 0.375,-0.65625 -0.007,-0.10906 -0.045,-0.34046 -0.125,-0.375 -0.0455,-0.02 -0.15148,-0.006 -0.21875,-0.0312 -0.21453,-0.08 -0.37014,-0.32558 -0.59375,-0.34375 -0.0473,-0.002 -0.0723,0.002 -0.125,0 -0.0873,-0.002 -0.18308,-0.0829 -0.28125,-0.0937 -0.0618,-0.007 -0.18239,0.0182 -0.21875,0 -0.0564,-0.0273 -0.0484,-0.12535 -0.0937,-0.15625 -0.0364,-0.0255 -0.0999,-0.0425 -0.15625,-0.0625 -0.0891,-0.0345 -0.14637,-0.0552 -0.25,-0.0625 -0.0327,-0.002 -0.11992,0.005 -0.15625,0 -0.0564,-0.009 -0.10353,-0.0611 -0.15625,-0.0937 -0.0654,-0.04 -0.0977,-0.0686 -0.125,-0.125 0.06,-0.1963 -0.1475,-0.22925 -0.1875,-0.34375 -0.0182,-0.0527 0.0182,-0.14024 0,-0.1875 -0.0236,-0.0673 -0.0817,-0.0999 -0.15625,-0.15625 -0.1309,-0.10179 -0.25024,-0.19513 -0.4375,-0.21875 -0.0836,-0.009 -0.18126,0.007 -0.28125,0 -0.10544,-0.007 -0.23251,-0.0654 -0.3125,-0.15625 -0.0764,-0.0891 -0.089,-0.17695 -0.15625,-0.21875 -0.0636,-0.04 -0.17512,-0.0521 -0.21875,-0.0937 -0.02,-0.0182 -0.0131,-0.0521 -0.0312,-0.0937 -0.0327,-0.0655 -0.1025,-0.0763 -0.0625,-0.15625 -0.0727,-0.0364 -0.0468,0.0458 -0.125,0.0312 -0.0709,-0.1 -0.12127,-0.1559 -0.28125,-0.125 -0.0727,0.0145 -0.1333,0.12319 -0.21875,0.125 -0.0709,0.002 -0.12603,-0.11228 -0.21875,-0.125 -0.0709,-0.009 -0.16966,0.0734 -0.21875,0.0625 -0.0782,-0.0145 -0.0854,-0.10891 -0.15625,-0.15625 -0.0527,-0.0346 -0.15841,-0.12681 -0.1875,-0.125 -0.0909,0.002 -0.15581,0.19225 -0.28125,0.125 -0.0618,-0.0782 0.10401,-0.0836 0.0312,-0.15625 -0.0545,-0.0545 -0.0813,0.002 -0.125,0.0312 -0.0509,0.0345 -0.0999,0.0738 -0.15625,0.0937 -0.12545,0.0473 -0.21433,0.043 -0.3125,0.0937 -0.0909,0.0473 -0.10353,0.12605 -0.15625,0.21875 -0.0418,0.0764 -0.12387,0.18386 -0.1875,0.1875 -0.0764,0.005 -0.14966,-0.0959 -0.21875,-0.125 -0.20907,-0.0909 -0.32729,0.0607 -0.5,0.0625 -0.15999,0.002 -0.38227,-0.25538 -0.375,-0.40625 0.005,-0.0927 0.0516,-0.22925 0.0625,-0.34375 0.009,-0.0909 0.092,-0.16639 0.0937,-0.25 0.002,-0.11087 -0.17728,-0.20602 -0.25,-0.21875 -0.1709,-0.0309 -0.39922,0.0764 -0.59375,0 -0.0364,-0.0618 0.0719,-0.0963 0.0937,-0.15625 0.0127,-0.0345 -0.0127,-0.0555 0,-0.0937 0.0218,-0.0582 0.0977,-0.0944 0.125,-0.15625 0.02,-0.0473 0.0112,-0.12933 0.0312,-0.1875 0.0236,-0.0655 0.0882,-0.10899 0.0937,-0.15625 0.007,-0.0618 -0.0448,-0.14751 -0.0937,-0.1875 -0.1509,0.009 -0.25648,0.0229 -0.34375,0.0625 -0.19634,0.0891 -0.14558,0.34446 -0.34375,0.40625 -0.0673,0.0218 -0.17364,0.0498 -0.25,0.0625 0.12931,-0.65427 0.33095,-1.28005 0.59375,-1.875 0.0691,0.0127 0.12751,0.057 0.1875,0.0625 0.16726,0.0127 0.17432,-0.1148 0.3125,-0.1875 0.14181,0.02 0.21467,-0.0145 0.34375,0 0.0873,0.009 0.21217,0.11955 0.28125,0.125 0.0582,0.002 0.0704,-0.0716 0.125,-0.0625 0.0545,0.009 0.14716,0.12206 0.15625,0.1875 0.009,0.0818 -0.055,0.15912 -0.0312,0.25 0.0855,0.0873 0.25319,0.13661 0.375,0.1875 0.08,-0.0655 0.0127,-0.21798 0,-0.3125 -0.002,-0.0418 0.005,-0.0868 0,-0.125 -0.009,-0.0654 -0.0312,-0.13116 -0.0312,-0.1875 0,-0.25991 0.20047,-0.36696 0.375,-0.46875 0.0745,-0.0436 0.1533,-0.12353 0.21875,-0.15625 0.0927,-0.0455 0.14239,-0.0502 0.21875,-0.0937 0.13816,-0.0782 0.26773,-0.16093 0.375,-0.25 0.0491,-0.11813 -0.005,-0.25868 0,-0.375 0.0491,-0.0309 0.0723,0.005 0.125,0 0.0836,-0.0182 0.10897,-0.14025 0.15625,-0.1875 0.0273,-0.0273 0.12349,-0.0353 0.15625,-0.0625 0.0836,-0.0655 0.0835,-0.15841 0.15625,-0.1875 0.0255,-0.009 0.0849,-0.0204 0.125,-0.0312 0.0546,-0.0145 0.13149,-0.063 0.21875,-0.0937 0.0564,-0.02 0.19693,-0.01 0.21875,-0.0312 0.0273,-0.0273 -0.007,-0.14569 0,-0.1875 0.0436,-0.20538 0.34763,-0.21217 0.53125,-0.28125 0.12726,-0.0491 0.26444,-0.15227 0.40625,-0.125 -0.0273,0.0981 -0.14864,0.0693 -0.125,0.1875 0.0309,0.1654 0.22307,-0.0389 0.28125,-0.0625 0.1109,-0.0473 0.3233,-0.0723 0.46875,-0.125 0.12726,-0.0454 0.33873,-0.13403 0.21875,-0.28125 -0.1,-0.007 -0.13149,0.0886 -0.21875,0.125 -0.06,0.009 -0.0741,-0.0276 -0.125,-0.0312 -0.0491,-0.002 -0.0759,0.0403 -0.125,0.0312 -0.0491,-0.009 -0.11773,-0.0981 -0.125,-0.15625 -0.02,-0.15267 0.15695,-0.19981 0.21875,-0.3125 -0.0418,-0.13814 -0.2274,-0.008 -0.34375,-0.0625 0.0127,-0.0818 0.0599,-0.17113 0.15625,-0.1875 0.0782,-0.0127 0.26523,0.0247 0.3125,0.0625 0.0273,0.0236 -0.0105,0.0867 0.0312,0.125 0.0473,0.0418 0.12569,0.009 0.1875,0 0.0218,-0.1036 -0.14318,-0.0577 -0.125,-0.125 0.12362,-0.08 0.3491,-0.0425 0.5,-0.0625 0.0873,-0.0127 0.17182,-0.0832 0.25,-0.125 0.0727,-0.0418 0.14239,-0.10036 0.21875,-0.0312 0.0218,0.0745 -0.0521,0.11808 -0.0937,0.15625 -0.13999,0.12359 -0.26592,0.26267 -0.375,0.40625 0.0673,0.0655 0.16853,0.0186 0.28125,0.0312 0.0436,0.005 0.11079,0.024 0.15625,0.0312 0.0546,0.009 0.11261,-0.009 0.15625,0 0.0764,0.0182 0.0799,0.125 0.15625,0.125 0.12363,0 0.13345,-0.10389 0.0625,-0.1875 0.0218,-0.0855 0.0623,-0.15876 0.0312,-0.21875 -0.0564,-0.11269 -0.27034,0.0185 -0.28125,-0.125 -0.007,-0.0909 0.0923,-0.11842 0.125,-0.1875 -0.0145,-0.17448 0.14318,-0.18562 0.125,-0.34375 -0.009,-0.0655 -0.0795,-0.0633 -0.125,-0.125 -0.0236,-0.0327 -0.0353,-0.10137 -0.0625,-0.125 -0.0945,-0.08 -0.27034,-0.0661 -0.28125,-0.21875 -0.005,-0.0909 0.0127,-0.15186 0,-0.25 -0.0127,-0.0927 -0.10754,-0.35682 -0.1875,-0.375 -0.10181,-0.0218 -0.15944,0.16241 -0.28125,0.21875 -0.0654,0.0309 -0.18274,0.044 -0.25,0.0312 -0.0436,-0.009 -0.11954,-0.0414 -0.125,-0.125 -0.005,-0.0482 0.0111,-0.0652 0.0312,-0.0937 0.005,-0.007 -0.005,-0.0242 0,-0.0312 0.79099,-0.22733 1.6359,-0.34375 2.5,-0.34375 z m -3.71875,0.8125 c -0.0887,0.28411 -0.34553,0.4463 -0.6875,0.4375 -0.0836,0.08 -0.0484,0.23287 -0.0937,0.34375 -0.0382,0.0927 -0.15729,0.16353 -0.25,0.15625 -0.0673,-0.005 -0.1875,-0.0926 -0.1875,-0.15625 0,-0.0521 0.0504,-0.11102 0.0625,-0.15625 0.36804,-0.23797 0.75388,-0.44192 1.15625,-0.625 z m 7.65625,0.3125 c -0.0335,0.006 -0.0643,0.0139 -0.0937,0.0312 -0.0691,0.0418 -0.0723,0.10501 -0.125,0.125 -0.0745,0.0273 -0.17659,0.0265 -0.1875,0.0937 -0.009,0.0564 0.0644,0.0741 0.0625,0.125 -0.0273,0.0673 -0.0792,0.0744 -0.0937,0.15625 0.0927,0.15086 0.32297,0.002 0.4375,-0.0312 0.0509,-0.0145 0.0977,0.008 0.125,-0.0312 0.0309,-0.0491 0.008,-0.14968 0.0312,-0.21875 0.0255,-0.0764 0.10285,-0.0578 0.0937,-0.125 -0.007,-0.0673 -0.13728,-0.1359 -0.25,-0.125 z m -9.90625,1.15625 c 0.0667,0.0805 0.12246,0.19735 0,0.25 -0.0182,0.009 -0.23762,0.0403 -0.28125,0.0312 -0.0135,-0.002 -0.0191,-0.0228 -0.0312,-0.0312 0.0956,-0.0928 0.21289,-0.16146 0.3125,-0.25 z m 0.25,0.3125 c 0.0436,0.002 0.0741,0.0901 0.125,0.0937 0.0491,0.004 0.12711,-0.0403 0.15625,-0.0312 0.0764,0.02 0.10401,0.1624 0.0312,0.21875 -0.06,0.007 -0.0814,-0.0716 -0.125,-0.0625 -0.12363,0.0218 -0.15728,0.25727 -0.25,0.25 -0.0873,-0.009 -0.15163,-0.18638 -0.0625,-0.25 0.002,-0.0546 -0.035,-0.0704 -0.0312,-0.125 0.0273,-0.0345 0.0835,-0.0992 0.15625,-0.0937 z m -0.40625,0.0625 c 0.0255,0 0.0222,-0.0109 0.0312,0 -0.0127,0.0963 -0.0505,0.11081 -0.125,0.15625 -0.12908,0.0782 -0.20818,0.17653 -0.25,0.34375 -0.0127,0.0491 -0.15694,0.20021 -0.21875,0.1875 -0.14363,-0.0309 0.061,-0.30195 0.0937,-0.34375 0.0364,-0.0455 0.0832,-0.074 0.125,-0.125 0.0418,-0.0509 0.0539,-0.15842 0.0937,-0.1875 0.0436,-0.0309 0.17365,-0.035 0.25,-0.0312 z m 12.3125,0.25 c 0.14362,-0.009 0.2158,0.16275 0.28125,0.25 0.0545,0.0709 0.2234,0.16967 0.3125,0.21875 0.0509,0.0273 0.0999,0.0684 0.15625,0.0937 0.0591,0.0263 0.14898,0.0609 0.21875,0.125 0.0698,0.0641 0.12227,0.16059 0.125,0.21875 0.002,0.0582 -0.0403,0.10172 -0.0312,0.15625 0.063,0.0102 0.0956,-0.0539 0.125,-0.125 0.23564,0.33613 0.43632,0.69484 0.625,1.0625 -0.0383,0.0237 -0.0548,0.0469 -0.0625,0.0937 -0.0182,0.10178 0.0589,0.23183 -0.0937,0.25 -0.0963,0.0127 -0.21104,-0.096 -0.34375,-0.125 -0.0545,-0.0127 -0.14387,0.0145 -0.1875,0 -0.1,-0.0345 -0.0708,-0.15877 -0.15625,-0.21875 -0.0491,-0.0346 -0.17182,-0.0847 -0.25,-0.0937 -0.0491,-0.005 -0.0741,0.007 -0.125,0 -0.0618,-0.007 -0.16785,-3.5e-4 -0.21875,-0.0312 -0.0491,-0.0309 -0.17477,-0.0832 -0.1875,-0.125 -0.02,-0.0673 0.15262,-0.1624 0.15625,-0.21875 0.004,-0.0436 -0.0534,-0.0596 -0.0625,-0.125 -0.007,-0.04 0.009,-0.0995 0,-0.125 -0.0127,-0.0473 -0.0817,-0.0919 -0.15625,-0.0937 -0.0655,0 -0.13114,0.0312 -0.1875,0.0312 -0.08,0.002 -0.24376,-0.0403 -0.34375,-0.0312 -0.06,0.005 -0.0999,0.0276 -0.15625,0.0312 -0.15817,0.0127 -0.25137,-0.009 -0.375,0 -0.0891,0.005 -0.26012,0.0557 -0.34375,0.0937 -0.0418,0.02 -0.0704,0.0666 -0.125,0.0937 -0.0254,0.0127 -0.0609,0.0168 -0.0937,0.0312 -0.0509,0.0236 -0.13841,0.0811 -0.1875,0.0937 -0.0709,0.0182 -0.15217,-0.005 -0.28125,0 -0.0927,0.005 -0.24818,-0.0142 -0.25,-0.125 -0.002,-0.16903 0.30877,-0.096 0.46875,-0.125 0.06,-0.0127 0.0835,-0.0832 0.15625,-0.125 0.0346,-0.02 0.061,-0.0407 0.0937,-0.0625 0.0545,-0.0382 0.14716,-0.11262 0.15625,-0.15625 0.007,-0.04 -0.0368,-0.096 -0.0312,-0.125 0.007,-0.0382 0.0759,-0.0759 0.125,-0.125 0.0764,-0.0764 0.12421,-0.16968 0.21875,-0.21875 0.0636,-0.0345 0.18966,-0.043 0.21875,-0.0937 0.007,-0.0582 -0.002,-0.0723 0,-0.125 0.04,-0.0364 0.0298,-0.0553 0.0625,-0.0625 0.0982,-0.0218 0.19797,0.0367 0.3125,0.0312 0.0491,-0.002 0.10353,0.004 0.15625,-0.0312 0.0436,-0.0291 0.0814,-0.072 0.125,-0.0937 0.0473,-0.0255 0.098,-0.0901 0.15625,-0.0937 z m -11.46875,0.0937 c 0.0241,-0.004 0.0646,0.003 0.0937,0 0.0418,-0.002 0.0795,0 0.125,0 0.0455,0 0.10682,-0.0182 0.125,0 -0.0291,0.11996 -0.31171,0.075 -0.40625,0.0312 0.002,-0.0228 0.0384,-0.0274 0.0625,-0.0312 z m -0.34375,0.21875 c 0.0309,0 0.061,-0.0127 0.0937,0 -0.0836,0.0709 -0.1983,0.11081 -0.34375,0.15625 -0.0691,0.0218 -0.17477,0.0451 -0.1875,-0.0312 -0.0146,-0.0945 0.0632,-0.0847 0.125,-0.0937 0.08,-0.009 0.21978,-0.0294 0.3125,-0.0312 z m 11.84375,0 c -0.06,0.02 -0.0891,0.1399 0,0.15625 0.0418,-0.0254 0.0422,-0.0799 0.0312,-0.15625 -0.0236,-0.0254 -0.0131,-0.007 -0.0312,0 z m -0.0312,0.25 c -0.0291,0.009 -0.063,-0.002 -0.0937,0.0312 0.002,0.10178 0.02,0.16094 0,0.25 0.0582,0.11269 0.18967,0.0451 0.21875,-0.0312 0.0346,-0.18903 -0.0377,-0.27363 -0.125,-0.25 z m 0.78125,0.5 c -0.08,-0.004 -0.14023,0.0247 -0.1875,0.0625 0.0673,0.10906 0.19285,0.12898 0.34375,0.15625 0.0545,-0.04 0.0371,-0.14968 0.0625,-0.21875 -0.0655,0 -0.10751,0.004 -0.1875,0 z m -15.875,3.84375 c 0.0639,0.0814 0.1329,0.17627 0.21875,0.21875 0.0455,0.0236 0.0981,0.0186 0.15625,0.0312 0.0473,0.009 0.0796,0.048 0.125,0.0625 0.0964,0.0327 0.23615,0.028 0.3125,0.0625 0.11636,0.0509 0.18125,0.25433 0.28125,0.3125 0.005,0.0582 -0.0182,0.11263 0,0.15625 0.0473,0.0636 0.14238,0.0832 0.21875,0.125 0.0927,0.0509 0.13149,0.17876 0.21875,0.21875 0.0309,0.0127 0.0777,-0.0145 0.125,0 0.11999,0.0364 0.14637,0.21839 0.25,0.1875 0.0673,-0.02 0.0829,-0.12207 0.0937,-0.1875 0.0455,-0.0491 0.0853,-0.125 0.15625,-0.125 0.11271,-0.002 0.14568,0.13914 0.1875,0.25 0.0236,0.0618 0.0774,0.12207 0.0937,0.1875 0.0273,0.11269 0.0236,0.43275 0,0.5 -0.0291,0.0836 -0.14966,0.12787 -0.21875,0.21875 -0.0327,0.0436 -0.0684,0.096 -0.0937,0.125 -0.0436,0.0545 -0.0922,0.076 -0.125,0.125 -0.0182,0.0273 -0.0149,0.0868 -0.0312,0.125 -0.0546,0.11632 -0.13923,0.20379 -0.0937,0.34375 0.0182,0.0564 0.0937,0.12026 0.0937,0.1875 0,0.08 -0.17477,0.10026 -0.1875,0.1875 -0.009,0.0636 0.0738,0.19582 0.0937,0.28125 0.0145,0.0636 0.11807,0.11444 0.15625,0.15625 0.0636,0.0709 0.12932,0.15912 0.1875,0.25 0.11453,0.1763 0.16855,0.38983 0.28125,0.5625 0.06,0.0891 0.17875,0.15549 0.21875,0.25 0.02,0.0473 -0.0182,0.14389 0,0.1875 0.0654,0.14723 0.38399,0.3023 0.53125,0.375 0.0691,0.0346 0.12388,0.0573 0.1875,0.0937 0.0964,0.0546 0.29467,0.16458 0.34375,0.25 0.0436,0.0764 0.0719,0.25323 0.0937,0.375 0.0273,0.15995 -0.007,0.29607 0,0.46875 0.005,0.0945 0.0312,0.15548 0.0312,0.25 0,0.0327 0.002,0.0923 0,0.125 -0.002,0.11269 0.009,0.22925 0,0.34375 -0.005,0.0618 -0.004,0.13479 0,0.1875 0.005,0.0564 0.0589,0.0759 0.0625,0.125 0.004,0.0527 -0.068,0.11445 -0.0625,0.15625 0.0127,0.11451 0.13443,0.20708 0.15625,0.3125 0.0182,0.0836 0.0421,0.27503 0.0312,0.375 -0.007,0.0527 -0.024,0.12934 -0.0312,0.1875 -0.005,0.0455 0.007,0.0832 0,0.125 -2.49171,-1.60054 -4.15625,-4.38105 -4.15625,-7.5625 0,-0.40788 0.0412,-0.79401 0.0937,-1.1875 z m 3.4375,0.90625 c 0.0873,-0.04 0.0709,0.11409 0,0.125 -0.0673,0.009 -0.0654,-0.094 0,-0.125 z" />
  </g>
</svg>
