<?xml version="1.0" encoding="UTF-8" standalone="no"?>
<svg
   xmlns:dc="http://purl.org/dc/elements/1.1/"
   xmlns:cc="http://creativecommons.org/ns#"
   xmlns:rdf="http://www.w3.org/1999/02/22-rdf-syntax-ns#"
   xmlns:svg="http://www.w3.org/2000/svg"
   xmlns="http://www.w3.org/2000/svg"
   xmlns:xlink="http://www.w3.org/1999/xlink"
   xmlns:sodipodi="http://sodipodi.sourceforge.net/DTD/sodipodi-0.dtd"
   xmlns:inkscape="http://www.inkscape.org/namespaces/inkscape"
   width="64"
   version="1.1"
   height="64"
   id="svg15"
   sodipodi:docname="folder-KDE.svg"
   inkscape:version="1.0.2 (e86c870879, 2021-01-15)">
  <sodipodi:namedview
     pagecolor="#ffffff"
     bordercolor="#666666"
     borderopacity="1"
     objecttolerance="10"
     gridtolerance="10"
     guidetolerance="10"
     inkscape:pageopacity="0"
     inkscape:pageshadow="2"
     inkscape:window-width="1920"
     inkscape:window-height="1007"
     id="namedview17"
     showgrid="true"
     inkscape:zoom="9.8125"
     inkscape:cx="20.66658"
     inkscape:cy="36.831525"
     inkscape:window-x="0"
     inkscape:window-y="0"
     inkscape:window-maximized="1"
     inkscape:current-layer="layer1"
     inkscape:document-rotation="0">
    <inkscape:grid
       type="xygrid"
       id="grid919" />
  </sodipodi:namedview>
  <defs
     id="defs5455">
    <linearGradient
       inkscape:collect="always"
       id="linearGradient885">
      <stop
         style="stop-color:#a6aebf;stop-opacity:1"
         offset="0"
         id="stop881" />
      <stop
         style="stop-color:#434c5e;stop-opacity:1"
         offset="1"
         id="stop883" />
    </linearGradient>
    <linearGradient
       inkscape:collect="always"
       xlink:href="#linearGradient847"
       id="linearGradient859"
       x1="247.26439"
       y1="248.85898"
       x2="512"
       y2="256.82327"
       gradientUnits="userSpaceOnUse"
       gradientTransform="matrix(0.12132762,0,0,0.12349046,385.57143,484.06629)" />
    <linearGradient
       inkscape:collect="always"
       id="linearGradient847">
      <stop
         style="stop-color:#8fbcbb;stop-opacity:1"
         offset="0"
         id="stop843" />
      <stop
         style="stop-color:#88c0d0;stop-opacity:1"
         offset="1"
         id="stop845" />
    </linearGradient>
    <linearGradient
       inkscape:collect="always"
       xlink:href="#linearGradient885"
       id="linearGradient862"
       x1="476.689"
       y1="163.60085"
       x2="319.6994"
       y2="162.04736"
       gradientUnits="userSpaceOnUse"
       gradientTransform="matrix(0.12132762,0,0,0.12349046,385.57143,484.06629)" />
  </defs>
  <metadata
     id="metadata5458">
    <rdf:RDF>
      <cc:Work
         rdf:about="">
        <dc:format>image/svg+xml</dc:format>
        <dc:type
           rdf:resource="http://purl.org/dc/dcmitype/StillImage" />
      </cc:Work>
    </rdf:RDF>
  </metadata>
  <g
     inkscape:label="Capa 1"
     inkscape:groupmode="layer"
     id="layer1"
     transform="translate(-384.57143,-483.798)">
    <path
       style="fill:#81a1c1;fill-opacity:1;stroke-width:0.122405"
       d="m 418.27991,496.76498 c 1.00234,1.00832 2.35492,1.57376 3.76434,1.57376 h 2.08431 5.41297 c -1.40942,0 -2.76196,-0.56544 -3.76434,-1.57376 l -3.37309,-3.39306 c -1.00265,-1.00849 -2.35506,-1.57392 -3.76429,-1.57392 h -7.49732 c 1.40923,0 2.76181,0.56543 3.76434,1.57392 z"
       id="path2" />
    <path
       style="fill:#5e81ac;fill-opacity:1;stroke-width:0.122405"
       d="m 407.40937,493.37192 3.37327,3.39306 c 1.00233,1.00832 2.35487,1.57376 3.76429,1.57376 h 2.08436 5.41296 c -1.40942,0 -2.762,-0.56544 -3.76434,-1.57376 l -3.37308,-3.39306 c -1.00265,-1.00849 -2.35511,-1.57392 -3.76434,-1.57392 h -7.36358 -0.13375 c 1.40942,0 2.76182,0.56556 3.76421,1.57392 z"
       id="path4" />
    <path
       style="fill:url(#linearGradient859);fill-opacity:1;stroke-width:0.114828"
       d="m 444.47801,497.55407 h -12.85238 -2.08437 -5.41295 -2.08431 -5.41271 -2.08436 c -1.40942,0 -2.76196,-0.4976 -3.76429,-1.38504 l -3.37327,-2.98601 c -1.00251,-0.88742 -2.35492,-1.38502 -3.76432,-1.38502 h -7.36334 -7.49714 c -1.7745,0 -3.21314,1.28851 -3.21314,2.87804 v 5.75606 0.95938 35.49546 c 0,1.58953 1.43864,2.87804 3.21314,2.87804 h 55.69344 c 1.7745,0 3.21314,-1.28851 3.21314,-2.87804 V 500.4321 c 0,-1.58964 -1.43864,-2.87803 -3.21314,-2.87803 z m -22.54229,5.85455 0.008,-0.005 -0.007,-0.0104 v 0 l 0.007,0.0104 v 0 l -0.008,0.005 0.002,-0.015 z m 21.47142,0.86078 c 0,1.05956 -0.959,1.91865 -2.14214,1.91865 h -14.99442 c -1.18314,0 -2.14215,-0.85909 -2.14215,-1.91865 v -0.95937 c 0,-1.05956 0.95901,-1.91865 2.14215,-1.91865 h 14.99429 c 1.18315,0 2.14214,0.85909 2.14214,1.91865 v 0.95937 z"
       id="path6"
       sodipodi:nodetypes="scccccsccscssccssssssccccccccccssssssscc" />
    <path
       style="fill:url(#linearGradient862);fill-opacity:1;stroke-width:0.122405"
       d="m 441.26487,501.05685 h -14.99429 c -1.18314,0 -2.16639,0.97609 -2.16639,2.18013 v 1.09026 c 0,1.20403 0.98325,2.18014 2.16639,2.18014 h 14.99429 c 1.18315,0 2.29726,-0.97643 2.32413,-2.18014 l 0.0242,-1.09026 c 1.2e-4,-1.20404 -1.16511,-2.18013 -2.34837,-2.18013 z"
       id="path8"
       sodipodi:nodetypes="ssssssscs" />
    <path
       style="color:#d3dae3;fill:#434c5e;fill-opacity:1;stroke-width:0.954771"
       d="m 405.55672,512.298 -3.82857,0.57669 v 13.7803 l 3.82857,-1.02312 v -5.32388 l 3.82849,6.2763 3.82852,-1.42865 -4.78563,-5.71449 4.78749,-6.18887 -3.71449,-0.95428 -3.94438,6.24653 z m -7.79541,3.73711 c -0.0905,0 -0.18108,0.0348 -0.25048,0.10416 l -1.5049,1.49751 c -0.1388,0.13817 -0.10537,0.33553 0,0.50037 l 1.55726,2.43314 c -0.11542,0.23833 -0.21529,0.48373 -0.29912,0.73481 -0.004,0.0102 -0.01,0.0208 -0.0128,0.0311 l -2.82468,0.62499 c -0.19164,0.0425 -0.35516,0.15805 -0.35516,0.35351 v 0.93566 0.93565 c 0,0.19539 0.16352,0.31103 0.35516,0.35342 l 2.82468,0.62507 c 0.006,0.0184 0.0159,0.0353 0.0225,0.0536 0.0816,0.24387 0.17833,0.48244 0.28976,0.71434 l -1.55725,2.43124 c -0.10539,0.16486 -0.13884,0.36224 0,0.5004 l 1.50491,1.49743 c 0.13886,0.13817 0.36211,0.13817 0.50095,0 l 2.44147,-1.54765 c 0.23997,0.11615 0.48724,0.21682 0.74024,0.3013 0.0165,0.006 0.0318,0.0145 0.0489,0.0205 l 0.62624,2.80892 c 0,0.19537 0.15884,0.35342 0.3552,0.35342 h 2.12546 c 0.19641,0 0.31261,-0.16272 0.35523,-0.35342 l 0.62622,-2.89447 c 0.28773,-0.10763 0.56702,-0.23635 0.83561,-0.38511 l 2.38349,1.69651 c 0.13884,0.13818 0.36213,0.13818 0.50099,0 l 1.50487,-1.49742 c 0.13884,-0.13816 0.10543,-0.33554 0,-0.5004 l -0.90664,-1.36909 -0.0951,0.0351 c -0.21562,0.0806 -0.45828,-0.003 -0.57765,-0.19903 l -0.95338,-1.56255 c -0.79436,1.89071 -2.67035,3.21999 -4.85856,3.21999 -2.90735,0 -5.26422,-2.3453 -5.26422,-5.23831 0,-2.22001 1.39051,-4.11291 3.34994,-4.87556 v -1.0436 l -0.008,0.0332 c -0.0212,0.007 -0.0406,0.0186 -0.0617,0.0263 -0.24966,0.0826 -0.49375,0.1806 -0.7309,0.2939 l -2.43776,-1.54584 c -0.0697,-0.0693 -0.15995,-0.10416 -0.25048,-0.10416 z"
       class="ColorScheme-Text"
       id="path10-7" />
  </g>
</svg>
