<?xml version="1.0" encoding="UTF-8" standalone="no"?>
<svg
   xmlns:dc="http://purl.org/dc/elements/1.1/"
   xmlns:cc="http://creativecommons.org/ns#"
   xmlns:rdf="http://www.w3.org/1999/02/22-rdf-syntax-ns#"
   xmlns:svg="http://www.w3.org/2000/svg"
   xmlns="http://www.w3.org/2000/svg"
   xmlns:xlink="http://www.w3.org/1999/xlink"
   xmlns:sodipodi="http://sodipodi.sourceforge.net/DTD/sodipodi-0.dtd"
   xmlns:inkscape="http://www.inkscape.org/namespaces/inkscape"
   width="64"
   version="1.1"
   height="64"
   id="svg15"
   sodipodi:docname="folder-Pop_OS.svg"
   inkscape:version="1.0.2 (e86c870879, 2021-01-15)">
  <sodipodi:namedview
     pagecolor="#ffffff"
     bordercolor="#666666"
     borderopacity="1"
     objecttolerance="10"
     gridtolerance="10"
     guidetolerance="10"
     inkscape:pageopacity="0"
     inkscape:pageshadow="2"
     inkscape:window-width="1920"
     inkscape:window-height="1007"
     id="namedview17"
     showgrid="true"
     inkscape:zoom="9.8125"
     inkscape:cx="20.66658"
     inkscape:cy="36.831525"
     inkscape:window-x="0"
     inkscape:window-y="0"
     inkscape:window-maximized="1"
     inkscape:current-layer="layer1"
     inkscape:document-rotation="0">
    <inkscape:grid
       type="xygrid"
       id="grid919" />
  </sodipodi:namedview>
  <defs
     id="defs5455">
    <linearGradient
       inkscape:collect="always"
       id="linearGradient854">
      <stop
         style="stop-color:#4e4e7e;stop-opacity:1;"
         offset="0"
         id="stop850" />
      <stop
         style="stop-color:#4e4e7e;stop-opacity:0;"
         offset="1"
         id="stop852" />
    </linearGradient>
    <linearGradient
       inkscape:collect="always"
       id="linearGradient885">
      <stop
         style="stop-color:#a6b2bf;stop-opacity:1"
         offset="0"
         id="stop881" />
      <stop
         style="stop-color:#434c5e;stop-opacity:1"
         offset="1"
         id="stop883" />
    </linearGradient>
    <linearGradient
       inkscape:collect="always"
       xlink:href="#linearGradient847"
       id="linearGradient859"
       x1="255.50653"
       y1="256.95679"
       x2="512"
       y2="256.82327"
       gradientUnits="userSpaceOnUse"
       gradientTransform="matrix(0.12132762,0,0,0.12349046,385.57143,484.06629)" />
    <linearGradient
       inkscape:collect="always"
       id="linearGradient847">
      <stop
         style="stop-color:#8fbcbb;stop-opacity:1"
         offset="0"
         id="stop843" />
      <stop
         style="stop-color:#88c0d0;stop-opacity:1"
         offset="1"
         id="stop845" />
    </linearGradient>
    <linearGradient
       inkscape:collect="always"
       xlink:href="#linearGradient885"
       id="linearGradient862"
       x1="476.689"
       y1="163.60085"
       x2="319.6994"
       y2="162.04736"
       gradientUnits="userSpaceOnUse"
       gradientTransform="matrix(0.12132762,0,0,0.12349046,385.57143,484.06629)" />
    <linearGradient
       inkscape:collect="always"
       xlink:href="#linearGradient854"
       id="linearGradient856"
       x1="462.57144"
       y1="503.798"
       x2="462.22433"
       y2="502.99762"
       gradientUnits="userSpaceOnUse" />
  </defs>
  <metadata
     id="metadata5458">
    <rdf:RDF>
      <cc:Work
         rdf:about="">
        <dc:format>image/svg+xml</dc:format>
        <dc:type
           rdf:resource="http://purl.org/dc/dcmitype/StillImage" />
      </cc:Work>
    </rdf:RDF>
  </metadata>
  <g
     inkscape:label="Capa 1"
     inkscape:groupmode="layer"
     id="layer1"
     transform="translate(-384.57143,-483.798)">
    <path
       style="fill:#81a1c1;fill-opacity:1;stroke-width:0.122405"
       d="m 418.27991,496.76498 c 1.00234,1.00832 2.35492,1.57376 3.76434,1.57376 h 2.08431 5.41297 c -1.40942,0 -2.76196,-0.56544 -3.76434,-1.57376 l -3.37309,-3.39306 c -1.00265,-1.00849 -2.35506,-1.57392 -3.76429,-1.57392 h -7.49732 c 1.40923,0 2.76181,0.56543 3.76434,1.57392 z"
       id="path2" />
    <path
       style="fill:#5e81ac;fill-opacity:1;stroke-width:0.122405"
       d="m 407.40937,493.37192 3.37327,3.39306 c 1.00233,1.00832 2.35487,1.57376 3.76429,1.57376 h 2.08436 5.41296 c -1.40942,0 -2.762,-0.56544 -3.76434,-1.57376 l -3.37308,-3.39306 c -1.00265,-1.00849 -2.35511,-1.57392 -3.76434,-1.57392 h -7.36358 -0.13375 c 1.40942,0 2.76182,0.56556 3.76421,1.57392 z"
       id="path4" />
    <path
       style="fill:url(#linearGradient859);fill-opacity:1;stroke-width:0.114828"
       d="m 444.47801,497.55407 h -12.85238 -2.08437 -5.41295 -2.08431 -5.41271 -2.08436 c -1.40942,0 -2.76196,-0.4976 -3.76429,-1.38504 l -3.37327,-2.98601 c -1.00251,-0.88742 -2.35492,-1.38502 -3.76432,-1.38502 h -7.36334 -7.49714 c -1.7745,0 -3.21314,1.28851 -3.21314,2.87804 v 5.75606 0.95938 35.49546 c 0,1.58953 1.43864,2.87804 3.21314,2.87804 h 55.69344 c 1.7745,0 3.21314,-1.28851 3.21314,-2.87804 V 500.4321 c 0,-1.58964 -1.43864,-2.87803 -3.21314,-2.87803 z m -22.54229,5.85455 0.008,-0.005 -0.007,-0.0104 v 0 l 0.007,0.0104 v 0 l -0.008,0.005 0.002,-0.015 z m 21.47142,0.86078 c 0,1.05956 -0.959,1.91865 -2.14214,1.91865 h -14.99442 c -1.18314,0 -2.14215,-0.85909 -2.14215,-1.91865 v -0.95937 c 0,-1.05956 0.95901,-1.91865 2.14215,-1.91865 h 14.99429 c 1.18315,0 2.14214,0.85909 2.14214,1.91865 v 0.95937 z"
       id="path6"
       sodipodi:nodetypes="scccccsccscssccssssssccccccccccssssssscc" />
    <path
       style="fill:url(#linearGradient862);fill-opacity:1;stroke:url(#linearGradient856);stroke-width:0.122405"
       d="m 441.26487,501.05685 h -14.99429 c -1.18314,0 -2.16639,0.97609 -2.16639,2.18013 v 1.09026 c 0,1.20403 0.98325,2.18014 2.16639,2.18014 h 14.99429 c 1.18315,0 2.29726,-0.97643 2.32413,-2.18014 l 0.0242,-1.09026 c 1.2e-4,-1.20404 -1.16511,-2.18013 -2.34837,-2.18013 z"
       id="path8"
       sodipodi:nodetypes="ssssssscs" />
    <path
       style="fill:#434c5e;fill-opacity:1;stroke-width:0.0197677"
       id="path2-3"
       d="m 412.18705,521.73037 c -0.0371,0.15785 -0.11734,0.29771 -0.25424,0.38563 -0.21512,0.13786 -0.47718,0.0979 -0.66297,-0.0699 -0.17406,-0.15585 -0.23272,-0.4196 -0.17797,-0.64738 0.0567,-0.23777 0.23664,-0.44757 0.46741,-0.5135 0.51434,-0.14586 0.72751,0.42558 0.62777,0.84518 z m -0.31486,-1.62244 c -0.31878,-0.12987 -0.20926,-1.83822 0.0821,-3.91223 0.0821,-0.57944 0.22295,-0.85318 0.38136,-0.99304 0.22686,-0.19781 0.63951,-0.20581 0.91917,-0.16385 0.32073,0.0479 0.62777,0.19981 0.8605,0.42959 0.20535,0.2038 0.22881,0.4116 0.15841,0.68134 -0.11538,0.42959 -0.31291,0.84119 -0.50261,1.24281 -0.045,0.0979 -0.43808,0.85917 -0.49088,0.95308 -0.9485,1.70636 -1.13821,1.8722 -1.40809,1.7623 z" />
    <path
       style="fill:#434c5e;fill-opacity:1;stroke-width:0.0197677"
       id="path4-6"
       d="m 405.43801,519.33867 c 0.18774,0.81922 0.16818,1.71835 0.008,2.36573 -0.15059,0.61141 -0.55932,1.15888 -1.20861,1.3427 -0.5691,0.16184 -1.23208,0.0439 -1.63886,-0.35565 -0.66884,-0.65538 -1.05998,-2.19389 -0.88592,-3.31082 0.14081,-0.89713 0.61408,-2.04603 1.65255,-2.09598 0.0665,-0.004 0.13298,-0.002 0.19948,0.004 1.05802,0.0979 1.63494,1.00903 1.87354,2.05003 z m -1.91266,1.86421 c 0.0587,0.01 0.11734,0.01 0.17602,-0.008 0.19751,-0.0579 0.31095,-0.26775 0.36375,-0.47155 0.0802,-0.3097 0.0685,-0.64338 -0.0352,-0.94709 -0.0528,-0.15385 -0.13103,-0.30371 -0.25033,-0.4156 -0.42046,-0.39362 -0.84094,0.016 -0.91329,0.48154 -0.0567,0.36365 0.0254,0.78524 0.24837,1.07896 0.10364,0.13587 0.25228,0.25376 0.41068,0.28173 z" />
    <path
       style="fill:#434c5e;fill-opacity:1;stroke-width:0.0197677"
       id="path6-7"
       d="m 407.72811,521.075 c -0.002,1.51255 0.14667,2.66943 -0.50457,2.8073 -0.52803,0.10987 -0.51043,-0.36365 -0.5515,-0.76127 -0.15645,-1.54052 -0.29922,-4.10005 -0.35985,-5.64856 0.043,-0.66536 0.47915,-1.07297 0.93286,-1.17287 0.70014,-0.15385 1.44721,-0.10988 2.06716,0.28173 1.2262,0.77525 1.32399,2.19788 0.58083,3.35876 -0.40678,0.63339 -1.6369,1.09295 -2.16493,1.05299 z m 0.15645,-3.39074 c -0.0763,0.012 -0.20144,0.0479 -0.23664,0.12389 -0.0841,0.17782 -0.0783,1.30674 0.0685,1.78028 0.0235,0.0779 0.0763,0.15186 0.15255,0.17984 0.2777,0.10386 0.52803,-0.24377 0.64146,-0.45357 0.15841,-0.29172 0.20925,-0.63539 0.10949,-0.95509 -0.0939,-0.29771 -0.38527,-0.72929 -0.73533,-0.67535 z" />
    <path
       style="fill:#434c5e;fill-opacity:1;stroke-width:0.0197677"
       id="path8-5"
       d="m 400.71504,518.43554 c -0.45958,0.99305 -1.2223,1.78229 -2.27836,2.17191 0.30313,0.80922 0.61213,1.60845 0.9133,2.41568 0.16819,0.43557 0.32856,0.91312 0.18188,1.3427 -0.15255,0.43958 -0.74707,0.56146 -1.17928,0.0939 -0.83116,-0.90313 -3.64147,-6.62562 -3.84877,-7.05521 -0.17602,-0.36964 -0.44003,-0.76526 -0.43221,-1.19285 0.0137,-0.64338 0.98762,-1.29475 1.45503,-1.62843 0.6532,-0.46555 1.40809,-0.78324 2.21578,-0.78524 0.62973,0 1.16754,0.17583 1.64473,0.48752 0.73143,0.47954 1.2399,1.24481 1.42765,2.10998 0.16427,0.76126 0.12907,1.54051 -0.0997,2.04003 m -2.14148,-1.08695 c -0.16427,-0.60941 -0.53585,-1.17087 -1.00326,-1.5645 -0.10172,-0.0859 -0.21122,-0.16583 -0.33834,-0.20979 -0.87614,-0.29372 -0.49673,1.20284 -0.35397,1.58048 0.19752,0.52949 0.49674,1.19884 0.89766,1.59846 0.088,0.088 0.19165,0.16583 0.31095,0.18981 0.18187,0.0379 0.35006,-0.0919 0.44198,-0.24376 0.0763,-0.12588 0.10557,-0.27574 0.12321,-0.42159 0.0333,-0.30971 0.004,-0.6254 -0.0783,-0.92911 z" />
    <path
       style="fill:#434c5e;fill-opacity:1;stroke-width:0.0197677"
       id="path10"
       d="m 411.1923,526.04165 c -0.004,0.87715 -0.52803,1.75432 -1.68383,1.75432 -1.15581,0 -1.69362,-0.86318 -1.69362,-1.74433 0,-1.09895 0.74902,-1.77829 1.71708,-1.77829 1.12257,0.01 1.67016,0.86117 1.66037,1.7683 z m -1.66037,-1.21483 c -0.72555,0 -1.13234,0.51551 -1.13625,1.21882 0,0.61141 0.33443,1.18487 1.12256,1.18487 0.78814,0 1.08931,-0.6214 1.08931,-1.19086 0.01,-0.59143 -0.29726,-1.19884 -1.07562,-1.21283 z m 2.14538,2.51958 c 0,0.12987 0.004,-0.61741 0,-0.7313 h 0.53195 l 0.0372,0.45756 c 0.17405,0.10194 0.44394,0.17783 0.66493,0.17783 0.41069,0 0.83899,-0.10593 0.83899,-0.51551 -0.0137,-0.37164 -0.49088,-0.44757 -0.87615,-0.48752 -0.65515,-0.068 -1.18319,-0.23179 -1.18319,-0.98306 0,-0.66935 0.74121,-1.00304 1.29271,-1.00304 0.44394,-0.01 0.7588,0.0619 1.15971,0.38963 0,0.26974 -0.004,0.42959 -0.004,0.69933 h -0.51417 l -0.0333,-0.44358 c -0.2073,-0.10193 -0.42047,-0.12987 -0.58475,-0.12588 -0.35398,0.004 -0.73142,0.17384 -0.73142,0.47754 0,0.29772 0.24446,0.37964 0.67862,0.44357 0.70796,0.096 1.39049,0.25976 1.39049,1.03102 -0.004,0.84318 -0.77836,1.06497 -1.44329,1.06497 -0.50653,0.002 -0.82334,-0.0939 -1.22426,-0.45157 z"
       inkscape:connector-curvature="0" />
    <path
       style="fill:#434c5e;fill-opacity:1;stroke-width:0.0197677"
       id="path12"
       d="m 407.09711,527.50824 c 0,0.15385 -0.12125,0.27773 -0.27184,0.27773 h -3.14277 c -0.15059,0 -0.27184,-0.12388 -0.27184,-0.27773 v -0.024 c 0,-0.15385 0.12125,-0.27774 0.27184,-0.27774 h 3.14277 c 0.15059,0 0.27184,0.12389 0.27184,0.27774 z"
       inkscape:connector-curvature="0" />
  </g>
</svg>
