<?xml version="1.0" encoding="UTF-8" standalone="no"?>
<svg
   xmlns:dc="http://purl.org/dc/elements/1.1/"
   xmlns:cc="http://creativecommons.org/ns#"
   xmlns:rdf="http://www.w3.org/1999/02/22-rdf-syntax-ns#"
   xmlns:svg="http://www.w3.org/2000/svg"
   xmlns="http://www.w3.org/2000/svg"
   xmlns:xlink="http://www.w3.org/1999/xlink"
   xmlns:sodipodi="http://sodipodi.sourceforge.net/DTD/sodipodi-0.dtd"
   xmlns:inkscape="http://www.inkscape.org/namespaces/inkscape"
   width="64"
   version="1.1"
   height="64"
   id="svg15"
   sodipodi:docname="folder-openSUSE.svg"
   inkscape:version="1.0.2 (e86c870879, 2021-01-15)">
  <sodipodi:namedview
     pagecolor="#ffffff"
     bordercolor="#666666"
     borderopacity="1"
     objecttolerance="10"
     gridtolerance="10"
     guidetolerance="10"
     inkscape:pageopacity="0"
     inkscape:pageshadow="2"
     inkscape:window-width="1920"
     inkscape:window-height="1007"
     id="namedview17"
     showgrid="true"
     inkscape:zoom="9.8125"
     inkscape:cx="20.66658"
     inkscape:cy="36.831525"
     inkscape:window-x="0"
     inkscape:window-y="0"
     inkscape:window-maximized="1"
     inkscape:current-layer="layer1"
     inkscape:document-rotation="0">
    <inkscape:grid
       type="xygrid"
       id="grid919" />
  </sodipodi:namedview>
  <defs
     id="defs5455">
    <linearGradient
       inkscape:collect="always"
       id="linearGradient844">
      <stop
         style="stop-color:#434c5e;stop-opacity:1"
         offset="0"
         id="stop840" />
      <stop
         style="stop-color:#a2adbc;stop-opacity:1"
         offset="1"
         id="stop842" />
    </linearGradient>
    <linearGradient
       inkscape:collect="always"
       xlink:href="#linearGradient847"
       id="linearGradient859"
       x1="230.78009"
       y1="265.05457"
       x2="512"
       y2="256.82327"
       gradientUnits="userSpaceOnUse"
       gradientTransform="matrix(0.12132762,0,0,0.12349046,385.57143,484.06629)" />
    <linearGradient
       inkscape:collect="always"
       id="linearGradient847">
      <stop
         style="stop-color:#8fbcbb;stop-opacity:1"
         offset="0"
         id="stop843" />
      <stop
         style="stop-color:#88c0d0;stop-opacity:1"
         offset="1"
         id="stop845" />
    </linearGradient>
    <linearGradient
       inkscape:collect="always"
       xlink:href="#linearGradient844"
       id="linearGradient846"
       x1="424.10419"
       y1="503.78211"
       x2="443.6132"
       y2="503.78211"
       gradientUnits="userSpaceOnUse" />
  </defs>
  <metadata
     id="metadata5458">
    <rdf:RDF>
      <cc:Work
         rdf:about="">
        <dc:format>image/svg+xml</dc:format>
        <dc:type
           rdf:resource="http://purl.org/dc/dcmitype/StillImage" />
      </cc:Work>
    </rdf:RDF>
  </metadata>
  <g
     inkscape:label="Capa 1"
     inkscape:groupmode="layer"
     id="layer1"
     transform="translate(-384.57143,-483.798)">
    <path
       style="fill:#81a1c1;fill-opacity:1;stroke-width:0.122405"
       d="m 418.27991,496.76498 c 1.00234,1.00832 2.35492,1.57376 3.76434,1.57376 h 2.08431 5.41297 c -1.40942,0 -2.76196,-0.56544 -3.76434,-1.57376 l -3.37309,-3.39306 c -1.00265,-1.00849 -2.35506,-1.57392 -3.76429,-1.57392 h -7.49732 c 1.40923,0 2.76181,0.56543 3.76434,1.57392 z"
       id="path2" />
    <path
       style="fill:#5e81ac;fill-opacity:1;stroke-width:0.122405"
       d="m 407.40937,493.37192 3.37327,3.39306 c 1.00233,1.00832 2.35487,1.57376 3.76429,1.57376 h 2.08436 5.41296 c -1.40942,0 -2.762,-0.56544 -3.76434,-1.57376 l -3.37308,-3.39306 c -1.00265,-1.00849 -2.35511,-1.57392 -3.76434,-1.57392 h -7.36358 -0.13375 c 1.40942,0 2.76182,0.56556 3.76421,1.57392 z"
       id="path4" />
    <path
       style="fill:url(#linearGradient859);fill-opacity:1;stroke-width:0.114828"
       d="m 444.47801,497.55407 h -12.85238 -2.08437 -5.41295 -2.08431 -5.41271 -2.08436 c -1.40942,0 -2.76196,-0.4976 -3.76429,-1.38504 l -3.37327,-2.98601 c -1.00251,-0.88742 -2.35492,-1.38502 -3.76432,-1.38502 h -7.36334 -7.49714 c -1.7745,0 -3.21314,1.28851 -3.21314,2.87804 v 5.75606 0.95938 35.49546 c 0,1.58953 1.43864,2.87804 3.21314,2.87804 h 55.69344 c 1.7745,0 3.21314,-1.28851 3.21314,-2.87804 V 500.4321 c 0,-1.58964 -1.43864,-2.87803 -3.21314,-2.87803 z m -22.54229,5.85455 0.008,-0.005 -0.007,-0.0104 v 0 l 0.007,0.0104 v 0 l -0.008,0.005 0.002,-0.015 z m 21.47142,0.86078 c 0,1.05956 -0.959,1.91865 -2.14214,1.91865 h -14.99442 c -1.18314,0 -2.14215,-0.85909 -2.14215,-1.91865 v -0.95937 c 0,-1.05956 0.95901,-1.91865 2.14215,-1.91865 h 14.99429 c 1.18315,0 2.14214,0.85909 2.14214,1.91865 v 0.95937 z"
       id="path6"
       sodipodi:nodetypes="scccccsccscssccssssssccccccccccssssssscc" />
    <path
       style="fill:url(#linearGradient846);fill-opacity:1;stroke-width:0.122405"
       d="m 441.26487,501.05685 h -14.99429 c -1.18314,0 -2.16639,0.97609 -2.16639,2.18013 v 1.09026 c 0,1.20403 0.98325,2.18014 2.16639,2.18014 h 14.99429 c 1.18315,0 2.29726,-0.97643 2.32413,-2.18014 l 0.0242,-1.09026 c 1.2e-4,-1.20404 -1.16511,-2.18013 -2.34837,-2.18013 z"
       id="path8"
       sodipodi:nodetypes="ssssssscs" />
    <path
       style="color:#4d4d4d;font-size:20.4884px;font-family:TrebuchetMS-Bold;fill:#434c5e;fill-opacity:1;fill-rule:evenodd;stroke:none;stroke-width:0.143179;stroke-miterlimit:4"
       d="m 404.07143,512.298 c -5.52242,0 -10,4.47706 -10,10 0,5.52294 4.47758,10 10,10 5.52242,0 10,-4.47706 10,-10 0,-5.52294 -4.47758,-10 -10,-10 z m 0.0479,1.38489 c 4.75828,0 8.61879,3.85735 8.61879,8.61511 0,4.75826 -3.86103,8.61511 -8.61879,8.61511 -2.56927,0 -4.87475,-1.12606 -6.45303,-2.90976 0.64895,-0.50367 1.73468,-0.38079 3.07182,-0.22837 0.64079,0.0728 1.37127,0.15628 2.12523,0.1731 2.1064,0.0122 4.37282,-0.3722 5.77165,-0.98342 0.90433,-0.3966 1.48335,-0.65779 1.84529,-0.9871 0.13051,-0.10709 0.19904,-0.2859 0.26889,-0.47145 l 0.0479,-0.12524 c 0.0586,-0.14987 0.14276,-0.47238 0.18047,-0.64825 0.0168,-0.077 0.0252,-0.15976 -0.0295,-0.20258 l -0.19521,0.0368 c -0.61378,0.36806 -2.14724,1.06906 -3.5838,1.0976 -1.78014,0.0373 -5.36799,-1.79205 -5.74217,-1.98526 l -0.0368,-0.0442 c -0.0897,-0.21411 -0.62665,-1.48876 -0.74034,-1.75691 2.58254,1.70063 4.72368,2.64192 6.36466,2.78822 1.82448,0.16211 3.24767,-0.834 3.85634,-1.25967 0.11878,-0.0811 0.20956,-0.14461 0.24678,-0.15838 l 0.0405,-0.0663 c -0.10093,-0.6413 -1.05818,-3.74457 -1.77901,-4.48987 -0.19984,-0.20442 -0.35871,-0.40336 -0.6814,-0.593 -2.60904,-1.52067 -8.80386,-2.43651 -9.09392,-2.47883 l -0.0479,0.0147 -0.0184,0.0405 c 0,0 -0.0233,1.28636 -0.0258,1.4291 -0.21258,-0.0703 -0.87173,-0.28616 -1.81585,-0.54512 1.23187,-1.52424 3.11969,-2.87662 6.42358,-2.87662 z m 2.27625,4.55987 c 0.044,-6.7e-4 0.0883,-10e-4 0.1326,0 1.46153,0.0525 2.60981,1.28349 2.55985,2.74401 -0.026,0.70655 -0.32389,1.35937 -0.83978,1.84162 -0.51742,0.4848 -1.18993,0.73748 -1.90056,0.71455 -1.45898,-0.0545 -2.60725,-1.28554 -2.55984,-2.74401 0.025,-0.70758 0.3245,-1.36459 0.84345,-1.84531 0.48461,-0.4545 1.10485,-0.70098 1.76428,-0.71086 z m -0.07,0.78084 c -0.42566,0.0259 -0.82734,0.19872 -1.1418,0.49356 -0.35838,0.33645 -0.56983,0.79198 -0.58563,1.28544 -0.0337,1.01956 0.76414,1.87757 1.78268,1.91528 0.49499,0.0153 0.96454,-0.15811 1.32597,-0.49354 0.36041,-0.33798 0.57034,-0.79772 0.58563,-1.28914 0.0341,-1.02108 -0.76733,-1.87592 -1.78637,-1.9116 -0.0617,-0.002 -0.11967,-0.003 -0.18048,0 z m 0.48619,0.92448 c 0.45268,0 0.81768,0.246 0.81767,0.54881 0,0.30129 -0.36499,0.5488 -0.81767,0.5488 -0.45421,0 -0.82136,-0.24803 -0.82136,-0.5488 0,-0.30281 0.36715,-0.54881 0.82136,-0.54881 z"
       id="path2445"
       class="ColorScheme-Text"
       inkscape:connector-curvature="0" />
  </g>
</svg>
