<?xml version="1.0" encoding="UTF-8" standalone="no"?>
<svg
   xmlns:dc="http://purl.org/dc/elements/1.1/"
   xmlns:cc="http://creativecommons.org/ns#"
   xmlns:rdf="http://www.w3.org/1999/02/22-rdf-syntax-ns#"
   xmlns:svg="http://www.w3.org/2000/svg"
   xmlns="http://www.w3.org/2000/svg"
   xmlns:xlink="http://www.w3.org/1999/xlink"
   xmlns:sodipodi="http://sodipodi.sourceforge.net/DTD/sodipodi-0.dtd"
   xmlns:inkscape="http://www.inkscape.org/namespaces/inkscape"
   width="64"
   version="1.1"
   height="64"
   id="svg15"
   sodipodi:docname="folder-IOTA.svg"
   inkscape:version="1.0.2 (e86c870879, 2021-01-15)">
  <sodipodi:namedview
     pagecolor="#ffffff"
     bordercolor="#666666"
     borderopacity="1"
     objecttolerance="10"
     gridtolerance="10"
     guidetolerance="10"
     inkscape:pageopacity="0"
     inkscape:pageshadow="2"
     inkscape:window-width="1920"
     inkscape:window-height="1007"
     id="namedview17"
     showgrid="true"
     inkscape:zoom="9.8125"
     inkscape:cx="20.66658"
     inkscape:cy="36.831525"
     inkscape:window-x="0"
     inkscape:window-y="0"
     inkscape:window-maximized="1"
     inkscape:current-layer="layer1"
     inkscape:document-rotation="0"
     showguides="false">
    <inkscape:grid
       type="xygrid"
       id="grid919" />
  </sodipodi:namedview>
  <defs
     id="defs5455">
    <linearGradient
       inkscape:collect="always"
       id="linearGradient844">
      <stop
         style="stop-color:#434c5e;stop-opacity:1"
         offset="0"
         id="stop840" />
      <stop
         style="stop-color:#a2adbc;stop-opacity:1"
         offset="1"
         id="stop842" />
    </linearGradient>
    <linearGradient
       inkscape:collect="always"
       xlink:href="#linearGradient847"
       id="linearGradient859"
       x1="222.53795"
       y1="265.05457"
       x2="512"
       y2="256.82327"
       gradientUnits="userSpaceOnUse"
       gradientTransform="matrix(0.12132762,0,0,0.12349046,385.57143,484.06629)" />
    <linearGradient
       inkscape:collect="always"
       id="linearGradient847">
      <stop
         style="stop-color:#8fbcbb;stop-opacity:1"
         offset="0"
         id="stop843" />
      <stop
         style="stop-color:#88c0d0;stop-opacity:1"
         offset="1"
         id="stop845" />
    </linearGradient>
    <linearGradient
       inkscape:collect="always"
       xlink:href="#linearGradient844"
       id="linearGradient846"
       x1="424.10419"
       y1="503.78211"
       x2="443.6132"
       y2="503.78211"
       gradientUnits="userSpaceOnUse" />
  </defs>
  <metadata
     id="metadata5458">
    <rdf:RDF>
      <cc:Work
         rdf:about="">
        <dc:format>image/svg+xml</dc:format>
        <dc:type
           rdf:resource="http://purl.org/dc/dcmitype/StillImage" />
      </cc:Work>
    </rdf:RDF>
  </metadata>
  <g
     inkscape:label="Capa 1"
     inkscape:groupmode="layer"
     id="layer1"
     transform="translate(-384.57143,-483.798)">
    <path
       style="fill:#81a1c1;fill-opacity:1;stroke-width:0.122405"
       d="m 418.27991,496.76498 c 1.00234,1.00832 2.35492,1.57376 3.76434,1.57376 h 2.08431 5.41297 c -1.40942,0 -2.76196,-0.56544 -3.76434,-1.57376 l -3.37309,-3.39306 c -1.00265,-1.00849 -2.35506,-1.57392 -3.76429,-1.57392 h -7.49732 c 1.40923,0 2.76181,0.56543 3.76434,1.57392 z"
       id="path2" />
    <path
       style="fill:#5e81ac;fill-opacity:1;stroke-width:0.122405"
       d="m 407.40937,493.37192 3.37327,3.39306 c 1.00233,1.00832 2.35487,1.57376 3.76429,1.57376 h 2.08436 5.41296 c -1.40942,0 -2.762,-0.56544 -3.76434,-1.57376 l -3.37308,-3.39306 c -1.00265,-1.00849 -2.35511,-1.57392 -3.76434,-1.57392 h -7.36358 -0.13375 c 1.40942,0 2.76182,0.56556 3.76421,1.57392 z"
       id="path4" />
    <path
       style="fill:url(#linearGradient859);fill-opacity:1;stroke-width:0.114828"
       d="m 444.47801,497.55407 h -12.85238 -2.08437 -5.41295 -2.08431 -5.41271 -2.08436 c -1.40942,0 -2.76196,-0.4976 -3.76429,-1.38504 l -3.37327,-2.98601 c -1.00251,-0.88742 -2.35492,-1.38502 -3.76432,-1.38502 h -7.36334 -7.49714 c -1.7745,0 -3.21314,1.28851 -3.21314,2.87804 v 5.75606 0.95938 35.49546 c 0,1.58953 1.43864,2.87804 3.21314,2.87804 h 55.69344 c 1.7745,0 3.21314,-1.28851 3.21314,-2.87804 V 500.4321 c 0,-1.58964 -1.43864,-2.87803 -3.21314,-2.87803 z m -22.54229,5.85455 0.008,-0.005 -0.007,-0.0104 v 0 l 0.007,0.0104 v 0 l -0.008,0.005 0.002,-0.015 z m 21.47142,0.86078 c 0,1.05956 -0.959,1.91865 -2.14214,1.91865 h -14.99442 c -1.18314,0 -2.14215,-0.85909 -2.14215,-1.91865 v -0.95937 c 0,-1.05956 0.95901,-1.91865 2.14215,-1.91865 h 14.99429 c 1.18315,0 2.14214,0.85909 2.14214,1.91865 v 0.95937 z"
       id="path6"
       sodipodi:nodetypes="scccccsccscssccssssssccccccccccssssssscc" />
    <path
       style="fill:url(#linearGradient846);fill-opacity:1;stroke-width:0.122405"
       d="m 441.26487,501.05685 h -14.99429 c -1.18314,0 -2.16639,0.97609 -2.16639,2.18013 v 1.09026 c 0,1.20403 0.98325,2.18014 2.16639,2.18014 h 14.99429 c 1.18315,0 2.29726,-0.97643 2.32413,-2.18014 l 0.0242,-1.09026 c 1.2e-4,-1.20404 -1.16511,-2.18013 -2.34837,-2.18013 z"
       id="path8"
       sodipodi:nodetypes="ssssssscs" />
    <path
       style="isolation:isolate;fill:#434c5e;fill-opacity:1;stroke-width:1.2778"
       class="ColorScheme-Text"
       d="m 399.60225,532.29608 c 0.40125,-0.0196 0.76628,-0.25078 0.96626,-0.61519 0.15624,-0.28343 0.20002,-0.61911 0.11873,-0.93519 -0.0812,-0.31609 -0.2787,-0.58515 -0.55,-0.74972 -0.27124,-0.16327 -0.59374,-0.20768 -0.89625,-0.12278 -0.30125,0.0849 -0.56001,0.29127 -0.71631,0.5747 -0.15626,0.28343 -0.19871,0.61911 -0.11744,0.93519 0.08,0.31609 0.27874,0.58515 0.54999,0.74842 0.19498,0.11886 0.42001,0.17633 0.64502,0.16457 z m 7.59274,-1.92655 c 0.19748,0 0.38747,-0.0823 0.52748,-0.22857 0.14,-0.14629 0.21751,-0.34352 0.21751,-0.54989 0,-0.42971 -0.33379,-0.77715 -0.74499,-0.77715 -0.41,0 -0.74255,0.34874 -0.74255,0.77715 0,0.42842 0.33255,0.77716 0.74255,0.77846 z m -1.87385,-0.19853 c 0.1725,0 0.33879,-0.0718 0.46001,-0.19853 0.12249,-0.12801 0.19128,-0.30042 0.19002,-0.48066 0,-0.37486 -0.29123,-0.67789 -0.65003,-0.67789 -0.3575,0 -0.64751,0.30433 -0.64876,0.67789 0,0.37486 0.29005,0.67919 0.64876,0.67919 z m 4.05138,-0.0784 c 0.23251,0 0.45626,-0.0966 0.62002,-0.26776 0.16499,-0.17241 0.25752,-0.40621 0.25752,-0.64915 0,-0.24293 -0.0919,-0.47542 -0.25752,-0.64784 -0.16376,-0.1711 -0.38751,-0.26776 -0.62002,-0.26776 -0.23249,0 -0.455,0.0966 -0.62005,0.26776 -0.16496,0.17242 -0.25621,0.40491 -0.25621,0.64784 0,0.24294 0.0911,0.47674 0.25621,0.64915 0.16505,0.17111 0.38756,0.26776 0.62005,0.26776 z m -5.59395,-0.47544 c 0.31255,0 0.56504,-0.26383 0.56504,-0.58906 9.4e-4,-0.15674 -0.0588,-0.30694 -0.16503,-0.41796 -0.1062,-0.11102 -0.24999,-0.17372 -0.40001,-0.17241 -0.31123,0 -0.56372,0.26383 -0.56372,0.59037 9.2e-4,0.32523 0.25249,0.58776 0.56372,0.58906 z m -4.50133,-0.64 c 0.34257,-0.017 0.65501,-0.21552 0.82624,-0.52638 0.27881,-0.50546 0.11252,-1.14939 -0.36998,-1.44065 -0.4825,-0.29128 -1.09881,-0.11886 -1.37882,0.3853 -0.1337,0.24294 -0.17002,0.5303 -0.10117,0.80066 0.07,0.27038 0.23867,0.50155 0.47,0.64131 0.16875,0.10057 0.36002,0.1489 0.55377,0.13976 z m 3.32761,-0.11102 c 0.12999,0 0.255,-0.0536 0.34747,-0.1489 0.0911,-0.0953 0.14373,-0.22596 0.14373,-0.3618 0,-0.13584 -0.0508,-0.26645 -0.14373,-0.3618 -0.0919,-0.0967 -0.21625,-0.15021 -0.34747,-0.15021 -0.1288,0 -0.25377,0.0549 -0.34502,0.15021 -0.0919,0.0967 -0.14376,0.22596 -0.14252,0.3618 0,0.28212 0.21875,0.5107 0.48754,0.5107 z m -5.8939,-0.26776 c 0.34245,-0.017 0.65373,-0.21551 0.82624,-0.52638 0.27748,-0.50416 0.11247,-1.14808 -0.37001,-1.44066 -0.23128,-0.13976 -0.50756,-0.17763 -0.76625,-0.10579 -0.25879,0.0732 -0.47879,0.24946 -0.61252,0.49241 -0.27881,0.50417 -0.11253,1.14809 0.37,1.43937 0.16749,0.10186 0.35874,0.1502 0.55254,0.14105 z m 10.14524,-0.48458 c 0.41002,0 0.74377,-0.34873 0.74252,-0.77845 0,-0.42841 -0.3325,-0.77585 -0.74252,-0.77585 -0.41121,0 -0.74501,0.34744 -0.74501,0.77585 0,0.20767 0.0775,0.4049 0.2175,0.55119 0.14001,0.14628 0.33001,0.22726 0.52751,0.22726 z m -5.12135,-0.13844 c 0.10999,10e-4 0.21499,-0.0444 0.29246,-0.1254 0.0774,-0.081 0.12124,-0.19069 0.12124,-0.30563 0,-0.11494 -0.0439,-0.22465 -0.12124,-0.30564 -0.0775,-0.081 -0.18247,-0.1267 -0.29246,-0.1267 -0.10879,0 -0.21503,0.0458 -0.29254,0.1267 -0.0774,0.081 -0.11999,0.1907 -0.11999,0.30564 0,0.11494 0.0425,0.22465 0.11999,0.30563 0.0775,0.081 0.18375,0.12671 0.29254,0.1254 z m 3.24758,-0.0587 c 0.35749,-10e-4 0.64872,-0.30432 0.64872,-0.67918 -9.2e-4,-0.37486 -0.29123,-0.67788 -0.64872,-0.67788 -0.35879,0 -0.65005,0.30302 -0.65005,0.67788 -9.6e-4,0.18024 0.0681,0.35266 0.19001,0.48066 0.12125,0.12669 0.28753,0.19853 0.46004,0.19852 z m 4.04883,-0.0783 c 0.23252,0 0.45627,-0.0967 0.62127,-0.26907 0.16378,-0.1711 0.25626,-0.4049 0.25626,-0.64784 0,-0.24295 -0.0919,-0.47543 -0.25626,-0.64784 -0.165,-0.17241 -0.38875,-0.26907 -0.62127,-0.26907 -0.23252,0 -0.45499,0.0967 -0.61999,0.26907 -0.16375,0.17241 -0.25628,0.40489 -0.25628,0.64784 0,0.24294 0.0919,0.47674 0.25628,0.64784 0.165,0.17241 0.38747,0.26907 0.61999,0.26907 z m -5.59137,-0.47544 c 0.31124,-10e-4 0.56249,-0.26514 0.56372,-0.59037 0,-0.32523 -0.25248,-0.58907 -0.56372,-0.59038 -0.15001,0 -0.29382,0.0627 -0.40001,0.17372 -0.10627,0.10972 -0.16628,0.26123 -0.16628,0.41666 9.2e-4,0.32653 0.25375,0.59037 0.56629,0.59037 z m 7.97645,-0.435 c 0.55749,0 1.01003,-0.47282 1.01003,-1.05535 0,-0.58254 -0.45254,-1.05406 -1.01003,-1.05406 -0.55751,0 -1.0088,0.47152 -1.0088,1.05406 0,0.58253 0.45129,1.05535 1.0088,1.05535 z m -9.15028,-0.31609 c 0.27001,0 0.48881,-0.22857 0.48881,-0.51069 0,-0.28213 -0.2188,-0.51071 -0.48881,-0.51071 -0.26998,0 -0.48875,0.22858 -0.48875,0.51071 0,0.28212 0.21877,0.51069 0.48875,0.51069 z m -2.67136,-0.45583 c 0.29755,-0.0143 0.56879,-0.18679 0.7176,-0.45585 0.11624,-0.21159 0.1487,-0.46107 0.0881,-0.69616 -0.06,-0.23512 -0.20753,-0.43495 -0.4088,-0.55642 -0.42003,-0.25339 -0.9551,-0.10188 -1.19757,0.33567 -0.24127,0.43756 -0.0988,0.9979 0.32001,1.25129 0.14626,0.0875 0.31251,0.13061 0.48125,0.12147 z m -2.56627,-0.37748 c 0.2975,-0.0157 0.5675,-0.18678 0.7175,-0.45714 0.11625,-0.2103 0.14754,-0.46108 0.0881,-0.69488 -0.0599,-0.2351 -0.20621,-0.43624 -0.40869,-0.55771 -0.20134,-0.12147 -0.44134,-0.15413 -0.66505,-0.0915 -0.22499,0.0627 -0.41749,0.21682 -0.53377,0.4271 -0.24126,0.43887 -0.0975,0.9992 0.3225,1.25129 0.14496,0.0888 0.31252,0.13061 0.48001,0.12277 z m 8.85653,-0.17632 c 0.41121,0 0.745,-0.34744 0.745,-0.77716 0,-0.20637 -0.0774,-0.4036 -0.21752,-0.54988 -0.13999,-0.14629 -0.33,-0.22857 -0.52748,-0.22857 -0.19755,0 -0.38629,0.0822 -0.5263,0.22857 -0.13999,0.14628 -0.21874,0.34351 -0.21751,0.54988 0,0.42972 0.3338,0.77716 0.74381,0.77716 z m -1.87383,-0.19593 c 0.17248,0 0.33879,-0.0719 0.46,-0.19984 0.1225,-0.12669 0.19001,-0.30041 0.19001,-0.47935 0,-0.18024 -0.068,-0.35396 -0.19001,-0.48066 -0.12121,-0.128 -0.28752,-0.19983 -0.46,-0.19983 -0.35877,10e-4 -0.64879,0.30563 -0.64879,0.68049 0,0.37356 0.29002,0.67789 0.64879,0.67919 z m 4.05135,-0.0809 c 0.23252,0 0.45625,-0.0967 0.62,-0.26775 0.16506,-0.17242 0.25756,-0.40492 0.25756,-0.64785 0,-0.24294 -0.092,-0.47674 -0.25756,-0.64785 -0.16375,-0.17241 -0.38748,-0.26906 -0.62,-0.26906 -0.23249,0 -0.45498,0.0967 -0.62001,0.26906 -0.16377,0.17112 -0.25626,0.40491 -0.25626,0.64785 0,0.24294 0.0919,0.47543 0.25626,0.64785 0.16503,0.1711 0.38752,0.26776 0.62001,0.26776 z m -13.07407,-0.36572 c 0.29867,-0.0143 0.56999,-0.18678 0.71869,-0.45716 0.11626,-0.21028 0.14881,-0.46106 0.088,-0.69617 -0.0599,-0.23509 -0.20754,-0.43494 -0.40874,-0.55641 -0.42001,-0.25208 -0.95507,-0.10187 -1.19761,0.33568 -0.24122,0.43886 -0.0987,0.99789 0.31999,1.25128 0.14627,0.0875 0.31251,0.13061 0.48004,0.12278 z m 7.48018,-0.10842 c 0.14999,0 0.29375,-0.0614 0.39999,-0.17241 0.10626,-0.11102 0.16629,-0.26123 0.16629,-0.41796 -9.6e-4,-0.32523 -0.2538,-0.58907 -0.56628,-0.58907 -0.31126,0 -0.56251,0.26384 -0.56374,0.58907 0,0.32653 0.25248,0.59038 0.56374,0.59038 z m 7.97895,-0.43496 c 0.55752,0 1.0088,-0.47152 1.0088,-1.05406 0,-0.58253 -0.45128,-1.05535 -1.0088,-1.05535 -0.55746,0 -1.00879,0.47282 -1.00879,1.05535 0,0.58254 0.45133,1.05406 1.00879,1.05406 z m -10.11524,-0.57601 c 0.25247,-0.0118 0.48254,-0.15803 0.61,-0.38792 0.20496,-0.37225 0.0825,-0.84768 -0.27377,-1.06189 -0.35504,-0.21421 -0.81003,-0.0862 -1.01627,0.28474 -0.20502,0.37225 -0.0839,0.84768 0.27125,1.06189 0.12374,0.0744 0.26628,0.11102 0.40879,0.10318 z m -2.56637,-0.37747 c 0.25377,-0.0131 0.4825,-0.15935 0.60875,-0.38923 0.20504,-0.37094 0.084,-0.84637 -0.27121,-1.06188 -0.17131,-0.10319 -0.37505,-0.13062 -0.56504,-0.0771 -0.19125,0.0536 -0.35375,0.18416 -0.45252,0.3631 -0.20494,0.37095 -0.084,0.84638 0.27252,1.06189 0.12373,0.0744 0.26503,0.10972 0.4075,0.10319 z m 8.02523,-0.6178 c 0.0949,-0.001 0.18752,-0.03 0.27002,-0.0797 0.27002,-0.16327 0.36126,-0.52377 0.20624,-0.80588 -0.15623,-0.28213 -0.50248,-0.37748 -0.77125,-0.21552 -0.27,0.16327 -0.36252,0.52507 -0.20624,0.80589 0.10246,0.18678 0.295,0.30041 0.50123,0.29519 z m 7.10146,-0.10841 c 0.31253,0 0.61254,-0.13062 0.83383,-0.3618 0.22125,-0.23118 0.34499,-0.54466 0.34499,-0.87119 0,-0.6805 -0.52755,-1.23299 -1.17882,-1.23299 -0.31376,0 -0.61375,0.1293 -0.83503,0.36049 -0.22124,0.23119 -0.34626,0.54466 -0.34626,0.8725 0,0.32653 0.12502,0.64001 0.34626,0.8725 0.22128,0.23116 0.52127,0.36047 0.83503,0.36047 z m -17.16551,-0.0927 c 0.25249,-0.0131 0.48249,-0.15936 0.61003,-0.38923 0.20502,-0.37094 0.0825,-0.84638 -0.2738,-1.06189 -0.35624,-0.2142 -0.81001,-0.0862 -1.01627,0.28605 -0.20495,0.37094 -0.0839,0.84637 0.27134,1.06189 0.12373,0.0744 0.26624,0.10971 0.4087,0.10318 z m 5.62018,-0.54727 c 0.22003,-0.0118 0.42127,-0.13845 0.53127,-0.3396 0.0866,-0.15543 0.11001,-0.3409 0.0657,-0.51462 -0.0439,-0.17502 -0.15377,-0.32261 -0.30255,-0.41274 -0.15004,-0.0901 -0.32747,-0.11494 -0.49376,-0.0679 -0.16628,0.0457 -0.30873,0.16066 -0.395,0.3161 -0.0867,0.15673 -0.10999,0.34221 -0.0657,0.51591 0.0454,0.17372 0.15381,0.32262 0.30381,0.41275 0.10751,0.0653 0.23125,0.0966 0.35623,0.0901 z m 6.0677,-0.0653 c 0.0825,-0.002 0.16373,-0.0261 0.23371,-0.0692 0.11255,-0.0679 0.19502,-0.17894 0.2288,-0.30956 0.0319,-0.13191 0.0148,-0.27037 -0.0499,-0.38792 -0.0654,-0.11754 -0.17129,-0.20245 -0.29753,-0.23771 -0.12496,-0.0353 -0.25872,-0.017 -0.37121,0.0509 -0.23256,0.14235 -0.31257,0.45322 -0.17753,0.69746 0.0888,0.16198 0.25497,0.25994 0.43376,0.25602 z m -8.63527,-0.31477 c 0.22128,-0.0104 0.42129,-0.13715 0.5313,-0.33699 0.0881,-0.15543 0.10998,-0.3409 0.0669,-0.51592 -0.0439,-0.17372 -0.15377,-0.32262 -0.30253,-0.41274 -0.14881,-0.0901 -0.32626,-0.11363 -0.49373,-0.0679 -0.16626,0.0471 -0.30751,0.16066 -0.39378,0.31739 -0.17878,0.32393 -0.072,0.73928 0.23752,0.92606 0.10745,0.0653 0.23119,0.0967 0.35498,0.0901 z m 10.09655,-0.006 c 0.0688,-0.002 0.13622,-0.0222 0.19624,-0.0588 0.19755,-0.11886 0.26501,-0.3827 0.15127,-0.58907 -0.0548,-0.0993 -0.14504,-0.17241 -0.25128,-0.20114 -0.10623,-0.03 -0.2187,-0.0143 -0.31376,0.0431 -0.0949,0.0575 -0.16375,0.15151 -0.19248,0.26253 -0.029,0.11103 -0.012,0.22857 0.0425,0.32784 0.0747,0.13586 0.21628,0.21945 0.36761,0.21553 z m -3.4701,-0.40491 c 0.11,-0.002 0.21628,-0.0326 0.31124,-0.0901 0.14878,-0.0901 0.25756,-0.23902 0.30254,-0.41274 0.0453,-0.17372 0.0213,-0.35919 -0.0657,-0.51592 -0.0866,-0.15543 -0.22871,-0.26907 -0.395,-0.31478 -0.16627,-0.047 -0.34372,-0.0222 -0.4925,0.0679 -0.31126,0.18807 -0.41752,0.60211 -0.23878,0.92734 0.11877,0.21408 0.34,0.34469 0.57756,0.33816 z m -8.66402,-0.40754 c 0.22001,-0.0104 0.42001,-0.13715 0.53127,-0.33699 0.0866,-0.15674 0.11001,-0.34221 0.0654,-0.51592 -0.0454,-0.17372 -0.15371,-0.32262 -0.30251,-0.41273 -0.15001,-0.0901 -0.32749,-0.11364 -0.49373,-0.0679 -0.16626,0.047 -0.30883,0.16065 -0.39509,0.31738 -0.17867,0.32393 -0.072,0.73928 0.23762,0.92605 0.10866,0.0653 0.23243,0.0966 0.35747,0.0901 z m 5.75767,-0.0536 c 0.19252,-0.008 0.36624,-0.12147 0.46251,-0.29519 0.0732,-0.13584 0.0946,-0.29649 0.056,-0.44801 -0.04,-0.15151 -0.13495,-0.27951 -0.26374,-0.35788 -0.13002,-0.0783 -0.28371,-0.0993 -0.42874,-0.0587 -0.14499,0.0404 -0.26752,0.13976 -0.34252,0.2756 -0.0746,0.13584 -0.0946,0.2965 -0.056,0.44801 0.0386,0.15019 0.13378,0.27949 0.26379,0.35786 0.0933,0.0562 0.19999,0.0837 0.30873,0.0783 z m 4.88767,-0.13196 c 0.0949,-0.002 0.1875,-0.0301 0.27,-0.0783 0.27001,-0.16327 0.36251,-0.52507 0.20624,-0.80589 -0.15624,-0.28212 -0.50127,-0.37877 -0.77128,-0.21551 -0.26999,0.16326 -0.36249,0.52375 -0.20625,0.80588 0.10374,0.18547 0.29504,0.2978 0.50129,0.29388 z m 1.7263,-0.11625 c 0.0825,-0.002 0.16124,-0.0261 0.23251,-0.0693 0.11246,-0.0679 0.19498,-0.17895 0.22872,-0.30956 0.0333,-0.13191 0.0162,-0.27036 -0.0488,-0.38792 -0.0654,-0.11754 -0.1725,-0.20375 -0.29754,-0.23771 -0.12496,-0.0353 -0.25873,-0.017 -0.37123,0.0509 -0.11252,0.0679 -0.19371,0.18024 -0.22748,0.31085 -0.0333,0.13062 -0.0148,0.27038 0.0502,0.38793 0.089,0.16068 0.25501,0.25864 0.43383,0.25472 z m -9.18153,-0.12933 c 0.19251,-0.0104 0.36628,-0.12147 0.4625,-0.2965 0.15626,-0.28212 0.0639,-0.64261 -0.20623,-0.80588 -0.13002,-0.0772 -0.28379,-0.0993 -0.42877,-0.0575 -0.14374,0.0404 -0.2675,0.13976 -0.34252,0.2743 -0.15624,0.28212 -0.0639,0.64262 0.20627,0.80588 0.0933,0.0575 0.20121,0.0849 0.30875,0.0797 z m 4.62265,-0.80712 c 0.12501,-0.002 0.24623,-0.0393 0.35501,-0.10448 0.355,-0.2142 0.47626,-0.68964 0.27124,-1.06188 -0.205,-0.37094 -0.66002,-0.49894 -1.01625,-0.28474 -0.1713,0.10319 -0.29631,0.27298 -0.34754,0.47282 -0.0511,0.19984 -0.0254,0.41144 0.0745,0.59038 0.13626,0.24684 0.39002,0.39574 0.6625,0.38791 z m -3.48261,0 c 0.16753,-0.007 0.31753,-0.10323 0.40122,-0.2534 0.0657,-0.11755 0.0825,-0.2573 0.049,-0.38792 -0.0333,-0.13192 -0.11622,-0.24294 -0.22877,-0.31086 -0.23375,-0.13975 -0.53123,-0.0561 -0.66626,0.18808 -0.0654,0.11625 -0.0825,0.256 -0.0499,0.38662 0.0333,0.13194 0.11627,0.24297 0.22755,0.31089 0.0813,0.0482 0.17497,0.0718 0.26751,0.0666 z m -3.17883,-0.0131 c 0.19252,-0.008 0.36751,-0.12016 0.46377,-0.29519 0.0734,-0.13453 0.0933,-0.29649 0.055,-0.4467 -0.0386,-0.15151 -0.13374,-0.28082 -0.26243,-0.35919 -0.13002,-0.0771 -0.28503,-0.0993 -0.42877,-0.0587 -0.14506,0.0418 -0.2688,0.14106 -0.34253,0.2756 -0.0746,0.13583 -0.0949,0.29649 -0.056,0.448 0.0386,0.15151 0.13368,0.28082 0.26248,0.35788 0.0933,0.0562 0.20002,0.0837 0.30877,0.0783 z m 11.19281,-0.36974 c 0.0933,-0.002 0.18625,-0.0301 0.26875,-0.0798 0.13,-0.077 0.22373,-0.20637 0.26375,-0.35788 0.0386,-0.1502 0.0188,-0.31216 -0.056,-0.448 -0.15626,-0.28082 -0.50126,-0.37748 -0.77125,-0.21552 -0.13002,0.0783 -0.22504,0.20769 -0.26376,0.35919 -0.0386,0.15021 -0.0188,0.31217 0.056,0.44801 0.10375,0.18547 0.29626,0.2991 0.50252,0.29388 z m -2.08129,-0.10448 c 0.1087,-0.002 0.21497,-0.0326 0.30872,-0.0901 0.15002,-0.0901 0.25876,-0.23773 0.30378,-0.41143 0.0439,-0.17504 0.0213,-0.36051 -0.0654,-0.51593 -0.0867,-0.15674 -0.22874,-0.27038 -0.39499,-0.31739 -0.16753,-0.0458 -0.34501,-0.0222 -0.49377,0.0679 -0.15003,0.0901 -0.25875,0.23903 -0.30379,0.41273 -0.044,0.17373 -0.02,0.35919 0.0657,0.51594 0.12002,0.21548 0.34246,0.3448 0.58003,0.33825 z m -7.97029,-0.33046 c 0.16631,-0.008 0.31631,-0.10448 0.40002,-0.25469 0.0655,-0.11755 0.0825,-0.25731 0.0491,-0.38793 -0.0333,-0.13061 -0.11506,-0.24294 -0.22751,-0.31085 -0.11249,-0.0679 -0.24625,-0.0862 -0.37127,-0.0509 -0.12499,0.0353 -0.23254,0.12147 -0.29748,0.23903 -0.0657,0.11756 -0.0825,0.256 -0.0493,0.38793 0.0333,0.13061 0.11507,0.24163 0.22757,0.30955 0.0812,0.0497 0.17498,0.0718 0.2687,0.0679 z m 1.10384,-0.46238 c 0.14,-0.006 0.26749,-0.0876 0.3387,-0.21421 0.11379,-0.20637 0.0453,-0.47021 -0.15248,-0.58906 -0.0949,-0.0587 -0.20751,-0.0743 -0.31375,-0.0443 -0.10627,0.0301 -0.19629,0.10188 -0.25125,0.20115 -0.0548,0.0993 -0.0702,0.21681 -0.0414,0.32784 0.0291,0.11102 0.0975,0.20505 0.1925,0.26253 0.0703,0.0418 0.14876,0.0614 0.22752,0.0562 z m 2.98633,-0.34221 c 0.14625,-0.003 0.29001,-0.047 0.41747,-0.12408 0.41879,-0.25339 0.56378,-0.81241 0.32128,-1.25128 -0.11625,-0.21029 -0.30752,-0.36441 -0.5325,-0.4271 -0.22506,-0.064 -0.46376,-0.0301 -0.66624,0.0915 -0.20131,0.12146 -0.34752,0.32132 -0.40753,0.55641 -0.0599,0.23512 -0.0296,0.48589 0.0881,0.69618 0.15998,0.28996 0.45868,0.46499 0.77998,0.45845 z m 5.5764,-0.30042 c 0.11001,-0.002 0.21626,-0.0326 0.31122,-0.0901 0.14878,-0.0901 0.25878,-0.2377 0.30254,-0.41273 0.0454,-0.17372 0.0213,-0.35918 -0.0652,-0.51461 -0.0866,-0.15674 -0.22754,-0.27037 -0.39506,-0.3174 -0.16625,-0.0471 -0.34374,-0.0222 -0.49254,0.0679 -0.15,0.0901 -0.25872,0.23903 -0.30372,0.41275 -0.0454,0.17372 -0.0213,0.35919 0.0657,0.51593 0.11878,0.2142 0.34003,0.34481 0.57753,0.33828 z m -2.55008,-0.21028 c 0.12499,-0.002 0.24751,-0.0393 0.35499,-0.10322 0.17126,-0.10448 0.29628,-0.27429 0.34627,-0.47281 0.0509,-0.19986 0.0254,-0.41275 -0.0745,-0.59169 -0.20497,-0.37095 -0.66,-0.49763 -1.01627,-0.28343 -0.35498,0.21552 -0.47755,0.69095 -0.27252,1.06188 0.13626,0.24689 0.39002,0.39578 0.66254,0.38925 z m -5.08395,-0.98483 c 0.16883,-0.004 0.3338,-0.0536 0.48007,-0.14106 0.23252,-0.13976 0.40126,-0.37094 0.47125,-0.64131 0.0701,-0.27037 0.0333,-0.55772 -0.1012,-0.80067 -0.13379,-0.24293 -0.35378,-0.41926 -0.61248,-0.4911 -0.25876,-0.0732 -0.53501,-0.0353 -0.76629,0.1058 -0.48251,0.29126 -0.64754,0.9352 -0.36874,1.43936 0.1837,0.33438 0.52874,0.53684 0.89745,0.52899 z m 6.78276,-0.44929 c 0.12501,-0.003 0.24622,-0.0393 0.355,-0.10581 0.35501,-0.21421 0.47626,-0.68964 0.27127,-1.06189 -0.20501,-0.37094 -0.66005,-0.49895 -1.01629,-0.28474 -0.35629,0.21421 -0.47753,0.68963 -0.27251,1.06188 0.135,0.24684 0.39002,0.39705 0.66253,0.39052 z m -3.12886,-0.1894 c 0.1475,-0.003 0.29128,-0.0458 0.41878,-0.12278 0.41875,-0.25207 0.56253,-0.81242 0.32123,-1.25127 -0.11622,-0.2103 -0.3087,-0.36441 -0.5325,-0.42711 -0.22501,-0.0626 -0.46504,-0.0301 -0.66626,0.0915 -0.20127,0.12147 -0.34877,0.32262 -0.40878,0.55772 -0.0599,0.2338 -0.0291,0.48458 0.0887,0.69485 0.16,0.28995 0.4588,0.46498 0.77881,0.45714 z m -6.41141,-0.4676 c 0.19625,-0.004 0.38999,-0.0626 0.56,-0.16586 0.56377,-0.3396 0.75751,-1.09324 0.43249,-1.68232 -0.32621,-0.58906 -1.04754,-0.79151 -1.61124,-0.45062 -0.56378,0.3396 -0.7563,1.09325 -0.43132,1.68232 0.21502,0.39049 0.61756,0.62691 1.05007,0.61647 z m 8.11023,-0.96785 c 0.14623,-0.003 0.28999,-0.0458 0.41749,-0.12278 0.42002,-0.25208 0.56381,-0.81241 0.32125,-1.25127 -0.11624,-0.2103 -0.30748,-0.36442 -0.5325,-0.42711 -0.22501,-0.0626 -0.46377,-0.0301 -0.66624,0.0915 -0.20128,0.12147 -0.34752,0.32131 -0.40752,0.55641 -0.0599,0.23511 -0.0295,0.48589 0.0881,0.69617 0.16124,0.28994 0.45999,0.46496 0.77999,0.45712 z m -3.75639,-0.0601 c 0.16877,-0.003 0.335,-0.0537 0.48004,-0.14106 0.48376,-0.29126 0.64873,-0.9352 0.37127,-1.44066 -0.13375,-0.24164 -0.355,-0.41928 -0.61379,-0.49242 -0.25877,-0.0718 -0.53374,-0.034 -0.76623,0.10581 -0.2325,0.13975 -0.40135,0.37093 -0.47001,0.64131 -0.0699,0.27037 -0.0319,0.55772 0.10127,0.80066 0.18501,0.33309 0.52878,0.53553 0.8975,0.5264 z"
       id="start-here-kde-9-7" />
  </g>
</svg>
