<?xml version="1.0" encoding="UTF-8" standalone="no"?>
<svg
   xmlns:dc="http://purl.org/dc/elements/1.1/"
   xmlns:cc="http://creativecommons.org/ns#"
   xmlns:rdf="http://www.w3.org/1999/02/22-rdf-syntax-ns#"
   xmlns:svg="http://www.w3.org/2000/svg"
   xmlns="http://www.w3.org/2000/svg"
   xmlns:xlink="http://www.w3.org/1999/xlink"
   xmlns:sodipodi="http://sodipodi.sourceforge.net/DTD/sodipodi-0.dtd"
   xmlns:inkscape="http://www.inkscape.org/namespaces/inkscape"
   width="64"
   version="1.1"
   height="64"
   id="svg40"
   sodipodi:docname="desktop.svg"
   inkscape:version="1.0.2 (e86c870879, 2021-01-15)">
  <metadata
     id="metadata44">
    <rdf:RDF>
      <cc:Work
         rdf:about="">
        <dc:format>image/svg+xml</dc:format>
        <dc:type
           rdf:resource="http://purl.org/dc/dcmitype/StillImage" />
      </cc:Work>
    </rdf:RDF>
  </metadata>
  <sodipodi:namedview
     pagecolor="#ffffff"
     bordercolor="#666666"
     borderopacity="1"
     objecttolerance="10"
     gridtolerance="10"
     guidetolerance="10"
     inkscape:pageopacity="0"
     inkscape:pageshadow="2"
     inkscape:window-width="1920"
     inkscape:window-height="1007"
     id="namedview42"
     showgrid="false"
     inkscape:zoom="4.9062502"
     inkscape:cx="21.783003"
     inkscape:cy="53.030908"
     inkscape:window-x="0"
     inkscape:window-y="0"
     inkscape:window-maximized="1"
     inkscape:current-layer="layer1"
     inkscape:document-rotation="0"
     showguides="false"
     inkscape:lockguides="false">
    <inkscape:grid
       type="xygrid"
       id="grid975" />
  </sodipodi:namedview>
  <defs
     id="defs5455">
    <linearGradient
       inkscape:collect="always"
       id="linearGradient853">
      <stop
         style="stop-color:#97c1c0;stop-opacity:1"
         offset="0"
         id="stop848" />
      <stop
         style="stop-color:#5ca8be;stop-opacity:1"
         offset="1"
         id="stop851" />
    </linearGradient>
    <linearGradient
       inkscape:collect="always"
       id="linearGradient854">
      <stop
         style="stop-color:#6aa6a4;stop-opacity:1"
         offset="0"
         id="stop850" />
      <stop
         style="stop-color:#8fbcbb;stop-opacity:1"
         offset="1"
         id="stop852" />
    </linearGradient>
    <linearGradient
       inkscape:collect="always"
       xlink:href="#linearGradient853"
       id="linearGradient851"
       x1="408.41327"
       y1="508.64099"
       x2="438.09518"
       y2="508.62741"
       gradientUnits="userSpaceOnUse" />
    <linearGradient
       inkscape:collect="always"
       xlink:href="#linearGradient854"
       id="linearGradient859"
       x1="414.47693"
       y1="512.65802"
       x2="448.53244"
       y2="512.23773"
       gradientUnits="userSpaceOnUse" />
    <linearGradient
       inkscape:collect="always"
       xlink:href="#linearGradient853"
       id="linearGradient867"
       x1="384.57144"
       y1="536.78772"
       x2="448.53244"
       y2="536.78772"
       gradientUnits="userSpaceOnUse"
       gradientTransform="matrix(1,0,0,1.1159361,0,-62.651635)" />
  </defs>
  <g
     inkscape:label="Capa 1"
     inkscape:groupmode="layer"
     id="layer1"
     transform="translate(-384.57143,-483.798)">
    <path
       id="path4"
       d="m 448.53243,532.34032 v 1.61145 c 0,3.56017 -2.60329,6.44623 -5.81465,6.44623 h -52.33166 c -3.21138,0 -5.81469,-2.88606 -5.81469,-6.44623 v -1.61145 z"
       style="fill:url(#linearGradient867);fill-opacity:1;fill-rule:nonzero;stroke-width:1.53061" />
    <path
       id="path6"
       d="m 448.53243,497.07452 v 36.10292 h -63.961 v -36.10292 c 0,-3.1903 2.60331,-5.77652 5.81469,-5.77652 h 52.33166 c 3.21136,0 5.81465,2.58622 5.81465,5.77652 z"
       style="fill:url(#linearGradient859);fill-opacity:1;fill-rule:nonzero;stroke-width:1.44892" />
    <path
       id="path27"
       d="m 438.09517,491.298 c -0.24712,8.7947 -2.84923,34.6588 -53.52374,34.6588 v -28.88228 c 0,-3.1903 2.60331,-5.77652 5.81469,-5.77652 z"
       style="fill:url(#linearGradient851);fill-opacity:1;fill-rule:nonzero;stroke-width:1.44892" />
    <path
       id="path29"
       d="m 390.38612,504.29507 c -0.58796,-1.3e-4 -1.11783,-0.352 -1.34279,-0.89148 -0.22492,-0.53962 -0.10057,-1.1606 0.31494,-1.57364 l 5.81469,-5.77652 c 0.57042,-0.54723 1.47699,-0.53942 2.03777,0.0176 0.56073,0.55698 0.56861,1.45772 0.0178,2.02439 l -5.81456,5.77651 c -0.27259,0.27086 -0.64225,0.42306 -1.02775,0.42315 z"
       style="fill:#5e81ac;fill-opacity:1;fill-rule:nonzero;stroke-width:1.44892" />
    <path
       id="path31"
       d="m 390.38612,512.95972 c -0.58796,-7e-5 -1.11783,-0.35194 -1.34279,-0.89145 -0.22492,-0.53957 -0.10057,-1.16063 0.31494,-1.57361 l 14.53664,-14.44123 c 0.57042,-0.54723 1.47701,-0.53942 2.03777,0.0176 0.56077,0.55698 0.56862,1.45772 0.0178,2.02439 l -14.53657,14.44109 c -0.27259,0.27085 -0.64223,0.42305 -1.02774,0.42311 z"
       style="fill:#81a1c1;fill-opacity:1;fill-rule:nonzero;stroke-width:1.44892" />
  </g>
</svg>
