<?xml version="1.0" encoding="UTF-8" standalone="no"?>
<svg
   xmlns:dc="http://purl.org/dc/elements/1.1/"
   xmlns:cc="http://creativecommons.org/ns#"
   xmlns:rdf="http://www.w3.org/1999/02/22-rdf-syntax-ns#"
   xmlns:svg="http://www.w3.org/2000/svg"
   xmlns="http://www.w3.org/2000/svg"
   xmlns:sodipodi="http://sodipodi.sourceforge.net/DTD/sodipodi-0.dtd"
   xmlns:inkscape="http://www.inkscape.org/namespaces/inkscape"
   viewBox="0 0 22 22"
   version="1.1"
   id="svg6"
   sodipodi:docname="folder-IOTA.svg"
   inkscape:version="1.0.2 (e86c870879, 2021-01-15)">
  <metadata
     id="metadata10">
    <rdf:RDF>
      <cc:Work
         rdf:about="">
        <dc:format>image/svg+xml</dc:format>
        <dc:type
           rdf:resource="http://purl.org/dc/dcmitype/StillImage" />
      </cc:Work>
    </rdf:RDF>
  </metadata>
  <sodipodi:namedview
     pagecolor="#ffffff"
     bordercolor="#666666"
     borderopacity="1"
     objecttolerance="10"
     gridtolerance="10"
     guidetolerance="10"
     inkscape:pageopacity="0"
     inkscape:pageshadow="2"
     inkscape:window-width="1920"
     inkscape:window-height="1007"
     id="namedview8"
     showgrid="true"
     inkscape:zoom="28.545455"
     inkscape:cx="11"
     inkscape:cy="11"
     inkscape:window-x="0"
     inkscape:window-y="0"
     inkscape:window-maximized="1"
     inkscape:current-layer="svg6"
     inkscape:document-rotation="0">
    <inkscape:grid
       type="xygrid"
       id="grid855" />
  </sodipodi:namedview>
  <defs
     id="defs3051">
    <style
       type="text/css"
       id="current-color-scheme">
      .ColorScheme-Text {
        color:#eff0f1
      }
      </style>
  </defs>
  <path
     style="isolation:isolate;fill:#eff0f1;fill-opacity:1;stroke-width:1.046"
     class="ColorScheme-Text"
     d="M 7.2337823,19.003145 C 7.5699457,18.987145 7.8757157,18.80247 8.043185,18.510954 8.1746409,18.284206 8.2106594,18.015817 8.1434957,17.762958 8.0745657,17.510037 7.9099763,17.29482 7.6827678,17.163097 7.4555421,17.031912 7.1854338,16.99701 6.9320669,17.064217 c -0.2523766,0.06834 -0.4690776,0.232949 -0.5999996,0.459769 -0.131461,0.226664 -0.166474,0.495215 -0.0992,0.748049 0.06799,0.252809 0.233486,0.468195 0.460721,0.598658 0.1633285,0.0945 0.3517822,0.140786 0.5402998,0.132309 z M 13.59371,17.461918 c 0.165447,0 0.324575,-0.06691 0.441869,-0.182834 0.117745,-0.117401 0.18218,-0.274799 0.18218,-0.439872 0,-0.343771 -0.279606,-0.621686 -0.624049,-0.621686 -0.343451,0 -0.622,0.27897 -0.622,0.621686 0,0.342654 0.278549,0.621682 0.622,0.622706 z M 12.024127,17.30307 c 0.144621,0 0.283796,-0.05656 0.385332,-0.158704 0.103189,-0.103376 0.160216,-0.240421 0.159176,-0.384511 0,-0.299976 -0.243946,-0.542351 -0.54446,-0.542351 -0.299475,0 -0.542366,0.243482 -0.543389,0.542351 0,0.299778 0.24289,0.543239 0.543389,0.543239 z m 3.393577,-0.06136 c 0.194818,0 0.382245,-0.07634 0.519344,-0.214181 0.13774,-0.137456 0.215647,-0.324965 0.215647,-0.519274 0,-0.194431 -0.07663,-0.380357 -0.215647,-0.518321 -0.13662,-0.136603 -0.324526,-0.21416 -0.519344,-0.21416 -0.194787,0 -0.38111,0.07633 -0.519393,0.214156 -0.137581,0.137449 -0.214639,0.32389 -0.214639,0.518321 0,0.194309 0.07552,0.381324 0.214639,0.519274 0.13774,0.136258 0.324606,0.214181 0.519393,0.214181 z m -4.685588,-0.380411 c 0.261704,0 0.473224,-0.211068 0.473224,-0.471173 8.15e-4,-0.124918 -0.05056,-0.245596 -0.13774,-0.334348 -0.08799,-0.08823 -0.209376,-0.138585 -0.334941,-0.137312 -0.260792,0 -0.472264,0.211068 -0.472264,0.47228 7.84e-4,0.260091 0.211472,0.470164 0.472264,0.471148 z M 6.9615395,16.349297 c 0.2869366,-0.016 0.548717,-0.172323 0.6921188,-0.42107 0.233474,-0.404297 0.093266,-0.919439 -0.3099082,-1.152448 -0.4041723,-0.232999 -0.9203858,-0.09451 -1.1549518,0.308275 -0.111994,0.194342 -0.142238,0.424213 -0.08524,0.640493 0.0576,0.21631 0.200039,0.401238 0.393701,0.513019 0.140924,0.081 0.301519,0.119871 0.4638622,0.11169 z m 2.7873185,-0.08856 c 0.1079819,0 0.2135835,-0.04189 0.29106,-0.119509 0.07583,-0.07541 0.120301,-0.180752 0.120301,-0.289376 0,-0.107639 -0.04208,-0.213213 -0.120301,-0.289394 -0.076794,-0.07646 -0.1811403,-0.120129 -0.29106,-0.120129 -0.1073455,0 -0.2125274,0.04331 -0.2889635,0.120129 -0.076633,0.07633 -0.1199815,0.180751 -0.1199815,0.289394 0,0.225715 0.1832357,0.40853 0.4083055,0.40853 z M 4.8119323,16.04648 c 0.286946,-0.016 0.547696,-0.172397 0.692121,-0.421057 0.232391,-0.403335 0.09302,-0.918487 -0.310014,-1.152435 -0.193754,-0.11166 -0.424997,-0.141901 -0.64186,-0.08527 -0.2166,0.05727 -0.40092,0.199526 -0.512963,0.393913 -0.233499,0.403234 -0.09303,0.918404 0.30984,1.151385 0.139991,0.08274 0.300536,0.119724 0.462876,0.113306 z m 8.4980457,-0.387605 c 0.343387,0 0.622961,-0.278985 0.621921,-0.62276 0,-0.342714 -0.278534,-0.620587 -0.621921,-0.620587 -0.344524,0 -0.624033,0.277873 -0.624033,0.620587 0,0.166154 0.06608,0.323906 0.18218,0.440948 0.117744,0.117424 0.276342,0.181812 0.441853,0.181812 z M 9.0200593,15.548583 c 0.091811,7.41e-4 0.1800984,-0.03633 0.2450495,-0.1008 0.065919,-0.0656 0.1027078,-0.152133 0.1027078,-0.244468 0,-0.09131 -0.03712,-0.179672 -0.1027078,-0.244426 -0.066077,-0.0656 -0.1526183,-0.102398 -0.2450495,-0.102398 -0.090374,0 -0.1800894,0.03708 -0.2449563,0.102398 -0.065889,0.0656 -0.1012351,0.152295 -0.1012351,0.244426 0,0.09149 0.03665,0.179734 0.1012351,0.244468 0.066043,0.0656 0.1537343,0.1024 0.2449563,0.1008 z m 2.7203027,-0.04593 c 0.299442,-9.16e-4 0.543469,-0.243449 0.543469,-0.543406 -8.16e-4,-0.299808 -0.244027,-0.542289 -0.543469,-0.542289 -0.300498,0 -0.544413,0.242481 -0.544413,0.542289 -8.48e-4,0.144305 0.05584,0.28215 0.159016,0.38457 0.102707,0.102286 0.240859,0.158846 0.385317,0.158846 z m 3.391465,-0.06139 c 0.194786,0 0.382182,-0.07633 0.520417,-0.215269 0.136941,-0.136274 0.214719,-0.323909 0.214719,-0.518224 0,-0.194316 -0.07663,-0.380334 -0.214719,-0.518235 -0.13774,-0.137579 -0.325631,-0.215265 -0.520417,-0.215265 -0.194706,0 -0.38111,0.07646 -0.519265,0.215265 -0.136619,0.137257 -0.214719,0.323919 -0.214719,0.518235 0,0.194315 0.07631,0.381338 0.214719,0.518224 0.137582,0.137439 0.324559,0.215269 0.519265,0.215269 z m -4.683508,-0.380435 c 0.260697,-7.2e-4 0.471176,-0.212014 0.472248,-0.472199 0,-0.260229 -0.211551,-0.471257 -0.472248,-0.472278 -0.1251,0 -0.246042,0.0512 -0.335101,0.13854 -0.08863,0.088 -0.1390195,0.208973 -0.1390195,0.333359 8.96e-4,0.261143 0.2125915,0.472183 0.4743595,0.472183 z m 6.681394,-0.347934 c 0.467001,0 0.846031,-0.378291 0.846031,-0.844221 0,-0.466006 -0.37903,-0.843215 -0.846031,-0.843215 -0.467016,0 -0.844974,0.377209 -0.844974,0.843215 0,0.46593 0.377958,0.844221 0.844974,0.844221 z m -7.6646513,-0.25287 c 0.2261893,0 0.4094573,-0.182905 0.4094573,-0.408576 0,-0.225681 -0.183268,-0.408465 -0.4094573,-0.408465 -0.2260615,0 -0.4093934,0.182784 -0.4093934,0.408465 0,0.225671 0.1833319,0.408576 0.4093934,0.408576 z M 7.2275291,14.095391 c 0.2492086,-0.016 0.4763958,-0.149898 0.6009976,-0.364633 0.098207,-0.169271 0.1241666,-0.368889 0.072772,-0.556941 C 7.8502327,12.98569 7.727502,12.82581 7.5588935,12.728702 7.2070522,12.526031 6.7589303,12.645962 6.5557633,12.997206 c -0.201969,0.350039 -0.08396,0.798232 0.2680184,1.001002 0.1218419,0.07114 0.2617733,0.104112 0.4031089,0.09787 z m -2.1495538,-0.30197 c 0.249079,-0.016 0.475337,-0.149903 0.600894,-0.365735 0.09816,-0.168229 0.123069,-0.368779 0.073,-0.555818 -0.0513,-0.188105 -0.172746,-0.348945 -0.342386,-0.446175 -0.168566,-0.09791 -0.369592,-0.122704 -0.557053,-0.07231 -0.188508,0.0512 -0.349828,0.173478 -0.447138,0.341659 -0.202111,0.351035 -0.0831,0.79933 0.270092,1.001017 0.120988,0.07166 0.26183,0.104304 0.402117,0.09886 z m 7.4183827,-0.140624 c 0.344556,0 0.624017,-0.277951 0.624017,-0.621773 0,-0.165019 -0.06592,-0.322832 -0.182148,-0.439854 -0.117744,-0.117422 -0.27639,-0.18282 -0.441869,-0.18282 -0.165367,0 -0.323551,0.06688 -0.440796,0.18282 -0.117743,0.11742 -0.183252,0.274835 -0.182197,0.439854 0,0.343822 0.279606,0.621773 0.622993,0.621773 z m -1.569536,-0.156611 c 0.144622,0 0.283781,-0.05698 0.385286,-0.15982 0.103667,-0.1024 0.159175,-0.240379 0.159175,-0.383555 0,-0.14414 -0.05632,-0.283155 -0.159175,-0.384485 -0.10271,-0.103335 -0.24078,-0.159815 -0.385286,-0.159815 -0.300466,7.81e-4 -0.543437,0.244507 -0.543437,0.544336 0,0.29891 0.242971,0.54228 0.543437,0.543398 z m 3.393529,-0.06547 c 0.194786,0 0.382246,-0.07634 0.519425,-0.214177 0.137581,-0.137419 0.215647,-0.323918 0.215647,-0.51824 0,-0.194338 -0.07647,-0.381413 -0.215647,-0.518302 -0.136622,-0.137421 -0.324639,-0.215214 -0.519425,-0.215214 -0.194754,0 -0.381078,0.07648 -0.519296,0.215216 -0.136621,0.136616 -0.214687,0.323964 -0.214687,0.518301 0,0.194341 0.07647,0.380292 0.214687,0.51824 0.137581,0.136623 0.324542,0.214178 0.519296,0.214176 z M 3.3691273,13.138196 c 0.250128,-0.016 0.47734,-0.149743 0.601993,-0.365736 0.09831,-0.168199 0.123926,-0.368872 0.07297,-0.556861 -0.0513,-0.18815 -0.173881,-0.34803 -0.342376,-0.445181 -0.35193,-0.201629 -0.800038,-0.08254 -1.003242,0.268533 -0.201936,0.351116 -0.0839,0.798277 0.268112,1.000987 0.121714,0.0712 0.261638,0.104329 0.402054,0.09903 z m 6.2655565,-0.08767 c 0.1252613,0 0.2461225,-0.05023 0.3350847,-0.137263 0.088628,-0.08832 0.1390205,-0.209024 0.1390205,-0.33435 -8.64e-4,-0.2602 -0.2125116,-0.47122 -0.4743917,-0.47122 -0.260696,0 -0.4710953,0.21102 -0.4721995,0.47122 0,0.261177 0.2115035,0.472232 0.4721995,0.472232 z M 16.318221,12.70266 c 0.466953,0 0.844976,-0.377176 0.844976,-0.84323 0,-0.46598 -0.378023,-0.844242 -0.844976,-0.844242 -0.466968,0 -0.844974,0.378262 -0.844974,0.844242 0,0.466054 0.378006,0.84323 0.844974,0.84323 z M 7.8453393,12.241928 c 0.2114447,-0.016 0.404148,-0.12606 0.5108998,-0.310319 0.1717512,-0.297796 0.069932,-0.678074 -0.2292489,-0.849441 -0.2974543,-0.171365 -0.6784988,-0.06976 -0.851304,0.227727 -0.1717189,0.297795 -0.070827,0.678135 0.2272485,0.849439 0.1038722,0.05906 0.2229971,0.08862 0.3424046,0.08334 z m -2.149633,-0.301892 c 0.212523,-0.016 0.404097,-0.127496 0.509833,-0.311487 0.17179,-0.296691 0.07139,-0.677048 -0.227175,-0.849438 -0.143385,-0.08367 -0.314159,-0.104305 -0.473206,-0.06064 -0.160301,0.04192 -0.29642,0.147501 -0.379068,0.29042 -0.171777,0.296821 -0.0714,0.677146 0.228187,0.849473 0.104,0.05904 0.221956,0.08768 0.341429,0.08334 z M 12.417858,11.44568 c 0.07919,-7.18e-4 0.157095,-0.024 0.226158,-0.06353 0.226189,-0.131011 0.302641,-0.419 0.172773,-0.644661 -0.131501,-0.225722 -0.420928,-0.30195 -0.646045,-0.17237 -0.226173,0.131021 -0.303713,0.419953 -0.17279,0.644669 0.08687,0.1499 0.247099,0.240286 0.419904,0.236095 z m 5.948418,-0.08701 c 0.261752,0 0.513058,-0.104307 0.698341,-0.28943 0.185364,-0.185012 0.289044,-0.435758 0.289044,-0.696982 0,-0.5443482 -0.441884,-0.9862967 -0.987385,-0.9862967 -0.262807,0 -0.514145,0.1038274 -0.699445,0.2883722 -0.185267,0.1849311 -0.290115,0.4356455 -0.290115,0.6979245 0,0.261224 0.103987,0.51197 0.290115,0.697973 0.1853,0.184879 0.436638,0.288396 0.699445,0.288396 z M 3.9878823,11.28555 c 0.211566,-0.016 0.40411,-0.127341 0.511009,-0.311361 0.171626,-0.296708 0.06994,-0.677113 -0.229329,-0.849487 -0.298442,-0.1713492 -0.678568,-0.06976 -0.851317,0.228797 -0.171767,0.296819 -0.07096,0.677064 0.227272,0.849503 0.103376,0.05904 0.223076,0.08815 0.342365,0.08319 z m 4.7076011,-0.437822 c 0.1843065,-0.016 0.3529705,-0.110226 0.4449884,-0.271671 0.072627,-0.123822 0.091664,-0.272646 0.055523,-0.411649 C 9.1588778,10.024748 9.0670483,9.9063673 8.9426264,9.834267 8.8175403,9.7625891 8.6682631,9.7429162 8.5290199,9.7785881 8.3899791,9.8157081 8.2703568,9.9072093 8.1981126,10.031494 c -0.07213,0.1251 -0.091456,0.273782 -0.05518,0.412736 0.038826,0.138541 0.129113,0.258074 0.2544375,0.330206 0.089132,0.05296 0.1937808,0.07647 0.2983704,0.07168 z m 5.0824706,-0.05296 c 0.06992,-0.0032 0.136941,-0.0216 0.195842,-0.05584 0.09359,-0.05504 0.163383,-0.143022 0.191635,-0.247595 0.02672,-0.104784 0.016,-0.216319 -0.04096,-0.31032 -0.05568,-0.09311 -0.143341,-0.161959 -0.249178,-0.1901954 -0.104627,-0.02736 -0.216767,-0.016 -0.311041,0.04032 -0.194705,0.114542 -0.261751,0.362536 -0.148939,0.557978 0.07328,0.129901 0.213599,0.207936 0.363337,0.204817 z M 6.5448013,10.542977 c 0.185346,-0.016 0.3528487,-0.108949 0.4450555,-0.269623 0.072789,-0.123821 0.091638,-0.272679 0.055891,-0.4127212 C 7.0084678,9.7220923 6.9167711,9.6025273 6.7923503,9.530475 6.6681943,9.458801 6.5190363,9.440407 6.3788133,9.475275 c -0.138901,0.03888 -0.25758,0.1286193 -0.329891,0.2539282 -0.150076,0.2591454 -0.05966,0.5914138 0.199028,0.7408158 0.08901,0.0528 0.193668,0.07663 0.297337,0.07167 z m 8.4571897,-0.0096 c 0.05712,-0.0032 0.114863,-0.0192 0.164438,-0.04608 0.1654,-0.09439 0.222015,-0.306225 0.126382,-0.471256 -0.04512,-0.078877 -0.121102,-0.1374201 -0.210432,-0.1609356 -0.08799,-0.02416 -0.183204,-0.016 -0.262856,0.03568 -0.07919,0.0448 -0.13662,0.1206246 -0.161239,0.2100166 -0.02416,0.08831 -0.016,0.182852 0.03664,0.262296 0.0616,0.107824 0.181092,0.175461 0.307856,0.172357 z M 12.09538,10.209332 c 0.09151,-0.0032 0.18114,-0.02496 0.260728,-0.07168 0.123981,-0.07232 0.21563,-0.1911386 0.253321,-0.330126 0.03888,-0.1385402 0.01888,-0.2873959 -0.0552,-0.412784 -0.07216,-0.1241404 -0.191651,-0.2152156 -0.330894,-0.2517059 -0.138862,-0.03888 -0.287972,-0.0192 -0.412545,0.0552 -0.260712,0.1506995 -0.349738,0.4816535 -0.199969,0.7417905 0.10031,0.1712384 0.284772,0.2758144 0.483654,0.2705024 z M 4.8381463,9.8834137 c 0.184244,-0.016 0.351845,-0.108943 0.444996,-0.2696382 0.0719,-0.1247804 0.09145,-0.2737182 0.05512,-0.4127527 -0.03897,-0.1385397 -0.128978,-0.2579768 -0.253273,-0.3301094 -0.125235,-0.071672 -0.274471,-0.090072 -0.413728,-0.0552 -0.138905,0.03872 -0.258538,0.12862 -0.330782,0.2538662 -0.150073,0.25916 -0.05966,0.5913812 0.199008,0.7408138 0.09036,0.0528 0.194691,0.076318 0.29932,0.071677 z m 4.8227097,-0.04192 c 0.1613034,-0.0128 0.3068328,-0.097908 0.387508,-0.2361879 0.0608,-0.1078266 0.0792,-0.2371797 0.04608,-0.358361 C 10.059564,9.1263199 9.9808625,9.0233312 9.873518,8.9607175 9.7655359,8.8994405 9.6358425,8.8818425 9.5143728,8.9147975 c -0.1206215,0.03264 -0.224077,0.1116638 -0.2868526,0.2204936 -0.061586,0.1078275 -0.079185,0.2371956 -0.046082,0.3583772 0.032795,0.1201415 0.1119864,0.2236299 0.2208959,0.2862446 0.077434,0.044 0.1674625,0.067837 0.258552,0.061439 z m 4.09411,-0.1049444 c 0.07919,-0.0032 0.157095,-0.024 0.226125,-0.061437 0.22619,-0.1311804 0.303698,-0.4200148 0.172774,-0.6447321 -0.131502,-0.2256786 -0.419792,-0.3029787 -0.646013,-0.1723259 -0.22619,0.131021 -0.30365,0.4189433 -0.172774,0.6446054 0.08783,0.1486199 0.247098,0.2382356 0.419888,0.2351157 z m 1.445971,-0.092151 c 0.06992,-0.0032 0.135821,-0.0216 0.19477,-0.05584 0.09311,-0.05504 0.163335,-0.1430218 0.191634,-0.2476096 0.02784,-0.1047873 0.016,-0.216319 -0.04016,-0.3103212 -0.05552,-0.093105 -0.14462,-0.1629825 -0.249273,-0.1901628 -0.103988,-0.0272 -0.216735,-0.016 -0.310929,0.04032 -0.09327,0.05504 -0.162375,0.1441408 -0.190611,0.2485547 -0.02752,0.1041456 -0.016,0.2163353 0.04096,0.3103357 0.07328,0.1287813 0.213695,0.206929 0.363352,0.2038415 z M 7.5102565,9.5407318 C 7.6714924,9.5247318 7.8170277,9.4428258 7.897605,9.3036162 8.0290607,9.0779702 7.952133,8.7895828 7.7247968,8.658851 7.6168488,8.598371 7.4871525,8.579975 7.3656831,8.614051 7.245568,8.646691 7.1416389,8.7258728 7.0788365,8.8334089 c -0.1314549,0.22571 -0.054508,0.5140975 0.1727909,0.6447174 0.077271,0.0448 0.1685324,0.068639 0.2586291,0.06352 z M 11.382273,8.8951679 c 0.104305,-0.0032 0.206288,-0.03088 0.29741,-0.084311 0.297347,-0.1713766 0.398899,-0.5516867 0.227246,-0.849401 -0.171751,-0.2967676 -0.552924,-0.3991681 -0.851326,-0.2278175 -0.143341,0.083355 -0.248155,0.2183504 -0.291092,0.3782461 -0.04224,0.1598156 -0.02176,0.329101 0.0616,0.4723434 0.114865,0.1974259 0.326607,0.3164635 0.554844,0.3102562 z m -2.9171545,0 C 8.605103,8.8839679 8.7311084,8.8114939 8.8012392,8.6924146 8.8567802,8.5991456 8.8711802,8.4865102 8.8422302,8.3820464 8.8150312,8.2771023 8.7440482,8.1877723 8.650586,8.133428 8.45479,8.0217654 8.2055954,8.089268 8.0923839,8.2842888 c -0.05486,0.092151 -0.069918,0.2048011 -0.04046,0.3092494 0.02764,0.1052661 0.098209,0.1943383 0.1905614,0.2486492 0.068797,0.03984 0.1467385,0.05664 0.2240899,0.0544 z m -2.6626862,-0.016 c 0.161248,-0.0128 0.30786,-0.096309 0.388446,-0.2362037 0.0607,-0.1070262 0.07722,-0.2371958 0.0448,-0.3573055 -0.03273,-0.1207851 -0.111992,-0.2245893 -0.219835,-0.2873638 -0.108172,-0.06048 -0.238722,-0.078876 -0.359129,-0.04592 -0.120986,0.03456 -0.225072,0.1132662 -0.286933,0.2204948 -0.06138,0.107664 -0.07925,0.2371636 -0.04613,0.3584091 0.03273,0.1203038 0.111993,0.2245736 0.219887,0.2862921 0.07736,0.04416 0.167559,0.067997 0.258579,0.061438 z M 15.177932,8.5833108 c 0.07728,-0.0032 0.155976,-0.024 0.225182,-0.06368 0.108145,-0.0608 0.187379,-0.1650628 0.220926,-0.2862764 0.0328,-0.1201426 0.016,-0.2497533 -0.04608,-0.3583932 -0.131501,-0.2247164 -0.419855,-0.3019844 -0.646045,-0.1723883 -0.107985,0.061278 -0.188483,0.1661024 -0.220974,0.2873158 -0.0328,0.1198215 -0.016,0.2496899 0.04608,0.3583612 0.08703,0.1486202 0.248122,0.2393875 0.420912,0.2350681 z m -1.743381,-0.084146 c 0.09039,-0.0032 0.180085,-0.0248 0.258616,-0.071674 0.125102,-0.07168 0.216799,-0.1901314 0.254441,-0.3290698 0.03712,-0.1396607 0.01888,-0.2884684 -0.05504,-0.4127378 -0.07215,-0.12494 -0.19173,-0.21627 -0.330973,-0.2539121 -0.139981,-0.03712 -0.288915,-0.0192 -0.413472,0.0552 -0.125102,0.072156 -0.216863,0.1912511 -0.254474,0.3301897 -0.03744,0.1385402 -0.01744,0.287316 0.05536,0.4127054 0.101109,0.1724211 0.2869,0.2759097 0.485862,0.2706298 z M 6.7583883,8.2348486 c 0.1389069,-0.0128 0.2649196,-0.084311 0.3350664,-0.2037442 0.056,-0.09311 0.069916,-0.2058252 0.040974,-0.3103528 C 7.1069527,7.6159633 7.0378387,7.5263493 6.94385,7.4720217 6.850583,7.4169817 6.7376003,7.4022647 6.6328133,7.4317017 c -0.104231,0.02784 -0.194638,0.09791 -0.249101,0.1912666 -0.05572,0.09327 -0.06994,0.2047688 -0.04059,0.3103047 0.02748,0.1041451 0.09641,0.1933152 0.190571,0.2476257 0.0688,0.04016 0.146884,0.05696 0.225224,0.05536 z M 7.6830118,7.8649531 c 0.1175627,-0.0096 0.2240606,-0.071035 0.2837978,-0.1713979 0.094652,-0.1650625 0.038817,-0.376054 -0.1277301,-0.4712238 -0.079172,-0.04592 -0.1738123,-0.05872 -0.2628469,-0.036 -0.08845,0.02448 -0.1643461,0.082715 -0.2104775,0.1609833 -0.0448,0.078875 -0.0576,0.1733504 -0.035454,0.2621208 0.023999,0.088631 0.082895,0.1641022 0.1612157,0.2100791 0.0576,0.03472 0.1239237,0.05024 0.1906219,0.044 z M 10.184503,7.5911554 c 0.121741,-0.0048 0.242844,-0.03872 0.34966,-0.099828 0.35073,-0.2026879 0.472167,-0.6499318 0.269062,-1.0009655 -0.09823,-0.1682473 -0.257544,-0.2915074 -0.445979,-0.3416765 -0.188484,-0.052159 -0.3884854,-0.02432 -0.5580914,0.072477 -0.1686784,0.09791 -0.2911239,0.2570174 -0.3414041,0.4451002 -0.0512,0.1881154 -0.02352,0.3887402 0.072635,0.556875 0.1348598,0.2319637 0.3842768,0.3720714 0.6534035,0.366824 z M 14.855406,7.350904 c 0.09199,-0.0032 0.181188,-0.02496 0.260696,-0.071674 0.124141,-0.07168 0.216782,-0.1902429 0.253481,-0.3303023 0.03904,-0.138541 0.01872,-0.2872515 -0.05568,-0.4116007 -0.07167,-0.1247813 -0.190595,-0.2163183 -0.330894,-0.2539287 -0.13886,-0.03904 -0.28794,-0.0192 -0.412561,0.05536 -0.125101,0.071678 -0.216751,0.1911078 -0.254425,0.3301893 -0.03888,0.1385405 -0.01904,0.2873168 0.05536,0.4127056 0.10015,0.1713497 0.284821,0.275686 0.483734,0.2706143 z M 12.719428,7.182675 c 0.104308,-0.0032 0.207232,-0.03088 0.297347,-0.08351 0.143342,-0.084312 0.24817,-0.2193904 0.290067,-0.3781661 0.04208,-0.1598157 0.02176,-0.3302214 -0.0616,-0.4733674 -0.171683,-0.2967059 -0.552793,-0.398018 -0.851259,-0.2267329 -0.297395,0.1724541 -0.399987,0.5527645 -0.228318,0.8494545 0.114863,0.1976337 0.326798,0.3166394 0.555004,0.3114404 z M 8.4609113,6.3948118 C 8.6019827,6.3884118 8.7405324,6.3527318 8.8630921,6.2817101 9.0577478,6.1698814 9.1991503,5.9849231 9.2577489,5.7686692 9.3153489,5.5523814 9.2852689,5.3224806 9.1724819,5.1282389 9.060499,4.9338209 8.876195,4.7927534 8.6594381,4.7353074 8.4426602,4.6780274 8.2113492,4.7081074 8.0176529,4.8204174 7.6134385,5.053502 7.4752258,5.5685588 7.7087444,5.9718733 7.8624753,6.2393198 8.1515886,6.4013111 8.4604958,6.3950242 Z m 5.6814677,-0.359433 c 0.103986,-0.0048 0.206304,-0.03088 0.297378,-0.084951 C 14.73712,5.7789975 14.838688,5.398688 14.666986,5.1009577 14.49522,4.8040912 14.114095,4.701691 13.815724,4.8730565 c -0.298482,0.1713822 -0.399986,0.5516438 -0.2283,0.8495182 0.113581,0.1974741 0.326621,0.3176314 0.554955,0.3124165 z m -2.620864,-0.151497 c 0.123021,-0.0048 0.244043,-0.03712 0.350795,-0.09935 0.35081,-0.2016165 0.471192,-0.6499156 0.269127,-1.0010139 -0.09823,-0.1681982 -0.258649,-0.2915237 -0.446061,-0.341612 -0.188482,-0.0512 -0.389572,-0.024 -0.558106,0.072312 -0.168518,0.097907 -0.292131,0.2580575 -0.342411,0.4461562 -0.0512,0.187107 -0.02352,0.387652 0.07328,0.5558351 0.1347,0.23198 0.384197,0.3720554 0.6523,0.3657358 z M 6.1511023,5.5097787 c 0.164391,-0.0064 0.326723,-0.0512 0.469125,-0.1332598 C 7.0924487,5.1048162 7.2547732,4.5020126 6.982484,4.0307402 6.7091743,3.5595487 6.1051133,3.397477 5.6328003,3.6703164 c -0.472248,0.2716059 -0.633419,0.874442 -0.361126,1.3457134 0.179973,0.3124169 0.517145,0.5015553 0.879428,0.4932045 z M 12.944482,4.7354983 c 0.121904,-0.0048 0.242955,-0.03728 0.349738,-0.098868 0.35193,-0.2016659 0.472264,-0.6499969 0.269111,-1.0010317 -0.09823,-0.1682295 -0.257608,-0.2915067 -0.446076,-0.3416909 -0.188419,-0.05104 -0.388421,-0.02352 -0.558026,0.072477 -0.168615,0.097907 -0.291076,0.2570334 -0.341388,0.4451322 -0.05168,0.188067 -0.02384,0.3887084 0.07279,0.5569549 0.13518,0.2319483 0.385301,0.3719117 0.653308,0.3656404 z M 9.7980508,4.6873393 c 0.1409403,-0.0048 0.2806452,-0.04208 0.4020512,-0.1131067 0.405297,-0.2329567 0.54342,-0.7480937 0.31104,-1.1525435 C 10.399157,3.2285182 10.213731,3.0864272 9.997012,3.0278606 9.7802298,2.9713816 9.5498804,3.0013006 9.3551745,3.1128146 9.1604677,3.224641 9.0190485,3.4095208 8.9614757,3.6258561 c -0.057596,0.2163348 -0.026734,0.4461387 0.085097,0.64051 0.154862,0.2664709 0.4429098,0.4284145 0.7518067,0.4210552 z"
     id="start-here-kde-9-7" />
</svg>
