<?xml version="1.0" encoding="UTF-8" standalone="no"?>
<svg
   xmlns:dc="http://purl.org/dc/elements/1.1/"
   xmlns:cc="http://creativecommons.org/ns#"
   xmlns:rdf="http://www.w3.org/1999/02/22-rdf-syntax-ns#"
   xmlns:svg="http://www.w3.org/2000/svg"
   xmlns="http://www.w3.org/2000/svg"
   xmlns:xlink="http://www.w3.org/1999/xlink"
   xmlns:sodipodi="http://sodipodi.sourceforge.net/DTD/sodipodi-0.dtd"
   xmlns:inkscape="http://www.inkscape.org/namespaces/inkscape"
   width="48"
   height="48"
   viewBox="0 0 48 48"
   version="1.1"
   id="svg52"
   sodipodi:docname="system-file-manager.svg"
   inkscape:version="1.0.2 (e86c870879, 2021-01-15)">
  <metadata
     id="metadata56">
    <rdf:RDF>
      <cc:Work
         rdf:about="">
        <dc:format>image/svg+xml</dc:format>
        <dc:type
           rdf:resource="http://purl.org/dc/dcmitype/StillImage" />
      </cc:Work>
    </rdf:RDF>
  </metadata>
  <sodipodi:namedview
     pagecolor="#ffffff"
     bordercolor="#666666"
     borderopacity="1"
     objecttolerance="10"
     gridtolerance="10"
     guidetolerance="10"
     inkscape:pageopacity="0"
     inkscape:pageshadow="2"
     inkscape:window-width="1920"
     inkscape:window-height="1007"
     id="namedview54"
     showgrid="true"
     inkscape:zoom="9.2513137"
     inkscape:cx="13.987244"
     inkscape:cy="35.179061"
     inkscape:window-x="0"
     inkscape:window-y="0"
     inkscape:window-maximized="1"
     inkscape:current-layer="svg52"
     inkscape:document-rotation="0">
    <inkscape:grid
       type="xygrid"
       id="grid962" />
  </sodipodi:namedview>
  <defs
     id="defs32">
    <linearGradient
       inkscape:collect="always"
       id="linearGradient863">
      <stop
         style="stop-color:#8fbcbb;stop-opacity:1"
         offset="0"
         id="stop859" />
      <stop
         style="stop-color:#88c0d0;stop-opacity:1"
         offset="1"
         id="stop861" />
    </linearGradient>
    <linearGradient
       xlink:href="#linearGradient4393"
       id="linearGradient4399"
       x1="424.441"
       y1="502.85"
       x2="440.878"
       y2="529.576"
       gradientUnits="userSpaceOnUse"
       gradientTransform="matrix(0.69224711,0,0,0.69224711,-280.19324,674.76546)" />
    <linearGradient
       id="linearGradient4393">
      <stop
         style="stop-color:#000000;stop-opacity:1;"
         offset="0"
         id="stop3" />
      <stop
         style="stop-color:#000000;stop-opacity:0;"
         offset="1"
         id="stop5" />
    </linearGradient>
    <linearGradient
       xlink:href="#linearGradient4274"
       id="linearGradient4217"
       gradientUnits="userSpaceOnUse"
       gradientTransform="matrix(0.69224711,0,0,0.69224711,-264.27155,2671.7976)"
       x1="390.571"
       y1="498.298"
       x2="442.571"
       y2="498.298" />
    <linearGradient
       id="linearGradient4274">
      <stop
         offset="0"
         style="stop-color:#ffffff;stop-opacity:1;"
         id="stop9" />
      <stop
         offset="1"
         style="stop-color:#ffffff;stop-opacity:0.48760331"
         id="stop11" />
    </linearGradient>
    <linearGradient
       xlink:href="#linearGradient4172-5"
       id="linearGradient4178"
       y1="548.886"
       y2="495.308"
       x2="397.228"
       gradientUnits="userSpaceOnUse"
       gradientTransform="matrix(0.69224711,0,0,0.69202181,-264.27155,671.42636)"
       x1="434.162" />
    <linearGradient
       id="linearGradient4172-5">
      <stop
         style="stop-color:#127bdc;stop-opacity:1"
         id="stop15" />
      <stop
         offset="1"
         style="stop-color:#64b4f4;stop-opacity:1"
         id="stop17" />
    </linearGradient>
    <linearGradient
       xlink:href="#linearGradient4227"
       id="linearGradient4225"
       gradientUnits="userSpaceOnUse"
       x1="396.571"
       y1="498.798"
       x2="426.571"
       y2="511.798"
       gradientTransform="matrix(0.69224711,0,0,0.69224711,-264.27155,671.68871)" />
    <linearGradient
       id="linearGradient4227">
      <stop
         offset="0"
         style="stop-color:#f5f5f5;stop-opacity:1"
         id="stop21" />
      <stop
         offset="1"
         style="stop-color:#f9f9f9;stop-opacity:1"
         id="stop23" />
    </linearGradient>
    <linearGradient
       gradientTransform="matrix(0.69224711,0,0,0.69224711,-264.27155,671.30423)"
       xlink:href="#linearGradient4291"
       id="linearGradient4297"
       x1="388.571"
       y1="487.798"
       x2="416.571"
       y2="507.798"
       gradientUnits="userSpaceOnUse" />
    <linearGradient
       id="linearGradient4291">
      <stop
         style="stop-color:#1d5e8c;stop-opacity:1"
         offset="0"
         id="stop27" />
      <stop
         style="stop-color:#2675a7;stop-opacity:1"
         offset="1"
         id="stop29" />
    </linearGradient>
    <linearGradient
       inkscape:collect="always"
       xlink:href="#linearGradient863"
       id="linearGradient859"
       x1="223.99998"
       y1="253.48669"
       x2="512"
       y2="256.82327"
       gradientUnits="userSpaceOnUse"
       gradientTransform="matrix(0.09374997,0,0,0.09953966,8.2364845e-6,-0.23198005)" />
  </defs>
  <path
     style="fill:#81a1c1;fill-opacity:1;stroke-width:0.0966037"
     d="m 25.273895,10 c 0.774519,0.811942 1.819651,1.273532 2.908716,1.273532 h 1.610542 4.182624 c -1.089082,0 -2.134167,-0.46159 -2.908726,-1.273532 L 28.460672,7.2675299 C 27.685905,6.4551534 26.640913,6 25.551981,6 h -5.793175 c 1.088907,0 2.134056,0.4551534 2.908736,1.2675299 z"
     id="path2" />
  <path
     style="fill:#5e81ac;fill-opacity:1;stroke-width:0.0966037"
     d="M 16.874217,7.2675299 19.480765,10 c 0.774479,0.811942 1.81959,1.273532 2.908656,1.273532 h 1.610542 4.182648 c -1.089065,0 -2.134197,-0.46159 -2.908716,-1.273532 L 22.667542,7.2675299 C 21.892758,6.4551534 20.847713,6 19.758806,6 h -5.689849 -0.103362 c 1.089046,0 2.134074,0.4551534 2.908642,1.2675299 z"
     id="path4" />
  <path
     style="fill:url(#linearGradient859);fill-opacity:1;stroke-width:0.0906222"
     d="m 45.517211,10.639887 h -9.93106 -1.610597 -4.182581 -1.61058 -4.18243 -1.610542 c -1.089066,0 -2.134177,-0.401917 -2.908656,-1.1158953 L 16.874217,7.1156743 C 16.099573,6.4018831 15.054564,6 13.965514,6 H 8.2758564 2.4827885 C 1.1116319,6 0,7.0374798 0,8.3200543 v 4.6394447 0.773498 28.611054 c 0,1.282352 1.1116319,2.319833 2.4827885,2.319833 H 45.517211 C 46.888381,44.663884 48,43.626403 48,42.344051 V 12.959499 c 0,-1.282354 -1.111619,-2.319612 -2.482789,-2.319612 z m -17.418468,4.721288 h 0.0057 l -0.0057,-0.02153 v 0 l 0.0057,0.02153 v 0 h -0.0057 l 0.0019,-0.03217 z m 16.590988,0.691435 c 0,0.855323 -0.740988,1.546555 -1.655171,1.546555 H 31.448286 c -0.914213,0 -1.655216,-0.691232 -1.655216,-1.546555 v -0.773278 c 0,-0.855328 0.741003,-1.546555 1.655216,-1.546555 h 11.586083 c 0.914344,0 1.655269,0.691227 1.655269,1.546555 v 0.773278 z"
     id="path6"
     sodipodi:nodetypes="scccccsccscssccssssssccccccccccssssssscc" />
  <path
     style="fill:#ffffff;fill-opacity:1;stroke-width:0.0966037"
     d="M 43.034369,13.464918 H 5.048 c -0.914213,0 -1.674,0.785732 -1.674,1.75813 l 0,0.877036 c 0,0.969607 0.759787,1.754689 1.674,1.754689 h 37.986369 c 0.914344,0 1.775174,-0.785082 1.795838,-1.754689 l 0.01581,-0.877036 c 1.17e-4,-0.972398 -0.900272,-1.75813 -1.814526,-1.75813 z"
     id="path8"
     sodipodi:nodetypes="ssssssscss" />
</svg>
