<?xml version="1.0" encoding="UTF-8" standalone="no"?>
<svg
   xmlns:dc="http://purl.org/dc/elements/1.1/"
   xmlns:cc="http://creativecommons.org/ns#"
   xmlns:rdf="http://www.w3.org/1999/02/22-rdf-syntax-ns#"
   xmlns:svg="http://www.w3.org/2000/svg"
   xmlns="http://www.w3.org/2000/svg"
   xmlns:sodipodi="http://sodipodi.sourceforge.net/DTD/sodipodi-0.dtd"
   xmlns:inkscape="http://www.inkscape.org/namespaces/inkscape"
   viewBox="0 0 8 8"
   version="1.1"
   id="svg8"
   sodipodi:docname="gpg-key-trust-level-0.svg"
   inkscape:version="0.92.1 r15371"
   width="8"
   height="8">
  <metadata
     id="metadata12">
    <rdf:RDF>
      <cc:Work
         rdf:about="">
        <dc:format>image/svg+xml</dc:format>
        <dc:type
           rdf:resource="http://purl.org/dc/dcmitype/StillImage" />
        <dc:title />
      </cc:Work>
    </rdf:RDF>
  </metadata>
  <sodipodi:namedview
     pagecolor="#ffffff"
     bordercolor="#666666"
     borderopacity="1"
     objecttolerance="10"
     gridtolerance="10"
     guidetolerance="10"
     inkscape:pageopacity="0"
     inkscape:pageshadow="2"
     inkscape:window-width="1537"
     inkscape:window-height="950"
     id="namedview10"
     showgrid="true"
     showguides="false"
     inkscape:zoom="108.560398296"
     inkscape:cx="3.79533580074"
     inkscape:cy="2.24094076289"
     inkscape:window-x="508"
     inkscape:window-y="286"
     inkscape:window-maximized="0"
     inkscape:current-layer="svg8"
     inkscape:snap-bbox="true"
     inkscape:bbox-paths="true"
     inkscape:bbox-nodes="true"
     inkscape:snap-bbox-edge-midpoints="true"
     inkscape:snap-bbox-midpoints="true">
    <inkscape:grid
       type="xygrid"
       id="grid30" />
  </sodipodi:namedview>
  <defs
     id="defs3051">
    <style
       type="text/css"
       id="current-color-scheme">
      .ColorScheme-Text {
        color:#4d4d4d;
      }
      .ColorScheme-NeutralText {
        color:#f67400;
      }
      </style>
  </defs>
  <path
     style="opacity:1;fill:#f2f2f2;fill-opacity:1;fill-rule:nonzero;stroke:none;stroke-width:0.0979795903;stroke-linecap:round;stroke-linejoin:round;stroke-miterlimit:4;stroke-dasharray:none;stroke-dashoffset:0;stroke-opacity:1"
     d="M 2.953125 0 C 2.61801338372 0.007910320033 2.29026485828 0.099921688856 2 0.267578125 C 1.38108302315 0.62490999179 0.999867412878 1.28533625411 1 2 L 1 3 L 0 3 L 0 7 L 2.744140625 7 A 3.14081573486 3.14081549644 0 0 1 2.400390625 6 L 1 6 L 1 4 L 2.7421875 4 A 3.14081573486 3.14081549644 0 0 1 3.6015625 3 L 2 3 L 2 2 L 1.99609375 2 C 1.99600187262 1.64138422839 2.18738277687 1.31000484165 2.498046875 1.130859375 C 2.6574765817 1.03853805244 2.83925399453 0.99191113242 3.0234375 0.99609375 C 3.19172448421 1.00014857896 3.35628422026 1.04649397401 3.501953125 1.130859375 C 3.81261722313 1.31000484165 4.00399812738 1.64138422839 4.00390625 2 L 4 2 L 4 2.744140625 A 3.14081573486 3.14081549644 0 0 1 5 2.400390625 L 5 2 C 5.00013258712 1.28533625411 4.61891697685 0.62490999179 4 0.267578125 C 3.68220131302 0.08402434842 3.32002408961 -0.008547068756 2.953125 0 z "
     id="rect3847" />
  <ellipse
     style="opacity:1;fill:#9361ff;fill-opacity:1;fill-rule:nonzero;stroke:none;stroke-width:0.125;stroke-linecap:round;stroke-linejoin:round;stroke-miterlimit:4;stroke-dasharray:none;stroke-dashoffset:0;stroke-opacity:1"
     id="path4795"
     cx="5.50000047684"
     cy="5.5"
     rx="2.50000023842"
     ry="2.5" />
  <rect
     style="opacity:1;fill:#ffffff;fill-opacity:1;fill-rule:nonzero;stroke:none;stroke-width:0.1000000015;stroke-linecap:round;stroke-linejoin:round;stroke-miterlimit:4;stroke-dasharray:none;stroke-dashoffset:0;stroke-opacity:1"
     id="rect4800"
     width="1"
     height="0.834271848202"
     x="5"
     y="7"
     rx="0"
     ry="0" />
  <rect
     ry="0"
     rx="0"
     y="4"
     x="5"
     height="2"
     width="1"
     id="rect4802"
     style="opacity:1;fill:#ffffff;fill-opacity:1;fill-rule:nonzero;stroke:none;stroke-width:0.1548321694;stroke-linecap:round;stroke-linejoin:round;stroke-miterlimit:4;stroke-dasharray:none;stroke-dashoffset:0;stroke-opacity:1" />
</svg>
