<?xml version="1.0" encoding="UTF-8" standalone="no"?>
<svg
   xmlns:dc="http://purl.org/dc/elements/1.1/"
   xmlns:cc="http://creativecommons.org/ns#"
   xmlns:rdf="http://www.w3.org/1999/02/22-rdf-syntax-ns#"
   xmlns:svg="http://www.w3.org/2000/svg"
   xmlns="http://www.w3.org/2000/svg"
   xmlns:sodipodi="http://sodipodi.sourceforge.net/DTD/sodipodi-0.dtd"
   xmlns:inkscape="http://www.inkscape.org/namespaces/inkscape"
   viewBox="0 0 8 8"
   version="1.1"
   id="svg8"
   sodipodi:docname="gpg-key-trust-level-4.svg"
   inkscape:version="0.92.1 r15371"
   width="8"
   height="8">
  <metadata
     id="metadata12">
    <rdf:RDF>
      <cc:Work
         rdf:about="">
        <dc:format>image/svg+xml</dc:format>
        <dc:type
           rdf:resource="http://purl.org/dc/dcmitype/StillImage" />
        <dc:title />
      </cc:Work>
    </rdf:RDF>
  </metadata>
  <sodipodi:namedview
     pagecolor="#ffffff"
     bordercolor="#666666"
     borderopacity="1"
     objecttolerance="10"
     gridtolerance="10"
     guidetolerance="10"
     inkscape:pageopacity="0"
     inkscape:pageshadow="2"
     inkscape:window-width="1537"
     inkscape:window-height="950"
     id="namedview10"
     showgrid="false"
     showguides="false"
     inkscape:zoom="49.5624998954"
     inkscape:cx="4.90448971912"
     inkscape:cy="5.08811660308"
     inkscape:window-x="508"
     inkscape:window-y="286"
     inkscape:window-maximized="0"
     inkscape:current-layer="svg8">
    <inkscape:grid
       type="xygrid"
       id="grid30" />
  </sodipodi:namedview>
  <defs
     id="defs3051">
    <style
       type="text/css"
       id="current-color-scheme">
      .ColorScheme-Text {
        color:#4d4d4d;
      }
      .ColorScheme-NeutralText {
        color:#f67400;
      }
      </style>
  </defs>
  <path
     style="opacity:1;fill:#f2f2f2;fill-opacity:1;fill-rule:nonzero;stroke:none;stroke-width:0.0979795903;stroke-linecap:round;stroke-linejoin:round;stroke-miterlimit:4;stroke-dasharray:none;stroke-dashoffset:0;stroke-opacity:1"
     d="M 2.953125 0 C 2.61801338372 0.007910320033 2.29026485828 0.099921688856 2 0.267578125 C 1.38108302315 0.62490999179 0.999867412878 1.28533625411 1 2 L 1 3 L 0 3 L 0 7 L 3.248046875 7 L 3.33984375 6.466796875 L 2.859375 6 L 1 6 L 1 4 L 3.369140625 4 L 4.1796875 3.8828125 L 4.796875 2.6328125 A 0.828159825963 0.828159825963 0 0 1 5 2.373046875 L 5 2 C 5.00013258712 1.28533625411 4.61891697685 0.62490999179 4 0.267578125 C 3.68220131302 0.08402434842 3.32002408961 -0.008547068756 2.953125 0 z M 3.0234375 0.99609375 C 3.19172448421 1.00014857896 3.35628422026 1.04649397401 3.501953125 1.130859375 C 3.81261722313 1.31000484165 4.00399812738 1.64138422839 4.00390625 2 L 4 2 L 4 3 L 2 3 L 2 2 L 1.99609375 2 C 1.99600187262 1.64138422839 2.18738277687 1.31000484165 2.498046875 1.130859375 C 2.6574765817 1.03853805244 2.83925399453 0.99191113242 3.0234375 0.99609375 z "
     id="rect3847" />
  <path
     style="opacity:1;fill:#0079d3;fill-opacity:1;fill-rule:nonzero;stroke:none;stroke-width:0.0688177198;stroke-linecap:round;stroke-linejoin:round;stroke-miterlimit:4;stroke-dasharray:none;stroke-dashoffset:0;stroke-opacity:1"
     d="M 5.5390625 3 L 4.73046875 4.638671875 L 2.919921875 4.90234375 L 4.228515625 6.177734375 L 3.921875 7.98046875 L 5.5390625 7.12890625 L 7.15625 7.98046875 L 6.84765625 6.177734375 L 8.15625 4.90234375 L 6.34765625 4.638671875 L 5.5390625 3 z M 5.5390625 4.466796875 L 5.87109375 5.140625 L 6.615234375 5.248046875 L 6.076171875 5.7734375 L 6.203125 6.513671875 L 5.5390625 6.1640625 L 4.873046875 6.513671875 L 5 5.7734375 L 4.4609375 5.248046875 L 5.205078125 5.140625 L 5.5390625 4.466796875 z "
     id="path989" />
</svg>
