<?xml version="1.0" encoding="UTF-8" standalone="no"?>
<svg
   xmlns:dc="http://purl.org/dc/elements/1.1/"
   xmlns:cc="http://creativecommons.org/ns#"
   xmlns:rdf="http://www.w3.org/1999/02/22-rdf-syntax-ns#"
   xmlns:svg="http://www.w3.org/2000/svg"
   xmlns="http://www.w3.org/2000/svg"
   xmlns:sodipodi="http://sodipodi.sourceforge.net/DTD/sodipodi-0.dtd"
   xmlns:inkscape="http://www.inkscape.org/namespaces/inkscape"
   viewBox="0 0 22 22"
   version="1.1"
   id="svg6"
   sodipodi:docname="redshift-status-on.svg"
   inkscape:version="1.0.2 (e86c870879, 2021-01-15)">
  <metadata
     id="metadata10">
    <rdf:RDF>
      <cc:Work
         rdf:about="">
        <dc:format>image/svg+xml</dc:format>
        <dc:type
           rdf:resource="http://purl.org/dc/dcmitype/StillImage" />
      </cc:Work>
    </rdf:RDF>
  </metadata>
  <sodipodi:namedview
     pagecolor="#ffffff"
     bordercolor="#666666"
     borderopacity="1"
     objecttolerance="10"
     gridtolerance="10"
     guidetolerance="10"
     inkscape:pageopacity="0"
     inkscape:pageshadow="2"
     inkscape:window-width="1920"
     inkscape:window-height="1007"
     id="namedview8"
     showgrid="true"
     inkscape:zoom="14.272727"
     inkscape:cx="29.237488"
     inkscape:cy="15.344281"
     inkscape:window-x="0"
     inkscape:window-y="0"
     inkscape:window-maximized="1"
     inkscape:current-layer="svg6"
     inkscape:document-rotation="0">
    <inkscape:grid
       type="xygrid"
       id="grid933" />
  </sodipodi:namedview>
  <defs
     id="defs3051">
    <style
       type="text/css"
       id="current-color-scheme">
      .ColorScheme-Text {
        color:#eff0f1;
      }
    </style>
  </defs>
  <path
     d="m 9.5290959,16.677515 c -0.0987,0 -0.195088,-0.0093 -0.290308,-0.02322 v 1.18446 h 2.9030911 v 0.580627 H 9.2387879 v 0.290307 c 0,0.15996 0.130349,0.290306 0.290308,0.290306 h 2.9030961 c 0.159959,0 0.290308,-0.130346 0.290308,-0.29031 v -2.055394 c -0.09522,0.01361 -0.191604,0.0232 -0.290308,0.0232 z"
     id="path14-7"
     style="fill:#eff0f1;fill-opacity:1;stroke-width:0.290309" />
  <path
     d="M 15.905924,6.1469636 C 15.024017,4.2316307 13.109502,3.0033242 11.000898,3 8.0133459,3.00461 5.5952979,5.4304114 5.6000069,8.4179626 c 0.0035,2.1086204 1.231632,4.0231374 3.146959,4.9050424 v 1.397437 c 0,0.24897 0.201814,0.450785 0.450786,0.450785 h 3.6062891 c 0.248971,0 0.450782,-0.201815 0.450782,-0.450785 v -1.397437 c 2.713674,-1.249522 3.900621,-4.4623704 2.651101,-7.1760414 z m -0.707787,3.8984044 c -0.458111,1.174074 -1.386817,2.102778 -2.560892,2.560889 h 0.005 c -0.173436,0.06692 -0.288021,0.233368 -0.288557,0.419233 v 1.244164 H 9.6486029 V 13.02549 c -5.84e-4,-0.185865 -0.115169,-0.352321 -0.28855,-0.419233 -2.319346,-0.904982 -3.465893,-3.51879 -2.560911,-5.838109 0.90498,-2.3193228 3.5187751,-3.4658684 5.8380921,-2.5608875 2.319324,0.9049807 3.465868,3.5187746 2.560891,5.8381075 z"
     id="path2-5"
     style="fill:#eff0f1;fill-opacity:1;stroke-width:0.028174" />
  <circle
     cx="11.009437"
     cy="8.6932983"
     r="1.4764786"
     id="circle2-3"
     style="fill:#8fbcbb;fill-opacity:1;stroke-width:0.120041" />
  <path
     d="m 10.421244,7.0847774 0.19206,-0.072028 -0.240076,-0.6722182 c -0.02401,-0.060019 -0.08402,-0.084028 -0.132044,-0.060019 -0.04802,0.024009 -0.084,0.084028 -0.06001,0.1320433 z"
     id="path4-5"
     style="fill:#8fbcbb;fill-opacity:1;stroke-width:0.120041" />
  <path
     d="m 11.05745,5.6563153 c 0,-0.060019 -0.04802,-0.1080354 -0.108037,-0.1080354 -0.06,0 -0.09603,0.048019 -0.09603,0.1080354 v 1.3324313 h 0.216071 V 5.6563153 Z"
     id="path6-6"
     style="fill:#8fbcbb;fill-opacity:1;stroke-width:0.120041" />
  <path
     d="m 10.949413,11.730283 c 0,0.06002 0.04802,0.108036 0.108037,0.108036 0.06001,0 0.108033,-0.04802 0.108033,-0.108036 v -1.332431 h -0.21607 z"
     id="path8-2"
     style="fill:#8fbcbb;fill-opacity:1;stroke-width:0.120041" />
  <path
     d="m 11.597624,10.277812 -0.192064,0.07203 0.252085,0.672218 c 0.02401,0.06002 0.08402,0.08403 0.132041,0.06002 0.06001,-0.02401 0.08403,-0.08403 0.06001,-0.132043 z"
     id="path10-9"
     style="fill:#8fbcbb;fill-opacity:1;stroke-width:0.120041" />
  <path
     d="M 9.6890049,7.6009451 9.8210469,7.4448948 9.2808739,6.9767431 c -0.04802,-0.036009 -0.108034,-0.036009 -0.144046,0.012 -0.036,0.048019 -0.036,0.1080353 0.012,0.1440477 z"
     id="path12-1"
     style="fill:#8fbcbb;fill-opacity:1;stroke-width:0.120041" />
  <path
     d="M 10.025113,7.300848 10.205173,7.1928126 9.5329549,6.028435 c -0.02401,-0.048019 -0.09603,-0.072028 -0.144047,-0.036009 -0.04802,0.024009 -0.07203,0.096033 -0.036,0.1440477 z"
     id="path14-3-2"
     style="fill:#8fbcbb;fill-opacity:1;stroke-width:0.120041" />
  <path
     d="m 11.993752,10.085751 -0.180061,0.108034 0.67222,1.152374 c 0.02401,0.04802 0.09603,0.07203 0.14405,0.03601 0.04802,-0.02401 0.07203,-0.09603 0.03601,-0.144047 z"
     id="path16-7"
     style="fill:#8fbcbb;fill-opacity:1;stroke-width:0.120041" />
  <path
     d="M 12.305852,9.773649 12.173813,9.9297 12.72599,10.397852 c 0.04802,0.03601 0.108036,0.03601 0.144047,-0.012 0.03601,-0.04802 0.03601,-0.108035 -0.01199,-0.144047 z"
     id="path18-0"
     style="fill:#8fbcbb;fill-opacity:1;stroke-width:0.120041" />
  <path
     d="m 8.6446689,8.0690968 c -0.06001,-0.012 -0.108038,0.024009 -0.120042,0.084028 -0.01203,0.060019 0.02401,0.1080342 0.08402,0.1200387 l 0.708231,0.1200388 0.03601,-0.2040663 z"
     id="path20-9"
     style="fill:#8fbcbb;fill-opacity:1;stroke-width:0.120041" />
  <path
     d="m 8.2965549,7.3128515 1.152371,0.6722182 0.108037,-0.1800582 -1.152375,-0.6722182 c -0.04802,-0.024009 -0.120038,-0.012 -0.144046,0.036009 -0.036,0.048019 -0.012,0.1080353 0.03601,0.1440466 z"
     id="path22-3"
     style="fill:#8fbcbb;fill-opacity:1;stroke-width:0.120041" />
  <path
     d="M 13.722314,10.073747 12.56994,9.4015281 12.461903,9.5815872 13.614276,10.253805 c 0.04802,0.02401 0.12004,0.012 0.144047,-0.03601 0.02401,-0.04802 0.01203,-0.12004 -0.03601,-0.144046 z"
     id="path24-6"
     style="fill:#8fbcbb;fill-opacity:1;stroke-width:0.120041" />
  <path
     d="m 13.350192,9.3054974 c 0.06001,0.012 0.108037,-0.024009 0.12004,-0.084028 0.012,-0.060019 -0.02401,-0.1080357 -0.08402,-0.1200397 l -0.70823,-0.120039 -0.03601,0.2040663 z"
     id="path26-0"
     style="fill:#8fbcbb;fill-opacity:1;stroke-width:0.120041" />
  <path
     d="m 8.5846469,9.4615484 c 0.02401,0.060019 0.08402,0.084028 0.132046,0.060019 L 9.3889079,9.269485 9.3168789,9.077422 8.6446629,9.3295042 c -0.04802,0.024009 -0.07203,0.084028 -0.06001,0.132043 z"
     id="path28-6"
     style="fill:#8fbcbb;fill-opacity:1;stroke-width:0.120041" />
  <path
     d="m 9.3048799,8.6332795 h -1.332432 c -0.06001,0 -0.108034,0.048019 -0.108034,0.1080354 0,0.060018 0.04802,0.1080352 0.108034,0.1080352 h 1.332432 z"
     id="path30-2"
     style="fill:#8fbcbb;fill-opacity:1;stroke-width:0.120041" />
  <path
     d="m 14.046419,8.5372486 h -1.332432 v 0.2160698 h 1.332432 c 0.06001,0 0.108034,-0.048019 0.108034,-0.1080346 0,-0.060019 -0.04802,-0.1080352 -0.108034,-0.1080352 z"
     id="path32-6"
     style="fill:#8fbcbb;fill-opacity:1;stroke-width:0.120041" />
  <path
     d="m 13.410212,7.9250501 c -0.02401,-0.060018 -0.08402,-0.084028 -0.132043,-0.060018 l -0.672217,0.2520819 0.07203,0.1920619 0.672217,-0.2520811 c 0.04802,-0.024009 0.07203,-0.084028 0.06001,-0.1320431 z"
     id="path34-1"
     style="fill:#8fbcbb;fill-opacity:1;stroke-width:0.120041" />
  <path
     d="M 9.9050759,10.001723 9.7490249,9.86968 9.2808739,10.42186 c -0.03601,0.04802 -0.03601,0.108034 0.01201,0.144046 0.04802,0.03601 0.108032,0.03601 0.144043,-0.012 z"
     id="path36-8"
     style="fill:#8fbcbb;fill-opacity:1;stroke-width:0.120041" />
  <path
     d="m 9.5089459,9.49756 -1.152372,0.672218 c -0.04802,0.02401 -0.07203,0.09603 -0.036,0.144047 0.036,0.04802 0.09603,0.07203 0.144044,0.03601 l 1.152372,-0.6722169 z"
     id="path38-7"
     style="fill:#8fbcbb;fill-opacity:1;stroke-width:0.120041" />
  <path
     d="m 12.50992,7.8890386 1.152373,-0.6722177 c 0.04802,-0.024009 0.07203,-0.096032 0.036,-0.144047 -0.036,-0.048019 -0.09603,-0.072028 -0.144048,-0.036009 L 12.40187,7.7089827 Z"
     id="path40-9"
     style="fill:#8fbcbb;fill-opacity:1;stroke-width:0.120041" />
  <path
     d="m 12.089784,7.3848745 0.156051,0.1320435 0.468152,-0.5521785 c 0.03601,-0.048019 0.03601,-0.1080352 -0.01201,-0.1440475 -0.04802,-0.036009 -0.108034,-0.036009 -0.144046,0.012 z"
     id="path42-2"
     style="fill:#8fbcbb;fill-opacity:1;stroke-width:0.120041" />
  <path
     d="m 10.385231,11.046062 c -0.01199,0.06002 0.02401,0.108035 0.08404,0.120039 0.06,0.012 0.108032,-0.02401 0.120035,-0.08403 l 0.120035,-0.708229 -0.204063,-0.03601 z"
     id="path44-0"
     style="fill:#8fbcbb;fill-opacity:1;stroke-width:0.120041" />
  <path
     d="m 9.4369219,11.298143 c -0.02401,0.04802 -0.01202,0.120039 0.03601,0.144047 0.04802,0.02401 0.120041,0.012 0.144049,-0.03601 l 0.6722221,-1.152372 -0.180062,-0.108035 z"
     id="path46-2"
     style="fill:#8fbcbb;fill-opacity:1;stroke-width:0.120041" />
  <path
     d="m 12.56994,6.0884555 c 0.02401,-0.048019 0.01203,-0.1200397 -0.036,-0.1440477 -0.04802,-0.024009 -0.120042,-0.012 -0.144048,0.036009 l -0.672217,1.152374 0.180057,0.1080354 z"
     id="path48-3"
     style="fill:#8fbcbb;fill-opacity:1;stroke-width:0.120041" />
  <path
     d="m 11.621633,6.3525402 c 0.01199,-0.060019 -0.02401,-0.1080355 -0.08402,-0.1200386 -0.06001,-0.012 -0.108036,0.024009 -0.120041,0.084028 l -0.120038,0.7082294 0.204067,0.036009 z"
     id="path50-7"
     style="fill:#8fbcbb;fill-opacity:1;stroke-width:0.120041" />
</svg>
