<?xml version="1.0" encoding="UTF-8" standalone="no"?>
<svg
   xmlns:dc="http://purl.org/dc/elements/1.1/"
   xmlns:cc="http://creativecommons.org/ns#"
   xmlns:rdf="http://www.w3.org/1999/02/22-rdf-syntax-ns#"
   xmlns:svg="http://www.w3.org/2000/svg"
   xmlns="http://www.w3.org/2000/svg"
   xmlns:xlink="http://www.w3.org/1999/xlink"
   xmlns:sodipodi="http://sodipodi.sourceforge.net/DTD/sodipodi-0.dtd"
   xmlns:inkscape="http://www.inkscape.org/namespaces/inkscape"
   inkscape:version="1.0.2 (e86c870879, 2021-01-15)"
   sodipodi:docname="system-shutdown.svg"
   id="svg6"
   version="1.1"
   viewBox="0 0 32 32">
  <metadata
     id="metadata10">
    <rdf:RDF>
      <cc:Work
         rdf:about="">
        <dc:format>image/svg+xml</dc:format>
        <dc:type
           rdf:resource="http://purl.org/dc/dcmitype/StillImage" />
      </cc:Work>
    </rdf:RDF>
  </metadata>
  <sodipodi:namedview
     inkscape:document-rotation="0"
     inkscape:lockguides="true"
     inkscape:current-layer="svg6"
     inkscape:window-maximized="1"
     inkscape:window-y="0"
     inkscape:window-x="0"
     inkscape:cy="21.666527"
     inkscape:cx="44.830996"
     inkscape:zoom="14.182499"
     showgrid="false"
     id="namedview8"
     inkscape:window-height="1007"
     inkscape:window-width="1920"
     inkscape:pageshadow="2"
     inkscape:pageopacity="0"
     guidetolerance="10"
     gridtolerance="10"
     objecttolerance="10"
     borderopacity="1"
     bordercolor="#666666"
     pagecolor="#ffffff" />
  <defs
     id="defs3051">
    <style
       id="current-color-scheme"
       type="text/css">
      .ColorScheme-Text {
        color:#eff0f1;
      }
      </style>
    <linearGradient
       inkscape:collect="always"
       id="linearGradient1096">
      <stop
         style="stop-color:#ccaaff;stop-opacity:1"
         offset="0"
         id="stop1089" />
      <stop
         style="stop-color:#ffeeaa;stop-opacity:1"
         offset="1"
         id="stop1094" />
    </linearGradient>
    <linearGradient
       inkscape:collect="always"
       xlink:href="#linearGradient1096"
       id="linearGradient1120"
       x1="7.0309134"
       y1="17.390125"
       x2="24.635077"
       y2="17.390125"
       gradientUnits="userSpaceOnUse"
       gradientTransform="matrix(0.92310465,0,0,0.92310465,1.2314215,1.2310671)" />
    <linearGradient
       inkscape:collect="always"
       xlink:href="#linearGradient1096"
       id="linearGradient1116"
       x1="-181.57068"
       y1="17.544525"
       x2="-164.38358"
       y2="17.362167"
       gradientUnits="userSpaceOnUse"
       gradientTransform="matrix(0.92310465,0,0,0.92310465,175.69822,1.2310671)" />
    <linearGradient
       inkscape:collect="always"
       xlink:href="#linearGradient1096"
       id="linearGradient1100-7"
       x1="-186.00101"
       y1="16.003288"
       x2="-159.99544"
       y2="16.003288"
       gradientUnits="userSpaceOnUse"
       gradientTransform="matrix(0.92310465,0,0,0.92310465,175.69822,1.2310671)" />
    <linearGradient
       inkscape:collect="always"
       xlink:href="#linearGradient1096"
       id="linearGradient1254"
       gradientUnits="userSpaceOnUse"
       gradientTransform="matrix(0.52749835,0,0,0.52749835,11.374238,31.166526)"
       x1="5.1643877"
       y1="-61.093037"
       x2="5.2318158"
       y2="-32.089588" />
  </defs>
  <path
     d="m 15.846936,23.185568 c -3.859867,0 -7.0002175,-3.140337 -7.0002175,-7.000209 0,-1.870053 0.728281,-3.627857 2.0503215,-4.949648 0.195253,-0.195254 0.195253,-0.511759 0,-0.707275 -0.195008,-0.195246 -0.511523,-0.194996 -0.70727,0 -1.5108035,1.510802 -2.3430715,3.519615 -2.3430715,5.656923 0,4.411391 3.5888545,8.000249 8.0002375,8.000249 4.411382,0 8.000238,-3.588858 8.000238,-8.000249 0,-2.137558 -0.832272,-4.146872 -2.343819,-5.657423 -0.195254,-0.195006 -0.512021,-0.19525 -0.707275,0 -0.195004,0.195272 -0.195004,0.512021 2.5e-4,0.707275 1.322541,1.321791 2.050814,3.079845 2.050814,4.950148 0,3.859872 -3.140346,7.000209 -7.000208,7.000209 z"
     id="path2-5-5"
     style="fill:url(#linearGradient1120);fill-opacity:1;stroke:url(#linearGradient1116);stroke-width:0.250008;stroke-opacity:1" />
  <path
     style="color:#31363b;fill:none;fill-opacity:1;stroke:url(#linearGradient1100-7);stroke-width:1.60395;stroke-linecap:round;stroke-miterlimit:4;stroke-dasharray:none;stroke-opacity:1;stop-color:#31363b"
     class="ColorScheme-Text"
     sodipodi:type="arc"
     sodipodi:cx="16.001673"
     sodipodi:cy="16.003843"
     sodipodi:rx="11.201158"
     sodipodi:ry="11.201158"
     sodipodi:start="4.5684879"
     sodipodi:end="4.0942706"
     sodipodi:open="true"
     sodipodi:arc-type="arc"
     id="path227"
     d="M 14.395371,4.9184599 A 11.201158,11.201158 0 0 1 26.819256,13.097673 11.201158,11.201158 0 0 1 20.166913,26.401762 11.201158,11.201158 0 0 1 6.169392,21.369678 11.201158,11.201158 0 0 1 9.5105714,6.8752325" />
  <path
     d="m 18.130495,8.3694782 4.05e-4,9.9380648 c 3.1e-5,0.760963 -0.833819,1.385619 -1.902775,1.385619 h -0.724722 c -1.068949,0 -1.90238,-0.5979 -1.90238,-1.358851 V 4.7037862 c 0,-0.6039317 1.090189,-0.6039317 1.090189,0 V 18.334311 c 0,0.158534 0.196185,0.452948 0.812191,0.452948 h 0.724722 c 0.616005,0 0.81146,-0.294414 0.81146,-0.452948 V 8.3694782 c 0,-0.15853 -0.195455,-0.452944 -0.81146,-0.452944 l -0.525951,-0.0073 -0.002,-8.96e-4 0.0058,7.94e-4 c -0.293963,0.0063 -0.463175,-0.230102 -0.466436,-0.449062 -0.002,-0.243238 0.195091,-0.444022 0.457361,-0.452201 l 0.292811,-2.8e-5 0.238204,0.003 c 1.068884,0.01273 1.902373,0.59787 1.902373,1.358831 z m 0.003,9.9354678 -0.0083,-5.02e-4 0.003,0.0039 -0.002,-0.0049 -0.002,0.0093 -7.76e-4,-6.01e-4 0.003,-0.0063 0.0063,0.003 -0.0059,0.0039 0.002,8.86e-4 0.002,0.0059 0.003,-0.0117 -0.003,0.0063 3.05e-4,0.003 0.003,-0.0083 -0.002,9.26e-4 -0.003,0.002 -0.002,1.84e-4 1.34e-4,0.0049 -0.002,-0.0083 0.002,0.0039 -0.0063,-0.002 z"
     id="path4-36-3-2"
     sodipodi:nodetypes="sssssssssssssccccccsssccccccccccccccccccccccc"
     style="fill:url(#linearGradient1254);fill-opacity:1;stroke-width:0.452948" />
</svg>
