<?xml version="1.0" encoding="UTF-8" standalone="no"?>
<svg
   xmlns:dc="http://purl.org/dc/elements/1.1/"
   xmlns:cc="http://creativecommons.org/ns#"
   xmlns:rdf="http://www.w3.org/1999/02/22-rdf-syntax-ns#"
   xmlns:svg="http://www.w3.org/2000/svg"
   xmlns="http://www.w3.org/2000/svg"
   xmlns:xlink="http://www.w3.org/1999/xlink"
   xmlns:sodipodi="http://sodipodi.sourceforge.net/DTD/sodipodi-0.dtd"
   xmlns:inkscape="http://www.inkscape.org/namespaces/inkscape"
   inkscape:version="1.0.2 (e86c870879, 2021-01-15)"
   sodipodi:docname="system-suspend.svg"
   id="svg5"
   version="1.1"
   viewBox="0 0 32 32">
  <metadata
     id="metadata9">
    <rdf:RDF>
      <cc:Work
         rdf:about="">
        <dc:format>image/svg+xml</dc:format>
        <dc:type
           rdf:resource="http://purl.org/dc/dcmitype/StillImage" />
      </cc:Work>
    </rdf:RDF>
  </metadata>
  <sodipodi:namedview
     inkscape:document-rotation="0"
     inkscape:current-layer="svg5"
     inkscape:window-maximized="1"
     inkscape:window-y="0"
     inkscape:window-x="0"
     inkscape:cy="15.24983"
     inkscape:cx="-7.2541718"
     inkscape:zoom="14.182499"
     showgrid="true"
     id="namedview7"
     inkscape:window-height="1007"
     inkscape:window-width="1920"
     inkscape:pageshadow="2"
     inkscape:pageopacity="0"
     guidetolerance="10"
     gridtolerance="10"
     objecttolerance="10"
     borderopacity="1"
     bordercolor="#666666"
     pagecolor="#ffffff">
    <inkscape:grid
       type="xygrid"
       id="grid885" />
  </sodipodi:namedview>
  <defs
     id="defs3051">
    <style
       id="current-color-scheme"
       type="text/css">
      .ColorScheme-Text {
        color:#eff0f1;
      }
      </style>
    <linearGradient
       inkscape:collect="always"
       id="linearGradient1109">
      <stop
         style="stop-color:#ffaaaa;stop-opacity:1"
         offset="0"
         id="stop1103" />
      <stop
         style="stop-color:#aeaee9;stop-opacity:1"
         offset="1"
         id="stop1105" />
    </linearGradient>
    <linearGradient
       inkscape:collect="always"
       xlink:href="#linearGradient1109"
       id="linearGradient1133-3"
       x1="-139.00005"
       y1="16.00246"
       x2="-112.9931"
       y2="16.00246"
       gradientUnits="userSpaceOnUse"
       gradientTransform="matrix(0.92310809,0,0,0.92310809,132.31209,1.2312588)" />
    <linearGradient
       inkscape:collect="always"
       xlink:href="#linearGradient1109"
       id="linearGradient1128"
       x1="50.771648"
       y1="15.544865"
       x2="69"
       y2="15.544865"
       gradientUnits="userSpaceOnUse"
       gradientTransform="matrix(0.92310809,0,0,0.92310809,-42.155316,1.2312588)" />
  </defs>
  <path
     id="INNER-3-6-5"
     style="color:#31363b;fill:none;fill-opacity:1;stroke:url(#linearGradient1133-3);stroke-width:1.60396;stroke-linecap:round;stroke-miterlimit:4;stroke-dasharray:none;stroke-opacity:1;stop-color:#31363b"
     class="ColorScheme-Text"
     sodipodi:type="arc"
     sodipodi:cx="16.003611"
     sodipodi:cy="16.004145"
     sodipodi:rx="11.201199"
     sodipodi:ry="11.201199"
     sodipodi:start="3.0468659"
     sodipodi:end="2.6215214"
     sodipodi:open="true"
     sodipodi:arc-type="arc"
     d="M 4.8526295,17.063612 A 11.201199,11.201199 0 0 1 13.766609,5.0285958 11.201199,11.201199 0 0 1 26.67974,12.614879 11.201199,11.201199 0 0 1 20.506852,26.260249 11.201199,11.201199 0 0 1 6.2833922,21.57049" />
  <path
     d="m 10.215413,13.317707 9.938109,-4e-4 c 0.760954,-3.4e-5 1.385621,0.833829 1.385621,1.902783 v 0.724725 c 0,1.068958 -0.5979,1.902385 -1.358852,1.902385 H 5.1653565 c -0.603937,0 -0.603937,-1.090185 0,-1.090185 H 20.180291 c 0.158534,0 0.452949,-0.196192 0.452949,-0.8122 V 15.22009 c 0,-0.616007 -0.294415,-0.811463 -0.452949,-0.811463 h -9.872605 c -0.169877,0 -0.4448911,0.216793 -0.4532471,0.811463 l -0.0072,0.525953 -9.23e-4,0.002 9.23e-4,-0.0058 c 0.0062,0.293963 -0.2296702,0.463181 -0.4486304,0.466436 -0.24324,0.002 -0.536539,-0.195087 -0.544716,-0.457366 l -2.9e-5,-0.292804 0.003,-0.238212 C 8.8695835,14.151414 9.45474,13.31791 10.215697,13.31791 Z m 9.935511,-0.003 -5.16e-4,0.0082 0.0039,-0.003 -0.0048,0.002 0.0092,0.002 -5.92e-4,7.84e-4 -0.0062,-0.003 0.003,-0.0062 0.0038,0.0058 8.87e-4,-0.002 0.0058,-0.002 -0.0117,-0.003 0.0062,0.003 0.003,-3.12e-4 -0.0082,-0.003 9.23e-4,0.002 0.002,0.003 1.86e-4,0.002 0.0048,-1.45e-4 -0.0082,0.002 0.0039,-0.002 -0.002,0.0062 z"
     id="path4-36-3"
     sodipodi:nodetypes="sssssssssssssccccccsssccccccccccccccccccccccc"
     style="fill:url(#linearGradient1128);fill-opacity:1;stroke-width:0.452951" />
</svg>
