<?xml version="1.0" encoding="UTF-8" standalone="no"?>
<svg
   xmlns:dc="http://purl.org/dc/elements/1.1/"
   xmlns:cc="http://creativecommons.org/ns#"
   xmlns:rdf="http://www.w3.org/1999/02/22-rdf-syntax-ns#"
   xmlns:svg="http://www.w3.org/2000/svg"
   xmlns="http://www.w3.org/2000/svg"
   xmlns:xlink="http://www.w3.org/1999/xlink"
   xmlns:sodipodi="http://sodipodi.sourceforge.net/DTD/sodipodi-0.dtd"
   xmlns:inkscape="http://www.inkscape.org/namespaces/inkscape"
   inkscape:version="1.0.2 (e86c870879, 2021-01-15)"
   sodipodi:docname="system-reboot.svg"
   id="svg6"
   version="1.1"
   viewBox="0 0 32 32">
  <metadata
     id="metadata10">
    <rdf:RDF>
      <cc:Work
         rdf:about="">
        <dc:format>image/svg+xml</dc:format>
        <dc:type
           rdf:resource="http://purl.org/dc/dcmitype/StillImage" />
      </cc:Work>
    </rdf:RDF>
  </metadata>
  <sodipodi:namedview
     inkscape:document-rotation="0"
     inkscape:current-layer="svg6"
     inkscape:window-maximized="1"
     inkscape:window-y="0"
     inkscape:window-x="0"
     inkscape:cy="15.412793"
     inkscape:cx="26.002227"
     inkscape:zoom="10.028541"
     showgrid="false"
     id="namedview8"
     inkscape:window-height="1007"
     inkscape:window-width="1920"
     inkscape:pageshadow="2"
     inkscape:pageopacity="0"
     guidetolerance="10"
     gridtolerance="10"
     objecttolerance="10"
     borderopacity="1"
     bordercolor="#666666"
     pagecolor="#ffffff">
    <inkscape:grid
       type="xygrid"
       id="grid871" />
  </sodipodi:namedview>
  <defs
     id="defs3051">
    <style
       id="current-color-scheme"
       type="text/css">
      .ColorScheme-Text {
        color:#eff0f1;
      }
      </style>
    <linearGradient
       inkscape:collect="always"
       id="linearGradient1104">
      <stop
         style="stop-color:#80ffe6;stop-opacity:1"
         offset="0"
         id="stop1100" />
      <stop
         style="stop-color:#88c0d0;stop-opacity:1"
         offset="1"
         id="stop1102" />
    </linearGradient>
    <linearGradient
       inkscape:collect="always"
       xlink:href="#linearGradient1104"
       id="linearGradient1070-3"
       x1="53.087605"
       y1="7.9456654"
       x2="52.799419"
       y2="23.825832"
       gradientUnits="userSpaceOnUse"
       gradientTransform="matrix(0.92306741,0,0,0.92306741,-41.226876,1.2299638)" />
    <linearGradient
       inkscape:collect="always"
       xlink:href="#linearGradient1104"
       id="linearGradient1112"
       x1="-64.852737"
       y1="-132.43079"
       x2="-49.978123"
       y2="-132.43079"
       gradientUnits="userSpaceOnUse"
       gradientTransform="matrix(0.92306741,0,0,0.92306741,70.459515,136.92245)" />
    <linearGradient
       inkscape:collect="always"
       xlink:href="#linearGradient1104"
       id="linearGradient1416"
       x1="73.164513"
       y1="55.674438"
       x2="88.021683"
       y2="59.569225"
       gradientUnits="userSpaceOnUse"
       gradientTransform="matrix(0.92306741,0,0,0.92306741,-56.923831,-40.306492)" />
  </defs>
  <g
     id="g887" />
  <path
     style="color:#000000;overflow:visible;opacity:0;fill:#0000ff;fill-opacity:1;stroke-width:1.06667"
     id="path940"
     overflow="visible"
     d="m 60.626965,-17.595446 c -8.82859,0 -16,7.171413 -16,15.9999996 0,8.828587 7.17141,16.0000004 16,16.0000004 8.82752,0 16,-7.1714134 16,-16.0000004 0,-8.8275196 -7.17141,-15.9999996 -16,-15.9999996 z"
     inkscape:connector-curvature="0" />
  <path
     style="color:#31363b;fill:none;fill-opacity:1;stroke:url(#linearGradient1070-3);stroke-width:1.6039;stroke-linecap:round;stroke-miterlimit:4;stroke-dasharray:none;stroke-opacity:1;stop-color:#31363b"
     class="ColorScheme-Text"
     sodipodi:type="arc"
     sodipodi:cx="15.999765"
     sodipodi:cy="16.002325"
     sodipodi:rx="11.200704"
     sodipodi:ry="11.200704"
     sodipodi:start="4.3029611"
     sodipodi:end="3.7892186"
     sodipodi:open="true"
     sodipodi:arc-type="arc"
     id="path221"
     d="M 11.540938,5.7273739 A 11.200704,11.200704 0 0 1 25.618988,10.264178 11.200704,11.200704 0 0 1 22.922707,24.80736 11.200704,11.200704 0 0 1 8.1539627,23.996019 11.200704,11.200704 0 0 1 7.0669993,9.2449993" />
  <path
     d="m 23.262052,13.881368 -8.240139,-5.3603342 -0.002,0.00367 0.004,0.00647 -9.23e-4,-0.0074 -0.0059,-0.00553 0.002,-9.232e-4 c -0.690465,-0.336779 -1.143792,0.5120279 -0.618915,0.9206793 l 8.186865,5.4657741 c 0.286472,0.18416 0.450179,0.491102 0.450179,0.838959 0,0.34787 -0.163707,0.654798 -0.450179,0.838969 l -9.146689,6.097792 c -0.30694,0.204628 -0.675267,0.22509 -1.002672,0.0409 -0.327391,-0.184167 -0.696321,-0.51156 -0.696321,-0.900345 V 5.8302645 c 0,-0.3274032 -0.101705,-0.5215331 -0.429108,-0.5215331 -0.327395,0 -0.613408,0.1736751 -0.613418,0.5215331 l -4.39e-4,15.9904395 c -2.8e-5,0.818494 0.429704,1.575607 1.145895,1.964395 0.32739,0.184161 0.675258,0.266009 1.043585,0.266009 0.429705,0 0.859421,-0.122782 1.22774,-0.368328 l 9.126243,-6.097795 c 0.613866,-0.409243 0.982185,-1.104968 0.982185,-1.862076 0,-0.757111 -0.347857,-1.411909 -0.961734,-1.841625 z"
     id="path252-7"
     style="fill:url(#linearGradient1112);fill-opacity:1;stroke:url(#linearGradient1416);stroke-width:0.204621"
     sodipodi:nodetypes="cccccccccscssssssscsccssc" />
</svg>
