<?xml version="1.0" encoding="UTF-8" standalone="no"?>
<svg
   xmlns:dc="http://purl.org/dc/elements/1.1/"
   xmlns:cc="http://creativecommons.org/ns#"
   xmlns:rdf="http://www.w3.org/1999/02/22-rdf-syntax-ns#"
   xmlns:svg="http://www.w3.org/2000/svg"
   xmlns="http://www.w3.org/2000/svg"
   xmlns:xlink="http://www.w3.org/1999/xlink"
   xmlns:sodipodi="http://sodipodi.sourceforge.net/DTD/sodipodi-0.dtd"
   xmlns:inkscape="http://www.inkscape.org/namespaces/inkscape"
   inkscape:version="1.0.2 (e86c870879, 2021-01-15)"
   sodipodi:docname="system-switch-user.svg"
   id="svg5"
   version="1.1"
   viewBox="0 0 32 32">
  <metadata
     id="metadata9">
    <rdf:RDF>
      <cc:Work
         rdf:about="">
        <dc:format>image/svg+xml</dc:format>
        <dc:type
           rdf:resource="http://purl.org/dc/dcmitype/StillImage" />
      </cc:Work>
    </rdf:RDF>
  </metadata>
  <sodipodi:namedview
     inkscape:document-rotation="0"
     inkscape:current-layer="svg5"
     inkscape:window-maximized="1"
     inkscape:window-y="0"
     inkscape:window-x="0"
     inkscape:cy="9.7788792"
     inkscape:cx="-1.299874"
     inkscape:zoom="14.182499"
     showgrid="false"
     id="namedview7"
     inkscape:window-height="1007"
     inkscape:window-width="1920"
     inkscape:pageshadow="2"
     inkscape:pageopacity="0"
     guidetolerance="10"
     gridtolerance="10"
     objecttolerance="10"
     borderopacity="1"
     bordercolor="#666666"
     pagecolor="#ffffff" />
  <defs
     id="defs3051">
    <style
       id="current-color-scheme"
       type="text/css">
      .ColorScheme-Text {
        color:#eff0f1;
      }
      </style>
    <linearGradient
       inkscape:collect="always"
       xlink:href="#linearGradient1104"
       id="linearGradient1485"
       gradientUnits="userSpaceOnUse"
       gradientTransform="matrix(0.92309908,0,0,0.92309908,-73.229888,1.229857)"
       x1="53.087605"
       y1="7.9456654"
       x2="52.799419"
       y2="23.825832" />
    <linearGradient
       inkscape:collect="always"
       id="linearGradient1104">
      <stop
         style="stop-color:#80ffe6;stop-opacity:1"
         offset="0"
         id="stop1100" />
      <stop
         style="stop-color:#88c0d0;stop-opacity:1"
         offset="1"
         id="stop1102" />
    </linearGradient>
    <linearGradient
       inkscape:collect="always"
       xlink:href="#linearGradient1104"
       id="linearGradient1194"
       x1="193.22336"
       y1="14.56877"
       x2="213.7495"
       y2="14.56877"
       gradientUnits="userSpaceOnUse"
       gradientTransform="matrix(0.92309908,0,0,0.92309908,-173.23512,1.2303992)" />
    <linearGradient
       inkscape:collect="always"
       xlink:href="#linearGradient1104"
       id="linearGradient1489"
       gradientUnits="userSpaceOnUse"
       gradientTransform="matrix(0,-0.92309908,0.92309908,0,-40.385303,89.066368)"
       x1="80.584579"
       y1="49.306187"
       x2="80.584579"
       y2="69.832329" />
  </defs>
  <path
     style="color:#31363b;fill:none;fill-opacity:1;stroke:url(#linearGradient1485);stroke-width:1.60387;stroke-linecap:round;stroke-miterlimit:4;stroke-dasharray:none;stroke-opacity:1;stop-color:#31363b"
     class="ColorScheme-Text"
     sodipodi:type="arc"
     sodipodi:cx="-16.001286"
     sodipodi:cy="16.002741"
     sodipodi:rx="11.20109"
     sodipodi:ry="11.20109"
     sodipodi:start="4.3029611"
     sodipodi:end="3.8595266"
     sodipodi:open="true"
     sodipodi:arc-type="arc"
     id="path221-3"
     transform="rotate(-90)"
     d="M -20.460266,5.7274354 A 11.20109,11.20109 0 0 1 -6.2823599,10.434357 11.20109,11.20109 0 0 1 -9.3918622,25.045967 11.20109,11.20109 0 0 1 -24.257788,23.57206 11.20109,11.20109 0 0 1 -24.437571,8.634328" />
  <path
     d="m 13.804445,8.8777219 -5.360521,8.2404141 0.0038,0.0019 0.0059,-0.0037 -0.007,9.23e-4 -0.0055,0.0055 -9.25e-4,-0.0019 c -0.336831,0.690607 0.512008,1.143951 0.920674,0.619058 l 5.465964,-8.1871702 c 0.184166,-0.2864838 0.491117,-0.4501862 0.838982,-0.4501862 0.347885,0 0.654823,0.1637024 0.83899,0.4501862 l 6.098009,9.1470172 c 0.204634,0.306949 0.225099,0.675284 0.0409,1.002689 -0.18417,0.327414 -0.511575,0.696044 -0.900373,0.696044 H 5.753034 c -0.327412,0 -0.521549,0.102021 -0.521549,0.429426 0,0.327414 0.173675,0.613446 0.521549,0.613455 l 15.990994,4.43e-4 c 0.818522,1.9e-5 1.575656,-0.429721 1.964456,-1.145935 0.184166,-0.327405 0.266017,-0.675285 0.266017,-1.043619 0,-0.429721 -0.122779,-0.859452 -0.368333,-1.227787 L 17.508144,8.8979359 C 17.098888,8.284047 16.403138,7.9157123 15.646004,7.9157123 c -0.757136,0 -1.411953,0.3478697 -1.841685,0.9617585 z"
     id="path252-7-6"
     style="fill:url(#linearGradient1194);fill-opacity:1;stroke:url(#linearGradient1489);stroke-width:0.204633"
     sodipodi:nodetypes="cccccccccscssssssscsccssc" />
</svg>
