<?xml version="1.0" encoding="UTF-8" standalone="no"?>
<svg
   xmlns:dc="http://purl.org/dc/elements/1.1/"
   xmlns:cc="http://creativecommons.org/ns#"
   xmlns:rdf="http://www.w3.org/1999/02/22-rdf-syntax-ns#"
   xmlns:svg="http://www.w3.org/2000/svg"
   xmlns="http://www.w3.org/2000/svg"
   xmlns:xlink="http://www.w3.org/1999/xlink"
   xmlns:sodipodi="http://sodipodi.sourceforge.net/DTD/sodipodi-0.dtd"
   xmlns:inkscape="http://www.inkscape.org/namespaces/inkscape"
   width="22"
   height="21.999849"
   viewBox="0 0 22 21.999849"
   id="svg8694"
   version="1.1"
   inkscape:version="1.0.2 (e86c870879, 2021-01-15)"
   sodipodi:docname="system-file-manager.svg">
  <defs
     id="defs8696">
    <linearGradient
       inkscape:collect="always"
       id="linearGradient843">
      <stop
         style="stop-color:#eff0f1;stop-opacity:1;"
         offset="0"
         id="stop839" />
      <stop
         style="stop-color:#eff0f1;stop-opacity:0;"
         offset="1"
         id="stop841" />
    </linearGradient>
    <linearGradient
       inkscape:collect="always"
       xlink:href="#linearGradient847"
       id="linearGradient859"
       x1="236.31422"
       y1="249.15881"
       x2="515.58765"
       y2="249.15881"
       gradientUnits="userSpaceOnUse"
       gradientTransform="matrix(0.04296864,0,0,0.04458078,-29.154101,1020.2545)" />
    <linearGradient
       inkscape:collect="always"
       id="linearGradient847">
      <stop
         style="stop-color:#8fbcbb;stop-opacity:1"
         offset="0"
         id="stop843" />
      <stop
         style="stop-color:#88c0d0;stop-opacity:1"
         offset="1"
         id="stop845" />
    </linearGradient>
    <linearGradient
       inkscape:collect="always"
       xlink:href="#linearGradient843"
       id="linearGradient845"
       x1="-19"
       y1="1023.3622"
       x2="-19"
       y2="1023.3622"
       gradientUnits="userSpaceOnUse" />
  </defs>
  <sodipodi:namedview
     id="base"
     pagecolor="#ffffff"
     bordercolor="#666666"
     borderopacity="1.0"
     inkscape:pageopacity="0.0"
     inkscape:pageshadow="2"
     inkscape:zoom="16"
     inkscape:cx="4.076245"
     inkscape:cy="17.251972"
     inkscape:document-units="px"
     inkscape:current-layer="layer1"
     showgrid="true"
     units="px"
     inkscape:snap-bbox="true"
     inkscape:bbox-nodes="true"
     inkscape:object-nodes="true"
     inkscape:snap-global="true"
     inkscape:showpageshadow="false"
     showborder="true"
     inkscape:document-rotation="0"
     inkscape:window-width="1920"
     inkscape:window-height="1007"
     inkscape:window-x="0"
     inkscape:window-y="0"
     inkscape:window-maximized="1">
    <inkscape:grid
       type="xygrid"
       id="grid9302"
       originx="29.154111"
       originy="16.316394" />
  </sodipodi:namedview>
  <metadata
     id="metadata8699">
    <rdf:RDF>
      <cc:Work
         rdf:about="">
        <dc:format>image/svg+xml</dc:format>
        <dc:type
           rdf:resource="http://purl.org/dc/dcmitype/StillImage" />
        <dc:title />
      </cc:Work>
    </rdf:RDF>
  </metadata>
  <g
     inkscape:label="Livello 1"
     inkscape:groupmode="layer"
     id="layer1"
     transform="translate(29.154111,-1020.0458)">
    <path
       style="fill:#81a1c1;fill-opacity:1;stroke-width:0.0437666"
       d="m -17.570251,1024.8377 c 0.355002,0.3637 0.834013,0.5703 1.333167,0.5703 h 0.738158 1.917046 c -0.499157,0 -0.97816,-0.2066 -1.333176,-0.5703 l -1.194592,-1.2247 c -0.355088,-0.3638 -0.834057,-0.5672 -1.333151,-0.5672 H -20.098 c 0.499081,0 0.978117,0.2034 1.333169,0.5672 z"
       id="path2" />
    <path
       style="fill:#5e81ac;fill-opacity:1;stroke-width:0.0437666"
       d="m -21.420093,1023.613 1.194658,1.2247 c 0.354976,0.3637 0.833979,0.5703 1.333146,0.5703 h 0.738162 1.917043 c -0.499154,0 -0.978165,-0.2066 -1.333167,-0.5703 l -1.19458,-1.2247 c -0.355097,-0.3638 -0.834088,-0.5672 -1.333169,-0.5672 h -2.60784 -0.04734 c 0.499156,0 0.978118,0.2034 1.33313,0.5672 z"
       id="path4" />
    <path
       style="fill:url(#linearGradient859);fill-opacity:1;stroke-width:0.0410577;stroke:url(#linearGradient845)"
       d="m -8.2920653,1025.1239 h -4.5517307 -0.7382 -1.917001 -0.738195 -1.916935 -0.738162 c -0.499167,0 -0.97817,-0.1803 -1.333146,-0.4995 l -1.194658,-1.0792 c -0.355047,-0.3191 -0.834015,-0.4994 -1.333157,-0.4994 h -2.607762 -2.655165 c -0.628427,0 -1.137934,0.4643 -1.137934,1.0391 v 2.0779 0.3464 12.814 c 0,0.5747 0.509507,1.039 1.137934,1.039 h 19.7241117 c 0.6284367,0 1.1379543,-0.4643 1.1379543,-1.039 v -13.1604 c 0,-0.5747 -0.5095176,-1.0389 -1.1379543,-1.0389 z m -7.9834487,2.1147 h 0.0031 l -0.0031,-0.011 v 0 l 0.0031,0.011 v 0 h -0.0031 l 0.0019,-0.016 z m 7.6041798,0.3095 c 0,0.3833 -0.3396268,0.6926 -0.758629,0.6926 h -5.3103498 c -0.419023,0 -0.758641,-0.3093 -0.758641,-0.6926 v -0.3464 c 0,-0.3833 0.339618,-0.6926 0.758641,-0.6926 h 5.3102915 c 0.4190414,0 0.758654,0.3093 0.758654,0.6926 v 0.3464 z"
       id="path6"
       sodipodi:nodetypes="scccccsccscssccssssssccccccccccssssssscc" />
    <path
       style="fill:#ffffff;fill-opacity:1;stroke-width:0.0437666"
       d="M -9.4300215,1026.3893 H -26.610642 c -0.419023,-10e-5 -0.75056,0.3607 -0.75613,0.7955 l -0.0033,0.2602 c -0.0056,0.4339 0.283408,0.8745 0.70243,0.8755 l 17.2376925,0.039 c 0.4190404,9e-4 0.8136011,-0.3512 0.823114,-0.7851 l 0.00831,-0.3937 c 4.46e-5,-0.4348 -0.4126279,-0.7868 -0.8316837,-0.7868 z"
       id="path8"
       sodipodi:nodetypes="ssssssscss" />
  </g>
</svg>
