<?xml version="1.0" encoding="UTF-8" standalone="no"?>
<svg
   xmlns:dc="http://purl.org/dc/elements/1.1/"
   xmlns:cc="http://creativecommons.org/ns#"
   xmlns:rdf="http://www.w3.org/1999/02/22-rdf-syntax-ns#"
   xmlns:svg="http://www.w3.org/2000/svg"
   xmlns="http://www.w3.org/2000/svg"
   xmlns:xlink="http://www.w3.org/1999/xlink"
   xmlns:sodipodi="http://sodipodi.sourceforge.net/DTD/sodipodi-0.dtd"
   xmlns:inkscape="http://www.inkscape.org/namespaces/inkscape"
   viewBox="0 0 22 22"
   version="1.1"
   id="svg6"
   sodipodi:docname="help-contents.svg"
   inkscape:version="1.0.2 (e86c870879, 2021-01-15)">
  <metadata
     id="metadata10">
    <rdf:RDF>
      <cc:Work
         rdf:about="">
        <dc:format>image/svg+xml</dc:format>
        <dc:type
           rdf:resource="http://purl.org/dc/dcmitype/StillImage" />
        <dc:title></dc:title>
      </cc:Work>
    </rdf:RDF>
  </metadata>
  <sodipodi:namedview
     pagecolor="#ffffff"
     bordercolor="#666666"
     borderopacity="0"
     objecttolerance="10"
     gridtolerance="10"
     guidetolerance="10"
     inkscape:pageopacity="0"
     inkscape:pageshadow="2"
     inkscape:window-width="1920"
     inkscape:window-height="1007"
     id="namedview8"
     showgrid="true"
     inkscape:zoom="14.272728"
     inkscape:cx="15.607074"
     inkscape:cy="15.265816"
     inkscape:window-x="0"
     inkscape:window-y="0"
     inkscape:window-maximized="1"
     inkscape:current-layer="svg6"
     inkscape:document-rotation="0"
     inkscape:lockguides="false">
    <inkscape:grid
       type="xygrid"
       id="grid835" />
  </sodipodi:namedview>
  <defs
     id="defs3051">
    <linearGradient
       inkscape:collect="always"
       id="linearGradient839">
      <stop
         style="stop-color:#5e81ac;stop-opacity:1"
         offset="0"
         id="stop835" />
      <stop
         style="stop-color:#8fbcbb;stop-opacity:1"
         offset="1"
         id="stop837" />
    </linearGradient>
    <style
       type="text/css"
       id="current-color-scheme">
      .ColorScheme-Text {
        color:#eff0f1;
      }
      </style>
    <linearGradient
       inkscape:collect="always"
       xlink:href="#linearGradient839"
       id="linearGradient841"
       x1="3.0000007"
       y1="10.200003"
       x2="19.000004"
       y2="10.200003"
       gradientUnits="userSpaceOnUse"
       gradientTransform="matrix(1.2499997,0,0,1.2499997,-2.7499999,-2.7499999)" />
  </defs>
  <path
     style="fill:url(#linearGradient841);fill-opacity:1;stroke:none;stroke-width:1.25"
     d="M 11,1 C 8.652374,1 6.5038195,1.8062974 4.8012681,3.1508791 c -0.00632,0.00516 -0.013169,0.00966 -0.019538,0.014641 -0.066319,0.052625 -0.1328373,0.1044203 -0.1977544,0.1586937 L 3.509765,2.25 H 1 V 4.759765 L 2.3037123,6.0634772 C 1.4784598,7.5192177 1,9.200553 1,11 c 0,1.799441 0.4784598,3.480786 1.3037123,4.936534 L 1,17.240228 V 19.75 h 2.509765 l 1.0742185,-1.074215 c 0.064928,0.05421 0.1314447,0.10605 0.1977551,0.158678 0.0063,0.004 0.013155,0.0082 0.01954,0.01457 C 6.5038195,20.193717 8.652374,21 11,21 c 2.448048,0 4.681379,-0.874119 6.416012,-2.324215 L 18.490228,19.75 H 21 V 17.240228 L 19.696276,15.936534 C 20.521547,14.480786 21,12.799441 21,11 21,9.200553 20.521547,7.5192176 19.696276,6.0634772 L 21,4.759765 V 2.25 h -2.509772 l -1.074216,1.074219 c -0.06478,-0.05426 -0.131436,-0.1060576 -0.197758,-0.1586926 -0.0056,-0.00519 -0.01313,-0.00969 -0.01962,-0.014641 C 15.496189,1.8062976 13.347623,1 11,1 Z m 0,1.25 c 1.550595,0 3.002273,0.4017062 4.262681,1.1035165 L 12.396473,6.2197257 C 11.950939,6.0903429 11.488391,6 11,6 10.511609,6 10.04906,6.0903538 9.603526,6.2197257 L 8.133788,4.75 6.7373038,3.3535165 C 7.9977163,2.6517062 9.449405,2.25 11,2.25 Z M 2.6259772,3.1337877 3.6806632,4.1884772 C 3.5022201,4.3802163 3.3285626,4.5763325 3.1655264,4.7817386 c -0.00518,0.0063 -0.00969,0.013154 -0.014641,0.019539 -0.050454,0.063883 -0.097574,0.1301604 -0.1464836,0.1953101 L 1.8837877,3.8759772 Z m 16.7480418,0 0.74219,0.7421895 -1.120605,1.1206044 C 18.784226,4.7150476 18.558728,4.4456929 18.319344,4.1884772 Z M 3.3535165,6.7373038 6.2197257,9.603526 C 6.0903429,10.04906 6,10.511609 6,11 c 0,0.488391 0.090354,0.95094 0.2197257,1.396473 L 4.75,13.866209 3.3535165,15.262681 C 2.6517062,14.002273 2.25,12.550595 2.25,11 2.25,9.449405 2.6517062,7.9977163 3.3535165,6.7373038 Z m 15.2929565,0 C 19.348279,7.9977163 19.75,9.449405 19.75,11 c 0,1.550595 -0.401721,3.002273 -1.103527,4.262681 L 17.25,13.866209 15.780264,12.396473 C 15.90965,11.950939 16,11.488391 16,11 16,10.511609 15.909719,10.04906 15.780264,9.603526 Z M 11,7.25 c 0.11397,0 0.220729,0.024333 0.332025,0.034184 0.493428,0.043676 0.955416,0.1780457 1.374524,0.3930656 0.696261,0.3572304 1.258986,0.9199414 1.616214,1.6162044 0.215016,0.419105 0.349377,0.881093 0.393053,1.374521 0.0084,0.111337 0.03414,0.218056 0.03414,0.332025 0,0.11397 -0.02427,0.220729 -0.03414,0.332025 -0.04375,0.493428 -0.178037,0.955416 -0.393053,1.374524 -0.357228,0.696261 -0.919953,1.258986 -1.616214,1.616214 -0.419108,0.215016 -0.881096,0.349377 -1.374524,0.393053 -0.111337,0.0084 -0.218056,0.03414 -0.332025,0.03414 -0.11397,0 -0.220729,-0.02426 -0.332025,-0.03414 C 10.174547,14.67211 9.712559,14.537779 9.293453,14.322763 8.597188,13.965535 8.034475,13.40281 7.6772454,12.706549 7.4622255,12.287441 7.3278677,11.825453 7.2841798,11.332025 7.2743228,11.220729 7.25,11.113969 7.25,11 7.25,10.88603 7.274333,10.779271 7.284184,10.667975 7.327865,10.174547 7.462229,9.712559 7.6772489,9.293453 8.034476,8.597188 8.597188,8.034475 9.293453,7.6772454 9.712559,7.4622255 10.174547,7.3278677 10.667975,7.2841798 10.779271,7.2743306 10.886031,7.2499999 11,7.25 Z M 9.603526,15.780264 C 10.04906,15.90965 10.511609,16 11,16 c 0.488391,0 0.95094,-0.09027 1.396473,-0.219736 l 2.866208,2.866209 C 14.002273,19.348279 12.550595,19.75 11,19.75 9.449405,19.75 7.9977163,19.348279 6.7373038,18.646473 L 8.133788,17.25 Z m -6.5991309,1.22315 c 0.2113713,0.281547 0.436888,0.550908 0.6762681,0.80812 l -1.054686,1.054675 -0.7421895,-0.74219 z m 15.9912089,0 1.120605,1.120605 -0.74219,0.74219 -1.054675,-1.054675 c 0.239384,-0.257212 0.464882,-0.526573 0.67626,-0.80812 z"
     class="ColorScheme-Text"
     id="path4" />
</svg>
