<?xml version="1.0" encoding="UTF-8" standalone="no"?>
<svg
   xmlns:dc="http://purl.org/dc/elements/1.1/"
   xmlns:cc="http://creativecommons.org/ns#"
   xmlns:rdf="http://www.w3.org/1999/02/22-rdf-syntax-ns#"
   xmlns:svg="http://www.w3.org/2000/svg"
   xmlns="http://www.w3.org/2000/svg"
   xmlns:sodipodi="http://sodipodi.sourceforge.net/DTD/sodipodi-0.dtd"
   xmlns:inkscape="http://www.inkscape.org/namespaces/inkscape"
   viewBox="0 0 16 16"
   version="1.1"
   id="svg8"
   sodipodi:docname="gpg-key-trust-level-2.svg"
   inkscape:version="0.92.1 r15371">
  <metadata
     id="metadata12">
    <rdf:RDF>
      <cc:Work
         rdf:about="">
        <dc:format>image/svg+xml</dc:format>
        <dc:type
           rdf:resource="http://purl.org/dc/dcmitype/StillImage" />
        <dc:title />
      </cc:Work>
    </rdf:RDF>
  </metadata>
  <sodipodi:namedview
     pagecolor="#ffffff"
     bordercolor="#666666"
     borderopacity="1"
     objecttolerance="10"
     gridtolerance="10"
     guidetolerance="10"
     inkscape:pageopacity="0"
     inkscape:pageshadow="2"
     inkscape:window-width="640"
     inkscape:window-height="480"
     id="namedview10"
     showgrid="true"
     showguides="false"
     inkscape:zoom="20.1874999574"
     inkscape:cx="15.6906874817"
     inkscape:cy="1.14412776923"
     inkscape:window-x="1073"
     inkscape:window-y="649"
     inkscape:window-maximized="0"
     inkscape:current-layer="svg8">
    <inkscape:grid
       type="xygrid"
       id="grid30" />
  </sodipodi:namedview>
  <defs
     id="defs3051">
    <style
       type="text/css"
       id="current-color-scheme">
      .ColorScheme-Text {
        color:#4d4d4d;
      }
      .ColorScheme-NeutralText {
        color:#f67400;
      }
      </style>
  </defs>
  <path
     inkscape:connector-curvature="0"
     style="opacity:1;fill:#f2f2f2;fill-opacity:1;fill-rule:nonzero;stroke:none;stroke-width:0.1000000015;stroke-linecap:round;stroke-linejoin:round;stroke-miterlimit:4;stroke-dasharray:none;stroke-dashoffset:0;stroke-opacity:1"
     d="M 7,0.99999999995 C 5.343145741,0.99999997395 3.999999975,2.34314573995 4,3.99999999995 V 4.99999999995 6 H 2 V 14 H 4.5625 C 4.380395802,13.689973669 4.239776675,13.355493318 4.146484375,13 H 3 V 7 H 4 5 9 10 11 V 7.001953125 H 11.99609375 12 V 6 H 10 V 3.99999999995 C 10.000000025,2.34314573995 8.656854259,0.99999997395 7,0.99999999995 Z M 7,1.99999999995 C 8.104569524,1.99999994295 9.000000059,2.89543047395 9,3.99999999995 V 6 H 5 V 4.99999999995 3.99999999995 C 4.999999941,2.89543047795 5.895430476,1.99999994295 7,1.99999999995 Z"
     id="path924" />
  <path
     id="path932"
     d="M 7.9999999999,7.9999999621 C 6.33800639,7.9999999621 4.9999999999,9.3380063495 4.9999999999,10.9999999621 V 11.9999999609 C 4.9999999999,13.6619935698 6.33800639,14.9999999609 7.9999999999,14.9999999609 H 12.0000000002 C 13.6619936101,14.9999999609 15.0000000002,13.6619935698 15.0000000002,11.9999999609 V 10.9999999621 C 15.0000000002,9.3380063495 13.6619936101,7.9999999621 12.0000000002,7.9999999621 Z M 8.0039062501,9.0039062122 H 11.99609375 C 13.1190733018,9.0039062122 13.998046875,9.8809266582 13.998046875,11.0039062097 V 11.9999999609 C 13.998046875,13.1229795124 13.122037275,13.9941405871 11.99609375,13.9941405871 H 8.0039062501 C 6.8779627251,13.9941405871 6.00390625,13.1229795124 6.00390625,11.9999999609 V 11.0039062097 C 6.00390625,9.8809266582 6.8809266979,9.0039062122 8.0039062501,9.0039062122 Z"
     style="opacity:1;fill:#5098ce;fill-opacity:1;fill-rule:nonzero;stroke:none;stroke-width:0.1000000015;stroke-linecap:round;stroke-linejoin:round;stroke-miterlimit:4;stroke-dasharray:none;stroke-dashoffset:0;stroke-opacity:1"
     inkscape:connector-curvature="0"
     sodipodi:nodetypes="ssssssssssssssssss"
     inkscape:export-xdpi="720"
     inkscape:export-ydpi="720" />
  <path
     sodipodi:nodetypes="csscccc"
     inkscape:connector-curvature="0"
     id="path934"
     d="M 7.9999999999,9.9999999596 C 7.4176412589,10.0019542248 7.0000000001,10.4207765203 7.0000000001,11.0039062097 V 11.9999999609 C 7.0000000001,12.5831335093 7.411779,12.9941791924 7.9999999999,12.9960937121 L 10.0000000001,13.0001537902 V 10.0001537902 Z"
     style="opacity:1;fill:#5098ce;fill-opacity:1;fill-rule:nonzero;stroke:none;stroke-width:0.1000000015;stroke-linecap:round;stroke-linejoin:round;stroke-miterlimit:4;stroke-dasharray:none;stroke-dashoffset:0;stroke-opacity:1"
     inkscape:export-xdpi="720"
     inkscape:export-ydpi="720" />
</svg>
