<?xml version="1.0" encoding="UTF-8" standalone="no"?>
<svg
   xmlns:dc="http://purl.org/dc/elements/1.1/"
   xmlns:cc="http://creativecommons.org/ns#"
   xmlns:rdf="http://www.w3.org/1999/02/22-rdf-syntax-ns#"
   xmlns:svg="http://www.w3.org/2000/svg"
   xmlns="http://www.w3.org/2000/svg"
   xmlns:sodipodi="http://sodipodi.sourceforge.net/DTD/sodipodi-0.dtd"
   xmlns:inkscape="http://www.inkscape.org/namespaces/inkscape"
   viewBox="0 0 16 16"
   version="1.1"
   id="svg8"
   sodipodi:docname="gpg-key-trust-level-3.svg"
   inkscape:version="0.92.1 r15371">
  <metadata
     id="metadata12">
    <rdf:RDF>
      <cc:Work
         rdf:about="">
        <dc:format>image/svg+xml</dc:format>
        <dc:type
           rdf:resource="http://purl.org/dc/dcmitype/StillImage" />
        <dc:title />
      </cc:Work>
    </rdf:RDF>
  </metadata>
  <sodipodi:namedview
     pagecolor="#ffffff"
     bordercolor="#666666"
     borderopacity="1"
     objecttolerance="10"
     gridtolerance="10"
     guidetolerance="10"
     inkscape:pageopacity="0"
     inkscape:pageshadow="2"
     inkscape:window-width="640"
     inkscape:window-height="480"
     id="namedview10"
     showgrid="true"
     showguides="false"
     inkscape:zoom="28.5494362226"
     inkscape:cx="17.8233534355"
     inkscape:cy="4.37655527927"
     inkscape:window-x="1073"
     inkscape:window-y="649"
     inkscape:window-maximized="0"
     inkscape:current-layer="svg8">
    <inkscape:grid
       type="xygrid"
       id="grid30" />
  </sodipodi:namedview>
  <defs
     id="defs3051">
    <style
       type="text/css"
       id="current-color-scheme">
      .ColorScheme-Text {
        color:#4d4d4d;
      }
      .ColorScheme-NeutralText {
        color:#f67400;
      }
      </style>
  </defs>
  <path
     inkscape:connector-curvature="0"
     style="opacity:1;fill:#f2f2f2;fill-opacity:1;fill-rule:nonzero;stroke:none;stroke-width:0.1000000015;stroke-linecap:round;stroke-linejoin:round;stroke-miterlimit:4;stroke-dasharray:none;stroke-dashoffset:0;stroke-opacity:1"
     d="M 7,0.99999999995 C 5.343145741,0.99999997395 3.999999975,2.34314573995 4,3.99999999995 V 4.99999999995 6 H 2 V 14 H 4.5625 C 4.380395802,13.689973669 4.239776675,13.355493318 4.146484375,13 H 3 V 7 H 4 5 9 10 11 V 7.001953125 H 11.99609375 12 V 6 H 10 V 3.99999999995 C 10.000000025,2.34314573995 8.656854259,0.99999997395 7,0.99999999995 Z M 7,1.99999999995 C 8.104569524,1.99999994295 9.000000059,2.89543047395 9,3.99999999995 V 6 H 5 V 4.99999999995 3.99999999995 C 4.999999941,2.89543047795 5.895430476,1.99999994295 7,1.99999999995 Z"
     id="path924" />
  <path
     id="path946"
     d="M 7.9999999998,7.99984617199 C 6.3380063898,7.99984617199 4.9999999998,9.3378525594 4.9999999998,10.999846172 V 11.9998461707 C 4.9999999998,13.6618397796 6.3380063898,14.9998461707 7.9999999998,14.9998461707 H 12 C 13.66199361,14.9998461707 15.0000000001,13.6618397796 15.0000000001,11.9998461707 V 10.999846172 C 15.0000000001,9.3378525594 13.66199361,7.99984617199 12,7.99984617199 Z M 8.00390625,9.00375242207 H 11.9960937498 C 13.1190733017,9.00375242207 13.9980468749,9.8807728681 13.9980468749,11.0037524196 V 11.9998461707 C 13.9980468749,13.1228257222 13.1220372749,13.9939867969 11.9960937498,13.9939867969 H 8.00390625 C 6.8779627249,13.9939867969 6.0039062498,13.1228257222 6.0039062498,11.9998461707 V 11.0037524196 C 6.0039062498,9.8807728681 6.8809266977,9.00375242207 8.00390625,9.00375242207 Z"
     style="opacity:1;fill:#0079d3;fill-opacity:1;fill-rule:nonzero;stroke:none;stroke-width:0.1000000015;stroke-linecap:round;stroke-linejoin:round;stroke-miterlimit:4;stroke-dasharray:none;stroke-dashoffset:0;stroke-opacity:1"
     inkscape:connector-curvature="0"
     sodipodi:nodetypes="ssssssssssssssssss" />
  <path
     sodipodi:nodetypes="csscccc"
     inkscape:connector-curvature="0"
     id="path948"
     d="M 7.9999999998,9.9998461695 C 7.4176412587,10.0018004347 6.9999999999,10.4206227301 6.9999999999,11.0037524196 V 11.9998461707 C 6.9999999999,12.5829797191 7.4117789998,12.9940254022 7.9999999998,12.9959399219 L 12,13 V 10 Z"
     style="opacity:1;fill:#0079d3;fill-opacity:1;fill-rule:nonzero;stroke:none;stroke-width:0.1000000015;stroke-linecap:round;stroke-linejoin:round;stroke-miterlimit:4;stroke-dasharray:none;stroke-dashoffset:0;stroke-opacity:1" />
</svg>
