<?xml version="1.0" encoding="utf-8"?>
<!-- Generator: Adobe Illustrator 22.1.0, SVG Export Plug-In . SVG Version: 6.00 Build 0)  -->
<svg version="1.1" id="Layer_1" xmlns="http://www.w3.org/2000/svg" xmlns:xlink="http://www.w3.org/1999/xlink" x="0px" y="0px"
	 viewBox="0 0 512 512" style="enable-background:new 0 0 512 512;" xml:space="preserve">
<g>
	<title>deepin</title>
	<g>
		<path d="M333,44.1c-32.4-11.8-65.5-15-97.6-12c-37.3,3-55.4,14.5-54.3,12.4C120,66.3,68.5,113,44.7,178.7
			C2.2,295.6,62.4,424.8,179,467.4c116.7,42.5,245.8-17.7,288.3-134.6S449.6,86.6,333,44.1L333,44.1z M186.8,446.2
			c-12.2-4.5-23.9-10.2-35-16.9c54.4,4.2,125.4-8.4,173.2-53.2c0,0,91.3-72.9,25.3-192.5c0,0,10.6,48.3-2.9,87.9
			c0,0-13,54-70.4,69.6c-84.7,23.1-181.2-36.2-221.5-64.9c-3-29.5-0.4-60,10.5-89.8c16-44.1,46.2-78.5,83-101.6
			c-9.2,64.4-1.9,123.7,8.5,148.5c14.1,33.3,38.4,72.2,86.1,77.2c47.7,5,73.9-39.6,73.9-39.6c24.5-37.1,28.3-90.4,27.9-91.8
			c-0.4-1.3-6.5-4.8-6.5-4.8c-16.4,66.5-43.5,88.8-43.5,88.8c-42.8,41.2-73.1,12.6-73.1,12.6c-32.5-34.9-9.7-91.8-9.7-91.8
			c12.7-38.7,49.9-95.3,92-124.1c7,1.8,14.1,2.9,21,5.3c24.6,9,47.2,22.8,66.6,40.5c-30.8,11.3-80.4,35-80.4,35
			c-78.7,33.2-84.1,83.3-84.1,83.3c-8.2,51.7,32.9,29.8,32.9,29.8c42.2-20.6,63-84.7,63-84.7c-13.2-2.6-23.6,1.5-23.6,1.5
			c-16.8,41.7-51.3,58.7-51.3,58.7c-13.6,7.2-16.7-5.5-16.7-5.5c-2.3-9.5,9.8-11.1,9.8-11.1c18.7-7.3,30.8-27,33.5-35
			c2.7-8.1,7.7-8.7,7.7-8.7c16-5,32.4-8.4,49.1-10c31.9-3.9,80.6,11.3,80.6,11.3c11,4.4,21.5,7.7,30.8,10.3
			c17.9,44.7,20.7,95.6,3,144.3C408,430.2,291.8,484.5,186.8,446.2L186.8,446.2z"/>
	</g>
</g>
</svg>
