<svg height="32" width="32" xmlns="http://www.w3.org/2000/svg" xmlns:xlink="http://www.w3.org/1999/xlink"><linearGradient id="a"><stop offset="0" stop-color="#292c2f"/><stop offset="1" stop-opacity="0"/></linearGradient><linearGradient id="c" gradientUnits="userSpaceOnUse" x1="5.707" x2="9.401" xlink:href="#a" y1="15.693" y2="19.387"/><linearGradient id="d" gradientUnits="userSpaceOnUse" x1="7.668" x2="9.159" xlink:href="#a" y1="22.092" y2="23.583"/><linearGradient id="e" gradientUnits="userSpaceOnUse" x1="8.18" x2="12.709" xlink:href="#a" y1="25.473" y2="30"/><linearGradient id="f" gradientUnits="userSpaceOnUse" x1="21.857" x2="30" xlink:href="#a" y1="6.014" y2="14.156"/><linearGradient id="g" gradientUnits="userSpaceOnUse" x1="6" x2="6" y1="26" y2="6"><stop offset="0" stop-color="#7f8c8d"/><stop offset="1" stop-color="#fcfcfc"/></linearGradient><linearGradient id="b" gradientUnits="userSpaceOnUse" x1="2" x2="2" y1="30" y2="2"><stop offset="0" stop-color="#34495e"/><stop offset="1" stop-color="#3b85b5"/></linearGradient><rect fill="url(#b)" height="28" rx="4" width="28" x="2" y="2"/><path d="M2 25v1c0 2.216 1.784 4 4 4h20c2.216 0 4-1.784 4-4v-1c0 2.216-1.784 4-4 4H6c-2.216 0-4-1.784-4-4z" fill="#292c2f" opacity=".2"/><path d="M5.707 15.693L12 12l2 2-4 5-.6.387z" fill="url(#c)" opacity=".2"/><path d="M7.668 22.092L14 13l2 2-6 8-.769.655z" fill="url(#d)" opacity=".2"/><path d="M18 12L8.18 25.473 12.709 30H26a3.971 3.971 0 0 0 2.963-1.33L26.293 26 25 21l-2-9z" fill="url(#e)" opacity=".2"/><path d="M21.844 6L20 7v5l4 3v3l1 1v2l1.293 5 2.67 2.67A3.972 3.972 0 0 0 30 26V14.156z" fill="url(#f)" opacity=".2"/><path d="M21.133 13.716c-1.262-1.425-2.399-2.345-4.082.054-1.002 1.428-7.013 9.606-8.116 10.908-.32.379-.508.642-.754.794 0-.518 4.152-7.093 5.314-8.998 1.396-2.289 1.351-2.155 1.184-2.155-.236.001-.717.35-1.448 1.13-1.336 1.424-5.29 6.724-5.563 6.643.095-.385 3.188-5.13 4.593-7.092 1.21-1.692.748-1.82.054-1.655-2.957.705-6.494 2.41-6.609 2.348.043-.088 11.912-8.434 13.498-8.594.184-.018.574-.347 1.268-.622.753-.297 1.26-.54 1.385-.463-.55.771-.839.926-.844 1.175-.008.407-.153 1.065-.311 1.276 3.067 2.043 4.263 9.01 5.14 14.613.209 1.33.402 2.329.452 2.922-.26-.666-2.711-9.519-5.16-12.284z" fill="url(#g)"/></svg>