<svg height="32" width="32" xmlns="http://www.w3.org/2000/svg" xmlns:xlink="http://www.w3.org/1999/xlink"><linearGradient id="n" gradientTransform="matrix(1.0871 0 0 1.1 -44.37 -47.98)" gradientUnits="userSpaceOnUse" x2="0" xlink:href="#a" y1="541.798" y2="489.798"/><linearGradient id="p" gradientTransform="matrix(1.07952 0 0 1.14286 -41.173 -70.685)" gradientUnits="userSpaceOnUse" x1="404.571" x2="421.571" xlink:href="#b"/><linearGradient id="r" gradientTransform="matrix(1.04899 0 0 1.1 -27.651 -47.98)" gradientUnits="userSpaceOnUse" x1="421.571" x2="438.571" xlink:href="#c"/><linearGradient id="w" gradientTransform="matrix(1.0871 0 0 1.1 -44.37 -47.98)" gradientUnits="userSpaceOnUse" x1="421.571" x2="406.571" xlink:href="#d"/><linearGradient id="x" gradientTransform="matrix(1.0871 0 0 1.1 -44.37 -47.98)" gradientUnits="userSpaceOnUse" x1="421.571" x2="436.571" xlink:href="#e"/><linearGradient id="z" gradientTransform="matrix(.54355 0 0 .55 -210.47 -268.389)" gradientUnits="userSpaceOnUse" x2="0" xlink:href="#a" y1="541.798" y2="489.798"/><linearGradient id="B" gradientTransform="matrix(1.07952 0 0 1.14286 -41.173 -68.685)" gradientUnits="userSpaceOnUse" x1="404.571" x2="421.571" xlink:href="#b"/><linearGradient id="D" gradientTransform="matrix(1.04899 0 0 1.1 -27.651 -45.98)" gradientUnits="userSpaceOnUse" x1="421.571" x2="438.571" xlink:href="#c"/><linearGradient id="I" gradientTransform="matrix(1.0871 0 0 1.1 -44.37 -45.98)" gradientUnits="userSpaceOnUse" x1="421.571" x2="406.571" xlink:href="#d"/><linearGradient id="J" gradientTransform="matrix(1.0871 0 0 1.1 -44.37 -45.98)" gradientUnits="userSpaceOnUse" x1="421.571" x2="436.571" xlink:href="#e"/><linearGradient id="K" gradientUnits="userSpaceOnUse" x1="15.999" x2="15.999" xlink:href="#f" y1="25" y2="23"/><linearGradient id="m" gradientTransform="matrix(1.08333 0 0 1.02778 -410.619 -509.793)" gradientUnits="userSpaceOnUse" x1="408.573" x2="408.573" xlink:href="#f" y1="545.473" y2="503.852"/><linearGradient id="o" gradientTransform="matrix(1.1 0 0 1.14286 -49.457 -70.685)" gradientUnits="userSpaceOnUse" x1="394.571" x2="404.571" xlink:href="#g" y1="535.798" y2="522.798"/><linearGradient id="q" gradientTransform="matrix(1.1078 0 0 1.14286 -53.449 -70.685)" gradientUnits="userSpaceOnUse" x1="430.571" x2="437.5" xlink:href="#h" y1="536.798" y2="524.798"/><linearGradient id="s" gradientTransform="matrix(1.1 0 0 1.27514 -49.457 -137.418)" gradientUnits="userSpaceOnUse" x1="387.571" x2="401.571" xlink:href="#i" y1="525.798" y2="513.798"/><linearGradient id="t" gradientUnits="userSpaceOnUse" x1="395.571" x2="381.271" xlink:href="#j" y1="513.898" y2="500.698"/><linearGradient id="u" gradientTransform="matrix(1.11765 0 0 1.1 -56.597 -47.98)" gradientUnits="userSpaceOnUse" x1="404.571" x2="421.571" xlink:href="#k" y1="501.798" y2="501.616"/><linearGradient id="v" gradientTransform="matrix(1.04899 0 0 1.0625 -27.65 -29.238)" gradientUnits="userSpaceOnUse" x1="428.571" x2="438.571" xlink:href="#l" y1="495.798" y2="504.798"/><linearGradient id="y" gradientTransform="matrix(.54166 0 0 .51389 -205.31 -252.897)" gradientUnits="userSpaceOnUse" x1="408.573" x2="408.573" y1="544.662" y2="501.852"><stop offset="0" stop-color="#197cf1"/><stop offset="1" stop-color="#20bcfa"/></linearGradient><linearGradient id="A" gradientTransform="matrix(1.1 0 0 1.14286 -49.457 -68.685)" gradientUnits="userSpaceOnUse" x1="394.571" x2="404.571" xlink:href="#g" y1="535.798" y2="522.798"/><linearGradient id="C" gradientTransform="matrix(1.1078 0 0 1.14286 -53.449 -68.685)" gradientUnits="userSpaceOnUse" x1="430.571" x2="437.5" xlink:href="#h" y1="536.798" y2="524.798"/><linearGradient id="E" gradientTransform="matrix(1.1 0 0 1.27514 -49.457 -135.418)" gradientUnits="userSpaceOnUse" x1="387.571" x2="401.571" xlink:href="#i" y1="525.798" y2="513.798"/><linearGradient id="F" gradientUnits="userSpaceOnUse" x1="395.571" x2="381.271" xlink:href="#j" y1="515.898" y2="502.698"/><linearGradient id="G" gradientTransform="matrix(1.11765 0 0 1.1 -56.597 -45.98)" gradientUnits="userSpaceOnUse" x1="404.571" x2="421.571" xlink:href="#k" y1="501.798" y2="501.616"/><linearGradient id="H" gradientTransform="matrix(1.04899 0 0 1.0625 -27.65 -27.238)" gradientUnits="userSpaceOnUse" x1="428.571" x2="438.571" xlink:href="#l" y1="495.798" y2="504.798"/><linearGradient id="f"><stop offset="0" stop-color="#2a2c2f"/><stop offset="1" stop-color="#424649"/></linearGradient><linearGradient id="a"><stop offset="0" stop-color="#7e8f9e"/><stop offset="1" stop-color="#84ced5"/></linearGradient><linearGradient id="g"><stop offset="0" stop-color="#e4a56d"/><stop offset="1" stop-color="#a7bd78"/></linearGradient><linearGradient id="b"><stop offset="0" stop-color="#c3a278"/><stop offset="1" stop-color="#68a"/></linearGradient><linearGradient id="h"><stop offset="0" stop-color="#6588af"/><stop offset="1" stop-color="#8ba8cd"/></linearGradient><linearGradient id="c"><stop offset="0" stop-color="#89ad8b"/><stop offset="1" stop-color="#82b3c7"/></linearGradient><linearGradient id="i"><stop offset="0" stop-color="#e1b16f"/><stop offset="1" stop-color="#99bf83"/></linearGradient><linearGradient id="j"><stop offset="0" stop-color="#99c487"/><stop offset="1" stop-color="#b4d99e"/></linearGradient><linearGradient id="k"><stop offset="0" stop-color="#75d5c7"/><stop offset="1" stop-color="#66afb9"/></linearGradient><linearGradient id="l"><stop offset="0" stop-color="#5c7b9e"/><stop offset="1" stop-color="#839dc0"/></linearGradient><linearGradient id="d"><stop offset="0" stop-color="#7fbcc6"/><stop offset="1" stop-color="#8ee4e3"/></linearGradient><linearGradient id="e"><stop offset="0" stop-color="#84d5d7"/><stop offset="1" stop-color="#84a8ba"/></linearGradient><g transform="matrix(.5 0 0 .51429 -188.286 -252.067)"><path d="M6 8v37h52V8z" fill="url(#m)" transform="translate(376.571 491.798)"/><path d="M384.571 501.798v33h47.833v-33z" fill="url(#n)"/><g fill-rule="evenodd"><path d="M395.571 518.798l-11 9.41v6.59h11z" fill="url(#o)"/><path d="M395.571 519.798v15h18.352z" fill="url(#p)"/><path d="M432.571 518.798l-19 16h19z" fill="url(#q)"/><path d="M414.571 528.198v-24.4l18 15-18 16z" fill="url(#r)"/><path d="M384.571 509.798v21l11-11z" fill="url(#s)"/><path d="M384.571 501.798v8.542l11 9.458v-18z" fill="url(#t)"/><path d="M395.571 501.798v18l19-16-3-2z" fill="url(#u)"/><path d="M417.12 501.798l-2.549 2 18 15v-17z" fill="url(#v)"/><path d="M411.571 501.798l3 2v-2z" fill="url(#w)"/><path d="M414.571 501.798v2l3-2z" fill="url(#x)"/></g><path d="M384.571 530.798h48v4h-48z" fill="#fff" fill-opacity=".784"/><circle cx="429.571" cy="532.798" fill="#4d4d4d" r="1"/><path d="M386.571 531.798v1h1v-1zm1 1v1h1v-1z" fill="#4d4d4d"/><path d="M386.571 503.798h20v17h-20z" fill="#fff" fill-opacity=".784"/><path d="M387.571 504.798v4h4.167v-3h-1.042l-1.041-1z" fill="#3580ca"/><path d="M395.571 504.798v5h4v-3l-2-2z" fill="#f95"/><path d="M397.571 504.798l2 2h-2z" fill="#d45500" fill-rule="evenodd"/><path d="M387.571 505.798h5v4h-5z" fill="#7aabdc"/><path d="M401.571 504.798v5h4v-3l-2-2z" fill="#71c837"/><path d="M403.571 504.798l2 2h-2z" fill="#447821" fill-rule="evenodd"/></g><path d="M2 25v1a1 1 0 0 0 1 1h26a1 1 0 0 0 1-1v-1H3z" fill="url(#y)"/><path d="M4 6.5V23h23.916V6.5z" fill="url(#z)"/><g fill-rule="evenodd"><path d="M395.571 520.798l-11 9.41v6.59h11z" fill="url(#A)" transform="matrix(.5 0 0 .51515 -188.286 -253.532)"/><path d="M395.571 521.798v15h18.352z" fill="url(#B)" transform="matrix(.5 0 0 .51515 -188.286 -253.532)"/><path d="M432.571 520.798l-19 16h19z" fill="url(#C)" transform="matrix(.5 0 0 .51515 -188.286 -253.532)"/><path d="M414.571 530.198v-24.4l18 15-18 16z" fill="url(#D)" transform="matrix(.5 0 0 .51515 -188.286 -253.532)"/><path d="M384.571 511.798v21l11-11z" fill="url(#E)" transform="matrix(.5 0 0 .51515 -188.286 -253.532)"/><path d="M384.571 503.798v8.542l11 9.458v-18z" fill="url(#F)" transform="matrix(.5 0 0 .51515 -188.286 -253.532)"/><path d="M395.571 503.798v18l19-16-3-2z" fill="url(#G)" transform="matrix(.5 0 0 .51515 -188.286 -253.532)"/><path d="M417.12 503.798l-2.549 2 18 15v-17z" fill="url(#H)" transform="matrix(.5 0 0 .51515 -188.286 -253.532)"/><path d="M411.571 503.798l3 2v-2z" fill="url(#I)" transform="matrix(.5 0 0 .51515 -188.286 -253.532)"/><path d="M414.571 503.798v2l3-2z" fill="url(#J)" transform="matrix(.5 0 0 .51515 -188.286 -253.532)"/></g><path d="M4 22h24v1H4z" fill="#fff" fill-opacity=".784"/><path d="M27 22.5a.5.5 0 0 1-.5.5.5.5 0 0 1-.5-.5.5.5 0 0 1 .5-.5.5.5 0 0 1 .5.5zM5 22v1h1v-1z" fill="#4d4d4d"/><path d="M5 7h9v9H5z" fill="#fff" fill-opacity=".784"/><path d="M6 8v2h2l1-1H8L7 8z" fill="#3580ca"/><path d="M10 8v3h2V9l-1-1z" fill="#f95"/><path d="M11 8l1 1h-1z" fill="#d45500" fill-rule="evenodd"/><path d="M6 9h3v2H6z" fill="#7aabdc"/><path d="M4 25.5a.5.5 0 0 1-.5.5.5.5 0 0 1-.5-.5.5.5 0 0 1 .5-.5.5.5 0 0 1 .5.5z" fill="#fff" fill-opacity=".784"/><path d="M2 25h28l-1-1H3z" fill="url(#K)" fill-rule="evenodd"/><path d="M6 12v3h2v-2l-1-1z" fill="#71c837"/><path d="M7 12l1 1H7z" fill="#447821" fill-rule="evenodd"/></svg>