<svg height="32" width="32" xmlns="http://www.w3.org/2000/svg" xmlns:xlink="http://www.w3.org/1999/xlink"><linearGradient id="a" gradientUnits="userSpaceOnUse" x1="25" x2="25" y1="6" y2="26"><stop offset="0"/><stop offset="1" stop-color="#292c2f"/></linearGradient><linearGradient id="g" gradientUnits="userSpaceOnUse" x1="23" x2="23" xlink:href="#a" y1="26" y2="13"/><linearGradient id="e" gradientUnits="userSpaceOnUse" x1="7" x2="7" xlink:href="#a" y1="11" y2="14"/><linearGradient id="d" gradientUnits="userSpaceOnUse" x1="18" x2="18" xlink:href="#a" y1="7" y2="11"/><linearGradient id="c" gradientUnits="userSpaceOnUse" x1="25" x2="25" xlink:href="#a" y1="6" y2="12"/><linearGradient id="f" gradientUnits="userSpaceOnUse" x1="14" x2="14" xlink:href="#a" y1="8" y2="12"/><linearGradient id="b" gradientUnits="userSpaceOnUse" x1="2" x2="2" y1="30" y2="2"><stop offset="0" stop-color="#997657"/><stop offset="1" stop-color="#d4ba94"/></linearGradient><rect fill="url(#b)" height="28" rx="4" width="28" x="2" y="2"/><path d="M2 25v1c0 2.216 1.784 4 4 4h20c2.216 0 4-1.784 4-4v-1c0 2.216-1.784 4-4 4H6c-2.216 0-4-1.784-4-4z" fill="#292c2f" opacity=".2"/><path d="M22.42 6c-4.16 0-4.941 5.926-2.6 5.926 2.34 0 6.761-5.926 2.6-5.926z" fill="url(#c)"/><path d="M15.511 11.192c1.247.076 2.614-4.756.272-4.452s-1.518 4.376-.272 4.452z" fill="url(#d)"/><path d="M9.8 14.194c.886-.39.114-4.206-1.393-3.165-1.507 1.04.507 3.555 1.393 3.165z" fill="url(#e)"/><path d="M12.297 12.197c1.056-.215 1.113-4.543-.768-3.767-1.882.777-.286 3.982.768 3.767z" fill="url(#f)"/><path d="M17.807 21.882c.187 1.43-1.049 2.136-2.26 1.215-3.853-2.934 6.381-4.398 5.707-8.407-.56-3.327-10.77-2.303-11.932 2.903-.786 3.522 3.24 8.407 7.44 8.407 2.067 0 4.45-1.866 4.897-4.23.34-1.803-4.008-1.08-3.852.112z" fill="url(#g)"/></svg>