<svg height="32" width="32" xmlns="http://www.w3.org/2000/svg" xmlns:xlink="http://www.w3.org/1999/xlink"><linearGradient id="b"><stop offset="0" stop-color="#eff0f1"/><stop offset="1" stop-color="#fcfcfc"/></linearGradient><linearGradient id="a"><stop offset="0" stop-color="#292c2f"/><stop offset="1" stop-color="#0e0f10" stop-opacity="0"/></linearGradient><linearGradient id="f" gradientUnits="userSpaceOnUse" x1="23" x2="30" xlink:href="#a" y1="15" y2="22"/><linearGradient id="d" gradientUnits="userSpaceOnUse" x1="16" x2="16" y1="27" y2="5"><stop offset="0" stop-color="#1d99f3"/><stop offset="1" stop-color="#56b3f6"/></linearGradient><linearGradient id="k" gradientUnits="userSpaceOnUse" x1="7" x2="7" xlink:href="#b" y1="25" y2="7"/><linearGradient id="i" gradientUnits="userSpaceOnUse" x1="16" x2="16" xlink:href="#b" y1="25" y2="7"/><linearGradient id="g" gradientUnits="userSpaceOnUse" x1="24" x2="24" xlink:href="#b" y1="25" y2="7"/><linearGradient id="e" gradientUnits="userSpaceOnUse" x1="11" x2="20.947" xlink:href="#a" y1="11" y2="20.947"/><linearGradient id="h" gradientUnits="userSpaceOnUse" x1="15" x2="22" xlink:href="#a" y1="15" y2="22"/><linearGradient id="j" gradientUnits="userSpaceOnUse" x1="9.636" x2="17.272" xlink:href="#a" y1="22.364" y2="30"/><linearGradient id="c" gradientTransform="rotate(-165 -6.658 22.948)" gradientUnits="userSpaceOnUse" x1="-27.383" x2="-20.311" y1="21.553" y2="47.946"><stop offset="0" stop-color="#afb4b9"/><stop offset="1" stop-color="#cfd2d5"/></linearGradient><path d="M16 2a14 14 0 0 0-3 .336v2.059a12 12 0 0 0-3.084 1.277L8.463 4.219a14 14 0 0 0-4.254 4.234l1.463 1.463A12 12 0 0 0 4.39 13H2.34A14 14 0 0 0 2 16a14 14 0 0 0 .336 3h2.059a12 12 0 0 0 1.277 3.084l-1.453 1.453a14 14 0 0 0 4.234 4.254l1.463-1.463A12 12 0 0 0 13 27.61v2.05a14 14 0 0 0 3 .34 13.997 13.997 0 0 0 3-.336v-2.059a12 12 0 0 0 3.084-1.277l1.453 1.453a14 14 0 0 0 4.254-4.234l-1.463-1.463A12 12 0 0 0 27.61 19h2.05a14 14 0 0 0 .34-3 13.997 13.997 0 0 0-.336-3h-2.059a12 12 0 0 0-1.277-3.084l1.453-1.453a14 14 0 0 0-4.234-4.254l-1.463 1.463A12 12 0 0 0 19 4.39V2.34A14 14 0 0 0 16 2z" fill="url(#c)"/><circle cx="16" cy="16" fill="url(#d)" r="11"/><path d="M16 8a8 8 0 0 0-8 8 8 8 0 0 0 8 8 8 8 0 0 0 7.283-4.717L23 19l-4 4-6-6 2-2 2-2 4 4 2-2 .791-.791a8 8 0 0 0-.104-.416l.26.26L25 13l3.49 3.49 1.367 1.367a14 14 0 0 0 .07-.648L29 16.281l-6.64-6.64-.706.705A8 8 0 0 0 16 8z" fill="url(#e)" opacity=".2"/><path d="M25 13l-2 2-2 2 6 6 .121-.121-.793-.795A12 12 0 0 0 27.61 19h2.051a14 14 0 0 0 .197-1.143zm4.648 6.041a14 14 0 0 1-.275 1.01 14 14 0 0 0 .275-1.01zm-.275 1.01a14 14 0 0 1-.215.654 14 14 0 0 0 .215-.654zm-.215.654a14 14 0 0 1-.084.22l.018-.017a14 14 0 0 0 .066-.203z" fill="url(#f)" opacity=".2"/><path d="M23 13v2h-2v2h2v2h2v-2h2v-2h-2v-2z" fill="url(#g)"/><path d="M13 17l6 6 4-4-6-6-2 2z" fill="url(#h)" opacity=".2"/><path d="M15 13v2h-2v2h2v2h2v-2h2v-2h-2v-2z" fill="url(#i)"/><path d="M22 22l-8 2-4.363-1.637 7.57 7.573A14 14 0 0 0 19 29.664v-2.059a12 12 0 0 0 3.084-1.277l1.453 1.453a14 14 0 0 0 2.35-1.894zm-3 7.664a14 14 0 0 0 .998-.273 14 14 0 0 1-.998.273zm.998-.273a14 14 0 0 0 .654-.215 14 14 0 0 1-.654.215zm.654-.215a14 14 0 0 0 .637-.244 14 14 0 0 1-.637.244zm.637-.244a14 14 0 0 0 .67-.293 14 14 0 0 1-.67.293zm.67-.293a14 14 0 0 0 .604-.307 14 14 0 0 1-.604.307zm.604-.307a14 14 0 0 0 .898-.506 14 14 0 0 1-.898.506z" fill="url(#j)" opacity=".2"/><path d="M16 7a9 9 0 0 0-9 9 9 9 0 0 0 9 9 9 9 0 0 0 6.36-2.64l-1.413-1.413A7 7 0 0 1 16 23a7 7 0 0 1-7-7 7 7 0 0 1 7-7 7 7 0 0 1 4.947 2.053L22.36 9.64A9 9 0 0 0 16 7z" fill="url(#k)"/></svg>