<svg height="32" width="32" xmlns="http://www.w3.org/2000/svg"><linearGradient id="b" gradientUnits="userSpaceOnUse" x1="66" x2="66" y1="63" y2="41"><stop offset="0" stop-color="#c0392b"/><stop offset="1" stop-color="#e74c3c"/></linearGradient><linearGradient id="a" gradientUnits="userSpaceOnUse" x1="66" x2="66" y1="66" y2="38"><stop offset="0" stop-color="#afb0b3"/><stop offset="1" stop-color="#bdc3c7"/></linearGradient><path d="M66 38a14 14 0 0 0-3 .336v2.059a12 12 0 0 0-3.084 1.277l-1.453-1.453a14 14 0 0 0-4.254 4.234l1.463 1.463A12 12 0 0 0 54.39 49h-2.05a14 14 0 0 0-.34 3 14 14 0 0 0 .336 3h2.059a12 12 0 0 0 1.277 3.084l-1.453 1.453a14 14 0 0 0 4.234 4.254l1.463-1.463A12 12 0 0 0 63 63.61v2.05a14 14 0 0 0 3 .34 14 14 0 0 0 3-.336v-2.059a12 12 0 0 0 3.084-1.277l1.453 1.453a14 14 0 0 0 4.254-4.234l-1.463-1.463A12 12 0 0 0 77.61 55h2.05a14 14 0 0 0 .34-3 14 14 0 0 0-.336-3h-2.059a12 12 0 0 0-1.277-3.084l1.453-1.453a14 14 0 0 0-4.234-4.254l-1.463 1.463A12 12 0 0 0 69 40.39v-2.05a14 14 0 0 0-3-.34zm7.547 2.209a14 14 0 0 0-4.506-1.857 14 14 0 0 1 4.506 1.857zM79.664 49a14 14 0 0 0-1.838-4.46A14 14 0 0 1 79.664 49zm-1.873 10.547a14 14 0 0 0 1.857-4.506 14 14 0 0 1-1.857 4.506zM69 65.664a14 14 0 0 0 4.46-1.838A14 14 0 0 1 69 65.664zm-10.547-1.873a14 14 0 0 0 4.506 1.857 14 14 0 0 1-4.506-1.857zM52.336 55a14 14 0 0 0 1.838 4.46A14 14 0 0 1 52.336 55zm1.873-10.547a14 14 0 0 0-1.857 4.506 14 14 0 0 1 1.857-4.506zM63 38.336a14 14 0 0 0-4.46 1.838A14 14 0 0 1 63 38.336z" fill="url(#a)" transform="translate(-50 -36)"/><path d="M66 41a11 11 0 0 0-7.53 3H68v-2.81a11 11 0 0 0-2-.19zm4 .754V44h3.54A11 11 0 0 0 70 41.754zM56.785 46a11 11 0 0 0-1.73 5H62v-5zM64 46v5h12.95a11 11 0 0 0-1.743-5zm-8.95 7a11 11 0 0 0 1.743 5H68v-5zM70 53v5h5.215a11 11 0 0 0 1.73-5zm-11.54 7A11 11 0 0 0 62 62.246V60zM64 60v2.81a11 11 0 0 0 2 .19 11 11 0 0 0 7.53-3z" fill="url(#b)" transform="translate(-50 -36)"/></svg>