<svg height="32" width="32" xmlns="http://www.w3.org/2000/svg"><linearGradient id="a" gradientTransform="rotate(-165 -6.658 22.948)" gradientUnits="userSpaceOnUse" x1="-27.383" x2="-20.311" y1="21.553" y2="47.946"><stop offset="0" stop-color="#afb4b9"/><stop offset="1" stop-color="#cfd2d5"/></linearGradient><linearGradient id="c" gradientUnits="userSpaceOnUse" x1="106.079" x2="106.079" y1="196.506" y2="29.136"><stop offset="0" stop-color="#375a7d"/><stop offset="1" stop-color="#54a3d8"/></linearGradient><linearGradient id="b" gradientUnits="userSpaceOnUse" x1="24" x2="8" y1="24" y2="8"><stop offset="0" stop-color="#bf4231"/><stop offset="1" stop-color="#f58273"/></linearGradient><path d="M16 2a14 14 0 0 0-3 .336v2.059a12 12 0 0 0-3.084 1.277L8.463 4.219a14 14 0 0 0-4.254 4.234l1.463 1.463A12 12 0 0 0 4.39 13H2.34A14 14 0 0 0 2 16a14 14 0 0 0 .336 3h2.059a12 12 0 0 0 1.277 3.084l-1.453 1.453a14 14 0 0 0 4.234 4.254l1.463-1.463A12 12 0 0 0 13 27.61v2.05a14 14 0 0 0 3 .34 13.997 13.997 0 0 0 3-.336v-2.059a12 12 0 0 0 3.084-1.277l1.453 1.453a14 14 0 0 0 4.254-4.234l-1.463-1.463A12 12 0 0 0 27.61 19h2.05a14 14 0 0 0 .34-3 13.997 13.997 0 0 0-.336-3h-2.059a12 12 0 0 0-1.277-3.084l1.453-1.453a14 14 0 0 0-4.234-4.254l-1.463 1.463A12 12 0 0 0 19 4.39V2.34A14 14 0 0 0 16 2z" fill="url(#a)"/><circle cx="16" cy="16" fill="url(#b)" r="11"/><path d="M104.64 162.556l-10.173 2.775 5.549-13.411 5.55-37.459-6.938-1.386 8.324-11.56 10.37-38.972-18.231 3.825s9.613-17.6 19.814-29.064l-13.34-10.243s-42.98 18.931-31.418 80.436l-8.884-1.554 8.52 64.474-7.203 1.85s7.379 15.058 17.712 22.197c.939.648-12.948-50.405 1.85-101.273l1.387 3.236s-11.792 54.221 0 98.037c0 0 .543 1.041 6.44.348 0 0 10.671-20.117 10.671-32.256" fill="url(#c)" transform="rotate(-45 14.714 11.919) scale(.12674)"/><g fill="#fcfcfc"><path d="M11.95 13.71s1.935 3.053 6.139 6.935a37.27 37.27 0 0 0 3.637 2.952v-.001c.955.743 1.333.98 2.63 1.728L25 26s-9.222-4.823-13.05-12.29"/><path d="M9.822 6.742S6.817 4.457 7.24 9.384c.337 3.923 2.359 5.518 3.478 6.417.286.23-3.028-2.36-3.007-6.269.021-3.907 1.956-2.86 2.11-2.79m7.294 15.363s-3.398-1.477-6.487-4.977c0 0 .822.372 1.752-.14 0 0-.27.41-.5.578 0 0 .889 1.893 5.235 4.54m.793.338s.028.502-1.267.628c0 0 1.717 1.264 3.805.54 0 0-1.697.239-2.745-.288 0 0 .242-.442.207-.88m1.141-2.988s.646-.822.353-1.27c0 0 2.307 2.128 2.202 4.062 0 0-.436-1.992-1.814-3.125zm-3.88-4.76s.546-.34.587-.727c0 0 1.22 2.06 2.232 2.852s.794 2.164.794 2.164-.18-1.533-1.09-2.019c-.63-.336-1.704-1.738-1.91-2.317 0 0-.199.15-.614.048m-4.03-4.5s.248-.74.868-1.54c0 0 2.196.646 2.714 4.98 0 0-1.403-3.679-2.467-4.206 0 0-.487.114-1.115.767"/></g></svg>