<svg height="32" width="32" xmlns="http://www.w3.org/2000/svg" xmlns:xlink="http://www.w3.org/1999/xlink"><linearGradient id="e" gradientUnits="userSpaceOnUse" x1="10" x2="22" y1="10" y2="22"><stop offset="0" stop-color="#171e25"/><stop offset="1" stop-opacity="0"/></linearGradient><linearGradient id="m" gradientUnits="userSpaceOnUse" x1="26" x2="26" xlink:href="#a" y1="29" y2="3"/><linearGradient id="k" gradientUnits="userSpaceOnUse" x1="23.558" x2="25.418" xlink:href="#b" y1="5.454" y2="7.314"/><linearGradient id="j" gradientUnits="userSpaceOnUse" x1="21.214" x2="23.053" xlink:href="#b" y1="4.115" y2="5.943"/><linearGradient id="h" gradientUnits="userSpaceOnUse" x1="18.694" x2="20.543" xlink:href="#b" y1="3.315" y2="5.148"/><linearGradient id="f" gradientUnits="userSpaceOnUse" x1="16" x2="17.993" xlink:href="#b" y1="3" y2="4.993"/><linearGradient id="i" gradientUnits="userSpaceOnUse" x1="10.753" x2="13.038" xlink:href="#b" y1="4.083" y2="6.368"/><linearGradient id="g" gradientUnits="userSpaceOnUse" x1="13.277" x2="15.44" xlink:href="#b" y1="3.281" y2="5.444"/><linearGradient id="l" gradientUnits="userSpaceOnUse" x1="26.401" x2="26.401" xlink:href="#a" y1="29" y2="3"/><linearGradient id="d" gradientUnits="userSpaceOnUse" x1="10" x2="30" y1="10" y2="30"><stop offset="0"/><stop offset="1" stop-opacity="0"/></linearGradient><linearGradient id="b"><stop offset="0" stop-color="#292c2f"/><stop offset="1" stop-opacity="0"/></linearGradient><linearGradient id="a" gradientUnits="userSpaceOnUse" x1="567.307" x2="567.307" y1="691.461" y2="39.516"><stop offset="0" stop-color="#73ba25"/><stop offset="1" stop-color="#96cb5c"/></linearGradient><linearGradient id="c" gradientUnits="userSpaceOnUse" x1="2" x2="2" y1="30" y2="2"><stop offset="0" stop-color="#171e25"/><stop offset="1" stop-color="#333c45"/></linearGradient><rect fill="url(#c)" height="28" rx="4" width="28" x="2" y="2"/><path d="M2 25v1c0 2.216 1.784 4 4 4h20c2.216 0 4-1.784 4-4v-1c0 2.216-1.784 4-4 4H6c-2.216 0-4-1.784-4-4z" opacity=".4"/><path d="M15.963 6.137A9.85 9.85 0 0 0 9.539 8.53c-.475.4-.907.848-1.289 1.337-.15.192-.28.35-.291.35l.633.633C12.462 5.133 24 8 23.898 12.941 25 19 23 24 17 24c-2.418.003-5.566.182-7.279-1.525l2.677 2.68a9.9 9.9 0 0 0 1.46.472c1.005.225 2.249.286 3.318.162a9.757 9.757 0 0 0 5.328-2.363c.565-.495.866-.81 1.25-1.301.148-.19.278-.344.289-.344.01 0 .006.04-.01.088-.074.233.007.685.184 1.033.19.373.681 1.038 1.203 1.63.105.119.191.232.191.251s-.113-.047-.25-.146c-1.183-.86-1.895-1.221-2.418-1.221-.273 0-.346.051-.386.266-.09.475.167 1.237.82 2.437.134.247.23.448.213.447-.018 0-.221-.207-.451-.46-.876-.963-1.57-1.454-2.059-1.454-.113 0-.143.023-.207.15-.11.22-.133.345-.13.735.001.424.101.929.343 1.742.1.337.173.622.164.631-.01.01-.169-.24-.355-.555-.667-1.122-1.238-1.742-1.698-1.843-.146-.032-.183-.002-.332.277-.136.256-.195.527-.22 1.025-.021.408.036 1.562.09 1.817.01.05.004.09-.014.09s-.083-.158-.145-.35c-.203-.63-.497-1.34-.687-1.664-.208-.355-.54-.705-.73-.771-.118-.041-.138-.033-.307.123-.371.342-.602 1.059-.754 2.336-.04.333-.085.605-.098.605s-.055-.264-.094-.588c-.158-1.336-.437-2.15-.834-2.432l-.123-.087-.158.087c-.406.228-.83.943-1.223 2.063l-.222.633c-.053.148-.05-.04.008-.656.117-1.258-.008-2.165-.34-2.465-.074-.067-.103-.07-.24-.03-.452.136-.973.721-1.66 1.87-.175.29-.322.513-.329.494-.006-.02.07-.308.168-.639.356-1.194.43-1.966.23-2.408-.082-.184-.089-.189-.255-.188-.496.003-1.136.476-2.223 1.645-.138.149-.26.263-.27.254-.009-.01.086-.203.211-.43.68-1.229.942-2.028.813-2.49-.058-.209-.123-.237-.49-.207-.46.037-1.089.352-2.016 1.012-.29.206-.533.366-.545.36L11.61 30H30V11.605L25.594 7.2c.006.01-.12.173-.285.365-1.026 1.197-1.373 1.837-1.32 2.424.02.238.018.245-.046.164l-.318-.406c-.3-.384-1.048-1.117-1.533-1.504-1.393-1.11-3.306-1.878-5.115-2.056-.34-.034-.677-.05-1.014-.05zM6.408 24.799l.024-.03-.026.028zM7.96 10.217c-.002 0 .003-.016.002-.02l-.008.014zM9.623 22.37v.006l.057.057c-.02-.02-.037-.043-.057-.063z" fill="url(#d)" opacity=".2"/><path d="M25 16a9 9 0 0 1-9 9 9 9 0 0 1-9-9 9 9 0 0 1 9-9 9 9 0 0 1 9 9z" fill="url(#e)" opacity=".2"/><path d="M16 3v.06c.003.047.037.333.08.662.149 1.118.364 1.804.678 2.162.203.232.255.245.457.127.262-.154.523-.508.778-1.018z" fill="url(#f)" opacity=".2"/><path d="M13.277 3.281c.02.004.102.209.188.464.229.676.471 1.253.66 1.572.193.324.536.681.712.743.113.04.135.032.283-.113.121-.117.225-.295.32-.503z" fill="url(#g)" opacity=".2"/><path d="M18.704 3.309a.651.651 0 0 1-.008.148c-.187 1.6-.083 2.648.292 2.988.074.067.101.068.24.027.372-.111.8-.549 1.315-1.324z" fill="url(#h)" opacity=".2"/><path d="M10.753 4.083l.008.021c.019.006.165.231.345.536.186.314.424.689.53.831.538.731 1.183 1.19 1.358.97.017-.023.028-.05.044-.073z" fill="url(#i)" opacity=".2"/><path d="M21.218 4.109l-.004.006c.005.025-.068.31-.167.643-.356 1.2-.43 1.955-.23 2.398.082.183.088.189.255.188.458-.003 1.04-.422 1.98-1.4z" fill="url(#j)" opacity=".2"/><path d="M23.558 5.454c.004.019-.1.232-.243.496-.66 1.212-.888 1.918-.774 2.393.056.233.112.259.493.228.46-.037 1.086-.352 2.014-1.011.198-.141.274-.185.37-.246z" fill="url(#k)" opacity=".2"/><path d="M7.967 10.129c.074-.233-.007-.685-.184-1.033-.19-.373-.68-1.038-1.202-1.63-.106-.12-.192-.233-.192-.252s.14.065.31.187c1.207.866 1.834 1.18 2.358 1.18.273 0 .346-.05.386-.264.09-.475-.167-1.238-.82-2.438-.134-.247-.229-.448-.21-.448.017 0 .22.207.45.46.833.918 1.482 1.392 1.975 1.443l.21.021.091-.174c.074-.142.095-.256.108-.596.019-.507-.063-.968-.333-1.874-.1-.334-.173-.615-.163-.624.01-.01.17.239.356.553s.424.688.529.83c.538.731 1.183 1.193 1.357.971.23-.292.332-.653.363-1.278.02-.431-.04-1.63-.093-1.816-.011-.039-.005-.07.013-.07s.104.21.19.468c.229.676.471 1.253.66 1.571.193.324.536.683.711.744.113.04.134.032.283-.113.374-.363.617-1.137.764-2.43a3.19 3.19 0 0 1 .08-.48c.03-.05.034-.05.035.006 0 .036.038.34.082.678.148 1.118.363 1.805.678 2.163.203.231.255.246.456.128.416-.244.829-.945 1.222-2.077.232-.665.296-.783.26-.479-.187 1.6-.085 2.648.29 2.988.074.067.103.07.24.029.455-.136.982-.73 1.662-1.87.174-.291.32-.513.327-.493.007.019-.07.31-.17.647-.356 1.2-.428 1.956-.23 2.398.083.184.09.19.257.189.498-.003 1.122-.465 2.222-1.646.14-.149.26-.263.27-.254.008.009-.104.237-.25.506-.66 1.212-.888 1.918-.774 2.393.056.233.112.26.492.229.46-.037 1.088-.352 2.015-1.011.293-.209.54-.373.548-.364.008.008-.12.173-.287.367-1.025 1.197-1.374 1.837-1.321 2.424.021.237.019.244-.045.164-.036-.046-.18-.228-.317-.405-.3-.384-1.05-1.119-1.535-1.505-1.393-1.11-3.304-1.878-5.114-2.056A9.867 9.867 0 0 0 9.54 8.53a8.972 8.972 0 0 0-1.29 1.336 3.59 3.59 0 0 1-.292.35c-.01 0-.007-.04.009-.088zm7.939 18.283c-.158-1.337-.438-2.15-.834-2.432l-.123-.088-.158.089c-.406.227-.83.941-1.222 2.062l-.223.634c-.053.148-.05-.04.007-.657.118-1.257-.007-2.165-.34-2.466-.074-.067-.102-.07-.24-.03-.452.136-.972.723-1.66 1.871-.174.29-.322.513-.329.494-.006-.02.07-.307.168-.638.357-1.194.431-1.966.232-2.409-.082-.183-.09-.189-.256-.188-.496.003-1.136.477-2.223 1.646-.139.149-.26.263-.27.253-.009-.009.086-.203.212-.43.68-1.229.941-2.028.812-2.49-.059-.21-.123-.236-.491-.207-.46.037-1.088.352-2.016 1.011-.293.209-.54.373-.547.365-.008-.008.131-.184.309-.39.61-.712.928-1.166 1.158-1.653.118-.25.132-.316.132-.63 0-.32.006-.345.06-.275l.311.397c.3.384 1.05 1.118 1.535 1.505 1.065.848 2.572 1.563 3.948 1.871a10.5 10.5 0 0 0 3.319.163 9.753 9.753 0 0 0 5.326-2.364c.566-.495.867-.808 1.251-1.3a3.52 3.52 0 0 1 .288-.344c.01 0 .007.039-.008.087-.074.233.006.685.183 1.033.19.373.681 1.038 1.203 1.63.105.119.191.232.191.251s-.112-.047-.249-.147c-1.183-.86-1.896-1.22-2.418-1.22-.274 0-.347.05-.387.265-.09.475.167 1.238.82 2.438.134.246.23.448.212.448-.017 0-.22-.208-.45-.461-.876-.963-1.57-1.453-2.06-1.453-.113 0-.143.022-.207.15-.11.218-.132.344-.13.734.002.424.102.93.344 1.743.1.337.174.62.165.63-.01.01-.17-.24-.357-.554-.666-1.122-1.238-1.743-1.697-1.844-.147-.032-.184-.002-.332.278-.136.255-.195.526-.22 1.024-.021.408.036 1.563.09 1.817.01.05.004.09-.014.09s-.083-.157-.145-.35c-.204-.629-.497-1.34-.687-1.664-.208-.355-.54-.705-.731-.771-.118-.041-.137-.034-.306.122-.371.342-.603 1.06-.755 2.337-.04.333-.083.605-.097.605-.013 0-.055-.265-.094-.588z" fill="url(#l)"/><path d="M16 7a9 9 0 0 0-9 9 9 9 0 0 0 9 9 9 9 0 0 0 9-9 9 9 0 0 0-9-9zm0 1.125A7.875 7.875 0 0 1 23.875 16 7.875 7.875 0 0 1 16 23.875a7.875 7.875 0 0 1-5.927-2.705c.567-.41 1.497-.306 2.641-.177.557.065 1.192.138 1.849.153 1.834.012 3.81-.327 5.027-.86.788-.342 1.29-.57 1.605-.856.114-.094.173-.247.234-.41l.043-.109c.05-.133.125-.413.158-.567.014-.067.03-.133-.027-.177-.05-.039-.168.032-.168.032-.535.322-1.872.931-3.121.957-1.552.031-4.695-1.57-5.02-1.74-.219-.519-.437-1.038-.658-1.556 2.25 1.482 4.115 2.301 5.542 2.428 1.59.141 2.83-.726 3.367-1.087.07-.047.14-.1.205-.15.012-.009.04-.032.036-.054-.09-.557-.92-3.26-1.548-3.91-.173-.176-.312-.35-.592-.515-2.273-1.325-7.666-2.124-7.918-2.16 0 0-.026-.006-.043.011-.014.014-.017.04-.017.04s-.02 1.117-.024 1.242a32.714 32.714 0 0 0-1.844-.546A7.875 7.875 0 0 1 16 8.125zm1.641 4.568l.116.001a2.315 2.315 0 0 1 2.226 2.388 2.3 2.3 0 0 1-.731 1.606c-.45.423-1.037.64-1.657.62a2.315 2.315 0 0 1-2.224-2.388c.023-.616.28-1.188.73-1.607.423-.395.966-.61 1.54-.62zm.016.68a1.585 1.585 0 0 0-1.072.43c-.313.294-.497.69-.51 1.12a1.615 1.615 0 0 0 1.552 1.669c.43.013.842-.14 1.156-.433a1.613 1.613 0 0 0-1.126-2.786zm.343.808c.395 0 .715.213.715.477 0 .262-.32.475-.715.475-.394 0-.713-.213-.713-.475 0-.264.319-.477.713-.477z" fill="url(#m)"/></svg>