<svg height="32" width="32" xmlns="http://www.w3.org/2000/svg" xmlns:xlink="http://www.w3.org/1999/xlink"><linearGradient id="h" gradientTransform="matrix(1.35501 0 0 1.27276 -4.486 -4.182)" gradientUnits="userSpaceOnUse" x1="20" x2="20" y1="25" y2="7"><stop offset="0" stop-color="#eff0f1"/><stop offset="1" stop-color="#fcfcfc"/></linearGradient><linearGradient id="i" gradientTransform="matrix(1.35501 0 0 1.27276 -4.486 -4.182)" gradientUnits="userSpaceOnUse" x1="20" x2="20" y1="25" y2="7"><stop offset="0" stop-color="#afb0b3"/><stop offset="1" stop-color="#bdc3c7"/></linearGradient><linearGradient id="f" gradientUnits="userSpaceOnUse" x1="15" x2="23" xlink:href="#a" y1="8.5" y2="16.5"/><linearGradient id="e" gradientUnits="userSpaceOnUse" x1="11" x2="19" xlink:href="#a" y1="9.5" y2="17.5"/><linearGradient id="g" gradientUnits="userSpaceOnUse" x1="21" x2="29" xlink:href="#a" y1="8" y2="16"/><linearGradient id="c" gradientUnits="userSpaceOnUse" x1="25.5" x2="30" xlink:href="#a" y1="18" y2="22.5"/><linearGradient id="d" gradientUnits="userSpaceOnUse" x1="12" x2="12" xlink:href="#a" y1="24" y2="30"/><linearGradient id="b" gradientUnits="userSpaceOnUse" x1="16" x2="16" y1="30" y2="4"><stop offset="0" stop-color="#73ba25"/><stop offset="1" stop-color="#59bbe7"/></linearGradient><linearGradient id="a"><stop offset="0" stop-color="#292c2f"/><stop offset="1" stop-opacity="0"/></linearGradient><path d="M16 2A14 14 0 0 0 2 16a14 14 0 0 0 14 14 14 14 0 0 0 14-14A14 14 0 0 0 16 2z" fill="url(#b)"/><path d="M25.5 18L20 25l3.068 3.068a14 14 0 0 0 5.834-6.666z" fill="url(#c)" opacity=".2"/><path d="M5 23l6.11 6.11A14 14 0 0 0 16 30a14 14 0 0 0 7.068-1.932L20 25z" fill="url(#d)" opacity=".2"/><path d="M11 9.5l2 2V17h-2z" fill="url(#e)" opacity=".2"/><path d="M15 8.5l2.5 2.5v5H15z" fill="url(#f)" opacity=".2"/><path d="M21 8v10h4.5l3.402 3.402a14 14 0 0 0 1.063-4.437z" fill="url(#g)" opacity=".2"/><path d="M6 18.5L5 23l15 2V7l-2.5 1v7.5L15 16V8.5l-2 1v7l-2 .5V9.5l-2 1v7z" fill="url(#h)"/><path d="M20 25l6-2-.5-5-4.5-2.5V8l-1-1z" fill="url(#i)"/><path d="M2.021 15.414A14 14 0 0 0 2 16a14 14 0 0 0 14 14 14 14 0 0 0 14-14 14 14 0 0 0-.021-.414A14 14 0 0 1 16 29 14 14 0 0 1 2.021 15.414z" fill="#639e2f"/></svg>