<svg height="32" width="32" xmlns="http://www.w3.org/2000/svg"><linearGradient id="d" gradientUnits="userSpaceOnUse" x1="24" x2="24" y1="25" y2="7"><stop offset="0" stop-color="#bb9d71"/><stop offset="1" stop-color="#f9f2e7"/></linearGradient><linearGradient id="a" gradientUnits="userSpaceOnUse" x1="16" x2="16" y1="30" y2="2"><stop offset="0" stop-color="#2980b9"/><stop offset="1" stop-color="#68afde"/></linearGradient><linearGradient id="c" gradientUnits="userSpaceOnUse" x1="10" x2="24" y1="10" y2="24"><stop offset="0" stop-color="#292c2f"/><stop offset="1" stop-opacity="0"/></linearGradient><linearGradient id="b" gradientUnits="userSpaceOnUse" x1="-13" x2="-13" y1="27" y2="5"><stop offset="0" stop-color="#3b85b5"/><stop offset="1" stop-color="#7cbcec"/></linearGradient><circle cx="16" cy="16" fill="url(#a)" r="14"/><ellipse cx="16" cy="16" fill="url(#b)"/><path d="M20.373 7.627l-5.441 3.441-2.748-2.75-3.916 1.414L10 11.467l.258 4.275L14 19.484 13.182 24l-1.252.754 5.187 5.187A14 14 0 0 0 19 29.664v-2.059a12 12 0 0 0 3.084-1.277l1.453 1.453a14 14 0 0 0 4.254-4.234l-1.463-1.463A12 12 0 0 0 27.61 19h2.051a14 14 0 0 0 .27-1.818z" fill="url(#c)" opacity=".3"/><path d="M19.125 7c-.522.003-1.924.452-2.433.778-.165.107-.556.596-.868 1.09-.31.493-.89 1.088-1.288 1.322-.436.258-.965.928-1.34 1.695-.671 1.37-1.004 1.227-.525-.225.423-1.285.167-2.787-.588-3.436-.71-.61-1.343-.674-1.755-.176-.162.193-.578.35-.927.35-.862 0-1.59.792-1.182 1.283.162.196.504.355.76.355.395 0 .442.1.298.642-.093.352-.22 1.253-.283 1.998-.1 1.215-.044 1.442.547 2.221 1.194 1.575 2.247 2.158 3.089 1.707.389-.207.441-.016.672 2.472.291 3.121.12 4.07-.898 5.02-.591.553-.629.654-.27.747l.002.001c1.305.338 1.379.265 1.681-1.652.607-3.846.681-4.221.932-4.69.14-.265.257-.701.257-.967 0-.335.151-.482.494-.482.522 0 .525.058.072 2.306-.144.71-.066.87.807 1.668 1.12 1.024 1.2 1.474.362 2.023-.47.308-.53.435-.274.578.479.268 1.345-.02 1.345-.449 0-.285.108-.252.483.149.265.285.58.456.702.382.336-.209.26-.953-.132-1.278-.502-.417-.44-.74.351-1.833.56-.772.702-1.21.702-2.153 0-1.205.556-2.68.925-2.452.113.068.273.536.359 1.038.083.502.3 1.107.478 1.344.39.513.463 3.76.113 4.98-.232.811.015 1.279.581 1.099.222-.07.358-2.72.285-5.531-.057-2.164.076-4.312.276-4.513.288-.288.524 1.914.258 2.41-.128.238-.164.612-.08.831.266.695.993-1.028 1.005-2.38.007-.985-.115-1.351-.692-2.078-.386-.486-.702-1.004-.702-1.15 0-.147-.364-.833-.809-1.522-.442-.689-.872-1.553-.952-1.92-.17-.774-1.125-1.606-1.838-1.601zm-.77 9.822c.117.06.192.538.279 1.461.13 1.389.085 1.891-.218 2.479v.002c-.455.88-.6.901-1.264.194-.621-.66-.631-.876-.075-1.59.24-.306.576-.98.75-1.493.252-.752.412-1.111.528-1.053z" fill="url(#d)"/><path d="M29.979 15.414A14 14 0 0 1 16 29 14 14 0 0 1 2.021 15.586 14 14 0 0 0 2 16a14 14 0 0 0 14 14 14 14 0 0 0 14-14 14 14 0 0 0-.021-.586z" fill="#292c2f" opacity=".2"/></svg>