<svg height="32" width="32" xmlns="http://www.w3.org/2000/svg" xmlns:xlink="http://www.w3.org/1999/xlink"><linearGradient id="a"><stop offset="0" stop-color="#292c2f"/><stop offset="1" stop-opacity="0"/></linearGradient><linearGradient id="d" gradientUnits="userSpaceOnUse" x1="7" x2="13" xlink:href="#a" y1="24" y2="30"/><linearGradient id="f" gradientUnits="userSpaceOnUse" x1="8.668" x2="12.782" xlink:href="#a" y1="8.328" y2="12.442"/><linearGradient id="e" gradientUnits="userSpaceOnUse" x1="14" x2="20.741" xlink:href="#a" y1="6.456" y2="13.197"/><linearGradient id="g" gradientUnits="userSpaceOnUse" x1="24.408" x2="30" xlink:href="#a" y1="9.49" y2="15.082"/><linearGradient id="j" gradientUnits="userSpaceOnUse" x1="15.388" x2="19.555" xlink:href="#a" y1="21.833" y2="26"/><linearGradient id="c" gradientUnits="userSpaceOnUse" x1="2" x2="2" y1="30" y2="2"><stop offset="0" stop-color="#34749e"/><stop offset="1" stop-color="#62afe8"/></linearGradient><linearGradient id="k" gradientTransform="translate(32.031 -.14) scale(.98049)" gradientUnits="userSpaceOnUse" x1="-12.271" x2="-12.271" xlink:href="#b" y1="24.62" y2="20.54"/><linearGradient id="i" gradientUnits="userSpaceOnUse" x1="24" x2="24" xlink:href="#b" y1="14" y2="9"/><linearGradient id="h" gradientUnits="userSpaceOnUse" x1="4" x2="4" y1="26" y2="6"><stop offset="0" stop-color="#eff0f1"/><stop offset="1" stop-color="#fcfcfc"/></linearGradient><linearGradient id="b" gradientTransform="translate(32.031 -.14) scale(.98049)" gradientUnits="userSpaceOnUse" x1="-17.37" x2="-17.37" y1="24.62" y2="20.54"><stop offset="0" stop-color="#172525"/><stop offset="1" stop-color="#292c2f"/></linearGradient><rect fill="url(#c)" height="28" rx="4" width="28" x="2" y="2"/><path d="M2 25v1c0 2.216 1.784 4 4 4h20c2.216 0 4-1.784 4-4v-1c0 2.216-1.784 4-4 4H6c-2.216 0-4-1.784-4-4z" fill="#292c2f" opacity=".2"/><path d="M7 24l6 6h17V19.715l-4-4z" fill="url(#d)" opacity=".2"/><path d="M14 6.456L21.544 14H14z" fill="url(#e)" opacity=".2"/><path d="M8.668 8.328L12 11.66V13H9z" fill="url(#f)" opacity=".2"/><path d="M24.408 9.49l1.99 1.99.86-1.42L30 12.804v7.345l-6.312-6.312z" fill="url(#g)" opacity=".2"/><path d="M12.89 6c-.327.008-.582.107-.673.107-2.086.293-1.462 3.219-.577 5.962.075.702-.654.408-1.13-.327C8.909 7.818 8.2 7.945 7.753 7.83c-.428-.089-1.916.694-1.883 2.28.006.457.573 2.605.578 3.272-1.88 3.228-2.645 6.422-.29 9.726 2.376 3.147 9.446 3.252 10.71 2.51.483-.338 7.698-3.893 9.361-5.272 2.479-2.05-.064-4.632-.663-4.992-5.135-3.359-10.384-2.66-10.454-3.192-.036-.616-.014-2.327-.103-2.935C14.66 6.398 13.606 5.984 12.89 6z" fill="url(#h)" fill-rule="evenodd"/><path d="M24.408 9.49a.157.157 0 0 0-.097.008c-.05.022-.066.046-.08.066a.577.577 0 0 0-.065.135c-.04.106-.082.255-.129.44a19.24 19.24 0 0 0-.285 1.392c-.088.518-.16 1.048-.186 1.465a3.343 3.343 0 0 0 0 .531.791.791 0 0 0 .04.192c.02.054.054.11.119.146.03.02.069.036.109.033a.196.196 0 0 0 .107-.043.385.385 0 0 0 .106-.142c.054-.109.1-.256.148-.44.096-.367.188-.874.26-1.394s.126-1.054.143-1.477a4.291 4.291 0 0 0-.006-.537 1.046 1.046 0 0 0-.032-.19.274.274 0 0 0-.09-.146.14.14 0 0 0-.062-.039zm2.729.524a.256.256 0 0 0-.106.02.595.595 0 0 0-.162.105 2.962 2.962 0 0 0-.361.394c-.268.336-.586.806-.877 1.297s-.556 1.001-.717 1.424c-.08.211-.136.4-.154.562-.018.163-.003.324.127.42.071.054.168.039.224.01a.573.573 0 0 0 .15-.119c.098-.1.205-.245.323-.424.236-.357.515-.849.78-1.353.263-.505.513-1.02.689-1.42.088-.2.156-.372.2-.502.023-.065.04-.12.05-.168a.33.33 0 0 0 .008-.074c-.001-.028 0-.072-.05-.122l-.003-.003-.006-.004a.193.193 0 0 0-.115-.043z" fill="url(#i)"/><path d="M15.388 21.833l1.835 1.835-.068.2L25.287 32h6.37L19.563 19.906z" fill="url(#j)" opacity=".2"/><path d="M17.155 23.867c-.326-.197 2.214-3.158 2.837-2.837.91.904-2.88 2.908-2.837 2.837zm-1.767-2.034c-.058-.204 3.64-2.441 4.175-1.927.964.35-4.14 2.187-4.175 1.927z" fill="url(#k)"/></svg>