<svg height="32" width="32" xmlns="http://www.w3.org/2000/svg"><linearGradient id="a" gradientUnits="userSpaceOnUse" x1="16" x2="16" y1="46" y2="18"><stop offset="0" stop-color="#afb0b3"/><stop offset="1" stop-color="#bdc3c7"/></linearGradient><linearGradient id="b" gradientTransform="matrix(1.125 0 0 .83333 -2.625 -.167)" gradientUnits="userSpaceOnUse" x1="17.444" x2="17.444" y1="35.001" y2="3.8"><stop offset="0" stop-color="#c0392b"/><stop offset="1" stop-color="#e74c3c"/></linearGradient><path d="M2 18h28v28H2z" fill="url(#a)" transform="translate(0 -16)"/><path d="M3 24h9v5H3zm11 0h15v5H14zM3 17h15v5H3zm17 0h9v5h-9zM3 10h9v5H3zm11 0h15v5H14zm6-7h9v5h-9zM3 3h15v5H3z" fill="url(#b)"/><path d="M2 29h28v1H2z" fill="#292c2f" opacity=".2"/></svg>