<svg height="32" width="32" xmlns="http://www.w3.org/2000/svg" xmlns:xlink="http://www.w3.org/1999/xlink"><linearGradient id="a" gradientUnits="userSpaceOnUse" x1="25" x2="25" y1="6" y2="26"><stop offset="0"/><stop offset="1" stop-color="#292c2f"/></linearGradient><linearGradient id="g" gradientUnits="userSpaceOnUse" x1="23" x2="23" xlink:href="#a" y1="26" y2="13"/><linearGradient id="e" gradientUnits="userSpaceOnUse" x1="7" x2="7" xlink:href="#a" y1="11" y2="14"/><linearGradient id="d" gradientUnits="userSpaceOnUse" x1="18" x2="18" xlink:href="#a" y1="7" y2="11"/><linearGradient id="c" gradientUnits="userSpaceOnUse" x1="25" x2="25" xlink:href="#a" y1="6" y2="12"/><linearGradient id="f" gradientUnits="userSpaceOnUse" x1="14" x2="14" xlink:href="#a" y1="8" y2="12"/><linearGradient id="b" gradientUnits="userSpaceOnUse" x1="2" x2="2" y1="30" y2="2"><stop offset="0" stop-color="#997657"/><stop offset="1" stop-color="#d4ba94"/></linearGradient><rect fill="url(#b)" height="28" rx="4" width="28" x="2" y="2"/><path d="M2 25v1c0 2.216 1.784 4 4 4h20c2.216 0 4-1.784 4-4v-1c0 2.216-1.784 4-4 4H6c-2.216 0-4-1.784-4-4z" fill="#292c2f" opacity=".2"/><path d="M22.42 6c-4.16 0-4.941 5.926-2.6 5.926 2.34 0 6.761-5.926 2.6-5.926z" fill="url(#c)"/><path d="M15.511 11.192c1.247.076 2.614-4.756.272-4.452s-1.518 4.376-.272 4.452z" fill="url(#d)"/><path d="M9.8 14.194c.886-.39.114-4.206-1.393-3.165-1.507 1.04.507 3.555 1.393 3.165z" fill="url(#e)"/><path d="M12.297 12.197c1.056-.215 1.113-4.543-.768-3.767-1.882.777-.286 3.982.768 3.767z" fill="url(#f)"/><path d="M17.807 21.882c.187 1.43-1.049 2.136-2.26 1.215-3.853-2.934 6.381-4.398 5.707-8.407-.56-3.327-10.77-2.303-11.932 2.903-.786 3.522 3.24 8.407 7.44 8.407 2.067 0 4.45-1.866 4.897-4.23.34-1.803-4.008-1.08-3.852.112z" fill="url(#g)"/><rect fill="#eff0f1" height="16" rx="2" width="16" x="16" y="14"/><path d="M28.76 16c.246 0 .385.186.414.559l-.207 1.755h.076l.163-.13h.044v.04c-.225.164-.443.615-.654 1.351a8.489 8.489 0 0 1-.404 1.755 5.346 5.346 0 0 0-.25 1.535l-.317.923c0 .078.12.156.36.234-.043.182-.109.273-.196.273v.052h.076v.039c0 .095-.123.143-.37.143l.043.052v.182h-.076c.05.182.16.273.327.273v.09h-.327v.053c.109 0 .163.078.163.234l-.458.182.044.052v.039c0 .06-.054.09-.163.09v.053c.138 0 .207.03.207.09-.197.079-.455.465-.774 1.158-.328.615-.611.923-.85.923h-.088c-.182-.139-.33-.598-.447-1.378-.465-1.188-.698-1.885-.698-2.093 0-.538-.149-1.11-.447-1.716a4.834 4.834 0 0 1-.164-1.015l-.196-.052c-.494.893-.752 1.591-.774 2.094a4.54 4.54 0 0 0-.327 1.066c.298.095.447.186.447.273v.052c-.233-.035-.396-.1-.49-.195-.103.234-.237.884-.404 1.95-.131.494-.295.741-.49.741a3.14 3.14 0 0 1-1.386-1.066c-.058 0-.152-.247-.283-.741-.08 0-.135-.247-.164-.741-.276-.702-.465-1.504-.567-2.405V21.42h-.043l-.196.052v-.052c0-.06.065-.09.196-.09l-.044-.78v-.612l-.316-1.95v-.832c.138-.52.378-.78.72-.78 0 0 .03-.002.13.13l-.13-.039c.53.693.843 1.278.937 1.755h.371v.091h-.283v.104c.109.399.189.598.24.598h.087l.196-.052.044.052.043-.052.044.052v.04a.762.762 0 0 0-.295.428h-.032v.091h.076c.102 1.448.29 2.544.567 3.29l.164.13h.087c.109 0 .338-.507.687-1.522.225-.459.389-.862.49-1.209l-.043-.143c.225-.338.458-.507.698-.507h.076c.152 0 .262.096.327.286.203.286.367.715.49 1.287l.611 1.353a.49.49 0 0 1 .12.325c.225.511.429.849.61 1.014h.132c.152 0 .356-.633.61-1.899.044 0 .164-.338.36-1.014v-.052l-.687-.09-.163.051h-.208v-.104l.415-.039h.807c.312-1.118.6-1.984.86-2.6.088-1.265.208-1.898.36-1.898zm-4.154 1.118h.12v.04c0 .06-.04.09-.12.09l-.043.052v.052l-.12-.052v-.09zm-.61.507v.052c0 .07-.175.143-.524.221v-.09l.24-.13.044.038h.032l.208-.09m-1.178.467v.04c-.153.138-.4.264-.741.376v-.09c.058 0 .087-.048.087-.144zm2.072.455l.043.052v.04l-.076.103h-.044l-.087-.104V18.6zm1.504.052h.044v.04l-.076.103h-.044v-.052l.076-.09m-.687.65l.164.13c-.03.095-.11.142-.24.142l-.087-.143c0-.043.054-.086.163-.13m.982.598l.032.052v.04l-.032.051H26.6v-.052zm-1.549.468v.04l-.207.194h-.12v-.052c0-.078.11-.138.327-.182m-1.428 3.979h.044v.09l-.327.196-.044-.052v-.091zm-.12 1.209h.033l.13.143-.043.039h-.044l-.076-.13z" fill="#232629"/></svg>