<svg height="32" width="32" xmlns="http://www.w3.org/2000/svg"><linearGradient id="c" gradientUnits="userSpaceOnUse" x1="17" x2="17" y1="30" y2="27"><stop offset="0" stop-color="#292c2f" stop-opacity=".6"/><stop offset="1" stop-color="#292c2f" stop-opacity=".4"/></linearGradient><linearGradient id="b" gradientTransform="matrix(1 0 0 1.12 0 -.24)" gradientUnits="userSpaceOnUse" x1="4" x2="4" y1="27" y2="2"><stop offset="0" stop-color="#173f4f"/><stop offset="1" stop-color="#516f7b"/></linearGradient><linearGradient id="e" gradientUnits="userSpaceOnUse" x1="17" x2="17" y1="22" y2="6"><stop offset="0" stop-color="#eff0f1"/><stop offset="1" stop-color="#fcfcfc"/></linearGradient><linearGradient id="d" gradientUnits="userSpaceOnUse" x1="17" x2="28" y1="14" y2="25"><stop offset="0" stop-color="#292c2f"/><stop offset="1" stop-opacity="0"/></linearGradient><linearGradient id="a" gradientTransform="matrix(.75 0 0 .7 -290.428 -350.66)" gradientUnits="userSpaceOnUse" x1="409.571" x2="409.571" y1="543.798" y2="503.798"><stop offset="0" stop-color="#73ba25"/><stop offset="1" stop-color="#96cb5c"/></linearGradient><path d="M4 2h24v28H4z" fill="url(#a)"/><path d="M4 2v28h2V2z" fill="url(#b)"/><path d="M4 27h24v3H4z" fill="url(#c)" fill-rule="evenodd"/><path d="M5 28h23v1H5z" fill="#c5cfd3"/><path d="M11.35 19.65L18.697 27H28V13.686l-5.343-5.343L23 9l2 5-2 5-6 3-5-2z" fill="url(#d)" opacity=".2"/><path d="M17 6a8 8 0 0 0-6.297 3.083c.63.165 1.254.35 1.873.553l.022-1.261s.004-.026.018-.04c.018-.017.045-.011.045-.011.256.037 5.733.849 8.042 2.194.285.167.427.344.603.524.638.66 1.48 3.405 1.571 3.971.003.022-.023.046-.035.056a3.454 3.454 0 0 1-.21.152c-.546.366-1.805 1.247-3.42 1.103-1.45-.128-3.346-.96-5.63-2.465.225.526.447 1.051.668 1.578.33.172 3.526 1.8 5.1 1.768 1.27-.027 2.627-.644 3.17-.97 0 0 .12-.074.172-.034.056.044.04.113.027.18a5.48 5.48 0 0 1-.159.577l-.044.109c-.062.166-.123.321-.24.417-.32.29-.829.523-1.629.87-1.238.542-3.243.886-5.107.874a19.902 19.902 0 0 1-1.877-.157c-1.162-.13-2.108-.236-2.685.181A8 8 0 0 0 17 22a8 8 0 0 0 8-8 8 8 0 0 0-8-8zm1.786 4.64a2.336 2.336 0 0 0-1.681.63 2.332 2.332 0 0 0-.743 1.632 2.352 2.352 0 0 0 2.259 2.426 2.32 2.32 0 0 0 1.683-.63c.453-.423.72-1.009.74-1.629a2.352 2.352 0 0 0-2.258-2.428zm-.174.693c.05-.003.102-.003.154 0 1.449.058 2.113 1.831 1.06 2.828a1.64 1.64 0 0 1-1.174.44 1.64 1.64 0 0 1-1.058-2.833c.277-.26.638-.415 1.018-.435zm.42.819c-.4 0-.724.216-.724.484 0 .266.323.485.723.485.401 0 .728-.219.728-.485 0-.268-.327-.484-.728-.484z" fill="url(#e)" fill-rule="evenodd"/></svg>