<svg height="32" width="32" xmlns="http://www.w3.org/2000/svg" xmlns:xlink="http://www.w3.org/1999/xlink"><linearGradient id="d" gradientUnits="userSpaceOnUse" x1="16" x2="0" xlink:href="#a" y1="28" y2="12"/><linearGradient id="c"><stop offset="0" stop-color="#bf4231"/><stop offset="1" stop-color="#e05e4c"/></linearGradient><linearGradient id="b"><stop offset="0" stop-color="#ffafa5"/><stop offset="1" stop-color="#ffe5e1"/></linearGradient><linearGradient id="a"><stop offset="0" stop-color="#f58273"/><stop offset="1" stop-color="#ffafa5"/></linearGradient><linearGradient id="e" gradientUnits="userSpaceOnUse" x1="12" x2="6" xlink:href="#a" y1="12" y2="6"/><linearGradient id="f" gradientUnits="userSpaceOnUse" x1="12" x2="6" xlink:href="#b" y1="12" y2="6"/><linearGradient id="l" gradientUnits="userSpaceOnUse" x1="16" x2="16" xlink:href="#a" y1="12" y2="6"/><linearGradient id="g" gradientUnits="userSpaceOnUse" x1="22" x2="16" xlink:href="#b" y1="12" y2="6"/><linearGradient id="h" gradientUnits="userSpaceOnUse" x1="32" x2="26" y1="12" y2="6"><stop offset="0" stop-color="#f36957"/><stop offset="1" stop-color="#ff9487"/></linearGradient><linearGradient id="k" gradientUnits="userSpaceOnUse" x1="16" x2="0" xlink:href="#c" y1="28" y2="12"/><linearGradient id="i" gradientUnits="userSpaceOnUse" x1="27" x2="23" xlink:href="#c" y1="16" y2="12"/><linearGradient id="j" gradientUnits="userSpaceOnUse" x1="16" x2="16" y1="28" y2="12"><stop offset="0" stop-color="#dc4732"/><stop offset="1" stop-color="#f36957"/></linearGradient><path d="M6 6l3 6-3.002-5.992L0 12l16 16 16-16-6-6H16z" fill="url(#d)"/><path d="M5.998 6.008L9 12H0z" fill="url(#e)"/><path d="M6 6l3 6 7-6z" fill="url(#f)"/><path d="M16 6h10l-3 6z" fill="url(#g)"/><path d="M26 6l6 6h-9z" fill="url(#h)"/><path d="M16 28l7-16h9z" fill="url(#i)"/><path d="M16 28l7-16H9z" fill="url(#j)"/><path d="M0 12h9l7 16z" fill="url(#k)"/><path d="M16 6l7 6H9z" fill="url(#l)"/></svg>