<svg height="32" width="32" xmlns="http://www.w3.org/2000/svg"><linearGradient id="b" gradientTransform="rotate(-165 1.44 14.524) scale(1.3169)" gradientUnits="userSpaceOnUse" x1="-1.769" x2="-8.75" y1="1.988" y2="14.078"><stop offset="0" stop-color="#babec3"/><stop offset="1" stop-color="#eff0f1"/></linearGradient><linearGradient id="a" gradientUnits="userSpaceOnUse" x1="30" x2="30" y1="30" y2="2"><stop offset="0" stop-color="#171e25"/><stop offset="1" stop-color="#333c45"/></linearGradient><g fill-rule="evenodd"><rect fill="url(#a)" height="28" rx="2" width="28" x="2" y="2"/><path d="M14.016 5.102a9.97 9.97 0 0 0-.985.044c-.983.103-1.993.343-2.308.547-.09.058.546.221 1.638.422.98.18 1.695.345 1.588.365-.107.021-1.648-.147-3.424-.375-3.118-.4-3.238-.407-3.455-.21-.452.41-1.104 1.53-1.238 2.128-.13.58-.12.648.168 1.239.492 1.006 1.409 1.739 3.492 2.793.985.498 1.768.93 1.738.959-.029.029-.87-.287-1.869-.7l-1.814-.75L2 13.092V28c0 1.108.892 2 2 2h.256c1.464-1.847 5.986-7.28 6.086-7.258.07.015 2.68 1.125 5.8 2.465 5.33 2.29 5.685 2.424 5.829 2.23.218-.292.968-1.86 1.365-2.855l.336-.844-.567-.31c-.804-.44-1.984-1.42-2.722-2.262-.674-.768-1.89-2.62-1.89-2.879 0-.086.386.305.859.867 1.326 1.581 4.382 4.055 4.574 3.703.228-.417.374-1.65.367-3.08-.009-1.744-.237-3.102-.838-4.976l-.336-1.051-1.664-.523-2.037-.641c-.719-.226-.271-.214.781.021 1.258.281 2.537.518 3.328.618.697.087.85-.05.924-.825.095-.988-.542-3.718-1.185-5.078-.257-.542-.373-.659-.887-.894-1.498-.686-5.79-1.334-8.363-1.326z" fill="url(#b)"/><path d="M2 27v1c0 1.108.892 2 2 2h24c1.108 0 2-.892 2-2v-1c0 1.108-.892 2-2 2H4c-1.108 0-2-.892-2-2z" opacity=".4"/></g></svg>