<svg height="32" width="32" xmlns="http://www.w3.org/2000/svg" xmlns:xlink="http://www.w3.org/1999/xlink"><linearGradient id="a"><stop offset="0"/><stop offset="1" stop-opacity="0"/></linearGradient><linearGradient id="c" gradientUnits="userSpaceOnUse" x1="10.4" x2="23.659" xlink:href="#a" y1="6.9" y2="20.159"/><linearGradient id="d" gradientTransform="rotate(45 .566 -1.366) scale(.7)" gradientUnits="userSpaceOnUse" x1="31.021" x2="43.104" xlink:href="#a" y1="-9.896" y2="-9.896"/><linearGradient id="e" gradientUnits="userSpaceOnUse" x1="15.801" x2="17.644" xlink:href="#a" y1="8.453" y2="10.296"/><linearGradient id="b" gradientTransform="matrix(.7318 0 0 .72092 31.454 .9)" gradientUnits="userSpaceOnUse" x1="-40.249" x2="-1.987" y1="1.526" y2="40.365"><stop offset="0" stop-color="#21c9fb"/><stop offset="1" stop-color="#1a86f2"/></linearGradient><rect fill="url(#b)" height="28" ry="4" width="28" x="2" y="2"/><path d="M2 25v1c0 2.216 1.784 4 4 4h20c2.216 0 4-1.784 4-4v-1c0 2.216-1.784 4-4 4H6c-2.216 0-4-1.784-4-4z" fill="#292c2f" opacity=".2"/><path d="M14.713 12.309l-1.535-1.536-1.613 1.019-.607 1.394-4.725 4.725 3.225 3.226-1.375 1.223 6.94 6.94h9.946c2.012 0 3.631-1.596 3.631-3.578C22.653 18.385 16 10.4 14.713 12.31z" fill="url(#c)" opacity=".2"/><path d="M25.08 6.892l-3.059.824-3.164 6.65 2.743 5.83 7.9 7.9c.316-.55.5-1.184.5-1.863v-14.42z" fill="url(#d)" opacity=".2"/><path d="M17.4 6.197l3.172 3.172-2.2 4.658-4.4-4.401z" fill="url(#e)" opacity=".2"/><path d="M9.846 9.432a.305.305 0 0 0-.238.09l-1.486 1.486a.35.35 0 0 0 0 .495l1.536 2.412a6.3 6.3 0 0 0-.319.766L6.55 15.3a.35.35 0 0 0-.35.35v2.1c0 .194.16.308.35.35l2.79.62c.087.26.19.514.31.76l-1.54 2.416c-.104.163-.137.357 0 .495l1.485 1.486a.35.35 0 0 0 .495 0l2.417-1.54a6.3 6.3 0 0 0 .773.323l.619 2.789c0 .194.156.35.35.35h2.1c.194 0 .308-.16.35-.35l.62-2.79a6.3 6.3 0 0 0 .77-.315l2.407 1.533a.35.35 0 0 0 .495 0l1.486-1.486c.137-.138.104-.332 0-.495l-.657-1.031-.489.195-1.568-2.351A4.9 4.9 0 0 1 15.3 21.6a4.9 4.9 0 0 1-4.9-4.9 4.9 4.9 0 0 1 2.8-4.421v-1.507a6.3 6.3 0 0 0-.69.283l-2.407-1.533a.538.538 0 0 0-.257-.09z" fill="#fff"/><path d="M17.4 6.2l-3.5.324V20.2l3.5-.7v-5.6l4.2 6.3 3.5-1.4-4.55-5.89 4.553-6.01-3.666-.7-4.037 5.95z" fill="#fff"/><rect fill="#eff0f1" height="16" ry="2" width="16" x="16" y="14"/><path d="M23 16v5h-5v2h5v5h2v-5h5v-2h-5v-5z" fill="#232629"/></svg>