<?xml version="1.0" encoding="UTF-8" standalone="no"?>
<svg
   xmlns:dc="http://purl.org/dc/elements/1.1/"
   xmlns:cc="http://creativecommons.org/ns#"
   xmlns:rdf="http://www.w3.org/1999/02/22-rdf-syntax-ns#"
   xmlns:svg="http://www.w3.org/2000/svg"
   xmlns="http://www.w3.org/2000/svg"
   xmlns:xlink="http://www.w3.org/1999/xlink"
   xmlns:sodipodi="http://sodipodi.sourceforge.net/DTD/sodipodi-0.dtd"
   xmlns:inkscape="http://www.inkscape.org/namespaces/inkscape"
   viewBox="0 0 22 22"
   version="1.1"
   id="svg6"
   sodipodi:docname="bookmark-new.svg"
   inkscape:version="1.0.2 (e86c870879, 2021-01-15)">
  <metadata
     id="metadata10">
    <rdf:RDF>
      <cc:Work
         rdf:about="">
        <dc:format>image/svg+xml</dc:format>
        <dc:type
           rdf:resource="http://purl.org/dc/dcmitype/StillImage" />
      </cc:Work>
    </rdf:RDF>
  </metadata>
  <sodipodi:namedview
     pagecolor="#ffffff"
     bordercolor="#666666"
     borderopacity="1"
     objecttolerance="10"
     gridtolerance="10"
     guidetolerance="10"
     inkscape:pageopacity="0"
     inkscape:pageshadow="2"
     inkscape:window-width="1920"
     inkscape:window-height="1007"
     id="namedview8"
     showgrid="false"
     inkscape:zoom="14.272727"
     inkscape:cx="11.951004"
     inkscape:cy="9.7882427"
     inkscape:window-x="0"
     inkscape:window-y="0"
     inkscape:window-maximized="1"
     inkscape:current-layer="svg6"
     inkscape:lockguides="false"
     inkscape:document-rotation="0">
    <inkscape:grid
       type="xygrid"
       id="grid858" />
  </sodipodi:namedview>
  <defs
     id="defs3051">
    <linearGradient
       inkscape:collect="always"
       id="linearGradient837">
      <stop
         style="stop-color:#5e81ac;stop-opacity:1"
         offset="0"
         id="stop833" />
      <stop
         style="stop-color:#8fbcbb;stop-opacity:1"
         offset="1"
         id="stop835" />
    </linearGradient>
    <style
       type="text/css"
       id="current-color-scheme" />
    <linearGradient
       inkscape:collect="always"
       xlink:href="#linearGradient837"
       id="linearGradient839"
       x1="79.400444"
       y1="1034.6443"
       x2="162.44589"
       y2="1034.3774"
       gradientUnits="userSpaceOnUse" />
  </defs>
  <g
     transform="matrix(0.23809502,0,0,0.23809502,-17.685006,-234.80394)"
     id="g4">
    <path
       d="m 97.445896,990.37746 c -10.5104,0 -18.968799,8.49934 -18.968799,19.03124 v 45.9688 c 0,10.5319 8.458399,19 18.968799,19 h 42.031194 v -84.00004 z m 46.031194,0.0184 v 19.98154 h 18.9688 v 4 h -18.9688 v 16 h 18.9688 v 4 h -18.9688 v 16.0001 h 18.9688 v 4 h -18.9688 v 20 c 12,0.018 19,-8.9816 19,-19 v -45.9689 c 0,-10.01271 -9,-19.01271 -19,-19.01274 z m -31.54519,20.36654 6.13889,12.6462 14.1563,2.125 c 1.8154,0.6488 1.85371,2.0615 1.0937,3.4063 l -10.2812,9.9376 2.3438,14.1562 c -0.024,1.9605 -1.37439,2.4476 -2.9063,2.125 l -12.625,-6.75 -12.718693,6.625 c -1.853901,0.5381 -2.7086,-0.5888 -2.875,-2.125 l 2.4687,-14.125 -10.1875,-10.0625 c -1.1416,-1.6133 -0.318801,-2.807 1.125,-3.4375 l 14.187503,-1.9688 6.40629,-12.8437 c 1.2187,-1.0754 3.2187,-1.0754 3.67351,0.2912 z"
       style="color:#000000;fill:url(#linearGradient839);fill-opacity:1;enable-background:accumulate"
       stroke="none"
       marker="none"
       visibility="visible"
       display="inline"
       overflow="visible"
       id="path2" />
  </g>
</svg>
