<?xml version="1.0" encoding="UTF-8" standalone="no"?>
<svg
   xmlns:dc="http://purl.org/dc/elements/1.1/"
   xmlns:cc="http://creativecommons.org/ns#"
   xmlns:rdf="http://www.w3.org/1999/02/22-rdf-syntax-ns#"
   xmlns:svg="http://www.w3.org/2000/svg"
   xmlns="http://www.w3.org/2000/svg"
   xmlns:xlink="http://www.w3.org/1999/xlink"
   xmlns:sodipodi="http://sodipodi.sourceforge.net/DTD/sodipodi-0.dtd"
   xmlns:inkscape="http://www.inkscape.org/namespaces/inkscape"
   width="32"
   version="1.1"
   height="32"
   viewBox="0 0 32 32"
   id="svg17"
   sodipodi:docname="folder-activities.svg"
   inkscape:version="1.0.2 (e86c870879, 2021-01-15)">
  <sodipodi:namedview
     pagecolor="#ffffff"
     bordercolor="#666666"
     borderopacity="1"
     objecttolerance="10"
     gridtolerance="10"
     guidetolerance="10"
     inkscape:pageopacity="0"
     inkscape:pageshadow="2"
     inkscape:window-width="1920"
     inkscape:window-height="1007"
     id="namedview19"
     showgrid="true"
     inkscape:zoom="9.8125"
     inkscape:cx="-6.3456666"
     inkscape:cy="5.4925971"
     inkscape:window-x="0"
     inkscape:window-y="0"
     inkscape:window-maximized="1"
     inkscape:current-layer="layer1"
     inkscape:document-rotation="0">
    <inkscape:grid
       type="xygrid"
       id="grid908" />
  </sodipodi:namedview>
  <defs
     id="defs5455">
    <linearGradient
       inkscape:collect="always"
       xlink:href="#linearGradient847-6"
       id="linearGradient859-3"
       x1="222.53795"
       y1="265.05457"
       x2="512"
       y2="256.82327"
       gradientUnits="userSpaceOnUse"
       gradientTransform="matrix(0.05859378,0,0,0.06178776,385.57143,515.9295)" />
    <linearGradient
       inkscape:collect="always"
       id="linearGradient847-6">
      <stop
         style="stop-color:#8fbcbb;stop-opacity:1"
         offset="0"
         id="stop843-7" />
      <stop
         style="stop-color:#88c0d0;stop-opacity:1"
         offset="1"
         id="stop845-5" />
    </linearGradient>
    <linearGradient
       inkscape:collect="always"
       xlink:href="#linearGradient844"
       id="linearGradient846"
       x1="424.10419"
       y1="503.78226"
       x2="443.61319"
       y2="503.78226"
       gradientUnits="userSpaceOnUse"
       gradientTransform="matrix(0.48293846,0,0,0.50034432,199.36416,273.72967)" />
    <linearGradient
       inkscape:collect="always"
       id="linearGradient844">
      <stop
         style="stop-color:#434c5e;stop-opacity:1"
         offset="0"
         id="stop840" />
      <stop
         style="stop-color:#a2adbc;stop-opacity:1"
         offset="1"
         id="stop842" />
    </linearGradient>
  </defs>
  <metadata
     id="metadata5458">
    <rdf:RDF>
      <cc:Work
         rdf:about="">
        <dc:format>image/svg+xml</dc:format>
        <dc:type
           rdf:resource="http://purl.org/dc/dcmitype/StillImage" />
      </cc:Work>
    </rdf:RDF>
  </metadata>
  <g
     inkscape:label="Capa 1"
     inkscape:groupmode="layer"
     id="layer1"
     transform="translate(-384.57143,-515.798)">
    <path
       style="fill:#81a1c1;fill-opacity:1;stroke-width:0.0601697"
       d="m 401.36762,522.28319 c 0.48405,0.50452 1.13728,0.78743 1.81794,0.78743 h 1.00659 2.61413 c -0.68065,0 -1.33386,-0.28291 -1.81793,-0.78743 l -1.62901,-1.69768 c -0.48422,-0.5046 -1.13735,-0.78751 -1.81791,-0.78751 h -3.62075 c 0.68057,0 1.33378,0.28291 1.81795,0.78751 z"
       id="path2-3" />
    <path
       style="fill:#5e81ac;fill-opacity:1;stroke-width:0.0601697"
       d="m 396.11783,520.58551 1.62907,1.69768 c 0.48405,0.50452 1.13724,0.78743 1.81792,0.78743 h 1.00661 2.61413 c -0.68066,0 -1.33389,-0.28291 -1.81794,-0.78743 l -1.62899,-1.69768 c -0.48423,-0.5046 -1.13738,-0.78751 -1.81795,-0.78751 h -3.55615 -0.0646 c 0.68068,0 1.3338,0.28297 1.8179,0.78751 z"
       id="path4-5" />
    <path
       style="fill:url(#linearGradient859-3);fill-opacity:1;stroke-width:0.0564448"
       d="m 414.01968,522.67801 h -6.20691 -1.00661 -2.61414 -1.00658 -2.61401 -1.00661 c -0.68068,0 -1.33387,-0.24898 -1.81792,-0.693 l -1.62907,-1.49402 c -0.48417,-0.44402 -1.13729,-0.69299 -1.81795,-0.69299 h -3.55604 -3.62065 c -0.85699,0 -1.55176,0.64471 -1.55176,1.44002 v 2.88 0.48003 17.75995 c 0,0.79531 0.69477,1.44 1.55176,1.44 h 26.89649 c 0.85699,0 1.55175,-0.64469 1.55175,-1.44 v -18.23998 c 0,-0.79537 -0.69476,-1.44001 -1.55175,-1.44001 z m -10.88654,2.9293 0.004,-0.003 -0.003,-0.005 v 0 l 0.003,0.005 v 0 l -0.004,0.003 9.7e-4,-0.008 z m 10.36938,0.43067 c 0,0.53017 -0.46314,0.95999 -1.03454,0.95999 h -7.24137 c -0.57137,0 -1.03453,-0.42982 -1.03453,-0.95999 v -0.47999 c 0,-0.53017 0.46316,-0.95999 1.03453,-0.95999 h 7.24132 c 0.57139,0 1.03454,0.42982 1.03454,0.95999 v 0.47999 z"
       id="path6-6"
       sodipodi:nodetypes="scccccsccscssccssssssccccccccccssssssscc" />
    <path
       style="fill:url(#linearGradient846);fill-opacity:1;stroke-width:0.0601697"
       d="m 412.46793,524.43068 h -7.24132 c -0.57137,0 -1.04623,0.48838 -1.04623,1.09083 v 0.5455 c 0,0.60243 0.47486,1.09082 1.04623,1.09082 h 7.24132 c 0.57139,0 1.10944,-0.48855 1.12241,-1.09082 l 0.0118,-0.5455 c 6e-5,-0.60245 -0.56266,-1.09083 -1.13411,-1.09083 z"
       id="path8-2"
       sodipodi:nodetypes="ssssssscs" />
    <path
       style="color:#000000;fill:#434c5e;fill-opacity:1;stroke-width:0.688199"
       id="path3023-3-9"
       d="m 391.84962,530.05506 a 0.72440886,0.75051391 0 0 0 -0.72439,0.75051 0.72440886,0.75051391 0 0 0 0.72439,0.75052 0.72440886,0.75051391 0 0 0 0.72442,-0.75052 0.72440886,0.75051391 0 0 0 -0.72442,-0.75051 z m 4.10499,0 -1.37335,1.42285 2.11284,2.18901 -2.1883,2.57991 1.44881,1.31339 3.38056,-4.00275 z m -5.07086,3.50241 a 1.2073425,1.2508607 0 0 0 -1.20733,1.25087 1.2073425,1.2508607 0 0 0 1.20733,1.25085 1.2073425,1.2508607 0 0 0 1.20736,-1.25085 1.2073425,1.2508607 0 0 0 -1.20736,-1.25087 z m 2.17323,3.5024 a 1.4488116,1.5010329 0 0 0 -1.44882,1.50104 1.4488116,1.5010329 0 0 0 1.44882,1.50103 1.4488116,1.5010329 0 0 0 1.44882,-1.50103 1.4488116,1.5010329 0 0 0 -1.44882,-1.50104 z" />
  </g>
</svg>
