<?xml version="1.0" encoding="UTF-8" standalone="no"?>
<svg
   xmlns:dc="http://purl.org/dc/elements/1.1/"
   xmlns:cc="http://creativecommons.org/ns#"
   xmlns:rdf="http://www.w3.org/1999/02/22-rdf-syntax-ns#"
   xmlns:svg="http://www.w3.org/2000/svg"
   xmlns="http://www.w3.org/2000/svg"
   xmlns:xlink="http://www.w3.org/1999/xlink"
   xmlns:sodipodi="http://sodipodi.sourceforge.net/DTD/sodipodi-0.dtd"
   xmlns:inkscape="http://www.inkscape.org/namespaces/inkscape"
   width="32"
   version="1.1"
   height="32"
   viewBox="0 0 32 32"
   id="svg15"
   sodipodi:docname="folder-Manjaro.svg"
   inkscape:version="1.0.2 (e86c870879, 2021-01-15)">
  <sodipodi:namedview
     pagecolor="#ffffff"
     bordercolor="#666666"
     borderopacity="1"
     objecttolerance="10"
     gridtolerance="10"
     guidetolerance="10"
     inkscape:pageopacity="0"
     inkscape:pageshadow="2"
     inkscape:window-width="1920"
     inkscape:window-height="1007"
     id="namedview17"
     showgrid="false"
     inkscape:zoom="9.8125"
     inkscape:cx="-12.999029"
     inkscape:cy="6.4668704"
     inkscape:window-x="0"
     inkscape:window-y="0"
     inkscape:window-maximized="1"
     inkscape:current-layer="layer1"
     inkscape:document-rotation="0" />
  <defs
     id="defs5455">
    <linearGradient
       inkscape:collect="always"
       xlink:href="#linearGradient847-3"
       id="linearGradient859"
       x1="230.78009"
       y1="256.95679"
       x2="512"
       y2="256.82327"
       gradientUnits="userSpaceOnUse"
       gradientTransform="matrix(0.0585938,0,0,0.06178774,385.57143,515.92948)" />
    <linearGradient
       inkscape:collect="always"
       id="linearGradient847-3">
      <stop
         style="stop-color:#8fbcbb;stop-opacity:1"
         offset="0"
         id="stop843-6" />
      <stop
         style="stop-color:#88c0d0;stop-opacity:1"
         offset="1"
         id="stop845-7" />
    </linearGradient>
    <linearGradient
       inkscape:collect="always"
       xlink:href="#linearGradient844"
       id="linearGradient846"
       x1="424.10419"
       y1="503.7821"
       x2="443.61319"
       y2="503.7821"
       gradientUnits="userSpaceOnUse"
       gradientTransform="matrix(0.48293847,0,0,0.5003442,199.36416,273.72972)" />
    <linearGradient
       inkscape:collect="always"
       id="linearGradient844">
      <stop
         style="stop-color:#434c5e;stop-opacity:1"
         offset="0"
         id="stop840" />
      <stop
         style="stop-color:#a2adbc;stop-opacity:1"
         offset="1"
         id="stop842" />
    </linearGradient>
  </defs>
  <metadata
     id="metadata5458">
    <rdf:RDF>
      <cc:Work
         rdf:about="">
        <dc:format>image/svg+xml</dc:format>
        <dc:type
           rdf:resource="http://purl.org/dc/dcmitype/StillImage" />
      </cc:Work>
    </rdf:RDF>
  </metadata>
  <g
     inkscape:label="Capa 1"
     inkscape:groupmode="layer"
     id="layer1"
     transform="translate(-384.57143,-515.798)">
    <path
       style="fill:#81a1c1;fill-opacity:1;stroke-width:0.0601699"
       d="m 401.36765,522.2832 c 0.484,0.50451 1.13728,0.78742 1.81794,0.78742 h 1.00655 2.61417 c -0.68066,0 -1.33392,-0.28291 -1.81795,-0.78742 l -1.629,-1.6977 c -0.48425,-0.50459 -1.13736,-0.7875 -1.81791,-0.7875 h -3.62073 c 0.68055,0 1.33375,0.28291 1.81794,0.7875 z"
       id="path2" />
    <path
       style="fill:#5e81ac;fill-opacity:1;stroke-width:0.0601699"
       d="m 396.11785,520.5855 1.62908,1.6977 c 0.48401,0.50451 1.13719,0.78742 1.81792,0.78742 h 1.00658 2.61416 c -0.68066,0 -1.33394,-0.28291 -1.81794,-0.78742 l -1.62899,-1.6977 c -0.48425,-0.50459 -1.13739,-0.7875 -1.81794,-0.7875 h -3.55619 -0.0647 c 0.68066,0 1.33376,0.28297 1.81789,0.7875 z"
       id="path4" />
    <path
       style="fill:url(#linearGradient859);fill-opacity:1;stroke-width:0.0564454"
       d="m 414.01966,522.67802 h -6.20691 -1.00657 -2.61417 -1.00654 -2.61404 -1.00658 c -0.68073,0 -1.33391,-0.24898 -1.81792,-0.693 l -1.62908,-1.49403 c -0.48418,-0.44402 -1.13728,-0.69299 -1.81793,-0.69299 h -3.55607 -3.62064 c -0.85704,0 -1.55178,0.6447 -1.55178,1.44001 v 2.88001 0.48002 17.75995 c 0,0.79531 0.69474,1.44001 1.55178,1.44001 h 26.89645 c 0.85704,0 1.55177,-0.6447 1.55177,-1.44001 v -18.23997 c 0,-0.79537 -0.69473,-1.44 -1.55177,-1.44 z m -10.88653,2.92929 0.004,-0.003 -0.004,-0.005 v 0 l 0.004,0.005 v 0 l -0.004,0.003 0.001,-0.008 z m 10.36942,0.43068 c 0,0.53015 -0.46317,0.95999 -1.0346,0.95999 h -7.24136 c -0.57134,0 -1.03452,-0.42984 -1.03452,-0.95999 v -0.48001 c 0,-0.53015 0.46318,-0.95999 1.03452,-0.95999 h 7.24134 c 0.57139,0 1.03456,0.42984 1.03456,0.95999 v 0.48001 z"
       id="path6"
       sodipodi:nodetypes="scccccsccscssccssssssccccccccccssssssscc" />
    <path
       style="fill:url(#linearGradient846);fill-opacity:1;stroke-width:0.0601699"
       d="m 412.46793,524.43061 h -7.24134 c -0.57134,0 -1.04621,0.48838 -1.04621,1.09082 v 0.5455 c 0,0.60243 0.47487,1.09082 1.04621,1.09082 h 7.24134 c 0.57139,0 1.10946,-0.48855 1.12238,-1.09082 l 0.0121,-0.5455 c 6e-5,-0.60244 -0.56263,-1.09082 -1.13412,-1.09082 z"
       id="path8"
       sodipodi:nodetypes="ssssssscs" />
    <path
       style="fill:#434c5e;fill-opacity:1;stroke-width:0.553009"
       d="m 390.14223,530.05506 c -0.25801,0 -0.46579,0.21534 -0.46579,0.48262 v 8.04095 c 0,0.26727 0.21924,0.40402 0.46579,0.48262 h 2.25069 v -6.19176 h 3.25989 v -2.81443 z m 6.0538,0 v 9.00619 h 2.25073 c 0.25797,0 0.46585,-0.21535 0.46585,-0.48262 v -8.04095 c 0,-0.26728 -0.20788,-0.48262 -0.46585,-0.48262 z m -5.97628,0.56288 h 4.88975 v 1.68866 h -2.71658 a 0.54335994,0.56294336 0 0 0 -0.54332,0.56289 v 5.62887 h -1.60445 c -0.0101,-0.005 -0.0186,-0.007 -0.0254,-0.011 z m 6.5196,0 h 1.62995 v 7.88042 h -1.62995 z m -3.80311,2.81444 v 5.62887 h 2.71657 v -5.62887 z m 0.54332,0.56289 h 1.62994 v 4.50309 h -1.62994 z"
       id="path4-3-5" />
  </g>
</svg>
