<?xml version="1.0" encoding="UTF-8" standalone="no"?>
<svg
   xmlns:dc="http://purl.org/dc/elements/1.1/"
   xmlns:cc="http://creativecommons.org/ns#"
   xmlns:rdf="http://www.w3.org/1999/02/22-rdf-syntax-ns#"
   xmlns:svg="http://www.w3.org/2000/svg"
   xmlns="http://www.w3.org/2000/svg"
   xmlns:xlink="http://www.w3.org/1999/xlink"
   xmlns:sodipodi="http://sodipodi.sourceforge.net/DTD/sodipodi-0.dtd"
   xmlns:inkscape="http://www.inkscape.org/namespaces/inkscape"
   width="32"
   version="1.1"
   height="32"
   viewBox="0 0 32 32"
   id="svg18"
   sodipodi:docname="folder-image-people.svg"
   inkscape:version="1.0.2 (e86c870879, 2021-01-15)">
  <sodipodi:namedview
     pagecolor="#ffffff"
     bordercolor="#666666"
     borderopacity="1"
     objecttolerance="10"
     gridtolerance="10"
     guidetolerance="10"
     inkscape:pageopacity="0"
     inkscape:pageshadow="2"
     inkscape:window-width="1920"
     inkscape:window-height="1007"
     id="namedview20"
     showgrid="false"
     inkscape:zoom="9.8125"
     inkscape:cx="-7.843414"
     inkscape:cy="8.6929868"
     inkscape:window-x="0"
     inkscape:window-y="0"
     inkscape:window-maximized="1"
     inkscape:current-layer="layer1"
     inkscape:document-rotation="0" />
  <defs
     id="defs5455">
    <linearGradient
       inkscape:collect="always"
       xlink:href="#linearGradient847-6"
       id="linearGradient859-3"
       x1="225.92252"
       y1="259.81543"
       x2="512"
       y2="256.82327"
       gradientUnits="userSpaceOnUse"
       gradientTransform="matrix(0.05859379,0,0,0.06178774,385.57143,515.92948)" />
    <linearGradient
       inkscape:collect="always"
       id="linearGradient847-6">
      <stop
         style="stop-color:#8fbcbb;stop-opacity:1"
         offset="0"
         id="stop843-7" />
      <stop
         style="stop-color:#88c0d0;stop-opacity:1"
         offset="1"
         id="stop845-5" />
    </linearGradient>
    <linearGradient
       inkscape:collect="always"
       xlink:href="#linearGradient850-5"
       id="linearGradient862-3"
       x1="476.689"
       y1="163.60085"
       x2="319.6994"
       y2="162.04736"
       gradientUnits="userSpaceOnUse"
       gradientTransform="matrix(0.05859379,0,0,0.06178774,385.57143,515.92948)" />
    <linearGradient
       inkscape:collect="always"
       id="linearGradient850-5">
      <stop
         style="stop-color:#a6afbf;stop-opacity:1"
         offset="0"
         id="stop846-6" />
      <stop
         style="stop-color:#434c5e;stop-opacity:1"
         offset="1"
         id="stop848-2" />
    </linearGradient>
  </defs>
  <metadata
     id="metadata5458">
    <rdf:RDF>
      <cc:Work
         rdf:about="">
        <dc:format>image/svg+xml</dc:format>
        <dc:type
           rdf:resource="http://purl.org/dc/dcmitype/StillImage" />
      </cc:Work>
    </rdf:RDF>
  </metadata>
  <g
     inkscape:label="Capa 1"
     inkscape:groupmode="layer"
     id="layer1"
     transform="translate(-384.57143,-515.798)">
    <path
       style="fill:#81a1c1;fill-opacity:1;stroke-width:0.0601699"
       d="m 401.36764,522.2832 c 0.48402,0.50451 1.13729,0.78742 1.81794,0.78742 h 1.00656 2.61416 c -0.68066,0 -1.3339,-0.28291 -1.81795,-0.78742 l -1.629,-1.6977 c -0.48424,-0.50459 -1.13735,-0.7875 -1.81791,-0.7875 h -3.62073 c 0.68055,0 1.33376,0.28291 1.81794,0.7875 z"
       id="path2-9" />
    <path
       style="fill:#5e81ac;fill-opacity:1;stroke-width:0.0601699"
       d="m 396.11784,520.5855 1.62909,1.6977 c 0.48401,0.50451 1.1372,0.78742 1.81791,0.78742 h 1.00659 2.61415 c -0.68065,0 -1.33392,-0.28291 -1.81794,-0.78742 l -1.62899,-1.6977 c -0.48424,-0.50459 -1.13739,-0.7875 -1.81794,-0.7875 h -3.55618 -0.0647 c 0.68066,0 1.33377,0.28297 1.81789,0.7875 z"
       id="path4-1" />
    <path
       style="fill:url(#linearGradient859-3);fill-opacity:1;stroke-width:0.0564454"
       d="m 414.01967,522.67802 h -6.20692 -1.00657 -2.61417 -1.00655 -2.61403 -1.00659 c -0.68071,0 -1.3339,-0.24897 -1.81791,-0.693 l -1.62909,-1.49403 c -0.48417,-0.44402 -1.13728,-0.69299 -1.81793,-0.69299 h -3.55606 -3.62065 c -0.85702,0 -1.55177,0.6447 -1.55177,1.44001 v 2.88001 0.48002 17.75995 c 0,0.79531 0.69475,1.44001 1.55177,1.44001 h 26.89647 c 0.85702,0 1.55176,-0.64469 1.55176,-1.44001 v -18.23997 c 0,-0.79536 -0.69474,-1.44 -1.55176,-1.44 z m -10.88654,2.92929 0.004,-0.002 -0.004,-0.005 v 0 l 0.004,0.005 v 0 l -0.004,0.002 0.001,-0.007 z m 10.36941,0.43068 c 0,0.53015 -0.46316,0.95999 -1.03457,0.95999 h -7.24136 c -0.57137,0 -1.03453,-0.42984 -1.03453,-0.95999 v -0.48001 c 0,-0.53014 0.46316,-0.95999 1.03453,-0.95999 h 7.24132 c 0.5714,0 1.03455,0.42985 1.03455,0.95999 v 0.48001 z"
       id="path6-2"
       sodipodi:nodetypes="scccccsccscssccssssssccccccccccssssssscc" />
    <path
       style="fill:url(#linearGradient862-3);fill-opacity:1;stroke-width:0.0601699"
       d="m 412.46793,524.43062 h -7.24133 c -0.57136,0 -1.04622,0.48838 -1.04622,1.09081 v 0.54551 c 0,0.60243 0.47486,1.09081 1.04622,1.09081 h 7.24133 c 0.57139,0 1.10945,-0.48854 1.12239,-1.09081 l 0.012,-0.54551 c 6e-5,-0.60243 -0.56264,-1.09081 -1.13412,-1.09081 z"
       id="path8-7"
       sodipodi:nodetypes="ssssssscs" />
    <path
       style="fill:#434c5e;fill-opacity:1;stroke-width:0.491564"
       id="path4188-3-0"
       d="m 394.47658,530.05506 a 2.4146902,2.5017191 0 0 0 -2.41469,2.50172 2.4146902,2.5017191 0 0 0 2.41469,2.50172 2.4146902,2.5017191 0 0 0 2.41468,-2.50172 2.4146902,2.5017191 0 0 0 -2.41468,-2.50172 z m 0,0.50034 a 1.9317537,2.0013768 0 0 1 1.93174,2.00138 1.9317537,2.0013768 0 0 1 -1.93174,2.00137 1.9317537,2.0013768 0 0 1 -1.93176,-2.00137 1.9317537,2.0013768 0 0 1 1.93176,-2.00138 z" />
    <path
       style="fill:#434c5e;fill-opacity:1;stroke-width:0.491564"
       id="path4193-6-9"
       d="m 394.47658,535.55884 a 4.8293781,5.0034352 0 0 0 -4.80015,4.5031 h 0.48293 a 4.3464458,4.5030978 0 0 1 4.31722,-4.00275 4.3464458,4.5030978 0 0 1 4.31435,4.00275 h 0.49048 a 4.8293781,5.0034352 0 0 0 -4.80483,-4.5031 z" />
    <rect
       width="8.6928902"
       x="390.13013"
       y="539.56158"
       height="0.50034422"
       style="fill:#434c5e;fill-opacity:1;stroke-width:0.491564"
       id="rect4201-7-3" />
  </g>
</svg>
