<?xml version="1.0" encoding="UTF-8" standalone="no"?>
<svg
   xmlns:dc="http://purl.org/dc/elements/1.1/"
   xmlns:cc="http://creativecommons.org/ns#"
   xmlns:rdf="http://www.w3.org/1999/02/22-rdf-syntax-ns#"
   xmlns:svg="http://www.w3.org/2000/svg"
   xmlns="http://www.w3.org/2000/svg"
   xmlns:xlink="http://www.w3.org/1999/xlink"
   xmlns:sodipodi="http://sodipodi.sourceforge.net/DTD/sodipodi-0.dtd"
   xmlns:inkscape="http://www.inkscape.org/namespaces/inkscape"
   width="32"
   version="1.1"
   height="32"
   viewBox="0 0 32 32"
   id="svg15"
   sodipodi:docname="folder-Neon.svg"
   inkscape:version="1.0.2 (e86c870879, 2021-01-15)">
  <sodipodi:namedview
     pagecolor="#ffffff"
     bordercolor="#666666"
     borderopacity="1"
     objecttolerance="10"
     gridtolerance="10"
     guidetolerance="10"
     inkscape:pageopacity="0"
     inkscape:pageshadow="2"
     inkscape:window-width="1920"
     inkscape:window-height="1007"
     id="namedview17"
     showgrid="false"
     inkscape:zoom="9.8125"
     inkscape:cx="-12.999029"
     inkscape:cy="6.4668704"
     inkscape:window-x="0"
     inkscape:window-y="0"
     inkscape:window-maximized="1"
     inkscape:current-layer="layer1"
     inkscape:document-rotation="0" />
  <defs
     id="defs5455">
    <linearGradient
       inkscape:collect="always"
       xlink:href="#linearGradient847-3"
       id="linearGradient859"
       x1="239.02225"
       y1="265.05457"
       x2="512"
       y2="256.82327"
       gradientUnits="userSpaceOnUse"
       gradientTransform="matrix(0.05848377,0,0,0.06164275,385.59956,515.96675)" />
    <linearGradient
       inkscape:collect="always"
       id="linearGradient847-3">
      <stop
         style="stop-color:#8fbcbb;stop-opacity:1"
         offset="0"
         id="stop843-6" />
      <stop
         style="stop-color:#88c0d0;stop-opacity:1"
         offset="1"
         id="stop845-7" />
    </linearGradient>
    <linearGradient
       inkscape:collect="always"
       xlink:href="#linearGradient851-5"
       id="linearGradient853"
       x1="369.57144"
       y1="513.79797"
       x2="370.22629"
       y2="513.96765"
       gradientUnits="userSpaceOnUse"
       gradientTransform="matrix(0.4820319,0,0,0.49916998,199.74184,274.3354)" />
    <linearGradient
       inkscape:collect="always"
       id="linearGradient851-5">
      <stop
         style="stop-color:#17181c;stop-opacity:1;"
         offset="0"
         id="stop847-3" />
      <stop
         style="stop-color:#17181c;stop-opacity:0;"
         offset="1"
         id="stop849-5" />
    </linearGradient>
    <linearGradient
       inkscape:collect="always"
       xlink:href="#linearGradient852"
       id="linearGradient854"
       x1="424.10419"
       y1="503.7821"
       x2="443.61319"
       y2="503.7821"
       gradientUnits="userSpaceOnUse"
       gradientTransform="matrix(0.4820319,0,0,0.49916998,199.74184,274.3354)" />
    <linearGradient
       inkscape:collect="always"
       id="linearGradient852">
      <stop
         style="stop-color:#434c5e;stop-opacity:1"
         offset="0"
         id="stop848" />
      <stop
         style="stop-color:#a2adbc;stop-opacity:1"
         offset="1"
         id="stop850" />
    </linearGradient>
  </defs>
  <metadata
     id="metadata5458">
    <rdf:RDF>
      <cc:Work
         rdf:about="">
        <dc:format>image/svg+xml</dc:format>
        <dc:type
           rdf:resource="http://purl.org/dc/dcmitype/StillImage" />
      </cc:Work>
    </rdf:RDF>
  </metadata>
  <g
     inkscape:label="Capa 1"
     inkscape:groupmode="layer"
     id="layer1"
     transform="translate(-384.57143,-515.798)">
    <path
       style="fill:#81a1c1;fill-opacity:1;stroke-width:0.0600428"
       d="m 401.36613,522.30553 c 0.48315,0.50338 1.1351,0.78555 1.81451,0.78555 h 1.00468 2.60926 c -0.6794,0 -1.33134,-0.28217 -1.81457,-0.78555 l -1.62588,-1.69374 c -0.48332,-0.50339 -1.13524,-0.78563 -1.81456,-0.78563 h -3.61395 c 0.6793,0 1.33134,0.28224 1.81456,0.78563 z"
       id="path2" />
    <path
       style="fill:#5e81ac;fill-opacity:1;stroke-width:0.0600428"
       d="m 396.12613,520.61179 1.62607,1.69374 c 0.48313,0.50338 1.13511,0.78555 1.81446,0.78555 h 1.00474 2.60924 c -0.67941,0 -1.33136,-0.28217 -1.81451,-0.78555 l -1.62595,-1.69374 c -0.48329,-0.50339 -1.13526,-0.78563 -1.81456,-0.78563 h -3.54947 -0.0647 c 0.67936,0 1.33126,0.2823 1.81441,0.78563 z"
       id="path4" />
    <path
       style="fill:url(#linearGradient859);fill-opacity:1;stroke:url(#linearGradient853);stroke-width:0.056326"
       d="m 413.9944,522.69941 h -6.19524 -1.00473 -2.6092 -1.00473 -2.6091 -1.00474 c -0.67935,0 -1.33133,-0.24837 -1.81446,-0.69139 l -1.62607,-1.49052 c -0.48321,-0.44296 -1.13511,-0.69134 -1.81445,-0.69134 h -3.5494 -3.61384 c -0.85539,0 -1.54885,0.64316 -1.54885,1.43663 v 2.87324 0.47887 17.71829 c 0,0.79346 0.69346,1.43662 1.54885,1.43662 h 26.84596 c 0.85537,0 1.54886,-0.64316 1.54886,-1.43662 v -18.19716 c 0,-0.79352 -0.69349,-1.43662 -1.54886,-1.43662 z m -10.86608,2.9224 0.004,-0.002 -0.003,-0.005 v 0 l 0.003,0.005 v 0 l -0.004,0.002 0.001,-0.007 z m 10.34991,0.42967 c 0,0.52892 -0.46226,0.95774 -1.0326,0.95774 h -7.22775 c -0.57034,0 -1.03259,-0.42882 -1.03259,-0.95774 v -0.47888 c 0,-0.52888 0.46225,-0.95775 1.03259,-0.95775 h 7.22769 c 0.57034,0 1.0326,0.42887 1.0326,0.95775 v 0.47888 z"
       id="path6"
       sodipodi:nodetypes="scccccsccscssccssssssccccccccccssssssscc" />
    <path
       style="fill:url(#linearGradient854);fill-opacity:1;stroke-width:0.0600428"
       d="m 412.44557,524.44787 h -7.22769 c -0.57034,0 -1.04432,0.48727 -1.04432,1.08826 v 0.54424 c 0,0.60102 0.47398,1.08824 1.04432,1.08824 h 7.22769 c 0.57034,0 1.1074,-0.48738 1.1203,-1.08824 l 0.0116,-0.54424 c 6e-5,-0.60099 -0.56155,-1.08826 -1.13198,-1.08826 z"
       id="path8"
       sodipodi:nodetypes="ssssssscs" />
    <g
       id="g8-3-6"
       transform="matrix(0.1071182,0,0,0.11092664,389.16126,529.50448)"
       style="fill:#434c5e;fill-opacity:1">
      <path
         d="m 50,38.312 c -6.455,0 -11.688,5.233 -11.688,11.688 0,6.455 5.233,11.688 11.688,11.688 6.455,0 11.688,-5.233 11.688,-11.688 0,-6.455 -5.233,-11.688 -11.688,-11.688 z m -2.028,3.759 c -2.191,0.559 -4.072,2.022 -5.159,4.02 -0.106,0.193 -0.308,0.305 -0.514,0.305 -0.095,0 -0.19,-0.023 -0.279,-0.071 -0.283,-0.155 -0.389,-0.51 -0.234,-0.793 1.243,-2.28 3.393,-3.954 5.898,-4.592 0.315,-0.084 0.631,0.109 0.71,0.422 0.08,0.313 -0.11,0.63 -0.422,0.709 z"
         id="path2-6-2"
         style="fill:#434c5e;fill-opacity:1" />
      <path
         d="M 54.078,23.573 C 54.009,21.374 52.217,19.61 50,19.61 c -2.217,0 -4.009,1.764 -4.078,3.963 C 33.107,25.544 23.263,36.643 23.263,50 c 0,13.357 9.845,24.456 22.659,26.427 0.069,2.199 1.861,3.963 4.078,3.963 2.217,0 4.009,-1.764 4.078,-3.963 C 66.893,74.456 76.737,63.357 76.737,50 76.737,36.643 66.893,25.544 54.078,23.573 Z m -0.062,51.975 c -0.354,-1.9 -2.013,-3.34 -4.016,-3.34 -2.003,0 -3.662,1.439 -4.016,3.34 C 33.625,73.611 24.14,62.895 24.14,50 c 0,-12.895 9.485,-23.611 21.845,-25.548 0.354,1.9 2.013,3.34 4.016,3.34 2.003,0 3.662,-1.439 4.016,-3.34 C 66.375,26.389 75.86,37.105 75.86,50 c 0,12.895 -9.485,23.611 -21.844,25.548 z"
         id="path4-3-9"
         style="fill:#434c5e;fill-opacity:1" />
      <path
         d="M 95,50 C 95,47.821 93.294,46.058 91.146,45.933 90.327,37.579 87.011,29.948 81.958,23.795 83.401,22.189 83.365,19.726 81.819,18.18 80.274,16.635 77.81,16.598 76.205,18.042 70.053,12.988 62.421,9.674 54.068,8.854 53.942,6.708 52.179,5 50,5 47.821,5 46.058,6.708 45.933,8.854 37.58,9.673 29.949,12.988 23.796,18.042 22.191,16.598 19.726,16.635 18.18,18.18 16.635,19.726 16.598,22.191 18.042,23.796 12.988,29.948 9.674,37.58 8.854,45.933 6.706,46.058 5,47.821 5,50 c 0,2.179 1.706,3.942 3.854,4.067 0.819,8.353 4.134,15.983 9.187,22.136 -1.444,1.606 -1.407,4.071 0.138,5.617 1.546,1.545 4.01,1.582 5.617,0.138 6.152,5.055 13.784,8.368 22.137,9.188 C 46.058,93.292 47.821,95 50,95 c 2.179,0 3.942,-1.708 4.067,-3.854 8.353,-0.819 15.984,-4.133 22.137,-9.188 1.607,1.444 4.07,1.407 5.616,-0.138 1.545,-1.546 1.582,-4.011 0.138,-5.616 C 87.013,70.052 90.326,62.42 91.146,54.067 93.294,53.942 95,52.179 95,50 Z m -4.73,4.027 c -0.808,8.143 -4.04,15.583 -8.963,21.589 -1.599,-1.15 -3.833,-1.02 -5.271,0.419 -1.438,1.439 -1.57,3.673 -0.419,5.271 -6.005,4.923 -13.446,8.155 -21.591,8.963 -0.308,-1.954 -1.984,-3.451 -4.025,-3.451 -2.041,0 -3.718,1.497 -4.025,3.451 -8.145,-0.808 -15.586,-4.04 -21.591,-8.963 1.151,-1.6 1.02,-3.835 -0.419,-5.272 -1.438,-1.438 -3.673,-1.571 -5.272,-0.42 C 13.771,69.61 10.538,62.17 9.73,54.027 c 1.954,-0.31 3.451,-1.986 3.451,-4.027 0,-2.041 -1.497,-3.718 -3.451,-4.027 0.808,-8.143 4.04,-15.582 8.962,-21.588 1.6,1.152 3.836,1.02 5.273,-0.419 1.438,-1.438 1.569,-3.674 0.419,-5.273 6.006,-4.922 13.445,-8.154 21.59,-8.962 0.308,1.954 1.984,3.451 4.025,3.451 2.041,0 3.718,-1.497 4.025,-3.451 8.145,0.808 15.585,4.04 21.59,8.962 -1.15,1.6 -1.02,3.834 0.419,5.272 1.438,1.438 3.673,1.569 5.272,0.419 4.923,6.005 8.155,13.446 8.963,21.589 -1.954,0.31 -3.451,1.986 -3.451,4.027 0,2.041 1.498,3.718 3.453,4.027 z"
         id="path6-6-1"
         style="fill:#434c5e;fill-opacity:1" />
    </g>
  </g>
</svg>
