<?xml version="1.0" encoding="UTF-8" standalone="no"?>
<svg
   xmlns:dc="http://purl.org/dc/elements/1.1/"
   xmlns:cc="http://creativecommons.org/ns#"
   xmlns:rdf="http://www.w3.org/1999/02/22-rdf-syntax-ns#"
   xmlns:svg="http://www.w3.org/2000/svg"
   xmlns="http://www.w3.org/2000/svg"
   xmlns:xlink="http://www.w3.org/1999/xlink"
   xmlns:sodipodi="http://sodipodi.sourceforge.net/DTD/sodipodi-0.dtd"
   xmlns:inkscape="http://www.inkscape.org/namespaces/inkscape"
   width="32"
   version="1.1"
   height="32"
   viewBox="0 0 32 32"
   id="svg15"
   sodipodi:docname="folder-blue.svg"
   inkscape:version="1.0.2 (e86c870879, 2021-01-15)">
  <sodipodi:namedview
     pagecolor="#ffffff"
     bordercolor="#666666"
     borderopacity="1"
     objecttolerance="10"
     gridtolerance="10"
     guidetolerance="10"
     inkscape:pageopacity="0"
     inkscape:pageshadow="2"
     inkscape:window-width="1920"
     inkscape:window-height="1007"
     id="namedview17"
     showgrid="false"
     inkscape:zoom="9.8125"
     inkscape:cx="-8.1530754"
     inkscape:cy="4.5332228"
     inkscape:window-x="0"
     inkscape:window-y="0"
     inkscape:window-maximized="1"
     inkscape:current-layer="layer1"
     inkscape:document-rotation="0" />
  <defs
     id="defs5455">
    <linearGradient
       id="linearGradient4172-7-9">
      <stop
         style="stop-color:#4183d7"
         id="stop4174-9-8" />
      <stop
         offset="1"
         style="stop-color:#5b94df"
         id="stop4176-4-6" />
    </linearGradient>
    <linearGradient
       inkscape:collect="always"
       xlink:href="#linearGradient885-6"
       id="linearGradient862-3"
       x1="476.689"
       y1="163.60085"
       x2="319.6994"
       y2="162.04736"
       gradientUnits="userSpaceOnUse"
       gradientTransform="matrix(0.05859377,0,0,0.06178774,385.5714,515.92949)" />
    <linearGradient
       inkscape:collect="always"
       id="linearGradient885-6">
      <stop
         style="stop-color:#a5adc0;stop-opacity:1"
         offset="0"
         id="stop881-7" />
      <stop
         style="stop-color:#434c5e;stop-opacity:1"
         offset="1"
         id="stop883-5" />
    </linearGradient>
  </defs>
  <metadata
     id="metadata5458">
    <rdf:RDF>
      <cc:Work
         rdf:about="">
        <dc:format>image/svg+xml</dc:format>
        <dc:type
           rdf:resource="http://purl.org/dc/dcmitype/StillImage" />
      </cc:Work>
    </rdf:RDF>
  </metadata>
  <g
     inkscape:label="Capa 1"
     inkscape:groupmode="layer"
     id="layer1"
     transform="translate(-384.57143,-515.798)">
    <path
       style="fill:#81a1c1;fill-opacity:1;stroke-width:0.0601699"
       d="m 401.36762,522.2832 c 0.48406,0.50451 1.13729,0.78742 1.81794,0.78742 h 1.00658 2.61414 c -0.68066,0 -1.33386,-0.28291 -1.81795,-0.78742 l -1.629,-1.6977 c -0.48422,-0.50459 -1.13733,-0.7875 -1.81791,-0.7875 h -3.62073 c 0.68055,0 1.33378,0.28291 1.81794,0.7875 z"
       id="path2-3" />
    <path
       style="fill:#5e81ac;fill-opacity:1;stroke-width:0.0601699"
       d="m 396.11782,520.5855 1.62909,1.6977 c 0.48403,0.50451 1.13724,0.78742 1.81791,0.78742 h 1.00661 2.61413 c -0.68065,0 -1.33388,-0.28291 -1.81794,-0.78742 l -1.62899,-1.6977 c -0.48422,-0.50459 -1.13739,-0.7875 -1.81794,-0.7875 h -3.55616 -0.0647 c 0.68066,0 1.33379,0.28297 1.81789,0.7875 z"
       id="path4-5" />
    <path
       style="fill:#2a7fff;fill-opacity:1;stroke-width:0.0564454"
       d="m 414.01969,522.67802 h -6.20694 -1.00658 -2.61416 -1.00657 -2.61401 -1.00661 c -0.68067,0 -1.33388,-0.24898 -1.81791,-0.693 l -1.62909,-1.49403 c -0.48415,-0.44402 -1.13728,-0.69299 -1.81793,-0.69299 h -3.55604 -3.62067 c -0.85698,0 -1.55175,0.6447 -1.55175,1.44001 v 2.88001 0.48002 17.75995 c 0,0.79531 0.69477,1.44001 1.55175,1.44001 h 26.89651 c 0.85698,0 1.55174,-0.6447 1.55174,-1.44001 v -18.23997 c 0,-0.79537 -0.69476,-1.44 -1.55174,-1.44 z m -10.88656,2.92929 0.004,-0.003 -0.003,-0.005 v 0 l 0.003,0.005 v 0 l -0.004,0.003 0.001,-0.008 z m 10.36939,0.43068 c 0,0.53015 -0.46314,0.95999 -1.03454,0.95999 h -7.24136 c -0.5714,0 -1.03455,-0.42984 -1.03455,-0.95999 v -0.48001 c 0,-0.53015 0.46315,-0.95999 1.03455,-0.95999 h 7.24129 c 0.57141,0 1.03455,0.42984 1.03455,0.95999 v 0.48001 z"
       id="path6-6"
       sodipodi:nodetypes="scccccsccscssccssssssccccccccccssssssscc" />
    <path
       style="fill:url(#linearGradient862-3);fill-opacity:1;stroke-width:0.0601699"
       d="m 412.46791,524.43061 h -7.24129 c -0.5714,0 -1.04624,0.48838 -1.04624,1.09082 v 0.5455 c 0,0.60243 0.47484,1.09082 1.04624,1.09082 h 7.24129 c 0.57141,0 1.10945,-0.48855 1.12243,-1.09082 l 0.0118,-0.5455 c 6e-5,-0.60244 -0.56266,-1.09082 -1.13412,-1.09082 z"
       id="path8-2"
       sodipodi:nodetypes="ssssssscs" />
  </g>
</svg>
