<?xml version="1.0" encoding="UTF-8" standalone="no"?>
<svg
   xmlns:dc="http://purl.org/dc/elements/1.1/"
   xmlns:cc="http://creativecommons.org/ns#"
   xmlns:rdf="http://www.w3.org/1999/02/22-rdf-syntax-ns#"
   xmlns:svg="http://www.w3.org/2000/svg"
   xmlns="http://www.w3.org/2000/svg"
   xmlns:xlink="http://www.w3.org/1999/xlink"
   xmlns:sodipodi="http://sodipodi.sourceforge.net/DTD/sodipodi-0.dtd"
   xmlns:inkscape="http://www.inkscape.org/namespaces/inkscape"
   width="32"
   version="1.1"
   height="32"
   viewBox="0 0 32 32"
   id="svg15"
   sodipodi:docname="folder-orange.svg"
   inkscape:version="1.0.2 (e86c870879, 2021-01-15)">
  <sodipodi:namedview
     pagecolor="#ffffff"
     bordercolor="#666666"
     borderopacity="1"
     objecttolerance="10"
     gridtolerance="10"
     guidetolerance="10"
     inkscape:pageopacity="0"
     inkscape:pageshadow="2"
     inkscape:window-width="1920"
     inkscape:window-height="1007"
     id="namedview17"
     showgrid="false"
     inkscape:zoom="9.8125"
     inkscape:cx="-10.778832"
     inkscape:cy="0.84602898"
     inkscape:window-x="0"
     inkscape:window-y="0"
     inkscape:window-maximized="1"
     inkscape:current-layer="layer1"
     inkscape:document-rotation="0" />
  <defs
     id="defs5455">
    <linearGradient
       id="linearGradient4172-0">
      <stop
         style="stop-color:#f89406"
         id="stop4174-4" />
      <stop
         offset="1"
         style="stop-color:#faa938"
         id="stop4176-5" />
    </linearGradient>
    <linearGradient
       inkscape:collect="always"
       xlink:href="#linearGradient846"
       id="linearGradient848"
       x1="403.64517"
       y1="495.06839"
       x2="422.04425"
       y2="495.06839"
       gradientUnits="userSpaceOnUse"
       gradientTransform="matrix(0.48293849,0,0,0.4997175,199.36413,274.06811)" />
    <linearGradient
       inkscape:collect="always"
       id="linearGradient846">
      <stop
         style="stop-color:#bf616a;stop-opacity:1;"
         offset="0"
         id="stop842" />
      <stop
         style="stop-color:#bf616a;stop-opacity:0;"
         offset="1"
         id="stop844" />
    </linearGradient>
    <linearGradient
       inkscape:collect="always"
       xlink:href="#linearGradient4172-0"
       id="linearGradient859-3"
       x1="0"
       y1="256.82327"
       x2="512"
       y2="256.82327"
       gradientUnits="userSpaceOnUse"
       gradientTransform="matrix(0.0585938,0,0,0.06171035,385.57143,515.96451)" />
    <linearGradient
       inkscape:collect="always"
       xlink:href="#linearGradient885-3"
       id="linearGradient862-5"
       x1="476.689"
       y1="163.60085"
       x2="319.6994"
       y2="162.04736"
       gradientUnits="userSpaceOnUse"
       gradientTransform="matrix(0.0585938,0,0,0.06171035,385.57143,515.96451)" />
    <linearGradient
       inkscape:collect="always"
       id="linearGradient885-3">
      <stop
         style="stop-color:#a6aebf;stop-opacity:1"
         offset="0"
         id="stop881-5" />
      <stop
         style="stop-color:#434c5e;stop-opacity:1"
         offset="1"
         id="stop883-6" />
    </linearGradient>
  </defs>
  <metadata
     id="metadata5458">
    <rdf:RDF>
      <cc:Work
         rdf:about="">
        <dc:format>image/svg+xml</dc:format>
        <dc:type
           rdf:resource="http://purl.org/dc/dcmitype/StillImage" />
      </cc:Work>
    </rdf:RDF>
  </metadata>
  <g
     inkscape:label="Capa 1"
     inkscape:groupmode="layer"
     id="layer1"
     transform="translate(-384.57143,-515.798)">
    <path
       style="fill:#81a1c1;fill-opacity:1;stroke-width:0.0601323"
       d="m 401.36765,522.3102 c 0.48401,0.50387 1.13728,0.78642 1.81794,0.78642 h 1.00655 2.61417 c -0.68066,0 -1.33391,-0.28256 -1.81794,-0.78642 l -1.62899,-1.69563 c -0.48427,-0.50395 -1.13737,-0.7865 -1.81793,-0.7865 h -3.62073 c 0.68056,0 1.33374,0.28255 1.81794,0.7865 z"
       id="path2-2" />
    <path
       style="fill:#5e81ac;fill-opacity:1;stroke:url(#linearGradient848);stroke-width:0.0601323"
       d="m 396.11786,520.61457 1.62907,1.69563 c 0.48402,0.50387 1.13718,0.78642 1.81793,0.78642 h 1.00657 2.61416 c -0.68066,0 -1.33393,-0.28256 -1.81794,-0.78642 l -1.62899,-1.69563 c -0.48426,-0.50395 -1.13738,-0.7865 -1.81794,-0.7865 h -3.55619 -0.0647 c 0.68068,0 1.33377,0.28261 1.81791,0.7865 z"
       id="path4-9" />
    <path
       style="fill:url(#linearGradient859-3);fill-opacity:1;stroke-width:0.0564101"
       d="m 414.01966,522.70451 h -6.2069 -1.00659 -2.61415 -1.00656 -2.61403 -1.00657 c -0.68075,0 -1.33391,-0.24865 -1.81793,-0.69217 l -1.62907,-1.49217 c -0.4842,-0.44345 -1.1373,-0.6921 -1.81794,-0.6921 h -3.55607 -3.62064 c -0.85704,0 -1.55178,0.64387 -1.55178,1.43817 v 2.87644 0.47941 17.73774 c 0,0.7943 0.69474,1.43818 1.55178,1.43818 h 26.89645 c 0.85704,0 1.55177,-0.64388 1.55177,-1.43818 v -18.21715 c 0,-0.79435 -0.69473,-1.43817 -1.55177,-1.43817 z m -10.88652,2.92556 0.004,-0.002 -0.003,-0.005 v 0 l 0.003,0.005 v 0 l -0.004,0.002 9.9e-4,-0.007 z m 10.36942,0.43014 c 0,0.52947 -0.46318,0.95886 -1.03461,0.95886 h -7.24136 c -0.57134,0 -1.03451,-0.42939 -1.03451,-0.95886 v -0.47941 c 0,-0.52946 0.46317,-0.95876 1.03451,-0.95876 h 7.24134 c 0.57139,0 1.03456,0.42929 1.03456,0.95876 v 0.47941 z"
       id="path6-1"
       sodipodi:nodetypes="scccccsccscssccssssssccccccccccssssssscc" />
    <path
       style="fill:url(#linearGradient862-5);fill-opacity:1;stroke-width:0.0601323"
       d="m 412.46793,524.45487 h -7.24134 c -0.57134,0 -1.04621,0.48776 -1.04621,1.08943 v 0.54481 c 0,0.60166 0.47487,1.08954 1.04621,1.08954 h 7.24134 c 0.57139,0 1.10947,-0.48804 1.12238,-1.08954 l 0.0121,-0.54481 c 6e-5,-0.60167 -0.56265,-1.08943 -1.13413,-1.08943 z"
       id="path8-2"
       sodipodi:nodetypes="ssssssscs" />
  </g>
</svg>
