<?xml version="1.0" encoding="UTF-8" standalone="no"?>
<svg
   xmlns:dc="http://purl.org/dc/elements/1.1/"
   xmlns:cc="http://creativecommons.org/ns#"
   xmlns:rdf="http://www.w3.org/1999/02/22-rdf-syntax-ns#"
   xmlns:svg="http://www.w3.org/2000/svg"
   xmlns="http://www.w3.org/2000/svg"
   xmlns:xlink="http://www.w3.org/1999/xlink"
   xmlns:sodipodi="http://sodipodi.sourceforge.net/DTD/sodipodi-0.dtd"
   xmlns:inkscape="http://www.inkscape.org/namespaces/inkscape"
   width="32"
   version="1.1"
   height="32"
   viewBox="0 0 32 32"
   id="svg15"
   sodipodi:docname="folder-Reddit.svg"
   inkscape:version="1.0.2 (e86c870879, 2021-01-15)">
  <sodipodi:namedview
     pagecolor="#ffffff"
     bordercolor="#666666"
     borderopacity="1"
     objecttolerance="10"
     gridtolerance="10"
     guidetolerance="10"
     inkscape:pageopacity="0"
     inkscape:pageshadow="2"
     inkscape:window-width="1920"
     inkscape:window-height="1007"
     id="namedview17"
     showgrid="false"
     inkscape:zoom="9.8125"
     inkscape:cx="-12.999029"
     inkscape:cy="6.4668704"
     inkscape:window-x="0"
     inkscape:window-y="0"
     inkscape:window-maximized="1"
     inkscape:current-layer="layer1"
     inkscape:document-rotation="0" />
  <defs
     id="defs5455">
    <linearGradient
       inkscape:collect="always"
       xlink:href="#linearGradient847-3"
       id="linearGradient859"
       x1="239.02225"
       y1="256.95679"
       x2="512"
       y2="256.82327"
       gradientUnits="userSpaceOnUse"
       gradientTransform="matrix(0.05859377,0,0,0.06178774,385.57141,515.92949)" />
    <linearGradient
       inkscape:collect="always"
       id="linearGradient847-3">
      <stop
         style="stop-color:#8fbcbb;stop-opacity:1"
         offset="0"
         id="stop843-6" />
      <stop
         style="stop-color:#88c0d0;stop-opacity:1"
         offset="1"
         id="stop845-7" />
    </linearGradient>
    <linearGradient
       inkscape:collect="always"
       xlink:href="#linearGradient885"
       id="linearGradient862"
       x1="476.689"
       y1="163.60085"
       x2="319.6994"
       y2="162.04736"
       gradientUnits="userSpaceOnUse"
       gradientTransform="matrix(0.05859377,0,0,0.06178774,385.57141,515.92949)" />
    <linearGradient
       inkscape:collect="always"
       id="linearGradient885">
      <stop
         style="stop-color:#a4adbe;stop-opacity:1"
         offset="0"
         id="stop881" />
      <stop
         style="stop-color:#434c5e;stop-opacity:1"
         offset="1"
         id="stop883" />
    </linearGradient>
  </defs>
  <metadata
     id="metadata5458">
    <rdf:RDF>
      <cc:Work
         rdf:about="">
        <dc:format>image/svg+xml</dc:format>
        <dc:type
           rdf:resource="http://purl.org/dc/dcmitype/StillImage" />
      </cc:Work>
    </rdf:RDF>
  </metadata>
  <g
     inkscape:label="Capa 1"
     inkscape:groupmode="layer"
     id="layer1"
     transform="translate(-384.57143,-515.798)">
    <path
       style="fill:#81a1c1;fill-opacity:1;stroke-width:0.06017"
       d="m 401.36764,522.2832 c 0.48406,0.50451 1.13729,0.78742 1.81794,0.78742 h 1.00656 2.61416 c -0.68066,0 -1.3339,-0.28291 -1.81795,-0.78742 l -1.629,-1.6977 c -0.48424,-0.50459 -1.13735,-0.7875 -1.81791,-0.7875 h -3.62073 c 0.68055,0 1.33376,0.28291 1.81794,0.7875 z"
       id="path2" />
    <path
       style="fill:#5e81ac;fill-opacity:1;stroke-width:0.06017"
       d="m 396.11784,520.5855 1.62909,1.6977 c 0.48401,0.50451 1.1372,0.78742 1.81791,0.78742 h 1.0066 2.61414 c -0.68065,0 -1.33388,-0.28291 -1.81794,-0.78742 l -1.62899,-1.6977 c -0.48424,-0.50459 -1.13739,-0.7875 -1.81794,-0.7875 h -3.55618 -0.0647 c 0.68066,0 1.33377,0.28297 1.81789,0.7875 z"
       id="path4" />
    <path
       style="fill:url(#linearGradient859);fill-opacity:1;stroke-width:0.0564454"
       d="m 414.0197,522.67802 h -6.20695 -1.00659 -2.61415 -1.00655 -2.61403 -1.00659 c -0.68071,0 -1.3339,-0.24898 -1.81791,-0.693 l -1.62909,-1.49403 c -0.48417,-0.44402 -1.13728,-0.69299 -1.81793,-0.69299 h -3.55606 -3.62069 c -0.85698,0 -1.55173,0.6447 -1.55173,1.44001 v 2.88001 0.48002 17.75995 c 0,0.79531 0.69475,1.44001 1.55173,1.44001 h 26.89654 c 0.85699,0 1.55173,-0.6447 1.55173,-1.44001 v -18.23997 c 0,-0.79537 -0.69474,-1.44 -1.55173,-1.44 z m -10.88657,2.92929 0.004,-0.003 -0.003,-0.005 v 0 l 0.003,0.005 v 0 l -0.004,0.003 0.001,-0.008 z m 10.36941,0.43068 c 0,0.53015 -0.46316,0.95999 -1.03457,0.95999 h -7.24136 c -0.57137,0 -1.03453,-0.42984 -1.03453,-0.95999 v -0.48001 c 0,-0.53015 0.46316,-0.95999 1.03453,-0.95999 h 7.24132 c 0.5714,0 1.03455,0.42984 1.03455,0.95999 v 0.48001 z"
       id="path6"
       sodipodi:nodetypes="scccccsccscssccssssssccccccccccssssssscc" />
    <path
       style="fill:url(#linearGradient862);fill-opacity:1;stroke-width:0.06017"
       d="m 412.46793,524.43061 h -7.24133 c -0.57136,0 -1.04622,0.48838 -1.04622,1.09082 v 0.5455 c 0,0.60243 0.47486,1.09082 1.04622,1.09082 h 7.24133 c 0.57139,0 1.10945,-0.48855 1.12239,-1.09082 l 0.012,-0.5455 c 6e-5,-0.60244 -0.56264,-1.09082 -1.13413,-1.09082 z"
       id="path8"
       sodipodi:nodetypes="ssssssscs" />
    <path
       d="m 400.22235,534.35917 c 0,-0.82315 -0.66526,-1.49072 -1.4809,-1.49072 -0.32136,0 -0.62827,0.10366 -0.8816,0.29236 -0.71892,-0.36492 -1.57371,-0.58464 -2.47791,-0.63648 l 0.59117,-1.6441 1.42952,0.35869 c 0.0309,0.59088 0.51899,1.05938 1.11222,1.05938 0.6138,0 1.11434,-0.50381 1.11434,-1.12158 0,-0.61785 -0.50054,-1.12166 -1.11434,-1.12166 -0.4181,0 -0.78267,0.23219 -0.97426,0.57638 l -1.95888,-0.49346 -0.85273,2.37389 c -0.98244,0.029 -1.91354,0.25292 -2.69001,0.64481 -0.25337,-0.1887 -0.5582,-0.29026 -0.87957,-0.29026 -0.8177,0.003 -1.48297,0.67171 -1.48297,1.49275 0,0.40218 0.16473,0.78986 0.44693,1.06773 -0.0183,0.11816 -0.0288,0.23842 -0.0288,0.3586 0,0.90187 0.52319,1.73952 1.47064,2.35736 0.90628,0.59291 2.10719,0.91839 3.3801,0.91839 1.27295,0 2.47174,-0.32548 3.38002,-0.91839 0.94751,-0.61995 1.47069,-1.45751 1.47069,-2.35736 0,-0.11815 -0.0107,-0.23631 -0.0267,-0.35448 0.28627,-0.27575 0.45314,-0.66554 0.45314,-1.07185 z m -7.59229,0.87077 c 0,-0.47896 0.38727,-0.86875 0.86311,-0.86875 0.47578,0 0.86298,0.38979 0.86298,0.86875 0,0.47887 -0.3872,0.86866 -0.86298,0.86866 -0.47584,0 -0.86311,-0.38979 -0.86311,-0.86866 z m 2.37494,2.74909 c -0.66942,0 -1.32238,-0.19073 -1.88671,-0.55144 l 0.33161,-0.52455 c 0.46552,0.29852 1.00513,0.45612 1.55716,0.45612 0.55209,0 1.08961,-0.1576 1.55713,-0.45612 l 0.33169,0.52455 c -0.56852,0.36071 -1.22146,0.55144 -1.89088,0.55144 z m 1.53037,-1.88043 c -0.47576,0 -0.86296,-0.38979 -0.86296,-0.86866 0,-0.47896 0.3872,-0.86875 0.86296,-0.86875 0.47585,0 0.86305,0.38979 0.86305,0.86875 0,0.47887 -0.3872,0.86866 -0.86305,0.86866 z m 0,0"
       id="path2-3-5"
       style="fill:#434c5e;fill-opacity:1;stroke-width:0.0206648" />
  </g>
</svg>
