<?xml version="1.0" encoding="UTF-8" standalone="no"?>
<svg
   xmlns:dc="http://purl.org/dc/elements/1.1/"
   xmlns:cc="http://creativecommons.org/ns#"
   xmlns:rdf="http://www.w3.org/1999/02/22-rdf-syntax-ns#"
   xmlns:svg="http://www.w3.org/2000/svg"
   xmlns="http://www.w3.org/2000/svg"
   xmlns:xlink="http://www.w3.org/1999/xlink"
   xmlns:sodipodi="http://sodipodi.sourceforge.net/DTD/sodipodi-0.dtd"
   xmlns:inkscape="http://www.inkscape.org/namespaces/inkscape"
   width="32"
   version="1.1"
   height="32"
   viewBox="0 0 32 32"
   id="svg15"
   sodipodi:docname="folder-Github.svg"
   inkscape:version="1.0.2 (e86c870879, 2021-01-15)">
  <sodipodi:namedview
     pagecolor="#ffffff"
     bordercolor="#666666"
     borderopacity="1"
     objecttolerance="10"
     gridtolerance="10"
     guidetolerance="10"
     inkscape:pageopacity="0"
     inkscape:pageshadow="2"
     inkscape:window-width="1920"
     inkscape:window-height="1007"
     id="namedview17"
     showgrid="false"
     inkscape:zoom="9.8125"
     inkscape:cx="-12.999029"
     inkscape:cy="6.4668704"
     inkscape:window-x="0"
     inkscape:window-y="0"
     inkscape:window-maximized="1"
     inkscape:current-layer="layer1"
     inkscape:document-rotation="0" />
  <defs
     id="defs5455">
    <linearGradient
       inkscape:collect="always"
       xlink:href="#linearGradient856"
       id="linearGradient860"
       x1="421.57144"
       y1="494.798"
       x2="421.57144"
       y2="494.798"
       gradientUnits="userSpaceOnUse"
       gradientTransform="matrix(0.48293848,0,0,0.49971747,199.36431,274.06817)" />
    <linearGradient
       inkscape:collect="always"
       id="linearGradient856">
      <stop
         style="stop-color:#4e4e7e;stop-opacity:1;"
         offset="0"
         id="stop852" />
      <stop
         style="stop-color:#4e4e7e;stop-opacity:0;"
         offset="1"
         id="stop854" />
    </linearGradient>
    <linearGradient
       inkscape:collect="always"
       xlink:href="#linearGradient847-3"
       id="linearGradient859"
       x1="206.05367"
       y1="240.76118"
       x2="511.01306"
       y2="248.85898"
       gradientUnits="userSpaceOnUse"
       gradientTransform="matrix(0.05859376,0,0,0.06171035,385.57161,515.96454)" />
    <linearGradient
       inkscape:collect="always"
       id="linearGradient847-3">
      <stop
         style="stop-color:#8fbcbb;stop-opacity:1"
         offset="0"
         id="stop843-6" />
      <stop
         style="stop-color:#88c0d0;stop-opacity:1"
         offset="1"
         id="stop845-7" />
    </linearGradient>
    <linearGradient
       inkscape:collect="always"
       xlink:href="#linearGradient848"
       id="linearGradient850"
       x1="424.01044"
       y1="503.78326"
       x2="443.51944"
       y2="503.78326"
       gradientUnits="userSpaceOnUse"
       gradientTransform="matrix(0.48293848,0,0,0.49971747,199.36431,274.06817)" />
    <linearGradient
       inkscape:collect="always"
       id="linearGradient848">
      <stop
         style="stop-color:#434c5e;stop-opacity:1"
         offset="0"
         id="stop844" />
      <stop
         style="stop-color:#a2adbc;stop-opacity:1"
         offset="1"
         id="stop846" />
    </linearGradient>
    <linearGradient
       inkscape:collect="always"
       xlink:href="#linearGradient857"
       id="linearGradient861"
       x1="473.57144"
       y1="527.79797"
       x2="473.44965"
       y2="527.62915"
       gradientUnits="userSpaceOnUse"
       gradientTransform="matrix(0.48293848,0,0,0.49971747,199.36431,274.06817)" />
    <linearGradient
       inkscape:collect="always"
       id="linearGradient857">
      <stop
         style="stop-color:#000000;stop-opacity:1;"
         offset="0"
         id="stop853" />
      <stop
         style="stop-color:#000000;stop-opacity:0;"
         offset="1"
         id="stop855" />
    </linearGradient>
  </defs>
  <metadata
     id="metadata5458">
    <rdf:RDF>
      <cc:Work
         rdf:about="">
        <dc:format>image/svg+xml</dc:format>
        <dc:type
           rdf:resource="http://purl.org/dc/dcmitype/StillImage" />
      </cc:Work>
    </rdf:RDF>
  </metadata>
  <g
     inkscape:label="Capa 1"
     inkscape:groupmode="layer"
     id="layer1"
     transform="translate(-384.57143,-515.798)">
    <path
       style="fill:#81a1c1;fill-opacity:1;stroke-width:0.0601321"
       d="m 401.36779,522.3102 c 0.48409,0.50383 1.13728,0.78638 1.81794,0.78638 h 1.00659 2.61413 c -0.68066,0 -1.33383,-0.28255 -1.81794,-0.78638 l -1.62899,-1.69563 c -0.48423,-0.50395 -1.13733,-0.7865 -1.81793,-0.7865 h -3.62073 c 0.68056,0 1.33378,0.28255 1.81794,0.7865 z"
       id="path2" />
    <path
       style="fill:#5e81ac;fill-opacity:1;stroke:url(#linearGradient860);stroke-width:0.0601321"
       d="m 396.11801,520.61457 1.62913,1.69563 c 0.48399,0.50383 1.1372,0.78638 1.81786,0.78638 h 1.00661 2.61412 c -0.68059,0 -1.33385,-0.28255 -1.81793,-0.78638 l -1.62899,-1.69563 c -0.48423,-0.50395 -1.13739,-0.7865 -1.81795,-0.7865 h -3.55615 -0.0647 c 0.68068,0 1.33381,0.28261 1.81792,0.7865 z"
       id="path4" />
    <path
       style="fill:url(#linearGradient859);fill-opacity:1;stroke-width:0.0564101"
       d="m 414.01987,522.70448 h -6.20693 -1.0066 -2.61414 -1.0066 -2.61399 -1.00661 c -0.68067,0 -1.33387,-0.24866 -1.81786,-0.6921 l -1.62914,-1.49221 c -0.48416,-0.44345 -1.1373,-0.6921 -1.81794,-0.6921 h -3.55603 -3.62068 c -0.85696,0 -1.55174,0.64388 -1.55174,1.43822 v 2.8764 0.47941 17.73768 c 0,0.79435 0.69478,1.43823 1.55174,1.43823 h 26.89652 c 0.85697,0 1.55174,-0.64388 1.55174,-1.43823 v -18.21709 c 0,-0.7944 -0.69477,-1.43821 -1.55174,-1.43821 z m -10.88655,2.92559 0.004,-0.002 -0.003,-0.005 v 0 l 0.003,0.005 v 0 l -0.004,0.002 9.9e-4,-0.007 z m 10.36938,0.43018 c 0,0.52947 -0.46314,0.95884 -1.03452,0.95884 h -7.24136 c -0.57142,0 -1.03456,-0.42937 -1.03456,-0.95884 v -0.47944 c 0,-0.52947 0.46314,-0.95876 1.03456,-0.95876 h 7.24132 c 0.57136,0 1.0345,0.42929 1.0345,0.95876 v 0.47944 z"
       id="path6"
       sodipodi:nodetypes="scccccsccscssccssssssccccccccccssssssscc" />
    <path
       style="fill:url(#linearGradient850);fill-opacity:1;stroke:url(#linearGradient861);stroke-width:0.0601321"
       d="m 412.42284,524.45545 h -7.2413 c -0.57139,0 -1.04626,0.48776 -1.04626,1.08943 v 0.54485 c 0,0.60166 0.47487,1.08946 1.04626,1.08946 h 7.2413 c 0.57138,0 1.10945,-0.48796 1.12242,-1.08946 l 0.0117,-0.54485 c 5e-5,-0.60167 -0.56267,-1.08943 -1.13411,-1.08943 z"
       id="path8"
       sodipodi:nodetypes="ssssssscs" />
    <path
       d="m 394.71588,530.07227 c -2.7842,0 -5.0393,2.29432 -5.0393,5.12397 0,2.26434 1.44376,4.18455 3.4456,4.86153 0.25197,0.0482 0.34438,-0.11037 0.34438,-0.24637 0,-0.12167 -0.005,-0.44409 -0.007,-0.87122 -1.40174,0.30895 -1.69745,-0.68741 -1.69745,-0.68741 -0.22921,-0.59144 -0.56055,-0.74962 -0.56055,-0.74962 -0.45652,-0.31763 0.0355,-0.31111 0.0355,-0.31111 0.50603,0.0356 0.77186,0.52796 0.77186,0.52796 0.44931,0.78349 1.17959,0.55711 1.46767,0.42632 0.0452,-0.33158 0.17511,-0.55712 0.31916,-0.68531 -1.11916,-0.12818 -2.29537,-0.56878 -2.29537,-2.532 0,-0.55923 0.19523,-1.01634 0.51861,-1.37482 -0.0566,-0.12949 -0.22679,-0.65052 0.044,-1.35619 0,0 0.42205,-0.13731 1.38584,0.52534 0.40315,-0.11384 0.83147,-0.17033 1.25982,-0.17294 0.42832,0.002 0.85669,0.0591 1.25981,0.17294 0.95748,-0.66265 1.3795,-0.52534 1.3795,-0.52534 0.27088,0.70567 0.10068,1.2267 0.0504,1.35619 0.32127,0.35848 0.51651,0.81559 0.51651,1.37482 0,1.96843 -1.17791,2.40165 -2.29917,2.52766 0.1764,0.15382 0.34014,0.46803 0.34014,0.94818 0,0.68568 -0.007,1.23665 -0.007,1.40308 0,0.13426 0.0882,0.29459 0.34644,0.24333 2.01613,-0.67265 3.45862,-2.59416 3.45862,-4.85502 -10e-6,-2.82965 -2.25631,-5.12397 -5.03926,-5.12397 z"
       id="path2-3-3-5"
       style="fill:#434c5e;fill-opacity:1;stroke-width:0.427174" />
  </g>
</svg>
