<?xml version="1.0" encoding="UTF-8" standalone="no"?>
<svg
   xmlns:dc="http://purl.org/dc/elements/1.1/"
   xmlns:cc="http://creativecommons.org/ns#"
   xmlns:rdf="http://www.w3.org/1999/02/22-rdf-syntax-ns#"
   xmlns:svg="http://www.w3.org/2000/svg"
   xmlns="http://www.w3.org/2000/svg"
   xmlns:xlink="http://www.w3.org/1999/xlink"
   xmlns:sodipodi="http://sodipodi.sourceforge.net/DTD/sodipodi-0.dtd"
   xmlns:inkscape="http://www.inkscape.org/namespaces/inkscape"
   width="32"
   version="1.1"
   height="32"
   viewBox="0 0 32 32"
   id="svg15"
   sodipodi:docname="folder-IOTA.svg"
   inkscape:version="1.0.2 (e86c870879, 2021-01-15)">
  <sodipodi:namedview
     pagecolor="#ffffff"
     bordercolor="#666666"
     borderopacity="1"
     objecttolerance="10"
     gridtolerance="10"
     guidetolerance="10"
     inkscape:pageopacity="0"
     inkscape:pageshadow="2"
     inkscape:window-width="1920"
     inkscape:window-height="1007"
     id="namedview17"
     showgrid="false"
     inkscape:zoom="9.8125"
     inkscape:cx="-12.999029"
     inkscape:cy="6.4668704"
     inkscape:window-x="0"
     inkscape:window-y="0"
     inkscape:window-maximized="1"
     inkscape:current-layer="layer1"
     inkscape:document-rotation="0" />
  <defs
     id="defs5455">
    <linearGradient
       inkscape:collect="always"
       xlink:href="#linearGradient847-6"
       id="linearGradient859-3"
       x1="222.53795"
       y1="265.05457"
       x2="512"
       y2="256.82327"
       gradientUnits="userSpaceOnUse"
       gradientTransform="matrix(0.0585938,0,0,0.06178774,385.57143,515.92948)" />
    <linearGradient
       inkscape:collect="always"
       id="linearGradient847-6">
      <stop
         style="stop-color:#8fbcbb;stop-opacity:1"
         offset="0"
         id="stop843-7" />
      <stop
         style="stop-color:#88c0d0;stop-opacity:1"
         offset="1"
         id="stop845-5" />
    </linearGradient>
    <linearGradient
       inkscape:collect="always"
       xlink:href="#linearGradient844"
       id="linearGradient846"
       x1="424.10419"
       y1="503.7821"
       x2="443.61319"
       y2="503.7821"
       gradientUnits="userSpaceOnUse"
       gradientTransform="matrix(0.48293847,0,0,0.5003442,199.36415,273.72972)" />
    <linearGradient
       inkscape:collect="always"
       id="linearGradient844">
      <stop
         style="stop-color:#434c5e;stop-opacity:1"
         offset="0"
         id="stop840" />
      <stop
         style="stop-color:#a2adbc;stop-opacity:1"
         offset="1"
         id="stop842" />
    </linearGradient>
  </defs>
  <metadata
     id="metadata5458">
    <rdf:RDF>
      <cc:Work
         rdf:about="">
        <dc:format>image/svg+xml</dc:format>
        <dc:type
           rdf:resource="http://purl.org/dc/dcmitype/StillImage" />
      </cc:Work>
    </rdf:RDF>
  </metadata>
  <g
     inkscape:label="Capa 1"
     inkscape:groupmode="layer"
     id="layer1"
     transform="translate(-384.57143,-515.798)">
    <path
       style="fill:#81a1c1;fill-opacity:1;stroke-width:0.0601699"
       d="m 401.36765,522.2832 c 0.484,0.50451 1.13728,0.78742 1.81794,0.78742 h 1.00655 2.61417 c -0.68066,0 -1.33392,-0.28291 -1.81795,-0.78742 l -1.629,-1.6977 c -0.48425,-0.50459 -1.13736,-0.7875 -1.81791,-0.7875 h -3.62073 c 0.68055,0 1.33375,0.28291 1.81794,0.7875 z"
       id="path2-3" />
    <path
       style="fill:#5e81ac;fill-opacity:1;stroke-width:0.0601699"
       d="m 396.11785,520.5855 1.62908,1.6977 c 0.48401,0.50451 1.13719,0.78742 1.81792,0.78742 h 1.00658 2.61416 c -0.68066,0 -1.33394,-0.28291 -1.81794,-0.78742 l -1.62899,-1.6977 c -0.48425,-0.50459 -1.13739,-0.7875 -1.81794,-0.7875 h -3.55619 -0.0647 c 0.68066,0 1.33376,0.28297 1.81789,0.7875 z"
       id="path4-5" />
    <path
       style="fill:url(#linearGradient859-3);fill-opacity:1;stroke-width:0.0564454"
       d="m 414.01966,522.67802 h -6.20691 -1.00657 -2.61417 -1.00654 -2.61404 -1.00658 c -0.68073,0 -1.33391,-0.24898 -1.81792,-0.693 l -1.62908,-1.49403 c -0.48418,-0.44402 -1.13728,-0.69299 -1.81793,-0.69299 h -3.55607 -3.62064 c -0.85704,0 -1.55178,0.6447 -1.55178,1.44001 v 2.88001 0.48002 17.75995 c 0,0.79531 0.69474,1.44001 1.55178,1.44001 h 26.89645 c 0.85704,0 1.55177,-0.6447 1.55177,-1.44001 v -18.23997 c 0,-0.79537 -0.69473,-1.44 -1.55177,-1.44 z m -10.88653,2.92929 0.004,-0.003 -0.004,-0.005 v 0 l 0.004,0.005 v 0 l -0.004,0.003 0.001,-0.008 z m 10.36942,0.43068 c 0,0.53015 -0.46317,0.95999 -1.0346,0.95999 h -7.24136 c -0.57134,0 -1.03452,-0.42984 -1.03452,-0.95999 v -0.48001 c 0,-0.53015 0.46318,-0.95999 1.03452,-0.95999 h 7.24134 c 0.57139,0 1.03456,0.42984 1.03456,0.95999 v 0.48001 z"
       id="path6-6"
       sodipodi:nodetypes="scccccsccscssccssssssccccccccccssssssscc" />
    <path
       style="fill:url(#linearGradient846);fill-opacity:1;stroke-width:0.0601699"
       d="m 412.46793,524.43061 h -7.24134 c -0.57134,0 -1.04621,0.48838 -1.04621,1.09082 v 0.5455 c 0,0.60243 0.47487,1.09082 1.04621,1.09082 h 7.24134 c 0.57139,0 1.10946,-0.48855 1.12238,-1.09082 l 0.0121,-0.5455 c 6e-5,-0.60244 -0.56263,-1.09082 -1.13412,-1.09082 z"
       id="path8-2"
       sodipodi:nodetypes="ssssssscs" />
    <path
       style="isolation:isolate;fill:#434c5e;fill-opacity:1;stroke-width:0.653597"
       class="ColorScheme-Text"
       d="m 392.56846,540.06098 c 0.2099,-0.01 0.40073,-0.12548 0.50532,-0.30781 0.0821,-0.14181 0.1048,-0.30977 0.0621,-0.46791 -0.0427,-0.15816 -0.14572,-0.29278 -0.28763,-0.37512 -0.14181,-0.0817 -0.31043,-0.10391 -0.46863,-0.0614 -0.15753,0.0425 -0.29278,0.14573 -0.37456,0.28754 -0.0817,0.14182 -0.10409,0.30977 -0.0614,0.46792 0.0421,0.15815 0.14572,0.29278 0.28757,0.37447 0.10211,0.0595 0.21968,0.0882 0.33723,0.0823 z m 3.97034,-0.96394 c 0.10356,0 0.20267,-0.0412 0.27585,-0.11436 0.0734,-0.0732 0.11369,-0.17188 0.11369,-0.27514 0,-0.215 -0.17447,-0.38884 -0.38954,-0.38884 -0.21439,0 -0.38823,0.17449 -0.38823,0.38884 0,0.21436 0.17384,0.38885 0.38823,0.3895 z m -0.97981,-0.0993 c 0.0903,0 0.17712,-0.0359 0.24055,-0.0993 0.0639,-0.064 0.10035,-0.15031 0.0994,-0.24049 0,-0.18756 -0.15227,-0.33918 -0.33984,-0.33918 -0.18702,0 -0.33864,0.15227 -0.33934,0.33918 0,0.18756 0.15165,0.33983 0.33934,0.33983 z m 2.11852,-0.0392 c 0.12155,0 0.23853,-0.0483 0.32418,-0.13397 0.0858,-0.0863 0.13463,-0.20325 0.13463,-0.3248 0,-0.12155 -0.0483,-0.23787 -0.13463,-0.32414 -0.0851,-0.0856 -0.20263,-0.13397 -0.32418,-0.13397 -0.12162,0 -0.23794,0.0483 -0.32432,0.13397 -0.0857,0.0863 -0.13387,0.20259 -0.13387,0.32414 0,0.12155 0.0476,0.23853 0.13387,0.3248 0.0858,0.0856 0.2027,0.13397 0.32432,0.13397 z m -2.92517,-0.23788 c 0.16348,0 0.29546,-0.13201 0.29546,-0.29474 4.8e-4,-0.0784 -0.0307,-0.15357 -0.0858,-0.20912 -0.055,-0.0556 -0.13074,-0.0869 -0.2092,-0.0863 -0.1628,0 -0.29478,0.132 -0.29478,0.29538 5.1e-4,0.16273 0.13198,0.29409 0.29478,0.29474 z m -2.35374,-0.32022 c 0.17909,-0.009 0.34244,-0.10784 0.43206,-0.26337 0.14576,-0.25291 0.0589,-0.57509 -0.19353,-0.72083 -0.25228,-0.14574 -0.57458,-0.0595 -0.72102,0.19279 -0.0703,0.12155 -0.0884,0.26533 -0.0525,0.4006 0.0365,0.13529 0.12488,0.25095 0.24584,0.32088 0.0876,0.0503 0.18825,0.0745 0.28959,0.0699 z m 1.74,-0.0555 c 0.0682,0 0.13332,-0.0268 0.18169,-0.0745 0.0478,-0.0477 0.0753,-0.11306 0.0753,-0.18103 0,-0.068 -0.0266,-0.13331 -0.0753,-0.18102 -0.0482,-0.0484 -0.11308,-0.0752 -0.18169,-0.0752 -0.067,0 -0.1327,0.0275 -0.18041,0.0752 -0.0488,0.0484 -0.0753,0.11306 -0.0747,0.18102 0,0.14116 0.11434,0.25553 0.25495,0.25553 z m -3.08198,-0.13397 c 0.17909,-0.009 0.34189,-0.10783 0.43207,-0.26337 0.14508,-0.25226 0.0589,-0.57444 -0.19354,-0.72083 -0.12088,-0.0699 -0.26541,-0.0889 -0.40062,-0.0529 -0.13536,0.0366 -0.25035,0.12481 -0.32034,0.24637 -0.14579,0.25226 -0.059,0.57444 0.19354,0.72018 0.087,0.051 0.18754,0.0751 0.28889,0.0706 z m 5.30509,-0.24246 c 0.21441,0 0.38888,-0.17449 0.38822,-0.38949 0,-0.21436 -0.17381,-0.3882 -0.38822,-0.3882 -0.21508,0 -0.3896,0.17384 -0.3896,0.3882 0,0.1039 0.0409,0.20259 0.11373,0.27578 0.0735,0.0732 0.1725,0.11371 0.27587,0.11371 z m -2.67806,-0.0693 c 0.0574,5e-4 0.11236,-0.0222 0.15293,-0.0627 0.0408,-0.0405 0.0633,-0.0954 0.0633,-0.15292 0,-0.0575 -0.0225,-0.1124 -0.0633,-0.15293 -0.0409,-0.0405 -0.0953,-0.0634 -0.15293,-0.0634 -0.0562,0 -0.1124,0.0229 -0.15296,0.0634 -0.0408,0.0405 -0.0626,0.0954 -0.0626,0.15293 0,0.0575 0.0218,0.1124 0.0626,0.15292 0.0409,0.0405 0.0959,0.0634 0.15296,0.0627 z m 1.69817,-0.0294 c 0.18699,-5e-4 0.33925,-0.15226 0.33925,-0.33982 -4.9e-4,-0.18756 -0.15226,-0.33918 -0.33925,-0.33918 -0.18757,0 -0.33989,0.15162 -0.33989,0.33918 -4.9e-4,0.0902 0.0354,0.17645 0.0994,0.24049 0.0633,0.0634 0.1504,0.0993 0.24058,0.0993 z m 2.11715,-0.0392 c 0.12162,0 0.23864,-0.0484 0.32484,-0.13462 0.0852,-0.0856 0.13405,-0.20259 0.13405,-0.32415 0,-0.12155 -0.0484,-0.23787 -0.13405,-0.32414 -0.0858,-0.0863 -0.20322,-0.13463 -0.32484,-0.13463 -0.12151,0 -0.23785,0.0484 -0.32418,0.13463 -0.0851,0.0863 -0.13394,0.20259 -0.13394,0.32414 0,0.12156 0.0485,0.23854 0.13394,0.32415 0.0858,0.0863 0.20267,0.13462 0.32418,0.13462 z m -2.9237,-0.23788 c 0.16269,-5e-4 0.29407,-0.13266 0.29477,-0.29539 0,-0.16272 -0.13208,-0.29473 -0.29477,-0.29539 -0.079,0 -0.1537,0.0314 -0.20923,0.0869 -0.0551,0.0549 -0.0864,0.1307 -0.0864,0.20847 4.4e-4,0.16338 0.13264,0.29539 0.29608,0.29539 z m 4.17093,-0.21765 c 0.29156,0 0.52818,-0.23657 0.52818,-0.52804 0,-0.29147 -0.23662,-0.52739 -0.52818,-0.52739 -0.29158,0 -0.52749,0.23592 -0.52749,0.52739 0,0.29147 0.23591,0.52804 0.52749,0.52804 z m -4.78473,-0.15815 c 0.14112,0 0.25558,-0.11437 0.25558,-0.25552 0,-0.14117 -0.11446,-0.25553 -0.25558,-0.25553 -0.1412,0 -0.25565,0.11436 -0.25565,0.25553 0,0.14115 0.11445,0.25552 0.25565,0.25552 z m -1.39691,-0.22807 c 0.15561,-0.007 0.29744,-0.0935 0.37522,-0.22809 0.0609,-0.10586 0.0781,-0.23069 0.0462,-0.34832 -0.0313,-0.11764 -0.10849,-0.21762 -0.21371,-0.2784 -0.21971,-0.12678 -0.49948,-0.051 -0.62632,0.16795 -0.12612,0.21893 -0.0513,0.4993 0.16738,0.62608 0.0766,0.0438 0.16347,0.0654 0.25163,0.0608 z m -1.34189,-0.18887 c 0.15551,-0.008 0.29665,-0.0935 0.37511,-0.22873 0.0608,-0.10522 0.0772,-0.2307 0.0465,-0.34768 -0.0313,-0.11763 -0.10784,-0.21827 -0.21374,-0.27905 -0.1054,-0.0608 -0.23074,-0.0771 -0.34774,-0.0458 -0.11768,0.0314 -0.21835,0.10849 -0.27911,0.2137 -0.12615,0.21958 -0.0515,0.49994 0.16861,0.62607 0.0759,0.0444 0.16342,0.0653 0.25098,0.0614 z m 4.63109,-0.0882 c 0.21509,0 0.38962,-0.17384 0.38962,-0.38885 0,-0.10326 -0.0408,-0.20194 -0.11378,-0.27513 -0.0734,-0.0732 -0.17256,-0.11437 -0.27584,-0.11437 -0.10345,0 -0.202,0.0411 -0.27517,0.11437 -0.0734,0.0732 -0.11438,0.17187 -0.11371,0.27513 0,0.21501 0.17449,0.38885 0.38888,0.38885 z m -0.97977,-0.098 c 0.0903,0 0.17709,-0.036 0.24056,-0.1 0.0639,-0.0634 0.0994,-0.1503 0.0994,-0.23984 0,-0.0902 -0.0353,-0.1771 -0.0994,-0.24049 -0.0634,-0.0641 -0.1504,-0.1 -0.24056,-0.1 -0.18772,5.1e-4 -0.33933,0.15293 -0.33933,0.34048 0,0.18691 0.15161,0.33918 0.33933,0.33983 z m 2.11843,-0.0405 c 0.12161,0 0.23861,-0.0484 0.32427,-0.13396 0.0858,-0.0863 0.13459,-0.2026 0.13459,-0.32415 0,-0.12155 -0.0484,-0.23853 -0.13459,-0.32415 -0.0851,-0.0863 -0.20266,-0.13462 -0.32427,-0.13462 -0.12154,0 -0.23789,0.0484 -0.3242,0.13462 -0.0851,0.0856 -0.13402,0.2026 -0.13402,0.32415 0,0.12155 0.0488,0.23788 0.13402,0.32415 0.0858,0.0856 0.20266,0.13397 0.3242,0.13397 z m -6.83655,-0.18298 c 0.15615,-0.007 0.29804,-0.0935 0.37576,-0.22874 0.0609,-0.10521 0.0781,-0.23069 0.0461,-0.34832 -0.0313,-0.11763 -0.10842,-0.21762 -0.2137,-0.2784 -0.2196,-0.12613 -0.49937,-0.051 -0.62619,0.16796 -0.12614,0.21958 -0.0515,0.49928 0.16731,0.62607 0.0766,0.0438 0.16342,0.0654 0.25096,0.0614 z m 3.91149,-0.0543 c 0.0788,0 0.15363,-0.0307 0.2092,-0.0863 0.0551,-0.0555 0.0864,-0.13071 0.0864,-0.20913 -4.9e-4,-0.16272 -0.13265,-0.29473 -0.29614,-0.29473 -0.16273,0 -0.29412,0.13201 -0.29471,0.29473 0,0.16338 0.13198,0.2954 0.29471,0.2954 z m 4.17221,-0.21763 c 0.29157,0 0.52754,-0.23592 0.52754,-0.52739 0,-0.29147 -0.23597,-0.52804 -0.52754,-0.52804 -0.2915,0 -0.52743,0.23657 -0.52743,0.52804 0,0.29147 0.23593,0.52739 0.52743,0.52739 z m -5.28931,-0.2882 c 0.13197,-0.006 0.25228,-0.0791 0.31901,-0.19409 0.10716,-0.18626 0.0434,-0.42414 -0.14318,-0.53132 -0.18563,-0.10717 -0.42361,-0.0431 -0.53147,0.14247 -0.10716,0.18626 -0.0441,0.42413 0.14192,0.53131 0.0645,0.0372 0.13923,0.0555 0.21372,0.0516 z m -1.34201,-0.18887 c 0.13269,-0.007 0.25227,-0.0797 0.31836,-0.19475 0.10718,-0.18559 0.0441,-0.42347 -0.1418,-0.5313 -0.0896,-0.0516 -0.19616,-0.0654 -0.29543,-0.0386 -0.10036,0.0268 -0.18502,0.0922 -0.23676,0.18168 -0.10716,0.1856 -0.0441,0.42348 0.14263,0.53131 0.0645,0.0372 0.13852,0.0549 0.213,0.0516 z m 4.19646,-0.30911 c 0.0499,-5e-4 0.0978,-0.015 0.14124,-0.0399 0.14115,-0.0817 0.18885,-0.26206 0.10773,-0.40321 -0.0818,-0.14117 -0.26273,-0.18887 -0.40317,-0.10784 -0.14124,0.0817 -0.18959,0.26272 -0.10784,0.40322 0.0532,0.0935 0.15418,0.15031 0.26204,0.1477 z m 3.71346,-0.0542 c 0.16346,0 0.32026,-0.0654 0.43608,-0.18103 0.11561,-0.11567 0.18031,-0.27251 0.18031,-0.43589 0,-0.34048 -0.27587,-0.61692 -0.61639,-0.61692 -0.16411,0 -0.32092,0.0647 -0.4367,0.18037 -0.11562,0.11567 -0.18104,0.27252 -0.18104,0.43655 0,0.16338 0.0652,0.32022 0.18104,0.43655 0.11578,0.11566 0.27259,0.18036 0.4367,0.18036 z m -8.97605,-0.0464 c 0.13205,-0.007 0.25225,-0.0797 0.31902,-0.19475 0.10723,-0.1856 0.0434,-0.42348 -0.1432,-0.53131 -0.18631,-0.10718 -0.42358,-0.0431 -0.53138,0.14312 -0.10716,0.1856 -0.0441,0.42348 0.14188,0.53131 0.0645,0.0372 0.1392,0.0549 0.21368,0.0516 z m 2.93881,-0.27383 c 0.1151,-0.006 0.22039,-0.0693 0.2779,-0.16991 0.0454,-0.0778 0.0568,-0.17057 0.0342,-0.25749 -0.0225,-0.0876 -0.0805,-0.16142 -0.15822,-0.20651 -0.0791,-0.0451 -0.17118,-0.0575 -0.25819,-0.034 -0.0864,0.0229 -0.16146,0.0804 -0.20656,0.15816 -0.0455,0.0784 -0.0569,0.17123 -0.0342,0.25814 0.0232,0.0869 0.0806,0.16142 0.15885,0.20651 0.0557,0.0327 0.12097,0.0483 0.18621,0.0451 z m 3.17295,-0.0327 c 0.0434,-10e-4 0.0851,-0.0131 0.12218,-0.0346 0.059,-0.034 0.10234,-0.0895 0.11961,-0.15489 0.0175,-0.066 0.007,-0.13528 -0.0255,-0.19409 -0.034,-0.0588 -0.0896,-0.1013 -0.15558,-0.11894 -0.0651,-0.0177 -0.13526,-0.009 -0.1941,0.0255 -0.12165,0.0712 -0.16347,0.22676 -0.0928,0.34897 0.0465,0.081 0.13331,0.13006 0.22689,0.1281 z m -4.51546,-0.15749 c 0.11567,-0.005 0.22029,-0.0686 0.27777,-0.16861 0.0464,-0.0778 0.0571,-0.17057 0.0348,-0.25814 -0.0226,-0.0869 -0.0807,-0.16142 -0.15815,-0.20651 -0.0782,-0.0451 -0.17055,-0.0569 -0.25813,-0.034 -0.0864,0.0236 -0.16088,0.0804 -0.20598,0.15881 -0.0934,0.16207 -0.0381,0.36989 0.12425,0.46335 0.0557,0.0327 0.12087,0.0484 0.18562,0.0451 z m 5.27948,-0.003 c 0.0362,-10e-4 0.0716,-0.0111 0.10297,-0.0294 0.10346,-0.0595 0.13851,-0.19149 0.0795,-0.29474 -0.0287,-0.0497 -0.076,-0.0863 -0.13134,-0.10064 -0.055,-0.015 -0.11436,-0.007 -0.16414,0.0216 -0.0494,0.0288 -0.0851,0.0758 -0.10096,0.13136 -0.0155,0.0556 -0.006,0.11436 0.0218,0.16403 0.0395,0.068 0.11308,0.1098 0.1921,0.10784 z m -1.81448,-0.2026 c 0.0568,-10e-4 0.11307,-0.0163 0.16277,-0.0451 0.0779,-0.0451 0.13461,-0.11959 0.15818,-0.20651 0.0232,-0.0869 0.0115,-0.17972 -0.0342,-0.25814 -0.0454,-0.0778 -0.11956,-0.13463 -0.20661,-0.1575 -0.0864,-0.0235 -0.17964,-0.0111 -0.25747,0.034 -0.16275,0.0941 -0.21833,0.30126 -0.1249,0.46398 0.0621,0.10712 0.17778,0.17247 0.30202,0.1692 z m -4.53046,-0.20391 c 0.11497,-0.005 0.21958,-0.0686 0.27774,-0.16861 0.0454,-0.0784 0.0571,-0.17122 0.034,-0.25814 -0.0233,-0.0869 -0.0809,-0.16142 -0.15831,-0.2065 -0.0786,-0.0451 -0.17117,-0.0569 -0.25807,-0.034 -0.0864,0.0235 -0.16152,0.0804 -0.20669,0.1588 -0.0934,0.16208 -0.0381,0.3699 0.1243,0.46335 0.0563,0.0327 0.12157,0.0483 0.18699,0.0451 z m 3.01069,-0.0268 c 0.10104,-0.004 0.19151,-0.0608 0.24182,-0.14769 0.0387,-0.068 0.0494,-0.14835 0.0293,-0.22416 -0.0205,-0.0758 -0.0709,-0.13985 -0.13784,-0.17907 -0.0682,-0.0392 -0.14832,-0.0497 -0.22424,-0.0294 -0.0759,0.0202 -0.13984,0.0699 -0.17909,0.1379 -0.0394,0.068 -0.0494,0.14835 -0.0293,0.22416 0.0198,0.0751 0.0703,0.13984 0.13799,0.17905 0.049,0.0281 0.1047,0.0419 0.16139,0.0392 z m 2.55579,-0.066 c 0.0497,-10e-4 0.0978,-0.0151 0.14124,-0.0392 0.14113,-0.0817 0.18949,-0.26272 0.10774,-0.40322 -0.0817,-0.14116 -0.26205,-0.18952 -0.40321,-0.10783 -0.14122,0.0817 -0.18957,0.26205 -0.10784,0.40322 0.0538,0.0928 0.15419,0.149 0.26205,0.14704 z m 0.90271,-0.0582 c 0.0434,-0.001 0.0839,-0.0131 0.12161,-0.0347 0.0588,-0.034 0.10224,-0.0895 0.11962,-0.15489 0.0177,-0.066 0.008,-0.13527 -0.025,-0.19409 -0.034,-0.0588 -0.0903,-0.10195 -0.15558,-0.11894 -0.0651,-0.0177 -0.13536,-0.008 -0.19421,0.0255 -0.059,0.034 -0.10155,0.0902 -0.1189,0.15553 -0.0177,0.0654 -0.007,0.13528 0.0258,0.1941 0.047,0.0804 0.13337,0.12941 0.22682,0.12745 z m -4.80111,-0.0647 c 0.10104,-0.005 0.19153,-0.0608 0.24187,-0.14835 0.0821,-0.14116 0.0333,-0.32153 -0.10784,-0.40322 -0.0684,-0.0386 -0.14838,-0.0497 -0.22419,-0.0288 -0.0753,0.0202 -0.1399,0.0699 -0.17909,0.13725 -0.0821,0.14116 -0.0333,0.32153 0.10784,0.40322 0.0491,0.0288 0.10531,0.0425 0.1614,0.0399 z m 2.41725,-0.40384 c 0.0651,-10e-4 0.12873,-0.0197 0.18564,-0.0523 0.18563,-0.10717 0.24902,-0.34506 0.14182,-0.53131 -0.10721,-0.18559 -0.34513,-0.24964 -0.53135,-0.14246 -0.0897,0.0516 -0.15495,0.13658 -0.18174,0.23657 -0.0263,0.1 -0.0135,0.20586 0.0394,0.29539 0.0716,0.12351 0.20393,0.19801 0.34641,0.19409 z m -1.82104,0 c 0.087,-0.003 0.16604,-0.0516 0.20971,-0.12678 0.0342,-0.0588 0.0434,-0.12874 0.025,-0.1941 -0.0173,-0.066 -0.0607,-0.12155 -0.11958,-0.15553 -0.12222,-0.0699 -0.27771,-0.0281 -0.34842,0.0941 -0.034,0.0582 -0.0434,0.12809 -0.026,0.19344 0.0177,0.066 0.0609,0.12157 0.11907,0.15556 0.0428,0.0241 0.0915,0.0359 0.13991,0.0333 z m -1.66233,-0.007 c 0.10097,-0.004 0.19221,-0.0601 0.24259,-0.1477 0.0388,-0.0673 0.0488,-0.14834 0.0288,-0.2235 -0.0199,-0.0758 -0.0703,-0.14051 -0.13725,-0.17972 -0.0682,-0.0386 -0.14901,-0.0497 -0.22419,-0.0294 -0.076,0.0209 -0.1406,0.0706 -0.17912,0.1379 -0.0394,0.068 -0.0494,0.14834 -0.0293,0.22415 0.0198,0.0758 0.0703,0.14051 0.13726,0.17906 0.0495,0.0281 0.1048,0.0419 0.16141,0.0392 z m 5.85289,-0.185 c 0.0488,-10e-4 0.0972,-0.0151 0.1405,-0.0399 0.0682,-0.0385 0.11696,-0.10326 0.13795,-0.17907 0.0198,-0.0752 0.009,-0.15618 -0.0293,-0.22415 -0.0821,-0.14051 -0.26213,-0.18887 -0.40336,-0.10784 -0.0682,0.0392 -0.11766,0.10392 -0.13796,0.17972 -0.0199,0.0752 -0.009,0.1562 0.0293,0.22416 0.0538,0.0928 0.15498,0.14965 0.26285,0.14704 z m -1.08833,-0.0523 c 0.0563,-10e-4 0.1124,-0.0163 0.1614,-0.0451 0.0792,-0.0451 0.13531,-0.11895 0.15884,-0.20586 0.0225,-0.0876 0.0115,-0.18038 -0.034,-0.25814 -0.0455,-0.0784 -0.11972,-0.13529 -0.20663,-0.15881 -0.087,-0.0229 -0.18034,-0.0111 -0.25815,0.034 -0.079,0.0451 -0.13535,0.11959 -0.15881,0.2065 -0.0225,0.0869 -0.0108,0.17972 0.0342,0.25815 0.0626,0.10781 0.17913,0.17252 0.30333,0.16924 z m -4.16777,-0.16535 c 0.0864,-0.004 0.16544,-0.0523 0.20913,-0.12743 0.0341,-0.0588 0.0434,-0.12874 0.0256,-0.1941 -0.0173,-0.0653 -0.0603,-0.12155 -0.11895,-0.15553 -0.059,-0.034 -0.12873,-0.0431 -0.19413,-0.0255 -0.0651,0.0177 -0.12166,0.0608 -0.15552,0.1196 -0.0342,0.0588 -0.0434,0.12809 -0.0256,0.1941 0.0173,0.0654 0.0603,0.1209 0.11899,0.15488 0.0427,0.0249 0.0916,0.0359 0.1405,0.034 z m 0.5772,-0.23135 c 0.0734,-0.003 0.13991,-0.0438 0.17705,-0.10717 0.0596,-0.10326 0.0233,-0.23527 -0.0802,-0.29474 -0.0498,-0.0294 -0.10855,-0.0372 -0.16402,-0.0222 -0.0551,0.0151 -0.10284,0.051 -0.13147,0.10064 -0.0287,0.0497 -0.0369,0.10848 -0.0213,0.16403 0.0151,0.0555 0.0507,0.1026 0.10104,0.13136 0.0369,0.0209 0.0778,0.0307 0.11889,0.0281 z m 1.56159,-0.17122 c 0.0766,-0.002 0.15171,-0.0235 0.21829,-0.0621 0.21906,-0.12678 0.29478,-0.40649 0.16799,-0.62607 -0.0609,-0.10522 -0.16078,-0.18233 -0.27842,-0.2137 -0.11773,-0.032 -0.24249,-0.0151 -0.34841,0.0458 -0.10536,0.0608 -0.18174,0.16077 -0.21309,0.2784 -0.0313,0.11764 -0.0161,0.24311 0.0466,0.34833 0.0832,0.14508 0.23981,0.23265 0.40778,0.22938 z m 2.91601,-0.15031 c 0.0571,-10e-4 0.11306,-0.0163 0.16261,-0.0451 0.0783,-0.0451 0.13543,-0.11893 0.15833,-0.20651 0.0232,-0.0869 0.0114,-0.17971 -0.0339,-0.25748 -0.0454,-0.0784 -0.1189,-0.13528 -0.20649,-0.15881 -0.0864,-0.0236 -0.1798,-0.0111 -0.25759,0.034 -0.0791,0.0451 -0.13528,0.1196 -0.15881,0.20652 -0.0232,0.0869 -0.0114,0.17972 0.0342,0.25814 0.0621,0.10718 0.17787,0.17253 0.30194,0.16926 z m -1.33354,-0.10521 c 0.0651,-10e-4 0.12942,-0.0197 0.18568,-0.0516 0.0892,-0.0523 0.1549,-0.13724 0.18104,-0.23657 0.0263,-0.1 0.0135,-0.20651 -0.0394,-0.29605 -0.10716,-0.1856 -0.34512,-0.24898 -0.53138,-0.14181 -0.1856,0.10784 -0.24965,0.34571 -0.14247,0.53131 0.0716,0.12353 0.20392,0.19802 0.3464,0.19476 z m -2.65846,-0.49276 c 0.0877,-0.002 0.17461,-0.0268 0.25103,-0.0706 0.12166,-0.0699 0.20992,-0.18559 0.24644,-0.32087 0.0369,-0.13528 0.0179,-0.27905 -0.0525,-0.40061 -0.0703,-0.12155 -0.18501,-0.20978 -0.32036,-0.24572 -0.13526,-0.0366 -0.27976,-0.0177 -0.40065,0.0529 -0.25235,0.14573 -0.33859,0.46793 -0.19284,0.72018 0.0959,0.1673 0.27649,0.2686 0.46927,0.26468 z m 3.54685,-0.2248 c 0.0651,-0.002 0.12871,-0.0197 0.18557,-0.0529 0.18561,-0.10718 0.24909,-0.34506 0.14189,-0.53131 -0.10719,-0.1856 -0.34515,-0.24965 -0.53149,-0.14247 -0.18625,0.10718 -0.24968,0.34505 -0.14249,0.53131 0.0709,0.1235 0.20393,0.19866 0.34652,0.19539 z m -1.63616,-0.0948 c 0.0772,-0.002 0.15227,-0.0229 0.21901,-0.0614 0.2189,-0.12612 0.2941,-0.40648 0.16793,-0.62606 -0.0609,-0.10522 -0.1614,-0.18233 -0.27843,-0.2137 -0.11764,-0.0313 -0.24313,-0.0151 -0.34841,0.0458 -0.1053,0.0608 -0.18238,0.16142 -0.21372,0.27905 -0.0313,0.11698 -0.0154,0.24246 0.0469,0.34766 0.0833,0.14508 0.23988,0.23265 0.40717,0.22873 z m -3.35262,-0.23396 c 0.10284,-0.002 0.20401,-0.0313 0.29285,-0.083 0.29482,-0.16992 0.39612,-0.547 0.22621,-0.84174 -0.17063,-0.29473 -0.54783,-0.39603 -0.84255,-0.22547 -0.2948,0.16992 -0.39546,0.54701 -0.22561,0.84174 0.11253,0.19538 0.32298,0.31367 0.5491,0.30845 z m 4.241,-0.48426 c 0.0766,-10e-4 0.15162,-0.0229 0.21827,-0.0614 0.21961,-0.12613 0.29482,-0.40649 0.168,-0.62607 -0.0609,-0.10522 -0.16086,-0.18234 -0.27841,-0.2137 -0.11772,-0.0313 -0.24259,-0.0151 -0.34841,0.0458 -0.10536,0.0608 -0.18173,0.16076 -0.21316,0.2784 -0.0313,0.11763 -0.0156,0.24311 0.0462,0.34832 0.0839,0.14507 0.24053,0.23264 0.40792,0.22872 z m -1.96426,-0.0301 c 0.0876,-0.002 0.17521,-0.0269 0.25095,-0.0706 0.25297,-0.14573 0.33925,-0.46792 0.19416,-0.72083 -0.0703,-0.1209 -0.1856,-0.20978 -0.32096,-0.24638 -0.13527,-0.0359 -0.2791,-0.017 -0.40062,0.0529 -0.12159,0.0699 -0.20994,0.1856 -0.24583,0.32088 -0.0367,0.13528 -0.0172,0.27905 0.0526,0.40061 0.0966,0.16666 0.27656,0.26795 0.46939,0.26338 z"
       id="start-here-kde-9-7-9" />
  </g>
</svg>
