<?xml version="1.0" encoding="UTF-8" standalone="no"?>
<svg
   xmlns:dc="http://purl.org/dc/elements/1.1/"
   xmlns:cc="http://creativecommons.org/ns#"
   xmlns:rdf="http://www.w3.org/1999/02/22-rdf-syntax-ns#"
   xmlns:svg="http://www.w3.org/2000/svg"
   xmlns="http://www.w3.org/2000/svg"
   xmlns:xlink="http://www.w3.org/1999/xlink"
   xmlns:sodipodi="http://sodipodi.sourceforge.net/DTD/sodipodi-0.dtd"
   xmlns:inkscape="http://www.inkscape.org/namespaces/inkscape"
   width="32"
   version="1.1"
   height="32"
   viewBox="0 0 32 32"
   id="svg17"
   sodipodi:docname="folder-cloud.svg"
   inkscape:version="1.0.2 (e86c870879, 2021-01-15)">
  <sodipodi:namedview
     pagecolor="#ffffff"
     bordercolor="#666666"
     borderopacity="1"
     objecttolerance="10"
     gridtolerance="10"
     guidetolerance="10"
     inkscape:pageopacity="0"
     inkscape:pageshadow="2"
     inkscape:window-width="1920"
     inkscape:window-height="1007"
     id="namedview19"
     showgrid="false"
     inkscape:zoom="9.8125"
     inkscape:cx="-7.3963678"
     inkscape:cy="3.9139838"
     inkscape:window-x="0"
     inkscape:window-y="0"
     inkscape:window-maximized="1"
     inkscape:current-layer="layer1"
     inkscape:document-rotation="0" />
  <defs
     id="defs5455">
    <linearGradient
       inkscape:collect="always"
       xlink:href="#linearGradient854"
       id="linearGradient856"
       x1="475.26114"
       y1="464.38727"
       x2="474.71356"
       y2="465.47769"
       gradientUnits="userSpaceOnUse"
       gradientTransform="matrix(0.48293849,0,0,0.49971739,199.36413,274.06814)" />
    <linearGradient
       inkscape:collect="always"
       id="linearGradient854">
      <stop
         style="stop-color:#000000;stop-opacity:1;"
         offset="0"
         id="stop850" />
      <stop
         style="stop-color:#000000;stop-opacity:0;"
         offset="1"
         id="stop852" />
    </linearGradient>
    <linearGradient
       inkscape:collect="always"
       xlink:href="#linearGradient847-6"
       id="linearGradient859-3"
       x1="249.32925"
       y1="255.11496"
       x2="512"
       y2="256.82327"
       gradientUnits="userSpaceOnUse"
       gradientTransform="matrix(0.0585938,0,0,0.06171038,385.57143,515.96447)" />
    <linearGradient
       inkscape:collect="always"
       id="linearGradient847-6">
      <stop
         style="stop-color:#8fbcbb;stop-opacity:1"
         offset="0"
         id="stop843-7" />
      <stop
         style="stop-color:#88c0d0;stop-opacity:1"
         offset="1"
         id="stop845-5" />
    </linearGradient>
    <linearGradient
       inkscape:collect="always"
       xlink:href="#linearGradient848-5"
       id="linearGradient862-3"
       x1="476.689"
       y1="163.60085"
       x2="319.6994"
       y2="162.04736"
       gradientUnits="userSpaceOnUse"
       gradientTransform="matrix(0.0585938,0,0,0.06171038,385.57143,515.96447)" />
    <linearGradient
       inkscape:collect="always"
       id="linearGradient848-5">
      <stop
         style="stop-color:#a2adbc;stop-opacity:1"
         offset="0"
         id="stop844-6" />
      <stop
         style="stop-color:#434c5e;stop-opacity:1"
         offset="1"
         id="stop846-2" />
    </linearGradient>
  </defs>
  <metadata
     id="metadata5458">
    <rdf:RDF>
      <cc:Work
         rdf:about="">
        <dc:format>image/svg+xml</dc:format>
        <dc:type
           rdf:resource="http://purl.org/dc/dcmitype/StillImage" />
      </cc:Work>
    </rdf:RDF>
  </metadata>
  <g
     inkscape:label="Capa 1"
     inkscape:groupmode="layer"
     id="layer1"
     transform="translate(-384.57143,-515.798)">
    <path
       style="fill:#81a1c1;fill-opacity:1;stroke-width:0.0601324"
       d="m 401.36765,522.31023 c 0.48401,0.50381 1.13728,0.78638 1.81794,0.78638 h 1.00655 2.61417 c -0.68066,0 -1.33391,-0.28257 -1.81794,-0.78638 l -1.62899,-1.69559 c -0.48427,-0.504 -1.13737,-0.78657 -1.81793,-0.78657 h -3.62073 c 0.68056,0 1.33374,0.28257 1.81794,0.78657 z"
       id="path2-9" />
    <path
       style="fill:#5e81ac;fill-opacity:1;stroke:url(#linearGradient856);stroke-width:0.0601324"
       d="m 396.11786,520.61464 1.62907,1.69559 c 0.48402,0.50381 1.13718,0.78638 1.81793,0.78638 h 1.00657 2.61416 c -0.68066,0 -1.33393,-0.28257 -1.81794,-0.78638 l -1.62899,-1.69559 c -0.48426,-0.504 -1.13738,-0.78657 -1.81794,-0.78657 h -3.55619 -0.0647 c 0.68068,0 1.33377,0.28263 1.81791,0.78657 z"
       id="path4-1" />
    <path
       style="fill:url(#linearGradient859-3);fill-opacity:1;stroke-width:0.0564102"
       d="m 414.01966,522.70459 h -6.2069 -1.00659 -2.61415 -1.00656 -2.61403 -1.00657 c -0.68075,0 -1.33391,-0.24869 -1.81793,-0.69221 l -1.62907,-1.49216 c -0.4842,-0.44346 -1.1373,-0.69215 -1.81794,-0.69215 h -3.55607 -3.62064 c -0.85704,0 -1.55178,0.64398 -1.55178,1.43827 v 2.87634 0.47948 17.73768 c 0,0.79436 0.69474,1.43817 1.55178,1.43817 h 26.89645 c 0.85704,0 1.55177,-0.64381 1.55177,-1.43817 v -18.21716 c 0,-0.79435 -0.69473,-1.43809 -1.55177,-1.43809 z m -10.88652,2.92552 0.004,-0.002 -0.003,-0.005 v 0 l 0.003,0.005 v 0 l -0.004,0.002 9.9e-4,-0.007 z m 10.36942,0.43021 c 0,0.52942 -0.46318,0.95875 -1.03461,0.95875 h -7.24136 c -0.57134,0 -1.03451,-0.42933 -1.03451,-0.95875 v -0.47943 c 0,-0.52947 0.46317,-0.95878 1.03451,-0.95878 h 7.24134 c 0.57139,0 1.03456,0.42931 1.03456,0.95878 v 0.47943 z"
       id="path6-2"
       sodipodi:nodetypes="scccccsccscssccssssssccccccccccssssssscc" />
    <path
       style="fill:url(#linearGradient862-3);fill-opacity:1;stroke-width:0.0601324"
       d="m 412.46793,524.45492 h -7.24134 c -0.57134,0 -1.04621,0.48783 -1.04621,1.0895 v 0.54477 c 0,0.60168 0.47487,1.08945 1.04621,1.08945 h 7.24134 c 0.57139,0 1.10947,-0.48795 1.12238,-1.08945 l 0.0121,-0.54477 c 6e-5,-0.60167 -0.56265,-1.0895 -1.13413,-1.0895 z"
       id="path8-7"
       sodipodi:nodetypes="ssssssscs" />
    <path
       style="fill:#434c5e;fill-opacity:1;stroke-width:0.491255;stroke-linejoin:round"
       id="path4225-3-6-7-0"
       d="m 395.47168,530.07231 a 3.3805691,3.4980214 0 0 0 -3.38056,3.49806 3.3805691,3.4980214 0 0 0 0.0389,0.50073 2.4146922,2.4985868 0 0 0 -0.0389,-10e-4 2.4146922,2.4985868 0 0 0 -2.41468,2.49858 2.4146922,2.4985868 0 0 0 2.41468,2.49862 h 6.27818 a 2.8976307,2.9983041 0 0 0 2.89762,-2.9983 2.8976307,2.9983041 0 0 0 -2.44771,-2.95922 3.3805691,3.4980214 0 0 0 -3.34753,-3.03742 z m 0,0.49977 a 2.8976307,2.9983041 0 0 1 0.28952,0.0146 2.8976307,2.9983041 0 0 1 1.34607,0.50947 2.8976307,2.9983041 0 0 1 9.1e-4,0 2.8976307,2.9983041 0 0 1 0.6329,0.61009 2.8976307,2.9983041 0 0 1 0,9.3e-4 2.8976307,2.9983041 0 0 1 0.58676,1.36547 2.8976307,2.9983041 0 0 1 0.0418,0.49772 2.4146922,2.4985868 0 0 1 0.48108,0.0493 2.4146922,2.4985868 0 0 1 0.23296,0.0618 2.4146922,2.4985868 0 0 1 9.9e-4,0 2.4146922,2.4985868 0 0 1 0.2254,0.086 2.4146922,2.4985868 0 0 1 9.4e-4,0 2.4146922,2.4985868 0 0 1 0.21601,0.10833 2.4146922,2.4985868 0 0 1 0.002,9.9e-4 2.4146922,2.4985868 0 0 1 0.20374,0.12983 2.4146922,2.4985868 0 0 1 0.002,9.7e-4 2.4146922,2.4985868 0 0 1 0.19049,0.15033 2.4146922,2.4985868 0 0 1 9.8e-4,10e-4 2.4146922,2.4985868 0 0 1 0.1755,0.16878 2.4146922,2.4985868 0 0 1 9e-4,0.001 2.4146922,2.4985868 0 0 1 0.29907,0.3904 2.4146922,2.4985868 0 0 1 9.1e-4,9.9e-4 2.4146922,2.4985868 0 0 1 0.11889,0.21568 2.4146922,2.4985868 0 0 1 9.1e-4,9.7e-4 2.4146922,2.4985868 0 0 1 0.0983,0.22648 2.4146922,2.4985868 0 0 1 9.1e-4,9.9e-4 2.4146922,2.4985868 0 0 1 0.0758,0.23624 2.4146922,2.4985868 0 0 1 0,9.5e-4 2.4146922,2.4985868 0 0 1 0.0525,0.243 2.4146922,2.4985868 0 0 1 0,10e-4 2.4146922,2.4985868 0 0 1 0.0292,0.24688 2.4146922,2.4985868 0 0 1 0.006,0.17646 2.4146922,2.4985868 0 0 1 -2.41469,2.49862 h -6.27819 a 1.9317537,1.9988692 0 0 1 -1.93178,-1.99888 1.9317537,1.9988692 0 0 1 0.01,-0.19907 1.9317537,1.9988692 0 0 1 1.92233,-1.79986 1.9317537,1.9988692 0 0 1 0.1443,0.007 1.9317537,1.9988692 0 0 1 0,10e-4 1.9317537,1.9988692 0 0 1 0.55841,0.13075 2.8976307,2.9983041 0 0 1 -0.16507,-0.57297 2.8976307,2.9983041 0 0 1 -0.036,-0.25371 2.8976307,2.9983041 0 0 1 -0.007,-0.0571 2.8976307,2.9983041 0 0 1 -0.0127,-0.25381 2.8976307,2.9983041 0 0 1 0.0143,-0.29959 2.8976307,2.9983041 0 0 1 2.88349,-2.69869 z" />
  </g>
</svg>
