<?xml version="1.0" encoding="UTF-8" standalone="no"?>
<svg
   xmlns:dc="http://purl.org/dc/elements/1.1/"
   xmlns:cc="http://creativecommons.org/ns#"
   xmlns:rdf="http://www.w3.org/1999/02/22-rdf-syntax-ns#"
   xmlns:svg="http://www.w3.org/2000/svg"
   xmlns="http://www.w3.org/2000/svg"
   xmlns:xlink="http://www.w3.org/1999/xlink"
   xmlns:sodipodi="http://sodipodi.sourceforge.net/DTD/sodipodi-0.dtd"
   xmlns:inkscape="http://www.inkscape.org/namespaces/inkscape"
   width="32"
   version="1.1"
   height="32"
   viewBox="0 0 32 32"
   id="svg15"
   sodipodi:docname="folder-openSUSE.svg"
   inkscape:version="1.0.2 (e86c870879, 2021-01-15)">
  <sodipodi:namedview
     pagecolor="#ffffff"
     bordercolor="#666666"
     borderopacity="1"
     objecttolerance="10"
     gridtolerance="10"
     guidetolerance="10"
     inkscape:pageopacity="0"
     inkscape:pageshadow="2"
     inkscape:window-width="1920"
     inkscape:window-height="1007"
     id="namedview17"
     showgrid="false"
     inkscape:zoom="9.8125"
     inkscape:cx="-12.999029"
     inkscape:cy="6.4668704"
     inkscape:window-x="0"
     inkscape:window-y="0"
     inkscape:window-maximized="1"
     inkscape:current-layer="layer1"
     inkscape:document-rotation="0" />
  <defs
     id="defs5455">
    <linearGradient
       inkscape:collect="always"
       xlink:href="#linearGradient847-3"
       id="linearGradient859"
       x1="230.78009"
       y1="265.05457"
       x2="512"
       y2="256.82327"
       gradientUnits="userSpaceOnUse"
       gradientTransform="matrix(0.05859379,0,0,0.06178772,385.57139,515.92949)" />
    <linearGradient
       inkscape:collect="always"
       id="linearGradient847-3">
      <stop
         style="stop-color:#8fbcbb;stop-opacity:1"
         offset="0"
         id="stop843-6" />
      <stop
         style="stop-color:#88c0d0;stop-opacity:1"
         offset="1"
         id="stop845-7" />
    </linearGradient>
    <linearGradient
       inkscape:collect="always"
       xlink:href="#linearGradient844"
       id="linearGradient846"
       x1="424.10419"
       y1="503.7821"
       x2="443.61319"
       y2="503.7821"
       gradientUnits="userSpaceOnUse"
       gradientTransform="matrix(0.48293847,0,0,0.50034409,199.36412,273.72978)" />
    <linearGradient
       inkscape:collect="always"
       id="linearGradient844">
      <stop
         style="stop-color:#434c5e;stop-opacity:1"
         offset="0"
         id="stop840" />
      <stop
         style="stop-color:#a2adbc;stop-opacity:1"
         offset="1"
         id="stop842" />
    </linearGradient>
  </defs>
  <metadata
     id="metadata5458">
    <rdf:RDF>
      <cc:Work
         rdf:about="">
        <dc:format>image/svg+xml</dc:format>
        <dc:type
           rdf:resource="http://purl.org/dc/dcmitype/StillImage" />
      </cc:Work>
    </rdf:RDF>
  </metadata>
  <g
     inkscape:label="Capa 1"
     inkscape:groupmode="layer"
     id="layer1"
     transform="translate(-384.57143,-515.798)">
    <path
       style="fill:#81a1c1;fill-opacity:1;stroke-width:0.0601699"
       d="m 401.36761,522.2832 c 0.48408,0.50451 1.1373,0.78742 1.81795,0.78742 h 1.00658 2.61414 c -0.68066,0 -1.33385,-0.28291 -1.81795,-0.78742 l -1.62899,-1.6977 c -0.48422,-0.50459 -1.13733,-0.7875 -1.81792,-0.7875 h -3.62073 c 0.68056,0 1.33377,0.28291 1.81794,0.7875 z"
       id="path2" />
    <path
       style="fill:#5e81ac;fill-opacity:1;stroke-width:0.0601699"
       d="m 396.11781,520.5855 1.6291,1.6977 c 0.48403,0.50451 1.13724,0.78742 1.81792,0.78742 h 1.0066 2.61413 c -0.68065,0 -1.33387,-0.28291 -1.81795,-0.78742 l -1.62898,-1.6977 c -0.48422,-0.50459 -1.13738,-0.7875 -1.81794,-0.7875 h -3.55616 -0.0647 c 0.68067,0 1.33379,0.28297 1.81789,0.7875 z"
       id="path4" />
    <path
       style="fill:url(#linearGradient859);fill-opacity:1;stroke-width:0.0564454"
       d="m 414.01969,522.67802 h -6.20693 -1.00659 -2.61415 -1.00659 -2.614 -1.0066 c -0.68068,0 -1.33389,-0.24897 -1.81792,-0.693 l -1.6291,-1.49403 c -0.48415,-0.44402 -1.13728,-0.69299 -1.81792,-0.69299 h -3.55604 -3.62067 c -0.85698,0 -1.55175,0.6447 -1.55175,1.44001 v 2.88002 0.48002 17.75994 c 0,0.79531 0.69477,1.44001 1.55175,1.44001 h 26.89651 c 0.85698,0 1.55174,-0.6447 1.55174,-1.44001 v -18.23996 c 0,-0.79538 -0.69476,-1.44001 -1.55174,-1.44001 z m -10.88655,2.92929 0.004,-0.002 -0.004,-0.005 v 0 l 0.004,0.005 v 0 l -0.004,0.002 9.9e-4,-0.008 z m 10.36939,0.43069 c 0,0.53014 -0.46314,0.95998 -1.03454,0.95998 h -7.24137 c -0.5714,0 -1.03454,-0.42984 -1.03454,-0.95998 v -0.48002 c 0,-0.53014 0.46314,-0.95998 1.03454,-0.95998 h 7.24129 c 0.57142,0 1.03455,0.42983 1.03455,0.95998 v 0.48002 z"
       id="path6"
       sodipodi:nodetypes="scccccsccscssccssssssccccccccccssssssscc" />
    <path
       style="fill:url(#linearGradient846);fill-opacity:1;stroke-width:0.0601699"
       d="m 412.46791,524.43061 h -7.24129 c -0.5714,0 -1.04623,0.48838 -1.04623,1.09082 v 0.5455 c 0,0.60243 0.47483,1.09083 1.04623,1.09083 h 7.24129 c 0.57142,0 1.10945,-0.48856 1.12244,-1.09083 l 0.0118,-0.5455 c 6e-5,-0.60244 -0.56267,-1.09082 -1.13413,-1.09082 z"
       id="path8"
       sodipodi:nodetypes="ssssssscs" />
    <path
       style="color:#4d4d4d;font-size:20.4884px;font-family:TrebuchetMS-Bold;fill:#434c5e;fill-opacity:1;fill-rule:evenodd;stroke:none;stroke-width:0.0716138;stroke-miterlimit:4"
       d="m 394.67643,530.05506 c -2.76121,0 -5.00002,2.24007 -5.00002,5.00344 0,2.76337 2.23881,5.00344 5.00002,5.00344 2.7612,0 4.99998,-2.24007 4.99998,-5.00344 0,-2.76337 -2.23878,-5.00344 -4.99998,-5.00344 z m 0.0236,0.69292 c 2.37915,0 4.30944,1.93 4.30944,4.31052 0,2.38076 -1.93052,4.31051 -4.30944,4.31051 -1.2846,0 -2.43737,-0.56341 -3.22651,-1.45588 0.3245,-0.25201 0.86738,-0.19052 1.53589,-0.11426 0.32041,0.0364 0.6857,0.0782 1.06265,0.0866 1.05319,0.006 2.18635,-0.18623 2.88583,-0.49205 0.45217,-0.19844 0.7416,-0.32912 0.92262,-0.49389 0.0655,-0.0536 0.0996,-0.14305 0.13448,-0.23589 l 0.0239,-0.0627 c 0.0292,-0.075 0.0713,-0.23635 0.0902,-0.32435 0.008,-0.0385 0.0126,-0.0799 -0.0149,-0.10136 l -0.0978,0.0184 c -0.30684,0.18415 -1.07361,0.53489 -1.79187,0.54917 -0.89007,0.0187 -2.68403,-0.89664 -2.87104,-0.99331 l -0.0184,-0.0221 c -0.045,-0.10712 -0.31339,-0.74489 -0.37015,-0.87905 1.29125,0.8509 2.3618,1.32186 3.18229,1.39506 0.9122,0.0811 1.62386,-0.41728 1.92819,-0.63026 0.0593,-0.0406 0.10479,-0.0724 0.12338,-0.0793 l 0.0202,-0.0332 c -0.0504,-0.32087 -0.5291,-1.87357 -0.8895,-2.24648 -0.0999,-0.10228 -0.17934,-0.20182 -0.34068,-0.29671 -1.30453,-0.76085 -4.40196,-1.21909 -4.54699,-1.24026 l -0.0236,0.007 -0.009,0.0203 c 0,0 -0.0117,0.64362 -0.0129,0.71504 -0.1063,-0.0352 -0.43587,-0.14318 -0.90792,-0.27275 0.61594,-0.76264 1.55986,-1.4393 3.2118,-1.4393 z m 1.13817,2.2815 c 0.0219,-3.3e-4 0.044,-5e-4 0.0665,0 0.73076,0.0263 1.30492,0.64219 1.27993,1.37295 -0.013,0.35352 -0.16195,0.68016 -0.4199,0.92145 -0.25866,0.24256 -0.59497,0.36899 -0.95027,0.35752 -0.72947,-0.0273 -1.30365,-0.64321 -1.2799,-1.37295 0.0125,-0.35403 0.16222,-0.68277 0.42174,-0.92329 0.24228,-0.22741 0.5524,-0.35073 0.8821,-0.35568 z m -0.035,0.39069 c -0.21282,0.013 -0.41367,0.0994 -0.57088,0.24695 -0.17921,0.16834 -0.28494,0.39627 -0.29285,0.64317 -0.017,0.51013 0.38206,0.93943 0.89133,0.95829 0.24748,0.008 0.48231,-0.0791 0.663,-0.24694 0.18022,-0.1691 0.28519,-0.39913 0.29279,-0.64501 0.0175,-0.51089 -0.38362,-0.9386 -0.89316,-0.95646 -0.0308,-10e-4 -0.0597,-0.002 -0.0902,0 z m 0.24312,0.46256 c 0.2263,0 0.40881,0.12309 0.4088,0.2746 0,0.15074 -0.1825,0.27458 -0.4088,0.27458 -0.22711,0 -0.41071,-0.1241 -0.41071,-0.27458 0,-0.15151 0.1836,-0.2746 0.41071,-0.2746 z"
       id="path2445-5"
       class="ColorScheme-Text"
       inkscape:connector-curvature="0" />
  </g>
</svg>
