<?xml version="1.0" encoding="UTF-8" standalone="no"?>
<svg
   xmlns:dc="http://purl.org/dc/elements/1.1/"
   xmlns:cc="http://creativecommons.org/ns#"
   xmlns:rdf="http://www.w3.org/1999/02/22-rdf-syntax-ns#"
   xmlns:svg="http://www.w3.org/2000/svg"
   xmlns="http://www.w3.org/2000/svg"
   xmlns:xlink="http://www.w3.org/1999/xlink"
   xmlns:sodipodi="http://sodipodi.sourceforge.net/DTD/sodipodi-0.dtd"
   xmlns:inkscape="http://www.inkscape.org/namespaces/inkscape"
   width="32"
   version="1.1"
   height="32"
   viewBox="0 0 32 32"
   id="svg15"
   sodipodi:docname="folder-Pop_OS.svg"
   inkscape:version="1.0.2 (e86c870879, 2021-01-15)">
  <sodipodi:namedview
     pagecolor="#ffffff"
     bordercolor="#666666"
     borderopacity="1"
     objecttolerance="10"
     gridtolerance="10"
     guidetolerance="10"
     inkscape:pageopacity="0"
     inkscape:pageshadow="2"
     inkscape:window-width="1920"
     inkscape:window-height="1007"
     id="namedview17"
     showgrid="false"
     inkscape:zoom="9.8125"
     inkscape:cx="-12.999029"
     inkscape:cy="10.72891"
     inkscape:window-x="0"
     inkscape:window-y="0"
     inkscape:window-maximized="1"
     inkscape:current-layer="layer1"
     inkscape:document-rotation="0" />
  <defs
     id="defs5455">
    <linearGradient
       inkscape:collect="always"
       xlink:href="#linearGradient847-3"
       id="linearGradient859"
       x1="255.50653"
       y1="256.95679"
       x2="512"
       y2="256.82327"
       gradientUnits="userSpaceOnUse"
       gradientTransform="matrix(0.05859375,0,0,0.06178774,385.57144,515.92949)" />
    <linearGradient
       inkscape:collect="always"
       id="linearGradient847-3">
      <stop
         style="stop-color:#8fbcbb;stop-opacity:1"
         offset="0"
         id="stop843-6" />
      <stop
         style="stop-color:#88c0d0;stop-opacity:1"
         offset="1"
         id="stop845-7" />
    </linearGradient>
    <linearGradient
       inkscape:collect="always"
       xlink:href="#linearGradient885"
       id="linearGradient862"
       x1="476.689"
       y1="163.60085"
       x2="319.6994"
       y2="162.04736"
       gradientUnits="userSpaceOnUse"
       gradientTransform="matrix(0.05859375,0,0,0.06178774,385.57144,515.92949)" />
    <linearGradient
       inkscape:collect="always"
       id="linearGradient885">
      <stop
         style="stop-color:#a6b2bf;stop-opacity:1"
         offset="0"
         id="stop881" />
      <stop
         style="stop-color:#434c5e;stop-opacity:1"
         offset="1"
         id="stop883" />
    </linearGradient>
    <linearGradient
       inkscape:collect="always"
       xlink:href="#linearGradient854"
       id="linearGradient856"
       x1="462.57144"
       y1="503.798"
       x2="462.22433"
       y2="502.99762"
       gradientUnits="userSpaceOnUse"
       gradientTransform="matrix(0.48293841,0,0,0.5003442,199.36413,273.72973)" />
    <linearGradient
       inkscape:collect="always"
       id="linearGradient854">
      <stop
         style="stop-color:#4e4e7e;stop-opacity:1;"
         offset="0"
         id="stop850" />
      <stop
         style="stop-color:#4e4e7e;stop-opacity:0;"
         offset="1"
         id="stop852" />
    </linearGradient>
  </defs>
  <metadata
     id="metadata5458">
    <rdf:RDF>
      <cc:Work
         rdf:about="">
        <dc:format>image/svg+xml</dc:format>
        <dc:type
           rdf:resource="http://purl.org/dc/dcmitype/StillImage" />
      </cc:Work>
    </rdf:RDF>
  </metadata>
  <g
     inkscape:label="Capa 1"
     inkscape:groupmode="layer"
     id="layer1"
     transform="translate(-384.57143,-515.798)">
    <path
       style="fill:#81a1c1;fill-opacity:1;stroke-width:0.0601699"
       d="m 401.3676,522.2832 c 0.4841,0.50451 1.13729,0.78742 1.81794,0.78742 h 1.0066 2.61412 c -0.68066,0 -1.33382,-0.28291 -1.81795,-0.78742 l -1.629,-1.6977 c -0.4842,-0.50459 -1.13731,-0.7875 -1.81791,-0.7875 h -3.62073 c 0.68055,0 1.3338,0.28291 1.81794,0.7875 z"
       id="path2" />
    <path
       style="fill:#5e81ac;fill-opacity:1;stroke-width:0.0601699"
       d="m 396.1178,520.5855 1.62909,1.6977 c 0.48405,0.50451 1.13728,0.78742 1.81791,0.78742 h 1.00663 2.61411 c -0.68065,0 -1.33384,-0.28291 -1.81794,-0.78742 l -1.62899,-1.6977 c -0.4842,-0.50459 -1.13739,-0.7875 -1.81794,-0.7875 h -3.55614 -0.0647 c 0.68066,0 1.33381,0.28297 1.81789,0.7875 z"
       id="path4" />
    <path
       style="fill:url(#linearGradient859);fill-opacity:1;stroke-width:0.0564454"
       d="m 414.0197,522.67802 h -6.20695 -1.00659 -2.61415 -1.00659 -2.61399 -1.00663 c -0.68063,0 -1.33386,-0.24898 -1.81791,-0.693 l -1.62909,-1.49403 c -0.48413,-0.44402 -1.13728,-0.69299 -1.81793,-0.69299 h -3.55602 -3.62069 c -0.85694,0 -1.55173,0.6447 -1.55173,1.44001 v 2.88001 0.48002 17.75995 c 0,0.79531 0.69479,1.44001 1.55173,1.44001 h 26.89654 c 0.85695,0 1.55173,-0.6447 1.55173,-1.44001 v -18.23997 c 0,-0.79537 -0.69478,-1.44 -1.55173,-1.44 z m -10.88657,2.92929 0.004,-0.003 -0.003,-0.005 v 0 l 0.003,0.005 v 0 l -0.004,0.003 0.001,-0.008 z m 10.36937,0.43068 c 0,0.53015 -0.46312,0.95999 -1.0345,0.95999 h -7.24136 c -0.57144,0 -1.03457,-0.42984 -1.03457,-0.95999 v -0.48001 c 0,-0.53015 0.46313,-0.95999 1.03457,-0.95999 h 7.24125 c 0.57143,0 1.03455,0.42984 1.03455,0.95999 v 0.48001 z"
       id="path6"
       sodipodi:nodetypes="scccccsccscssccssssssccccccccccssssssscc" />
    <path
       style="fill:url(#linearGradient862);fill-opacity:1;stroke:url(#linearGradient856);stroke-width:0.0601699"
       d="m 412.46789,524.43061 h -7.24125 c -0.57144,0 -1.04626,0.48838 -1.04626,1.09082 v 0.5455 c 0,0.60243 0.47482,1.09082 1.04626,1.09082 h 7.24125 c 0.57143,0 1.10945,-0.48855 1.12247,-1.09082 l 0.0116,-0.5455 c 6e-5,-0.60244 -0.56268,-1.09082 -1.13415,-1.09082 z"
       id="path8"
       sodipodi:nodetypes="ssssssscs" />
    <path
       style="fill:#434c5e;fill-opacity:1;stroke-width:0.00971709"
       id="path2-3-5"
       d="m 398.42514,534.77449 c -0.0181,0.079 -0.0565,0.14896 -0.12277,0.19295 -0.1039,0.069 -0.23048,0.049 -0.3202,-0.035 -0.0839,-0.078 -0.11239,-0.20994 -0.0859,-0.32391 0.0273,-0.11897 0.1143,-0.22394 0.22577,-0.25693 0.24836,-0.073 0.35135,0.21294 0.30317,0.42288 z m -0.15207,-0.81178 c -0.15394,-0.065 -0.10079,-0.91974 0.0395,-1.95746 0.0395,-0.28992 0.10766,-0.42689 0.18408,-0.49686 0.10965,-0.099 0.30889,-0.10298 0.44393,-0.082 0.15495,0.024 0.30318,0.1 0.41562,0.21495 0.0987,0.10197 0.11048,0.20594 0.0763,0.3409 -0.0555,0.21494 -0.15105,0.42089 -0.24271,0.62183 -0.0219,0.049 -0.21153,0.42989 -0.23709,0.47687 -0.45801,0.85377 -0.54965,0.93675 -0.67997,0.88176 z" />
    <path
       style="fill:#434c5e;fill-opacity:1;stroke-width:0.00971709"
       id="path4-6-3"
       d="m 395.16578,533.57781 c 0.0906,0.4099 0.0815,0.85977 0.004,1.18368 -0.0727,0.30592 -0.27012,0.57984 -0.58368,0.67182 -0.27486,0.081 -0.59499,0.022 -0.79145,-0.17795 -0.32303,-0.32792 -0.51193,-1.0977 -0.42787,-1.65655 0.0677,-0.44887 0.29655,-1.02372 0.79817,-1.04871 0.0322,-0.002 0.0643,-0.001 0.0965,0.002 0.51094,0.049 0.78955,0.50486 0.90476,1.02572 z m -0.92369,0.93275 c 0.0283,0.005 0.0565,0.005 0.0849,-0.004 0.0955,-0.029 0.15023,-0.13397 0.17574,-0.23594 0.0385,-0.15496 0.0332,-0.32191 -0.0172,-0.47387 -0.0253,-0.077 -0.0634,-0.15196 -0.12085,-0.20794 -0.20312,-0.19695 -0.40616,0.008 -0.44107,0.24093 -0.0273,0.18195 0.0122,0.39289 0.11995,0.53985 0.0503,0.068 0.12183,0.12697 0.19831,0.14097 z" />
    <path
       style="fill:#434c5e;fill-opacity:1;stroke-width:0.00971709"
       id="path6-7-5"
       d="m 396.27173,534.44658 c -9.6e-4,0.75679 0.0707,1.33563 -0.24365,1.40461 -0.25501,0.055 -0.24654,-0.18195 -0.26637,-0.38089 -0.0754,-0.77079 -0.14448,-2.05144 -0.17378,-2.82623 0.0209,-0.33291 0.23141,-0.53685 0.45053,-0.58684 0.33815,-0.077 0.6989,-0.055 0.99828,0.14097 0.59221,0.38789 0.63942,1.09969 0.28051,1.68053 -0.19644,0.31691 -0.79053,0.54685 -1.04552,0.52686 z m 0.0754,-1.69654 c -0.0369,0.006 -0.0971,0.024 -0.1143,0.062 -0.0405,0.089 -0.0376,0.65382 0.0332,0.89075 0.0113,0.039 0.0369,0.076 0.0741,0.09 0.13404,0.052 0.25502,-0.12197 0.30973,-0.22694 0.0763,-0.14596 0.10098,-0.31791 0.0528,-0.47787 -0.0456,-0.14896 -0.18607,-0.3649 -0.35512,-0.33791 z" />
    <path
       style="fill:#434c5e;fill-opacity:1;stroke-width:0.00971709"
       id="path8-5-6"
       d="m 392.88484,533.12594 c -0.22195,0.49687 -0.59026,0.89176 -1.10029,1.0867 0.14638,0.40489 0.29564,0.80478 0.44108,1.20867 0.0815,0.21794 0.15867,0.45688 0.0878,0.67181 -0.0735,0.21995 -0.36076,0.28093 -0.56952,0.047 -0.40135,-0.45188 -1.75861,-3.31509 -1.85871,-3.53004 -0.0849,-0.18494 -0.21248,-0.38289 -0.20874,-0.59683 0.007,-0.32191 0.47696,-0.64782 0.70273,-0.81478 0.31546,-0.23293 0.68002,-0.39189 1.07006,-0.39289 0.30414,0 0.56388,0.088 0.79432,0.24393 0.35322,0.23994 0.59881,0.62283 0.68944,1.05572 0.0795,0.38089 0.0624,0.77078 -0.0483,1.02071 m -1.03416,-0.54385 c -0.0795,-0.30491 -0.25881,-0.58583 -0.48452,-0.78278 -0.0493,-0.043 -0.102,-0.083 -0.1634,-0.10497 -0.42312,-0.14696 -0.23988,0.60183 -0.17093,0.79078 0.0955,0.26493 0.23988,0.59984 0.43352,0.79978 0.0423,0.044 0.0926,0.083 0.15014,0.095 0.0878,0.019 0.16906,-0.046 0.21344,-0.12196 0.0369,-0.063 0.0512,-0.13797 0.0594,-0.21094 0.0166,-0.15496 0.002,-0.31292 -0.0378,-0.46488 z" />
    <path
       style="fill:#434c5e;fill-opacity:1;stroke-width:0.00971709"
       id="path10-2"
       d="m 397.94472,536.93161 c -0.002,0.43888 -0.255,0.87777 -0.81319,0.87777 -0.55819,0 -0.81786,-0.43189 -0.81786,-0.87277 0,-0.54985 0.36167,-0.88976 0.82923,-0.88976 0.54209,0.005 0.80656,0.43088 0.80182,0.88476 z m -0.80182,-0.60783 c -0.35044,0 -0.54689,0.25793 -0.54874,0.60983 0,0.30591 0.16149,0.59284 0.5421,0.59284 0.38062,0 0.52605,-0.31091 0.52605,-0.59584 0.005,-0.29592 -0.14355,-0.59983 -0.51941,-0.60683 z m 1.03599,1.26066 c 0,0.065 0.002,-0.30892 0,-0.36591 h 0.25699 l 0.0181,0.22894 c 0.0839,0.051 0.2144,0.089 0.32111,0.089 0.19835,0 0.40519,-0.053 0.40519,-0.25793 -0.007,-0.18595 -0.23706,-0.22394 -0.42313,-0.24393 -0.31639,-0.034 -0.5714,-0.11598 -0.5714,-0.49187 0,-0.33491 0.35795,-0.50187 0.62432,-0.50187 0.21438,-0.005 0.36641,0.031 0.56003,0.19495 0,0.13497 -0.002,0.21495 -0.002,0.34991 h -0.2483 l -0.0163,-0.22194 c -0.0998,-0.051 -0.20308,-0.065 -0.28242,-0.063 -0.17092,0.002 -0.35323,0.087 -0.35323,0.23894 0,0.14896 0.11808,0.18995 0.32774,0.22193 0.3419,0.048 0.67151,0.12997 0.67151,0.51587 -0.002,0.42188 -0.37586,0.53285 -0.69701,0.53285 -0.24462,10e-4 -0.39761,-0.047 -0.59129,-0.22594 z"
       inkscape:connector-curvature="0" />
    <path
       style="fill:#434c5e;fill-opacity:1;stroke-width:0.00971709"
       id="path12-9"
       d="m 395.96702,537.66541 c 0,0.077 -0.0585,0.13896 -0.1313,0.13896 h -1.51775 c -0.0725,0 -0.13127,-0.062 -0.13127,-0.13896 v -0.012 c 0,-0.077 0.0585,-0.13896 0.13127,-0.13896 h 1.51775 c 0.0725,0 0.1313,0.062 0.1313,0.13896 z"
       inkscape:connector-curvature="0" />
  </g>
</svg>
