<?xml version="1.0" encoding="UTF-8" standalone="no"?>
<svg
   xmlns:dc="http://purl.org/dc/elements/1.1/"
   xmlns:cc="http://creativecommons.org/ns#"
   xmlns:rdf="http://www.w3.org/1999/02/22-rdf-syntax-ns#"
   xmlns:svg="http://www.w3.org/2000/svg"
   xmlns="http://www.w3.org/2000/svg"
   xmlns:xlink="http://www.w3.org/1999/xlink"
   xmlns:sodipodi="http://sodipodi.sourceforge.net/DTD/sodipodi-0.dtd"
   xmlns:inkscape="http://www.inkscape.org/namespaces/inkscape"
   width="32"
   version="1.1"
   height="32"
   viewBox="0 0 32 32"
   id="svg17"
   sodipodi:docname="folder-image.svg"
   inkscape:version="1.0.2 (e86c870879, 2021-01-15)">
  <sodipodi:namedview
     pagecolor="#ffffff"
     bordercolor="#666666"
     borderopacity="1"
     objecttolerance="10"
     gridtolerance="10"
     guidetolerance="10"
     inkscape:pageopacity="0"
     inkscape:pageshadow="2"
     inkscape:window-width="1920"
     inkscape:window-height="1007"
     id="namedview19"
     showgrid="false"
     inkscape:zoom="9.8125"
     inkscape:cx="-7.6817077"
     inkscape:cy="7.4769483"
     inkscape:window-x="0"
     inkscape:window-y="0"
     inkscape:window-maximized="1"
     inkscape:current-layer="layer1"
     inkscape:document-rotation="0" />
  <defs
     id="defs5455">
    <linearGradient
       inkscape:collect="always"
       xlink:href="#linearGradient847-6"
       id="linearGradient859-3"
       x1="230.8364"
       y1="265.27689"
       x2="512"
       y2="256.82327"
       gradientUnits="userSpaceOnUse"
       gradientTransform="matrix(0.05859379,0,0,0.06178774,385.57143,515.92949)" />
    <linearGradient
       inkscape:collect="always"
       id="linearGradient847-6">
      <stop
         style="stop-color:#8fbcbb;stop-opacity:1"
         offset="0"
         id="stop843-7" />
      <stop
         style="stop-color:#88c0d0;stop-opacity:1"
         offset="1"
         id="stop845-5" />
    </linearGradient>
    <linearGradient
       inkscape:collect="always"
       xlink:href="#linearGradient843"
       id="linearGradient845"
       x1="424.10419"
       y1="503.7821"
       x2="443.61319"
       y2="503.7821"
       gradientUnits="userSpaceOnUse"
       gradientTransform="matrix(0.48293846,0,0,0.5003442,199.36415,273.72973)" />
    <linearGradient
       inkscape:collect="always"
       id="linearGradient843">
      <stop
         style="stop-color:#434c5e;stop-opacity:1"
         offset="0"
         id="stop839" />
      <stop
         style="stop-color:#a2adbc;stop-opacity:1"
         offset="1"
         id="stop841" />
    </linearGradient>
  </defs>
  <metadata
     id="metadata5458">
    <rdf:RDF>
      <cc:Work
         rdf:about="">
        <dc:format>image/svg+xml</dc:format>
        <dc:type
           rdf:resource="http://purl.org/dc/dcmitype/StillImage" />
      </cc:Work>
    </rdf:RDF>
  </metadata>
  <g
     inkscape:label="Capa 1"
     inkscape:groupmode="layer"
     id="layer1"
     transform="translate(-384.57143,-515.798)">
    <path
       style="fill:#81a1c1;fill-opacity:1;stroke-width:0.0601699"
       d="m 401.36764,522.2832 c 0.48402,0.50451 1.13729,0.78742 1.81794,0.78742 h 1.00656 2.61416 c -0.68066,0 -1.3339,-0.28291 -1.81795,-0.78742 l -1.629,-1.6977 c -0.48424,-0.50459 -1.13735,-0.7875 -1.81791,-0.7875 h -3.62073 c 0.68055,0 1.33376,0.28291 1.81794,0.7875 z"
       id="path2-3" />
    <path
       style="fill:#5e81ac;fill-opacity:1;stroke-width:0.0601699"
       d="m 396.11784,520.5855 1.62909,1.6977 c 0.48401,0.50451 1.1372,0.78742 1.81791,0.78742 h 1.00659 2.61415 c -0.68065,0 -1.33392,-0.28291 -1.81794,-0.78742 l -1.62899,-1.6977 c -0.48424,-0.50459 -1.13739,-0.7875 -1.81794,-0.7875 h -3.55618 -0.0647 c 0.68066,0 1.33377,0.28297 1.81789,0.7875 z"
       id="path4-5" />
    <path
       style="fill:url(#linearGradient859-3);fill-opacity:1;stroke-width:0.0564454"
       d="m 414.01967,522.67802 h -6.20692 -1.00657 -2.61417 -1.00655 -2.61403 -1.00659 c -0.68071,0 -1.3339,-0.24898 -1.81791,-0.693 l -1.62909,-1.49403 c -0.48417,-0.44402 -1.13728,-0.69299 -1.81793,-0.69299 h -3.55606 -3.62065 c -0.85702,0 -1.55177,0.6447 -1.55177,1.44001 v 2.88001 0.48002 17.75995 c 0,0.79531 0.69475,1.44001 1.55177,1.44001 h 26.89647 c 0.85702,0 1.55176,-0.6447 1.55176,-1.44001 v -18.23997 c 0,-0.79537 -0.69474,-1.44 -1.55176,-1.44 z m -10.88654,2.92929 0.004,-0.003 -0.003,-0.005 v 0 l 0.003,0.005 v 0 l -0.004,0.003 0.001,-0.008 z m 10.36941,0.43068 c 0,0.53015 -0.46316,0.95999 -1.03458,0.95999 h -7.24136 c -0.57136,0 -1.03453,-0.42984 -1.03453,-0.95999 v -0.48001 c 0,-0.53015 0.46317,-0.95999 1.03453,-0.95999 h 7.24133 c 0.57139,0 1.03455,0.42984 1.03455,0.95999 v 0.48001 z"
       id="path6-6"
       sodipodi:nodetypes="scccccsccscssccssssssccccccccccssssssscc" />
    <path
       style="fill:url(#linearGradient845);fill-opacity:1;stroke-width:0.0601699"
       d="m 412.46793,524.43061 h -7.24133 c -0.57136,0 -1.04622,0.48838 -1.04622,1.09082 v 0.5455 c 0,0.60243 0.47486,1.09082 1.04622,1.09082 h 7.24133 c 0.57139,0 1.10945,-0.48855 1.12239,-1.09082 l 0.012,-0.5455 c 6e-5,-0.60244 -0.56264,-1.09082 -1.13412,-1.09082 z"
       id="path8-2"
       sodipodi:nodetypes="ssssssscs" />
    <path
       style="fill:#434c5e;fill-opacity:1;stroke-width:0.491564"
       id="rect4385-3-9"
       d="m 389.67643,529.85392 v 10.00688 h 9.65874 v -10.00688 z m 0.48293,0.50034 h 8.69287 v 8.50585 0.50035 h -8.69287 v -0.50035 z m 0,8.50585 h 1.93177 l 1.4488,-1.50103 -0.96588,-1.00069 z m 8.69287,0 -2.89761,-3.00206 -2.89762,3.00206 z m -7.00262,-8.0055 c -0.66887,0 -1.20731,0.55788 -1.20731,1.25086 0,0.69297 0.53844,1.25086 1.20731,1.25086 0.66887,0 1.20739,-0.55789 1.20739,-1.25086 0,-0.69298 -0.53852,-1.25086 -1.20739,-1.25086 z" />
  </g>
</svg>
