<?xml version="1.0" encoding="UTF-8" standalone="no"?>
<svg
   xmlns:dc="http://purl.org/dc/elements/1.1/"
   xmlns:cc="http://creativecommons.org/ns#"
   xmlns:rdf="http://www.w3.org/1999/02/22-rdf-syntax-ns#"
   xmlns:svg="http://www.w3.org/2000/svg"
   xmlns="http://www.w3.org/2000/svg"
   xmlns:xlink="http://www.w3.org/1999/xlink"
   xmlns:sodipodi="http://sodipodi.sourceforge.net/DTD/sodipodi-0.dtd"
   xmlns:inkscape="http://www.inkscape.org/namespaces/inkscape"
   width="32"
   version="1.1"
   height="32"
   viewBox="0 0 32 32"
   id="svg17"
   sodipodi:docname="folder-html.svg"
   inkscape:version="1.0.2 (e86c870879, 2021-01-15)">
  <sodipodi:namedview
     pagecolor="#ffffff"
     bordercolor="#666666"
     borderopacity="1"
     objecttolerance="10"
     gridtolerance="10"
     guidetolerance="10"
     inkscape:pageopacity="0"
     inkscape:pageshadow="2"
     inkscape:window-width="1920"
     inkscape:window-height="1007"
     id="namedview19"
     showgrid="false"
     inkscape:zoom="6.9384853"
     inkscape:cx="-28.934281"
     inkscape:cy="34.567061"
     inkscape:window-x="0"
     inkscape:window-y="0"
     inkscape:window-maximized="1"
     inkscape:current-layer="layer1"
     inkscape:document-rotation="0" />
  <defs
     id="defs5455">
    <linearGradient
       inkscape:collect="always"
       xlink:href="#linearGradient847-6"
       id="linearGradient859-3"
       x1="239.02225"
       y1="257.01199"
       x2="512"
       y2="256.82327"
       gradientUnits="userSpaceOnUse"
       gradientTransform="matrix(0.05859381,0,0,0.06178772,385.57143,515.92948)" />
    <linearGradient
       inkscape:collect="always"
       id="linearGradient847-6">
      <stop
         style="stop-color:#8fbcbb;stop-opacity:1"
         offset="0"
         id="stop843-7" />
      <stop
         style="stop-color:#88c0d0;stop-opacity:1"
         offset="1"
         id="stop845-5" />
    </linearGradient>
    <linearGradient
       inkscape:collect="always"
       xlink:href="#linearGradient850"
       id="linearGradient862-3"
       x1="476.689"
       y1="163.60085"
       x2="319.6994"
       y2="162.04736"
       gradientUnits="userSpaceOnUse"
       gradientTransform="matrix(0.05859381,0,0,0.06178772,385.57143,515.92948)" />
    <linearGradient
       inkscape:collect="always"
       id="linearGradient850">
      <stop
         style="stop-color:#a7b0be;stop-opacity:1"
         offset="0"
         id="stop846-5" />
      <stop
         style="stop-color:#434c5e;stop-opacity:1"
         offset="1"
         id="stop848" />
    </linearGradient>
  </defs>
  <metadata
     id="metadata5458">
    <rdf:RDF>
      <cc:Work
         rdf:about="">
        <dc:format>image/svg+xml</dc:format>
        <dc:type
           rdf:resource="http://purl.org/dc/dcmitype/StillImage" />
      </cc:Work>
    </rdf:RDF>
  </metadata>
  <g
     inkscape:label="Capa 1"
     inkscape:groupmode="layer"
     id="layer1"
     transform="translate(-384.57143,-515.798)">
    <path
       style="fill:#81a1c1;fill-opacity:1;stroke-width:0.0601699"
       d="m 401.36764,522.2832 c 0.48402,0.50451 1.13729,0.78742 1.81795,0.78742 h 1.00655 2.61417 c -0.68066,0 -1.33391,-0.28291 -1.81795,-0.78742 l -1.62899,-1.6977 c -0.48425,-0.50459 -1.13736,-0.7875 -1.81792,-0.7875 h -3.62073 c 0.68056,0 1.33374,0.28291 1.81794,0.7875 z"
       id="path2-6" />
    <path
       style="fill:#5e81ac;fill-opacity:1;stroke-width:0.0601699"
       d="m 396.11784,520.5855 1.62909,1.6977 c 0.48401,0.50451 1.13719,0.78742 1.81793,0.78742 h 1.00657 2.61416 c -0.68066,0 -1.33393,-0.28291 -1.81795,-0.78742 l -1.62898,-1.6977 c -0.48425,-0.50459 -1.13738,-0.7875 -1.81794,-0.7875 h -3.55619 -0.0647 c 0.68067,0 1.33376,0.28297 1.81789,0.7875 z"
       id="path4-2" />
    <path
       style="fill:url(#linearGradient859-3);fill-opacity:1;stroke-width:0.0564454"
       d="m 414.01966,522.67802 h -6.2069 -1.00659 -2.61415 -1.00656 -2.61403 -1.00657 c -0.68074,0 -1.33392,-0.24897 -1.81793,-0.693 l -1.62909,-1.49403 c -0.48418,-0.44402 -1.13728,-0.69299 -1.81792,-0.69299 h -3.55607 -3.62064 c -0.85704,0 -1.55178,0.6447 -1.55178,1.44001 v 2.88001 0.48002 17.75994 c 0,0.79532 0.69474,1.44002 1.55178,1.44002 h 26.89645 c 0.85704,0 1.55177,-0.6447 1.55177,-1.44002 v -18.23996 c 0,-0.79537 -0.69473,-1.44 -1.55177,-1.44 z m -10.88652,2.92929 0.004,-0.002 -0.004,-0.005 v 0 l 0.004,0.005 v 0 l -0.004,0.002 9.9e-4,-0.008 z m 10.36942,0.43068 c 0,0.53015 -0.46317,0.95999 -1.0346,0.95999 h -7.24137 c -0.57134,0 -1.03451,-0.42984 -1.03451,-0.95999 v -0.48001 c 0,-0.53014 0.46317,-0.95998 1.03451,-0.95998 h 7.24134 c 0.5714,0 1.03456,0.42983 1.03456,0.95998 v 0.48001 z"
       id="path6-9"
       sodipodi:nodetypes="scccccsccscssccssssssccccccccccssssssscc" />
    <path
       style="fill:url(#linearGradient862-3);fill-opacity:1;stroke-width:0.0601699"
       d="m 412.46793,524.43061 h -7.24134 c -0.57134,0 -1.0462,0.48838 -1.0462,1.09082 v 0.5455 c 0,0.60243 0.47486,1.09082 1.0462,1.09082 h 7.24134 c 0.5714,0 1.10946,-0.48855 1.12239,-1.09082 l 0.0121,-0.5455 c 6e-5,-0.60244 -0.56264,-1.09082 -1.13413,-1.09082 z"
       id="path8-1"
       sodipodi:nodetypes="ssssssscs" />
    <path
       style="color:#000000;fill:#434c5e;fill-opacity:1;stroke-width:0.499149"
       id="path26-3-6-7-2"
       d="m 394.65597,530.05505 c -0.1724,0 -0.34569,0.0143 -0.51353,0.0313 -0.33565,0.034 -0.65255,0.0905 -0.96478,0.18762 -1.5612,0.48586 -2.79987,1.73051 -3.28341,3.29915 -0.097,0.31372 -0.15282,0.6322 -0.1867,0.96941 -0.0174,0.16862 -0.0311,0.34274 -0.0311,0.51598 0,0.17325 0.0147,0.34737 0.0311,0.51598 0.0338,0.33722 0.09,0.6557 0.1867,0.96942 0.48354,1.56864 1.72221,2.81329 3.28341,3.29915 0.31223,0.0972 0.62913,0.15358 0.96478,0.18762 0.16784,0.017 0.34113,0.0313 0.51353,0.0313 0.17238,0 0.34566,-0.0143 0.51351,-0.0313 0.33556,-0.034 0.65254,-0.0905 0.96478,-0.18762 0.31183,-0.0975 0.62028,-0.23685 0.90252,-0.3909 1.12909,-0.61478 1.99406,-1.65334 2.38089,-2.90825 0.0969,-0.31372 0.15282,-0.6322 0.1867,-0.96942 0.0174,-0.16861 0.0311,-0.34273 0.0311,-0.51598 0,-0.1727 -0.0141,-0.34777 -0.0311,-0.51598 -0.0338,-0.33721 -0.09,-0.65569 -0.1867,-0.96941 -0.19346,-0.62745 -0.51289,-1.21045 -0.91817,-1.7043 -0.10154,-0.12355 -0.21408,-0.2308 -0.32675,-0.34399 -0.45007,-0.45218 -0.97556,-0.82634 -1.5717,-1.07886 -0.14893,-0.0633 -0.31085,-0.12327 -0.46679,-0.172 -0.31224,-0.0972 -0.62922,-0.15358 -0.96478,-0.18762 -0.16785,-0.017 -0.34113,-0.0313 -0.51351,-0.0313 z m 0,0.50035 c 0.75352,0 1.46185,0.18583 2.08518,0.51598 0.0165,0.009 0.0303,0.0224 0.0466,0.0313 0.013,0.0168 0.009,0.0346 0.0311,0.0469 0.0161,0.009 0.0313,0.0231 0.0467,0.0313 0.0262,0.0146 0.0518,0.037 0.0465,0.0626 -0.007,0.0373 -0.0682,0.0352 -0.0933,0.0625 0.003,0.0528 -0.0176,0.0427 -0.0311,0.0782 0.008,0.0228 0.0275,0.0196 0.0311,0.0469 -0.005,0.0291 -0.0423,0.0325 -0.0311,0.0625 0.0485,0.0382 0.0937,0.006 0.14004,0 0.10142,-0.0128 0.18647,0.002 0.24896,-0.0469 -0.007,-0.0389 0.0304,-0.05 0.0469,-0.0782 0.033,0.0233 0.0609,0.054 0.0932,0.0782 -0.0186,0.008 -0.0605,0.0204 -0.0781,0.0313 -0.0251,0.0173 -0.0332,0.0434 -0.0621,0.0625 -0.0204,0.0146 -0.0719,0.0625 -0.0933,0.0625 -0.0262,0 -0.0745,-0.022 -0.0933,-0.0156 -0.0271,0.008 -0.0159,0.0516 -0.0467,0.0625 -0.0596,0.0218 -0.16592,-0.0587 -0.18672,0.0313 0.0254,0.0518 0.11031,0.0344 0.15562,0.0625 0.028,0.0182 0.0708,0.1098 0.0776,0.14072 0.007,0.0255 0.0112,0.11344 0,0.14072 -0.028,0.0728 -0.1034,0.0644 -0.18671,0.0625 -0.0223,0 -0.0417,0.002 -0.0621,0 -0.14035,-0.009 -0.27899,-0.054 -0.34237,0.0469 0.005,0.0773 0.0171,0.12034 0,0.18763 -0.013,0.0491 -0.0652,0.0823 -0.0621,0.12509 9.4e-4,0.0218 0.0416,0.0638 0.0469,0.0938 0.004,0.0164 -0.007,0.048 0,0.0625 0.0232,0.0446 0.0825,-0.007 0.12444,0 0.0401,0.006 0.0778,0.0649 0.0778,0.10945 0,0.0318 -0.0116,0.0942 -0.0311,0.12508 -0.0401,0.06 -0.11413,0.0454 -0.17114,0.0782 -0.0469,0.0273 -0.0655,0.0934 -0.0933,0.14072 -0.0298,0.0509 -0.0585,0.068 -0.0467,0.14073 -0.041,0.0809 -0.0869,0.13288 -0.17122,0.17199 -0.024,0.0109 -0.0548,0.0305 -0.0781,0.0469 -0.0178,0.0127 -0.0371,0.0334 -0.0621,0.0625 -0.0316,0.0355 -0.0765,0.0509 -0.0933,0.0782 -0.013,0.0209 -0.002,0.0656 -0.0157,0.0938 -0.0195,0.0382 -0.0521,0.0712 -0.0781,0.10945 -0.0121,0.0182 -0.0339,0.0389 -0.0465,0.0625 -0.0289,0.0528 -0.0679,0.0944 -0.0621,0.14072 0.005,0.0446 0.0595,0.0547 0.0621,0.0938 0.002,0.0218 -0.0167,0.0389 -0.0157,0.0625 9.4e-4,0.0346 0.0132,0.0509 0.0157,0.0782 0.006,0.0673 -0.0341,0.0943 -0.0469,0.14072 -0.006,0.0218 0.005,0.0453 0,0.0625 -0.0112,0.0337 -0.0612,0.0538 -0.0621,0.0938 -9.5e-4,0.0282 0.0444,0.0538 0.0465,0.0938 0.002,0.0273 -0.0206,0.0527 -0.0158,0.0782 0.0103,0.0491 0.10206,0.11816 0.14008,0.15636 0.0513,0.0518 0.10185,0.0861 0.12445,0.14072 0.0187,0.0464 0.0269,0.1218 0.0621,0.15636 0.0262,0.0255 0.076,0.0362 0.10892,0.0625 0.0316,0.0246 0.076,0.0362 0.10896,0.0625 0.0546,0.0437 0.13003,0.13146 0.21783,0.12509 0.0463,-0.004 0.0884,-0.0222 0.14006,-0.0313 0.0531,-0.009 0.11686,-0.0367 0.17118,-0.0313 0.0419,0.005 0.0806,0.034 0.12453,0.0313 0.0454,-0.003 0.10396,-0.0242 0.15555,-0.0469 0.0896,-0.0391 0.22756,-0.11292 0.35796,-0.0938 0.0997,0.0146 0.10154,0.12743 0.17113,0.17199 0.0795,0.007 0.1389,-0.0155 0.20229,0 0.0477,0.0118 0.10439,0.10254 0.10894,0.14073 0.005,0.0391 -0.0255,0.0693 -0.0311,0.0938 -0.013,0.0528 -0.0217,0.12271 -0.0311,0.15636 -0.007,0.0264 -0.0167,0.0518 -0.0158,0.0782 0,0.0237 0.0381,0.0785 0.0621,0.10945 0.0298,0.0382 0.073,0.0676 0.10894,0.10945 0.0663,0.0764 0.0937,0.18049 0.14001,0.28144 0.0121,0.0255 -0.0112,0.0307 0,0.0625 -0.0196,0.15279 -0.0718,0.25302 -0.17114,0.42217 -0.0473,0.0546 -0.0942,0.11943 -0.0933,0.18763 -0.004,0.16369 0.0847,0.24829 0.0778,0.40653 -0.0167,0.2128 9.4e-4,0.24595 -0.0157,0.35962 0.0718,0.0364 0.0366,0.14342 0.0157,0.2189 -0.0307,0.09 -0.0605,0.11197 -0.0778,0.17199 0.0374,0.0161 0.0685,0.0202 0.10894,0.0156 -0.81541,0.85179 -1.96758,1.37594 -3.23671,1.37594 -0.59406,0 -1.16179,-0.11743 -1.6806,-0.32835 -0.002,-5e-4 9.4e-4,-0.0149 0,-0.0156 0.047,-0.02 0.13676,0.0351 0.17116,-0.0313 0.0171,-0.0318 -0.0223,-0.0933 0,-0.12509 0.0165,-0.0218 0.12211,-0.0415 0.15566,-0.0469 0.0477,-0.008 0.0975,0.001 0.12446,-0.0156 0.0298,-0.0191 0.0679,-0.0687 0.0621,-0.12509 -0.002,-0.0264 -0.0259,-0.0389 -0.0468,-0.0625 -0.017,-0.02 -0.004,-0.0443 -0.0158,-0.0625 -0.0213,-0.0318 -0.0528,-0.0474 -0.0621,-0.0938 0.0652,-0.0127 0.15485,0.0733 0.24899,0.0469 0.0448,-0.0128 0.1192,-0.0989 0.14006,-0.14073 0.006,-0.0128 -0.007,-0.0627 0,-0.0782 0.008,-0.0173 0.0283,-0.0222 0.0311,-0.0313 0.006,-0.0246 -0.005,-0.0315 0,-0.0469 0.0165,-0.0464 0.0664,-0.0758 0.0933,-0.10945 0.0204,-0.0255 0.0435,-0.0518 0.0622,-0.0782 0.0213,-0.0282 0.0322,-0.038 0.0467,-0.0625 0.0139,-0.0828 -0.0507,-0.14615 -0.0311,-0.2189 0.0213,-0.0819 0.1391,-0.13471 0.21786,-0.17199 0.0271,-0.0128 0.0548,-0.0387 0.0779,-0.0469 0.0541,-0.0191 0.12048,-0.0131 0.17115,-0.0313 0.0848,-0.0309 0.11398,-0.12506 0.15561,-0.20326 0.0195,-0.0364 0.0434,-0.0674 0.0465,-0.0938 0.004,-0.0237 -0.005,-0.0509 0,-0.0782 0.005,-0.0273 0.008,-0.0482 0.0159,-0.0782 0.0103,-0.0391 0.016,-0.1127 0.016,-0.15635 0,-0.0364 -0.0146,-0.0454 -0.016,-0.0782 -0.006,-0.11822 0.0342,-0.12307 0.0778,-0.18763 0.0213,-0.0318 0.0313,-0.0867 0.0467,-0.10945 0.0736,-0.10913 0.19578,-0.16284 0.18673,-0.32835 -0.003,-0.0546 -0.022,-0.17035 -0.0621,-0.18763 -0.0223,-0.01 -0.0757,-0.003 -0.10889,-0.0156 -0.10685,-0.04 -0.18435,-0.1629 -0.2957,-0.172 -0.0232,-10e-4 -0.0363,10e-4 -0.0621,0 -0.0437,-10e-4 -0.0911,-0.0415 -0.14005,-0.0469 -0.0307,-0.004 -0.0908,0.009 -0.10891,0 -0.028,-0.0137 -0.0237,-0.0627 -0.0465,-0.0782 -0.0178,-0.0127 -0.0494,-0.0213 -0.0779,-0.0313 -0.0446,-0.0173 -0.0731,-0.0276 -0.12448,-0.0313 -0.0165,-0.001 -0.0596,0.002 -0.0778,0 -0.028,-0.005 -0.0512,-0.0306 -0.0777,-0.0469 -0.0325,-0.02 -0.0485,-0.0343 -0.0621,-0.0625 0.0298,-0.0982 -0.0738,-0.11471 -0.0933,-0.172 -0.009,-0.0264 0.009,-0.0702 0,-0.0938 -0.0121,-0.0337 -0.041,-0.05 -0.0775,-0.0782 -0.0654,-0.0509 -0.12459,-0.0976 -0.21786,-0.10945 -0.0419,-0.005 -0.0902,0.004 -0.14002,0 -0.0522,-0.004 -0.11581,-0.0327 -0.15564,-0.0782 -0.0383,-0.0446 -0.0446,-0.0885 -0.0777,-0.10945 -0.0316,-0.02 -0.0871,-0.0261 -0.10893,-0.0469 -0.0103,-0.009 -0.007,-0.0261 -0.0159,-0.0469 -0.0162,-0.0328 -0.0507,-0.0382 -0.0311,-0.0782 -0.0365,-0.0182 -0.0229,0.0229 -0.0621,0.0156 -0.0354,-0.05 -0.0603,-0.078 -0.14005,-0.0625 -0.0365,0.007 -0.0666,0.0616 -0.10895,0.0625 -0.0357,10e-4 -0.0627,-0.0562 -0.10893,-0.0625 -0.0357,-0.005 -0.0845,0.0367 -0.1089,0.0313 -0.0392,-0.007 -0.0428,-0.0545 -0.0778,-0.0782 -0.0262,-0.0173 -0.079,-0.0634 -0.0933,-0.0625 -0.0456,10e-4 -0.0778,0.0962 -0.14005,0.0625 -0.0307,-0.0391 0.0514,-0.0418 0.0158,-0.0782 -0.0271,-0.0273 -0.0408,10e-4 -0.0621,0.0156 -0.0251,0.0173 -0.0494,0.0369 -0.0778,0.0469 -0.0624,0.0237 -0.10672,0.0215 -0.15559,0.0469 -0.0457,0.0237 -0.0512,0.0631 -0.0778,0.10945 -0.0205,0.0382 -0.0616,0.092 -0.0933,0.0938 -0.0383,0.002 -0.075,-0.048 -0.10891,-0.0625 -0.10411,-0.0455 -0.16298,0.0304 -0.24896,0.0313 -0.0795,10e-4 -0.19038,-0.12778 -0.18677,-0.20327 0.003,-0.0464 0.0257,-0.1147 0.0311,-0.17199 0.005,-0.0455 0.0459,-0.0832 0.0467,-0.12509 9.3e-4,-0.0555 -0.0882,-0.10308 -0.1245,-0.10945 -0.085,-0.0155 -0.19878,0.0382 -0.29564,0 -0.0178,-0.0309 0.0361,-0.0482 0.0467,-0.0782 0.006,-0.0173 -0.006,-0.0278 0,-0.0469 0.0112,-0.0291 0.0483,-0.0472 0.0621,-0.0782 0.0103,-0.0237 0.006,-0.0647 0.0158,-0.0938 0.0121,-0.0328 0.0439,-0.0545 0.0465,-0.0782 0.004,-0.0309 -0.0219,-0.0738 -0.0465,-0.0938 -0.0755,0.005 -0.12774,0.0115 -0.17118,0.0313 -0.0979,0.0446 -0.0727,0.17234 -0.17121,0.20326 -0.0335,0.0109 -0.0864,0.0249 -0.12447,0.0313 0.0644,-0.32736 0.16479,-0.64046 0.29568,-0.93814 0.035,0.006 0.0634,0.0285 0.0933,0.0313 0.0829,0.006 0.0867,-0.0574 0.15558,-0.0938 0.0708,0.01 0.10692,-0.007 0.17116,0 0.0438,0.005 0.10568,0.0598 0.14008,0.0625 0.0289,10e-4 0.0353,-0.0358 0.0621,-0.0313 0.0271,0.005 0.0735,0.0611 0.0778,0.0938 0.005,0.0409 -0.0273,0.0796 -0.0158,0.12509 0.0429,0.0437 0.12607,0.0684 0.18671,0.0938 0.0401,-0.0328 0.006,-0.10906 0,-0.15636 -9.4e-4,-0.0209 0.003,-0.0434 0,-0.0625 -0.005,-0.0327 -0.0158,-0.0656 -0.0158,-0.0938 0,-0.13005 0.1,-0.18361 0.18675,-0.23454 0.0374,-0.0218 0.0765,-0.0618 0.10891,-0.0782 0.0462,-0.0228 0.0712,-0.0251 0.10894,-0.0469 0.069,-0.0391 0.13331,-0.0805 0.1867,-0.12509 0.0242,-0.0591 -0.002,-0.12943 0,-0.18763 0.0242,-0.0155 0.0363,0.003 0.0621,0 0.0419,-0.009 0.0541,-0.0702 0.0777,-0.0938 0.0137,-0.0137 0.0614,-0.0177 0.0777,-0.0313 0.0419,-0.0328 0.0419,-0.0793 0.0781,-0.0938 0.013,-0.005 0.0426,-0.0102 0.0621,-0.0156 0.0271,-0.007 0.0657,-0.0315 0.10895,-0.0469 0.028,-0.01 0.0982,-0.005 0.10892,-0.0156 0.0139,-0.0137 -0.004,-0.0729 0,-0.0938 0.0213,-0.10276 0.17309,-0.10615 0.26454,-0.14072 0.0633,-0.0246 0.13167,-0.0762 0.20228,-0.0625 -0.0136,0.0491 -0.0743,0.0347 -0.0621,0.0938 0.0158,0.0828 0.11109,-0.0195 0.14006,-0.0313 0.055,-0.0237 0.16098,-0.0362 0.2334,-0.0625 0.0633,-0.0227 0.16868,-0.0671 0.10894,-0.14072 -0.0494,-0.004 -0.0657,0.0443 -0.10894,0.0625 -0.0298,0.005 -0.0372,-0.0138 -0.0621,-0.0156 -0.024,-10e-4 -0.0381,0.0202 -0.0621,0.0156 -0.0241,-0.005 -0.0585,-0.0491 -0.0622,-0.0782 -0.0103,-0.0764 0.0778,-0.1 0.10894,-0.15635 -0.0204,-0.0691 -0.11326,-0.004 -0.17119,-0.0313 0.006,-0.0409 0.0298,-0.0856 0.0778,-0.0938 0.0392,-0.006 0.13208,0.0124 0.15559,0.0313 0.0138,0.0118 -0.005,0.0434 0.0156,0.0625 0.0232,0.0209 0.0625,0.005 0.0933,0 0.0112,-0.0518 -0.0715,-0.0289 -0.0621,-0.0625 0.0614,-0.04 0.17383,-0.0213 0.24898,-0.0313 0.0438,-0.006 0.0855,-0.0416 0.12449,-0.0625 0.0365,-0.0209 0.0711,-0.0502 0.10893,-0.0156 0.0112,0.0373 -0.0259,0.0591 -0.0463,0.0782 -0.07,0.0618 -0.13242,0.13143 -0.18672,0.20327 0.0335,0.0328 0.0835,0.009 0.14002,0.0156 0.0214,0.002 0.0552,0.012 0.0776,0.0156 0.0271,0.005 0.056,-0.005 0.0778,0 0.0383,0.009 0.0401,0.0625 0.0778,0.0625 0.0615,0 0.0667,-0.052 0.0311,-0.0938 0.0112,-0.0428 0.031,-0.0794 0.0158,-0.10945 -0.028,-0.0564 -0.13463,0.009 -0.14006,-0.0625 -0.004,-0.0455 0.046,-0.0593 0.0621,-0.0938 -0.007,-0.0873 0.0715,-0.0929 0.0621,-0.17199 -0.005,-0.0328 -0.0399,-0.0317 -0.0621,-0.0625 -0.0121,-0.0164 -0.0176,-0.0507 -0.0311,-0.0625 -0.0469,-0.04 -0.13461,-0.0331 -0.14004,-0.10945 -0.002,-0.0455 0.006,-0.076 0,-0.12508 -0.006,-0.0464 -0.0532,-0.17854 -0.0933,-0.18763 -0.0503,-0.0109 -0.0792,0.0813 -0.14007,0.10945 -0.0325,0.0155 -0.0909,0.022 -0.12448,0.0156 -0.0214,-0.005 -0.0595,-0.0207 -0.0621,-0.0625 -0.002,-0.0241 0.006,-0.0326 0.0157,-0.0469 0.002,-0.003 -0.002,-0.0121 0,-0.0156 0.39388,-0.11374 0.81461,-0.17199 1.24491,-0.17199 z m -1.85175,0.40653 c -0.0446,0.14215 -0.17211,0.2233 -0.34242,0.2189 -0.0419,0.04 -0.0237,0.11651 -0.0465,0.17199 -0.0187,0.0464 -0.0783,0.0818 -0.12448,0.0782 -0.0335,-0.003 -0.0933,-0.0463 -0.0933,-0.0782 0,-0.0261 0.0251,-0.0556 0.0311,-0.0782 0.18319,-0.11906 0.37533,-0.22111 0.57569,-0.31271 z m 3.81242,0.15636 c -0.0171,0.003 -0.032,0.007 -0.0466,0.0156 -0.0345,0.0209 -0.0363,0.0525 -0.0621,0.0625 -0.0374,0.0137 -0.0879,0.0133 -0.0933,0.0469 -0.005,0.0282 0.032,0.0371 0.0311,0.0625 -0.0138,0.0337 -0.0397,0.0372 -0.0467,0.0782 0.0464,0.0755 0.16082,10e-4 0.21787,-0.0156 0.0254,-0.007 0.0483,0.004 0.0621,-0.0156 0.0157,-0.0246 0.004,-0.0749 0.016,-0.10945 0.013,-0.0382 0.0509,-0.0289 0.0466,-0.0625 -0.004,-0.0337 -0.0686,-0.068 -0.12451,-0.0625 z m -4.93283,0.57852 c 0.0332,0.0403 0.0609,0.0987 0,0.12508 -0.009,0.005 -0.11835,0.0202 -0.14009,0.0156 -0.007,-10e-4 -0.0103,-0.0114 -0.0159,-0.0156 0.0475,-0.0464 0.10605,-0.0808 0.15566,-0.12508 z m 0.12441,0.15636 c 0.0214,10e-4 0.0372,0.0451 0.0622,0.0469 0.0245,0.002 0.0632,-0.0202 0.0781,-0.0156 0.0383,0.01 0.0515,0.0812 0.0162,0.10945 -0.0298,0.003 -0.0408,-0.0358 -0.0621,-0.0313 -0.0615,0.0109 -0.0783,0.12872 -0.12449,0.12508 -0.0436,-0.005 -0.0758,-0.0933 -0.0311,-0.12508 9.4e-4,-0.0273 -0.0175,-0.0352 -0.0158,-0.0625 0.0139,-0.0173 0.0419,-0.0496 0.0776,-0.0469 z m -0.20223,0.0313 c 0.0131,0 0.0114,-0.005 0.0157,0 -0.006,0.0482 -0.0251,0.0554 -0.0621,0.0782 -0.0641,0.0391 -0.10369,0.0883 -0.12451,0.17199 -0.006,0.0246 -0.0782,0.10017 -0.10893,0.0938 -0.0718,-0.0155 0.0303,-0.15108 0.0467,-0.17199 0.0182,-0.0228 0.0417,-0.037 0.0621,-0.0625 0.0204,-0.0255 0.0268,-0.0793 0.0467,-0.0938 0.0213,-0.0155 0.0864,-0.0175 0.1245,-0.0156 z m 6.13105,0.12508 c 0.0718,-0.005 0.10744,0.0814 0.14008,0.12509 0.0271,0.0355 0.11125,0.0849 0.15554,0.10945 0.0251,0.0137 0.0494,0.0342 0.0776,0.0469 0.0294,0.0132 0.0745,0.0305 0.10897,0.0625 0.0351,0.0321 0.0608,0.0804 0.0621,0.10945 9.4e-4,0.0291 -0.0197,0.0509 -0.0151,0.0782 0.0313,0.005 0.0472,-0.027 0.0621,-0.0625 0.11735,0.16818 0.2172,0.34766 0.31115,0.53162 -0.0187,0.0118 -0.0272,0.0235 -0.0311,0.0469 -0.009,0.0509 0.0293,0.11599 -0.0467,0.12508 -0.0476,0.006 -0.10503,-0.048 -0.17109,-0.0625 -0.0271,-0.006 -0.0719,0.007 -0.0933,0 -0.0494,-0.0173 -0.0355,-0.0794 -0.0779,-0.10945 -0.0247,-0.0173 -0.0855,-0.0424 -0.12452,-0.0469 -0.0245,-0.003 -0.0372,0.004 -0.0621,0 -0.0307,-0.004 -0.0832,-1.8e-4 -0.10894,-0.0156 -0.0242,-0.0155 -0.0869,-0.0416 -0.0933,-0.0625 -0.0103,-0.0337 0.0762,-0.0813 0.0778,-0.10946 0.002,-0.0218 -0.0265,-0.0298 -0.0311,-0.0625 -0.004,-0.02 0.005,-0.0498 0,-0.0625 -0.006,-0.0237 -0.041,-0.046 -0.0781,-0.0469 -0.0326,0 -0.0654,0.0156 -0.0933,0.0156 -0.0401,10e-4 -0.12141,-0.0202 -0.17121,-0.0156 -0.0298,0.003 -0.0494,0.0138 -0.0778,0.0156 -0.0784,0.006 -0.12515,-0.005 -0.18673,0 -0.0444,0.003 -0.12951,0.0279 -0.17121,0.0469 -0.0204,0.01 -0.0351,0.0333 -0.0621,0.0469 -0.0129,0.006 -0.0303,0.008 -0.0466,0.0156 -0.0248,0.0118 -0.0692,0.0406 -0.0933,0.0469 -0.0355,0.009 -0.0761,-0.002 -0.14004,0 -0.0463,0.003 -0.12358,-0.007 -0.12451,-0.0625 -9.5e-4,-0.0846 0.15371,-0.048 0.23343,-0.0625 0.0298,-0.006 0.0419,-0.0416 0.0776,-0.0625 0.0171,-0.01 0.0303,-0.0204 0.0466,-0.0313 0.0271,-0.0191 0.0735,-0.0563 0.0781,-0.0782 0.004,-0.02 -0.0179,-0.048 -0.016,-0.0625 0.003,-0.0191 0.0381,-0.038 0.0621,-0.0625 0.0383,-0.0382 0.0617,-0.0849 0.10894,-0.10945 0.0316,-0.0173 0.0944,-0.0215 0.10894,-0.0469 0.004,-0.0291 -9.4e-4,-0.0362 0,-0.0625 0.0195,-0.0182 0.0149,-0.0277 0.0311,-0.0313 0.0485,-0.0109 0.0988,0.0184 0.15554,0.0156 0.0242,-10e-4 0.0512,0.002 0.0778,-0.0156 0.0213,-0.0146 0.0408,-0.036 0.0621,-0.0469 0.0232,-0.0128 0.0486,-0.0451 0.0778,-0.0469 z m -5.71092,0.0469 c 0.0124,-0.002 0.0321,10e-4 0.0466,0 0.0204,-0.001 0.0399,0 0.0621,0 0.0223,0 0.0528,-0.009 0.0621,0 -0.0148,0.06 -0.15525,0.0375 -0.20233,0.0156 9.4e-4,-0.0114 0.0187,-0.0137 0.0311,-0.0156 z m -0.1712,0.10945 c 0.0156,0 0.0303,-0.006 0.0467,0 -0.0419,0.0355 -0.0989,0.0554 -0.1711,0.0782 -0.0347,0.0109 -0.0869,0.0226 -0.0933,-0.0156 -0.007,-0.0473 0.0314,-0.0424 0.0621,-0.0469 0.0401,-0.005 0.10935,-0.0147 0.15554,-0.0156 z m 5.8977,0 c -0.0298,0.01 -0.0448,0.07 0,0.0782 0.0204,-0.0127 0.0206,-0.04 0.0158,-0.0782 -0.0121,-0.0127 -0.007,-0.004 -0.0158,0 z m -0.0158,0.12508 c -0.0149,0.005 -0.0313,-10e-4 -0.0467,0.0156 9.4e-4,0.0509 0.0103,0.0805 0,0.12509 0.0289,0.0564 0.0947,0.0226 0.10897,-0.0156 0.0169,-0.0946 -0.0185,-0.13691 -0.0621,-0.12509 z m 0.38902,0.25017 c -0.0401,-0.002 -0.0701,0.0124 -0.0933,0.0313 0.0335,0.0546 0.0962,0.0645 0.17119,0.0782 0.0271,-0.02 0.0182,-0.0749 0.0311,-0.10945 -0.0326,0 -0.0532,0.002 -0.0933,0 z m -7.90497,1.9232 c 0.0318,0.0407 0.0664,0.0882 0.10884,0.10945 0.0223,0.0118 0.049,0.009 0.0779,0.0156 0.0232,0.005 0.0399,0.024 0.0621,0.0313 0.0481,0.0164 0.11759,0.014 0.15563,0.0313 0.0578,0.0255 0.0902,0.12725 0.14008,0.15635 0.002,0.0291 -0.009,0.0564 0,0.0782 0.0232,0.0318 0.0711,0.0416 0.10886,0.0625 0.0461,0.0255 0.0656,0.0895 0.10892,0.10945 0.0158,0.006 0.039,-0.007 0.0621,0 0.0596,0.0182 0.0731,0.10927 0.1245,0.0938 0.0335,-0.01 0.0416,-0.0611 0.0467,-0.0938 0.0223,-0.0246 0.0428,-0.0625 0.0778,-0.0625 0.0561,-10e-4 0.0728,0.0696 0.0933,0.12509 0.0121,0.0309 0.0388,0.0611 0.0466,0.0938 0.0139,0.0564 0.0121,0.21653 0,0.25017 -0.0145,0.0418 -0.0747,0.064 -0.10889,0.10945 -0.0161,0.0218 -0.034,0.048 -0.0465,0.0625 -0.0213,0.0273 -0.0463,0.038 -0.0621,0.0625 -0.009,0.0137 -0.007,0.0434 -0.016,0.0625 -0.0271,0.0582 -0.0696,0.10197 -0.0467,0.172 0.009,0.0282 0.0467,0.0602 0.0467,0.0938 0,0.04 -0.0869,0.0502 -0.0933,0.0938 -0.005,0.0318 0.037,0.098 0.0465,0.14072 0.007,0.0318 0.0587,0.0573 0.0778,0.0782 0.0316,0.0355 0.0647,0.0796 0.0933,0.12508 0.0569,0.0882 0.0835,0.19505 0.14001,0.28145 0.0298,0.0446 0.0889,0.0778 0.10896,0.12508 0.0103,0.0237 -0.009,0.072 0,0.0938 0.0325,0.0737 0.19118,0.15125 0.26453,0.18763 0.0344,0.0173 0.0616,0.0287 0.0933,0.0469 0.0478,0.0273 0.14681,0.0823 0.1712,0.12508 0.0214,0.0382 0.0361,0.12671 0.0468,0.18763 0.0138,0.08 -0.004,0.14814 0,0.23454 0.003,0.0473 0.0159,0.0778 0.0159,0.12509 0,0.0164 9.4e-4,0.0462 0,0.0625 -9.4e-4,0.0564 0.004,0.1147 0,0.17199 -0.003,0.0309 -0.002,0.0674 0,0.0938 0.002,0.0282 0.0293,0.038 0.0311,0.0625 0.002,0.0264 -0.0339,0.0573 -0.0311,0.0782 0.006,0.0573 0.0672,0.10361 0.0778,0.15636 0.009,0.0418 0.0206,0.1376 0.016,0.18762 -0.004,0.0264 -0.0123,0.0647 -0.016,0.0938 -0.002,0.0228 0.004,0.0416 0,0.0625 -1.24078,-0.80082 -2.06962,-2.19203 -2.06962,-3.78385 0,-0.20408 0.0202,-0.39728 0.0465,-0.59416 z m 1.71164,0.45344 c 0.0438,-0.02 0.0356,0.0571 0,0.0625 -0.0335,0.004 -0.0325,-0.047 0,-0.0625 z" />
  </g>
</svg>
