<?xml version="1.0" encoding="UTF-8" standalone="no"?>
<svg
   xmlns:dc="http://purl.org/dc/elements/1.1/"
   xmlns:cc="http://creativecommons.org/ns#"
   xmlns:rdf="http://www.w3.org/1999/02/22-rdf-syntax-ns#"
   xmlns:svg="http://www.w3.org/2000/svg"
   xmlns="http://www.w3.org/2000/svg"
   xmlns:xlink="http://www.w3.org/1999/xlink"
   xmlns:sodipodi="http://sodipodi.sourceforge.net/DTD/sodipodi-0.dtd"
   xmlns:inkscape="http://www.inkscape.org/namespaces/inkscape"
   width="32"
   version="1.1"
   height="32"
   viewBox="0 0 32 32"
   id="svg17"
   sodipodi:docname="folder-music.svg"
   inkscape:version="1.0.2 (e86c870879, 2021-01-15)">
  <sodipodi:namedview
     pagecolor="#ffffff"
     bordercolor="#666666"
     borderopacity="1"
     objecttolerance="10"
     gridtolerance="10"
     guidetolerance="10"
     inkscape:pageopacity="0"
     inkscape:pageshadow="2"
     inkscape:window-width="1920"
     inkscape:window-height="1007"
     id="namedview19"
     showgrid="false"
     inkscape:zoom="9.8125"
     inkscape:cx="-8.2399953"
     inkscape:cy="7.2106721"
     inkscape:window-x="0"
     inkscape:window-y="0"
     inkscape:window-maximized="1"
     inkscape:current-layer="layer1"
     inkscape:document-rotation="0" />
  <defs
     id="defs5455">
    <linearGradient
       inkscape:collect="always"
       xlink:href="#linearGradient847-6"
       id="linearGradient859-3"
       x1="226.65903"
       y1="265.05457"
       x2="512"
       y2="256.82327"
       gradientUnits="userSpaceOnUse"
       gradientTransform="matrix(0.0585938,0,0,0.06178774,385.5714,515.92948)" />
    <linearGradient
       inkscape:collect="always"
       id="linearGradient847-6">
      <stop
         style="stop-color:#8fbcbb;stop-opacity:1"
         offset="0"
         id="stop843-7" />
      <stop
         style="stop-color:#88c0d0;stop-opacity:1"
         offset="1"
         id="stop845-5" />
    </linearGradient>
    <linearGradient
       inkscape:collect="always"
       xlink:href="#linearGradient843"
       id="linearGradient845"
       x1="424.10419"
       y1="503.7821"
       x2="443.61319"
       y2="503.7821"
       gradientUnits="userSpaceOnUse"
       gradientTransform="matrix(0.48293844,0,0,0.5003442,199.36412,273.72972)" />
    <linearGradient
       inkscape:collect="always"
       id="linearGradient843">
      <stop
         style="stop-color:#434c5e;stop-opacity:1"
         offset="0"
         id="stop839" />
      <stop
         style="stop-color:#a2adbc;stop-opacity:1"
         offset="1"
         id="stop841" />
    </linearGradient>
  </defs>
  <metadata
     id="metadata5458">
    <rdf:RDF>
      <cc:Work
         rdf:about="">
        <dc:format>image/svg+xml</dc:format>
        <dc:type
           rdf:resource="http://purl.org/dc/dcmitype/StillImage" />
      </cc:Work>
    </rdf:RDF>
  </metadata>
  <g
     inkscape:label="Capa 1"
     inkscape:groupmode="layer"
     id="layer1"
     transform="translate(-384.57143,-515.798)">
    <path
       style="fill:#81a1c1;fill-opacity:1;stroke-width:0.06017"
       d="m 401.36767,522.2832 c 0.48398,0.50451 1.13726,0.78742 1.81793,0.78742 h 1.00654 2.61418 c -0.68065,0 -1.33394,-0.28291 -1.81794,-0.78742 l -1.629,-1.6977 c -0.48427,-0.50459 -1.13737,-0.7875 -1.81791,-0.7875 h -3.62073 c 0.68055,0 1.33373,0.28291 1.81794,0.7875 z"
       id="path2-3" />
    <path
       style="fill:#5e81ac;fill-opacity:1;stroke-width:0.06017"
       d="m 396.11787,520.5855 1.62906,1.6977 c 0.48401,0.50451 1.13717,0.78742 1.81794,0.78742 h 1.00656 2.61417 c -0.68067,0 -1.33395,-0.28291 -1.81793,-0.78742 l -1.62899,-1.6977 c -0.48427,-0.50459 -1.13739,-0.7875 -1.81794,-0.7875 h -3.55621 -0.0647 c 0.6807,0 1.33378,0.28297 1.81788,0.7875 z"
       id="path4-5" />
    <path
       style="fill:url(#linearGradient859-3);fill-opacity:1;stroke-width:0.0564453"
       d="m 414.01966,522.67802 h -6.20691 -1.00657 -2.61417 -1.00653 -2.61405 -1.00656 c -0.68077,0 -1.33393,-0.24898 -1.81794,-0.693 l -1.62906,-1.49403 c -0.4842,-0.44402 -1.13728,-0.69299 -1.81794,-0.69299 h -3.55608 -3.62064 c -0.85706,0 -1.55178,0.6447 -1.55178,1.44001 v 2.88001 0.48002 17.75995 c 0,0.79531 0.69472,1.44001 1.55178,1.44001 h 26.89645 c 0.85706,0 1.55177,-0.6447 1.55177,-1.44001 v -18.23997 c 0,-0.79537 -0.69471,-1.44 -1.55177,-1.44 z m -10.88653,2.92929 0.004,-0.003 -0.004,-0.005 v 0 l 0.004,0.005 v 0 l -0.004,0.003 0.001,-0.008 z m 10.36944,0.43068 c 0,0.53015 -0.46319,0.95999 -1.03464,0.95999 h -7.24136 c -0.5713,0 -1.0345,-0.42984 -1.0345,-0.95999 v -0.48001 c 0,-0.53015 0.4632,-0.95999 1.0345,-0.95999 h 7.24136 c 0.57139,0 1.03458,0.42984 1.03458,0.95999 v 0.48001 z"
       id="path6-6"
       sodipodi:nodetypes="scccccsccscssccssssssccccccccccssssssscc" />
    <path
       style="fill:url(#linearGradient845);fill-opacity:1;stroke-width:0.06017"
       d="m 412.46793,524.43061 h -7.24136 c -0.5713,0 -1.04619,0.48838 -1.04619,1.09082 v 0.5455 c 0,0.60243 0.47489,1.09082 1.04619,1.09082 h 7.24136 c 0.57139,0 1.10948,-0.48855 1.12236,-1.09082 l 0.0122,-0.5455 c 5e-5,-0.60244 -0.5626,-1.09082 -1.1341,-1.09082 z"
       id="path8-2"
       sodipodi:nodetypes="ssssssscs" />
    <path
       style="fill:#434c5e;fill-opacity:1;stroke-width:0.491564"
       id="rect4128-3-9"
       d="m 392.09113,529.80488 v 1.00069 1.00069 0.50034 4.89106 c -0.25644,-0.23874 -0.59248,-0.38796 -0.96587,-0.38796 -0.80272,0 -1.4488,0.66947 -1.4488,1.50104 0,0.83157 0.64608,1.50103 1.4488,1.50103 0.80259,0 1.4488,-0.66946 1.4488,-1.50103 v -6.00414 h 6.27817 v 3.39003 c -0.25632,-0.23875 -0.59236,-0.38796 -0.96587,-0.38796 -0.80259,0 -1.44882,0.66947 -1.44882,1.50103 0,0.83157 0.64623,1.50104 1.44882,1.50104 0.80257,0 1.44881,-0.66947 1.44881,-1.50104 v -7.00482 z m 0.48293,1.00069 h 6.27817 v 1.00069 h -6.27817 z" />
  </g>
</svg>
