<?xml version="1.0" encoding="UTF-8" standalone="no"?>
<svg
   xmlns:dc="http://purl.org/dc/elements/1.1/"
   xmlns:cc="http://creativecommons.org/ns#"
   xmlns:rdf="http://www.w3.org/1999/02/22-rdf-syntax-ns#"
   xmlns:svg="http://www.w3.org/2000/svg"
   xmlns="http://www.w3.org/2000/svg"
   xmlns:xlink="http://www.w3.org/1999/xlink"
   xmlns:sodipodi="http://sodipodi.sourceforge.net/DTD/sodipodi-0.dtd"
   xmlns:inkscape="http://www.inkscape.org/namespaces/inkscape"
   width="32"
   version="1.1"
   height="32"
   viewBox="0 0 32 32"
   id="svg17"
   sodipodi:docname="folder-bookmark.svg"
   inkscape:version="1.0.2 (e86c870879, 2021-01-15)">
  <sodipodi:namedview
     pagecolor="#ffffff"
     bordercolor="#666666"
     borderopacity="1"
     objecttolerance="10"
     gridtolerance="10"
     guidetolerance="10"
     inkscape:pageopacity="0"
     inkscape:pageshadow="2"
     inkscape:window-width="1920"
     inkscape:window-height="1007"
     id="namedview19"
     showgrid="false"
     inkscape:zoom="9.8125"
     inkscape:cx="-26.362815"
     inkscape:cy="7.9098511"
     inkscape:window-x="0"
     inkscape:window-y="0"
     inkscape:window-maximized="1"
     inkscape:current-layer="layer1"
     inkscape:document-rotation="0" />
  <defs
     id="defs5455">
    <linearGradient
       inkscape:collect="always"
       xlink:href="#linearGradient847-6"
       id="linearGradient859-3"
       x1="239.02216"
       y1="240.76118"
       x2="506.49121"
       y2="240.76118"
       gradientUnits="userSpaceOnUse"
       gradientTransform="matrix(0.0585938,0,0,0.05963834,385.57144,516.06408)" />
    <linearGradient
       inkscape:collect="always"
       id="linearGradient847-6">
      <stop
         style="stop-color:#8fbcbb;stop-opacity:1"
         offset="0"
         id="stop843-7" />
      <stop
         style="stop-color:#88c0d0;stop-opacity:1"
         offset="1"
         id="stop845-5" />
    </linearGradient>
    <linearGradient
       inkscape:collect="always"
       xlink:href="#linearGradient885-5"
       id="linearGradient862-3"
       x1="476.689"
       y1="163.60085"
       x2="319.6994"
       y2="162.04736"
       gradientUnits="userSpaceOnUse"
       gradientTransform="matrix(0.0585938,0,0,0.05963834,385.57144,516.06408)" />
    <linearGradient
       inkscape:collect="always"
       id="linearGradient885-5">
      <stop
         style="stop-color:#a5acc0;stop-opacity:1"
         offset="0"
         id="stop881-6" />
      <stop
         style="stop-color:#434c5e;stop-opacity:1"
         offset="1"
         id="stop883-2" />
    </linearGradient>
  </defs>
  <metadata
     id="metadata5458">
    <rdf:RDF>
      <cc:Work
         rdf:about="">
        <dc:format>image/svg+xml</dc:format>
        <dc:type
           rdf:resource="http://purl.org/dc/dcmitype/StillImage" />
      </cc:Work>
    </rdf:RDF>
  </metadata>
  <g
     inkscape:label="Capa 1"
     inkscape:groupmode="layer"
     id="layer1"
     transform="translate(-384.57143,-515.798)">
    <path
       style="fill:#81a1c1;fill-opacity:1;stroke-width:0.0591144"
       d="m 401.36765,522.1967 c 0.484,0.487 1.13728,0.76007 1.81794,0.76007 h 1.00655 2.61417 c -0.68066,0 -1.33392,-0.27307 -1.81795,-0.76007 l -1.629,-1.63856 c -0.48425,-0.48707 -1.13736,-0.76014 -1.81791,-0.76014 h -3.62073 c 0.68055,0 1.33375,0.27307 1.81794,0.76014 z"
       id="path2-9" />
    <path
       style="fill:#5e81ac;fill-opacity:1;stroke-width:0.0591144"
       d="m 396.11785,520.55814 1.62908,1.63856 c 0.48401,0.487 1.13719,0.76007 1.81793,0.76007 h 1.00658 2.61416 c -0.68067,0 -1.33394,-0.27307 -1.81795,-0.76007 l -1.62899,-1.63856 c -0.48425,-0.48707 -1.13739,-0.76014 -1.81793,-0.76014 h -3.5562 -0.0647 c 0.68066,0 1.33376,0.27313 1.81789,0.76014 z"
       id="path4-1" />
    <path
       style="fill:url(#linearGradient859-3);fill-opacity:1;stroke-width:0.0554551"
       d="m 414.01966,522.57779 h -6.2069 -1.00658 -2.61417 -1.00654 -2.61404 -1.00658 c -0.68073,0 -1.33391,-0.24029 -1.81792,-0.66888 l -1.62908,-1.44203 c -0.48418,-0.42856 -1.13728,-0.66888 -1.81793,-0.66888 h -3.55607 -3.62064 c -0.85704,0 -1.55178,0.62231 -1.55178,1.38995 v 2.77978 0.46336 17.14213 c 0,0.76763 0.69474,1.38985 1.55178,1.38985 h 26.89645 c 0.85704,0 1.55177,-0.62222 1.55177,-1.38985 v -17.60549 c 0,-0.7677 -0.69473,-1.38994 -1.55177,-1.38994 z m -10.88652,2.82743 0.004,-0.003 -0.003,-0.005 v 0 l 0.003,0.005 v 0 l -0.004,0.003 10e-4,-0.008 z m 10.36942,0.41567 c 0,0.51176 -0.46317,0.92661 -1.0346,0.92661 h -7.24136 c -0.57135,0 -1.03452,-0.41485 -1.03452,-0.92661 v -0.46327 c 0,-0.51176 0.46317,-0.92658 1.03452,-0.92658 h 7.24133 c 0.5714,0 1.03456,0.41482 1.03456,0.92658 v 0.46327 z"
       id="path6-2"
       sodipodi:nodetypes="scccccsccscssccssssssccccccccccssssssscc" />
    <path
       style="fill:url(#linearGradient862-3);fill-opacity:1;stroke-width:0.0591144"
       d="m 412.46793,524.2695 h -7.24134 c -0.57134,0 -1.0462,0.4713 -1.0462,1.05286 v 0.52648 c 0,0.58146 0.47486,1.05287 1.0462,1.05287 h 7.24134 c 0.57139,0 1.10946,-0.47157 1.12238,-1.05287 l 0.0121,-0.52648 c 6e-5,-0.58156 -0.56264,-1.05286 -1.13412,-1.05286 z"
       id="path8-7"
       sodipodi:nodetypes="ssssssscs" />
    <path
       inkscape:connector-curvature="0"
       style="color:#000000;fill:#434c5e;fill-opacity:1;stroke-width:0.965875"
       id="path3023-3-7-0"
       d="m 389.67644,529.69825 v 0.60369 c 0,2.85734 0,5.71476 0,8.5721 v 0.48294 l 3.38056,-1.44881 3.38054,1.44881 v -0.48294 c 0,-2.85734 0,-5.71476 0,-8.5721 v -0.60369 z m 0.48293,0.48294 h 5.79525 v 8.48162 l -2.89762,-1.23758 -2.89763,1.23758 z" />
  </g>
</svg>
