<?xml version="1.0" encoding="UTF-8" standalone="no"?>
<svg
   xmlns:dc="http://purl.org/dc/elements/1.1/"
   xmlns:cc="http://creativecommons.org/ns#"
   xmlns:rdf="http://www.w3.org/1999/02/22-rdf-syntax-ns#"
   xmlns:svg="http://www.w3.org/2000/svg"
   xmlns="http://www.w3.org/2000/svg"
   xmlns:xlink="http://www.w3.org/1999/xlink"
   xmlns:sodipodi="http://sodipodi.sourceforge.net/DTD/sodipodi-0.dtd"
   xmlns:inkscape="http://www.inkscape.org/namespaces/inkscape"
   width="32"
   version="1.1"
   height="32"
   viewBox="0 0 32 32"
   id="svg15"
   sodipodi:docname="folder-KDE.svg"
   inkscape:version="1.0.2 (e86c870879, 2021-01-15)">
  <sodipodi:namedview
     pagecolor="#ffffff"
     bordercolor="#666666"
     borderopacity="1"
     objecttolerance="10"
     gridtolerance="10"
     guidetolerance="10"
     inkscape:pageopacity="0"
     inkscape:pageshadow="2"
     inkscape:window-width="1920"
     inkscape:window-height="1007"
     id="namedview17"
     showgrid="false"
     inkscape:zoom="9.8125"
     inkscape:cx="-12.999029"
     inkscape:cy="2.3904373"
     inkscape:window-x="0"
     inkscape:window-y="0"
     inkscape:window-maximized="1"
     inkscape:current-layer="layer1"
     inkscape:document-rotation="0" />
  <defs
     id="defs5455">
    <linearGradient
       inkscape:collect="always"
       xlink:href="#linearGradient847-3"
       id="linearGradient859"
       x1="247.26439"
       y1="248.85898"
       x2="512"
       y2="256.82327"
       gradientUnits="userSpaceOnUse"
       gradientTransform="matrix(0.0585938,0,0,0.06178774,385.57143,515.92949)" />
    <linearGradient
       inkscape:collect="always"
       id="linearGradient847-3">
      <stop
         style="stop-color:#8fbcbb;stop-opacity:1"
         offset="0"
         id="stop843-6" />
      <stop
         style="stop-color:#88c0d0;stop-opacity:1"
         offset="1"
         id="stop845-7" />
    </linearGradient>
    <linearGradient
       inkscape:collect="always"
       xlink:href="#linearGradient885-5"
       id="linearGradient862"
       x1="476.689"
       y1="163.60085"
       x2="319.6994"
       y2="162.04736"
       gradientUnits="userSpaceOnUse"
       gradientTransform="matrix(0.0585938,0,0,0.06178774,385.57143,515.92949)" />
    <linearGradient
       inkscape:collect="always"
       id="linearGradient885-5">
      <stop
         style="stop-color:#a6aebf;stop-opacity:1"
         offset="0"
         id="stop881-3" />
      <stop
         style="stop-color:#434c5e;stop-opacity:1"
         offset="1"
         id="stop883-5" />
    </linearGradient>
  </defs>
  <metadata
     id="metadata5458">
    <rdf:RDF>
      <cc:Work
         rdf:about="">
        <dc:format>image/svg+xml</dc:format>
        <dc:type
           rdf:resource="http://purl.org/dc/dcmitype/StillImage" />
      </cc:Work>
    </rdf:RDF>
  </metadata>
  <g
     inkscape:label="Capa 1"
     inkscape:groupmode="layer"
     id="layer1"
     transform="translate(-384.57143,-515.798)">
    <path
       style="fill:#81a1c1;fill-opacity:1;stroke-width:0.0601699"
       d="m 401.36765,522.2832 c 0.484,0.50451 1.13728,0.78742 1.81794,0.78742 h 1.00655 2.61417 c -0.68066,0 -1.33392,-0.28291 -1.81795,-0.78742 l -1.629,-1.6977 c -0.48425,-0.50459 -1.13736,-0.7875 -1.81791,-0.7875 h -3.62073 c 0.68055,0 1.33375,0.28291 1.81794,0.7875 z"
       id="path2" />
    <path
       style="fill:#5e81ac;fill-opacity:1;stroke-width:0.0601699"
       d="m 396.11785,520.5855 1.62908,1.6977 c 0.48401,0.50451 1.13719,0.78742 1.81792,0.78742 h 1.00658 2.61416 c -0.68066,0 -1.33394,-0.28291 -1.81794,-0.78742 l -1.62899,-1.6977 c -0.48425,-0.50459 -1.13739,-0.7875 -1.81794,-0.7875 h -3.55619 -0.0647 c 0.68066,0 1.33376,0.28297 1.81789,0.7875 z"
       id="path4" />
    <path
       style="fill:url(#linearGradient859);fill-opacity:1;stroke-width:0.0564454"
       d="m 414.01966,522.67802 h -6.20691 -1.00657 -2.61417 -1.00654 -2.61404 -1.00658 c -0.68073,0 -1.33391,-0.24898 -1.81792,-0.693 l -1.62908,-1.49403 c -0.48418,-0.44402 -1.13728,-0.69299 -1.81793,-0.69299 h -3.55607 -3.62064 c -0.85704,0 -1.55178,0.6447 -1.55178,1.44001 v 2.88001 0.48002 17.75995 c 0,0.79531 0.69474,1.44001 1.55178,1.44001 h 26.89645 c 0.85704,0 1.55177,-0.6447 1.55177,-1.44001 v -18.23997 c 0,-0.79537 -0.69473,-1.44 -1.55177,-1.44 z m -10.88653,2.92929 0.004,-0.003 -0.003,-0.005 v 0 l 0.003,0.005 v 0 l -0.004,0.003 0.001,-0.008 z m 10.36942,0.43068 c 0,0.53015 -0.46317,0.95999 -1.0346,0.95999 h -7.24136 c -0.57134,0 -1.03452,-0.42984 -1.03452,-0.95999 v -0.48001 c 0,-0.53015 0.46318,-0.95999 1.03452,-0.95999 h 7.24134 c 0.57139,0 1.03456,0.42984 1.03456,0.95999 v 0.48001 z"
       id="path6"
       sodipodi:nodetypes="scccccsccscssccssssssccccccccccssssssscc" />
    <path
       style="fill:url(#linearGradient862);fill-opacity:1;stroke-width:0.0601699"
       d="m 412.46793,524.43061 h -7.24134 c -0.57134,0 -1.04621,0.48838 -1.04621,1.09082 v 0.5455 c 0,0.60243 0.47487,1.09082 1.04621,1.09082 h 7.24134 c 0.57139,0 1.10946,-0.48855 1.12238,-1.09082 l 0.0121,-0.5455 c 6e-5,-0.60244 -0.56263,-1.09082 -1.13412,-1.09082 z"
       id="path8"
       sodipodi:nodetypes="ssssssscs" />
    <path
       style="color:#d3dae3;fill:#434c5e;fill-opacity:1;stroke-width:0.469331"
       d="m 395.22311,530.05506 -1.84899,0.28854 v 6.89489 l 1.84899,-0.51191 v -2.66377 l 1.84887,3.14031 1.84896,-0.71482 -2.3111,-2.85921 2.31202,-3.09657 -1.79385,-0.47746 -1.9049,3.12541 z m -3.76468,1.86984 c -0.0441,0 -0.0874,0.0174 -0.12101,0.0521 l -0.7268,0.74927 c -0.0673,0.0691 -0.0506,0.16788 0,0.25036 l 0.75213,1.21741 c -0.0556,0.11925 -0.10403,0.24203 -0.14448,0.36766 -0.002,0.005 -0.005,0.0104 -0.006,0.0156 l -1.36421,0.31271 c -0.0926,0.0213 -0.17144,0.0791 -0.17144,0.17687 v 0.46816 0.46814 c 0,0.0978 0.0786,0.15562 0.17144,0.17683 l 1.36421,0.31275 c 0.003,0.009 0.008,0.0177 0.0113,0.0268 0.0397,0.12202 0.086,0.24139 0.13991,0.35742 l -0.75203,1.21646 c -0.0506,0.0825 -0.0673,0.18124 0,0.25037 l 0.7268,0.74923 c 0.0673,0.0691 0.17483,0.0691 0.2419,0 l 1.17907,-0.77436 c 0.11587,0.0581 0.23536,0.10849 0.35752,0.15075 0.008,0.003 0.0159,0.007 0.0234,0.0103 l 0.30243,1.40543 c 0,0.0978 0.0769,0.17683 0.17155,0.17683 h 1.02648 c 0.0951,0 0.15101,-0.0814 0.17157,-0.17683 l 0.30241,-1.44823 c 0.13899,-0.0539 0.27386,-0.11826 0.4035,-0.19269 l 1.15115,0.84884 c 0.0673,0.0691 0.17481,0.0691 0.24191,0 l 0.72678,-0.74923 c 0.0673,-0.0691 0.0507,-0.16788 0,-0.25037 l -0.43785,-0.68502 -0.046,0.0176 c -0.1041,0.0403 -0.22131,-0.002 -0.27897,-0.0996 l -0.46038,-0.78181 c -0.38371,0.94601 -1.28969,1.6111 -2.34639,1.6111 -1.40408,0 -2.54235,-1.17345 -2.54235,-2.62095 0,-1.11077 0.67153,-2.05788 1.61785,-2.43946 v -0.52216 l -0.004,0.0166 c -0.0106,0.004 -0.0193,0.009 -0.0298,0.0132 -0.12059,0.0413 -0.2384,0.0904 -0.35295,0.14705 l -1.17733,-0.77345 c -0.0338,-0.0347 -0.0768,-0.0521 -0.12093,-0.0521 z"
       class="ColorScheme-Text"
       id="path10-7-6" />
  </g>
</svg>
