<?xml version="1.0" encoding="UTF-8" standalone="no"?>
<svg
   xmlns:dc="http://purl.org/dc/elements/1.1/"
   xmlns:cc="http://creativecommons.org/ns#"
   xmlns:rdf="http://www.w3.org/1999/02/22-rdf-syntax-ns#"
   xmlns:svg="http://www.w3.org/2000/svg"
   xmlns="http://www.w3.org/2000/svg"
   xmlns:xlink="http://www.w3.org/1999/xlink"
   xmlns:sodipodi="http://sodipodi.sourceforge.net/DTD/sodipodi-0.dtd"
   xmlns:inkscape="http://www.inkscape.org/namespaces/inkscape"
   width="32"
   version="1.1"
   height="32"
   viewBox="0 0 32 32"
   id="svg17"
   sodipodi:docname="folder-download.svg"
   inkscape:version="1.0.2 (e86c870879, 2021-01-15)">
  <sodipodi:namedview
     pagecolor="#ffffff"
     bordercolor="#666666"
     borderopacity="1"
     objecttolerance="10"
     gridtolerance="10"
     guidetolerance="10"
     inkscape:pageopacity="0"
     inkscape:pageshadow="2"
     inkscape:window-width="1920"
     inkscape:window-height="1007"
     id="namedview19"
     showgrid="false"
     inkscape:zoom="9.8125"
     inkscape:cx="-11.226268"
     inkscape:cy="5.0703097"
     inkscape:window-x="0"
     inkscape:window-y="0"
     inkscape:window-maximized="1"
     inkscape:current-layer="layer1"
     inkscape:document-rotation="0" />
  <defs
     id="defs5455">
    <linearGradient
       inkscape:collect="always"
       xlink:href="#linearGradient866"
       id="linearGradient868"
       x1="388.57144"
       y1="518.79797"
       x2="388.57144"
       y2="518.79797"
       gradientUnits="userSpaceOnUse"
       gradientTransform="matrix(0.48293851,0,0,0.49971751,199.36413,274.06812)" />
    <linearGradient
       inkscape:collect="always"
       id="linearGradient866">
      <stop
         style="stop-color:#4e4e7e;stop-opacity:1;"
         offset="0"
         id="stop862" />
      <stop
         style="stop-color:#4e4e7e;stop-opacity:0;"
         offset="1"
         id="stop864" />
    </linearGradient>
    <linearGradient
       inkscape:collect="always"
       xlink:href="#linearGradient847-3"
       id="linearGradient859"
       x1="181.32722"
       y1="248.85898"
       x2="511.01306"
       y2="256.95679"
       gradientUnits="userSpaceOnUse"
       gradientTransform="matrix(0.05859379,0,0,0.06171035,385.57143,515.96453)" />
    <linearGradient
       inkscape:collect="always"
       id="linearGradient847-3">
      <stop
         style="stop-color:#8fbcbb;stop-opacity:1"
         offset="0"
         id="stop843-6" />
      <stop
         style="stop-color:#88c0d0;stop-opacity:1"
         offset="1"
         id="stop845-7" />
    </linearGradient>
    <linearGradient
       inkscape:collect="always"
       xlink:href="#linearGradient850"
       id="linearGradient852"
       x1="424.10419"
       y1="503.7821"
       x2="443.61319"
       y2="503.7821"
       gradientUnits="userSpaceOnUse"
       gradientTransform="matrix(0.48293851,0,0,0.49971751,199.36413,274.06812)" />
    <linearGradient
       inkscape:collect="always"
       id="linearGradient850">
      <stop
         style="stop-color:#434c5e;stop-opacity:1;"
         offset="0"
         id="stop846" />
      <stop
         style="stop-color:#a2adbc;stop-opacity:1"
         offset="1"
         id="stop848" />
    </linearGradient>
  </defs>
  <metadata
     id="metadata5458">
    <rdf:RDF>
      <cc:Work
         rdf:about="">
        <dc:format>image/svg+xml</dc:format>
        <dc:type
           rdf:resource="http://purl.org/dc/dcmitype/StillImage" />
      </cc:Work>
    </rdf:RDF>
  </metadata>
  <g
     inkscape:label="Capa 1"
     inkscape:groupmode="layer"
     id="layer1"
     transform="translate(-384.57143,-515.798)">
    <path
       style="fill:#81a1c1;fill-opacity:1;stroke:url(#linearGradient868);stroke-width:0.0601323"
       d="m 401.36764,522.31019 c 0.48403,0.50387 1.13728,0.78642 1.81794,0.78642 h 1.00656 2.61416 c -0.68066,0 -1.33389,-0.28255 -1.81794,-0.78642 l -1.62899,-1.69562 c -0.48426,-0.50395 -1.13736,-0.7865 -1.81793,-0.7865 h -3.62073 c 0.68056,0 1.33375,0.28255 1.81794,0.7865 z"
       id="path2" />
    <path
       style="fill:#5e81ac;fill-opacity:1;stroke-width:0.0601323"
       d="m 396.11785,520.61457 1.62907,1.69562 c 0.48403,0.50387 1.1372,0.78642 1.81793,0.78642 h 1.00658 2.61415 c -0.68066,0 -1.33391,-0.28255 -1.81794,-0.78642 l -1.62899,-1.69562 c -0.48425,-0.50395 -1.13738,-0.7865 -1.81794,-0.7865 h -3.55618 -0.0647 c 0.68068,0 1.33378,0.28261 1.81791,0.7865 z"
       id="path4" />
    <path
       style="fill:url(#linearGradient859);fill-opacity:1;stroke-width:0.0564101"
       d="m 414.01967,522.70451 h -6.20691 -1.00659 -2.61415 -1.00657 -2.61402 -1.00658 c -0.68073,0 -1.3339,-0.24866 -1.81793,-0.69216 l -1.62907,-1.49218 c -0.48419,-0.44345 -1.1373,-0.6921 -1.81794,-0.6921 h -3.55606 -3.62065 c -0.85702,0 -1.55177,0.64388 -1.55177,1.43819 v 2.87643 0.47941 17.73772 c 0,0.79431 0.69475,1.43819 1.55177,1.43819 h 26.89647 c 0.85702,0 1.55176,-0.64388 1.55176,-1.43819 v -18.21713 c 0,-0.79437 -0.69474,-1.43818 -1.55176,-1.43818 z m -10.88653,2.92556 0.004,-0.002 -0.003,-0.005 v 0 l 0.003,0.005 v 0 l -0.004,0.002 9.9e-4,-0.007 z m 10.36941,0.43015 c 0,0.52947 -0.46317,0.95885 -1.03459,0.95885 h -7.24136 c -0.57136,0 -1.03452,-0.42938 -1.03452,-0.95885 v -0.47941 c 0,-0.52947 0.46316,-0.95876 1.03452,-0.95876 h 7.24132 c 0.5714,0 1.03456,0.42929 1.03456,0.95876 v 0.47941 z"
       id="path6"
       sodipodi:nodetypes="scccccsccscssccssssssccccccccccssssssscc" />
    <path
       style="fill:url(#linearGradient852);fill-opacity:1;stroke-width:0.0601323"
       d="m 412.46792,524.45488 h -7.24132 c -0.57136,0 -1.04622,0.48776 -1.04622,1.08942 v 0.54482 c 0,0.60167 0.47486,1.08953 1.04622,1.08953 h 7.24132 c 0.5714,0 1.10947,-0.48802 1.1224,-1.08953 l 0.012,-0.54482 c 6e-5,-0.60166 -0.56266,-1.08942 -1.13413,-1.08942 z"
       id="path8"
       sodipodi:nodetypes="ssssssscs" />
    <g
       transform="matrix(0.14909335,0,0,0.17262963,386.57444,361.74114)"
       id="g4">
      <path
         style="color:#004666;text-indent:0;text-transform:none;direction:ltr;baseline-shift:baseline;fill:#434c5e;fill-opacity:1;stroke-width:0.999372;enable-background:accumulate"
         d="m 42.7781,975.09999 v 3 h 15.979896 c -2e-5,-1.0855 3e-5,-1.8984 0,-3 z m 0,7 c 2e-5,1.3564 -2e-5,2.6845 0,4 h 15.979896 v -4 z m 0,8 c 2e-5,2.906 4e-5,6.07569 0,8.99999 H 30.793177 c -9e-5,0.026 19.974981,20.01042 19.974871,20.00002 L 70.742919,999.09997 H 58.757996 c 8e-5,-2.5576 -2e-5,-6.06539 0,-8.99999 z M 20.805742,1022.1 c 0,2.6667 0,5.3333 0,8 21.142602,0 41.54871,0 59.924612,0 0,-2.6667 0,-5.3333 0,-8 H 76.73538 v 4 H 24.800716 v -4 z"
         fill-opacity="1"
         stroke="none"
         marker="none"
         visibility="visible"
         display="inline"
         overflow="visible"
         id="path2-3" />
    </g>
  </g>
</svg>
