<?xml version="1.0" encoding="UTF-8" standalone="no"?>
<svg
   xmlns:dc="http://purl.org/dc/elements/1.1/"
   xmlns:cc="http://creativecommons.org/ns#"
   xmlns:rdf="http://www.w3.org/1999/02/22-rdf-syntax-ns#"
   xmlns:svg="http://www.w3.org/2000/svg"
   xmlns="http://www.w3.org/2000/svg"
   xmlns:sodipodi="http://sodipodi.sourceforge.net/DTD/sodipodi-0.dtd"
   xmlns:inkscape="http://www.inkscape.org/namespaces/inkscape"
   viewBox="0 0 16 16"
   version="1.1"
   id="svg6"
   sodipodi:docname="folder-IOTA.svg"
   inkscape:version="1.0.2 (e86c870879, 2021-01-15)">
  <metadata
     id="metadata10">
    <rdf:RDF>
      <cc:Work
         rdf:about="">
        <dc:format>image/svg+xml</dc:format>
        <dc:type
           rdf:resource="http://purl.org/dc/dcmitype/StillImage" />
      </cc:Work>
    </rdf:RDF>
  </metadata>
  <sodipodi:namedview
     pagecolor="#ffffff"
     bordercolor="#666666"
     borderopacity="1"
     objecttolerance="10"
     gridtolerance="10"
     guidetolerance="10"
     inkscape:pageopacity="0"
     inkscape:pageshadow="2"
     inkscape:window-width="1920"
     inkscape:window-height="1007"
     id="namedview8"
     showgrid="true"
     inkscape:zoom="39.25"
     inkscape:cx="8"
     inkscape:cy="8"
     inkscape:window-x="0"
     inkscape:window-y="0"
     inkscape:window-maximized="1"
     inkscape:current-layer="svg6"
     inkscape:document-rotation="0">
    <inkscape:grid
       type="xygrid"
       id="grid855" />
  </sodipodi:namedview>
  <defs
     id="defs3051">
    <style
       type="text/css"
       id="current-color-scheme">
      .ColorScheme-Text {
        color:#eff0f1;
      }
      </style>
  </defs>
  <path
     style="isolation:isolate;fill:#eff0f1;fill-opacity:1;stroke-width:0.784556"
     class="ColorScheme-Text"
     d="m 5.1756571,14.003358 c 0.2521382,-0.012 0.4814909,-0.150519 0.607098,-0.369165 0.098633,-0.170078 0.1256193,-0.371388 0.075232,-0.561046 -0.051717,-0.189707 -0.1751509,-0.351133 -0.3455754,-0.449934 -0.1704362,-0.0984 -0.3730299,-0.124575 -0.5630734,-0.07415 -0.1892983,0.05124 -0.3518411,0.17472 -0.450043,0.344856 -0.098607,0.170004 -0.1248616,0.371433 -0.074397,0.56108 0.050986,0.189621 0.1751289,0.351168 0.3455657,0.449033 0.1225128,0.07092 0.2638628,0.105595 0.4052612,0.09923 z M 9.946002,12.847346 c 0.124096,0 0.243452,-0.05016 0.33143,-0.137138 0.08831,-0.08807 0.136646,-0.206123 0.136646,-0.32993 0,-0.257851 -0.209721,-0.466312 -0.468076,-0.466312 -0.25761,0 -0.4665398,0.209253 -0.4665398,0.466312 0,0.25701 0.2089298,0.4663 0.4665398,0.467068 z M 8.7687147,12.728194 c 0.1084745,0 0.2128655,-0.04248 0.2890243,-0.119032 0.077397,-0.07751 0.1201716,-0.180335 0.1193918,-0.288412 0,-0.224997 -0.1829756,-0.406796 -0.4083801,-0.406796 -0.2246246,0 -0.4068078,0.182627 -0.4075758,0.406796 0,0.224852 0.1821834,0.407468 0.4075758,0.407468 z m 2.5453973,-0.04608 c 0.146126,0 0.286709,-0.05724 0.389542,-0.160656 0.103314,-0.103075 0.161749,-0.24374 0.161749,-0.389482 0,-0.145838 -0.05748,-0.285293 -0.161749,-0.388773 -0.102475,-0.102475 -0.243416,-0.160633 -0.389542,-0.160633 -0.146101,0 -0.285856,0.05724 -0.389577,0.160633 -0.103195,0.103075 -0.160992,0.242936 -0.160992,0.388774 0,0.145741 0.05664,0.286011 0.160992,0.389481 0.103314,0.102234 0.243476,0.160657 0.389577,0.160656 z M 7.7996251,12.396789 c 0.1962948,0 0.3549479,-0.158317 0.3549479,-0.353412 6.119e-4,-0.09371 -0.03792,-0.184212 -0.1033137,-0.250783 -0.065999,-0.06624 -0.1570452,-0.103915 -0.2512269,-0.102955 -0.1956104,0 -0.3542276,0.158305 -0.3542276,0.35424 5.88e-4,0.195082 0.1586172,0.352644 0.3542276,0.353388 z M 4.9714548,12.012767 c 0.2152173,-0.012 0.4115722,-0.129255 0.5191322,-0.31583 0.1751162,-0.303255 0.069957,-0.689641 -0.2324476,-0.864409 -0.3031596,-0.174768 -0.6903522,-0.07092 -0.8662909,0.231225 -0.083996,0.145766 -0.1066878,0.318181 -0.063943,0.48041 0.0432,0.162241 0.1500403,0.300952 0.2953008,0.38479 0.1057089,0.06072 0.2261597,0.08987 0.3479277,0.08375 z m 2.0906647,-0.06648 c 0.080991,0 0.1602011,-0.03144 0.2183133,-0.08963 0.056879,-0.05664 0.09023,-0.135578 0.09023,-0.217053 0,-0.08075 -0.03156,-0.159925 -0.09023,-0.217065 -0.057597,-0.05736 -0.1358668,-0.09011 -0.2183133,-0.09011 -0.080517,0 -0.159409,0.03252 -0.216741,0.09011 -0.057478,0.05724 -0.089991,0.135579 -0.089991,0.217065 0,0.169297 0.1374385,0.306423 0.3062548,0.306423 z M 3.3591157,11.785598 c 0.215228,-0.012 0.410801,-0.129303 0.51913,-0.315819 0.174309,-0.302524 0.0698,-0.688921 -0.232529,-0.864397 -0.145326,-0.08375 -0.318771,-0.106434 -0.481433,-0.06396 -0.162467,0.04296 -0.300714,0.149654 -0.384757,0.295456 -0.175139,0.302451 -0.0698,0.688861 0.2324,0.863604 0.105,0.06204 0.225419,0.08975 0.347189,0.08495 z M 9.7331849,11.49487 c 0.2575621,0 0.4672601,-0.209253 0.4664801,-0.467104 0,-0.257058 -0.208918,-0.465484 -0.4664801,-0.465484 -0.2584147,0 -0.4680643,0.208426 -0.4680643,0.465484 0,0.124624 0.04956,0.242948 0.1366466,0.330734 0.088314,0.08807 0.2072742,0.13637 0.3314177,0.13637 z M 6.5154731,11.41219 c 0.068877,5.52e-4 0.1350867,-0.02724 0.1838036,-0.0756 0.04944,-0.0492 0.077035,-0.114113 0.077035,-0.183371 0,-0.06852 -0.02784,-0.134763 -0.077035,-0.183335 -0.04956,-0.0492 -0.1144744,-0.0768 -0.1838036,-0.0768 -0.067797,0 -0.1350749,0.02784 -0.1837311,0.0768 -0.04944,0.0492 -0.075957,0.114233 -0.075957,0.183335 0,0.06864 0.02748,0.134811 0.075957,0.183371 0.04956,0.0492 0.1153136,0.0768 0.1837311,0.0756 z m 2.0404004,-0.03444 c 0.2246007,-6.72e-4 0.4076357,-0.182592 0.4076357,-0.407576 -6.119e-4,-0.224877 -0.183035,-0.406749 -0.4076357,-0.406749 -0.2253925,0 -0.4083443,0.181872 -0.4083443,0.406749 -6.359e-4,0.108235 0.04188,0.21163 0.1192719,0.288448 0.077036,0.07667 0.1806596,0.119152 0.2890124,0.119152 z m 2.5438135,-0.04608 c 0.146102,0 0.286661,-0.05724 0.390345,-0.161461 0.102715,-0.102234 0.161054,-0.242959 0.161054,-0.388702 0,-0.145753 -0.05748,-0.28528 -0.161054,-0.388713 -0.103313,-0.103195 -0.244243,-0.161461 -0.390345,-0.161461 -0.146042,0 -0.285856,0.05736 -0.389481,0.161461 -0.102474,0.102955 -0.161053,0.24296 -0.161053,0.388713 0,0.145743 0.05724,0.286025 0.161053,0.388702 0.103195,0.103074 0.243439,0.161461 0.389481,0.161461 z M 7.5867597,11.046365 c 0.1955386,-5.4e-4 0.3534118,-0.159025 0.3542158,-0.35418 0,-0.19519 -0.1586772,-0.353472 -0.3542158,-0.35424 -0.093832,0 -0.1845474,0.0384 -0.251347,0.103915 -0.066476,0.066 -0.1042739,0.156745 -0.1042739,0.250039 6.719e-4,0.195875 0.1594567,0.354168 0.3557994,0.354168 z m 5.0114693,-0.26097 c 0.35028,0 0.634576,-0.283745 0.634576,-0.633222 0,-0.349535 -0.284296,-0.6324636 -0.634576,-0.6324636 -0.350292,0 -0.633785,0.2829286 -0.633785,0.6324636 0,0.349477 0.283493,0.633222 0.633785,0.633222 z M 6.8492544,10.595723 c 0.1696564,0 0.3071187,-0.137186 0.3071187,-0.306458 0,-0.169273 -0.1374623,-0.306375 -0.3071187,-0.306375 -0.1695606,0 -0.307071,0.137102 -0.307071,0.306375 0,0.169272 0.1375104,0.306458 0.307071,0.306458 z M 5.1709652,10.322227 C 5.3578886,10.310227 5.5282889,10.209792 5.6217506,10.04873 5.6954266,9.921766 5.7148616,9.7720407 5.6763496,9.6309906 5.6380706,9.4898798 5.545991,9.3699599 5.41952,9.2971252 5.1556219,9.1451077 4.8195002,9.2350872 4.6671125,9.4985191 4.5156209,9.7610733 4.6041575,10.097242 4.8681449,10.249332 c 0.091431,0.0534 0.1963433,0.07812 0.3023555,0.07344 z M 3.5586577,10.09573 c 0.186828,-0.012 0.356536,-0.112433 0.450716,-0.2743247 0.07369,-0.1261833 0.0923,-0.276605 0.05471,-0.4168995 -0.0385,-0.1410863 -0.129578,-0.2617262 -0.256819,-0.3346569 -0.126437,-0.073431 -0.277217,-0.09203 -0.41782,-0.054238 -0.141389,0.0384 -0.262389,0.1301197 -0.335379,0.2562667 -0.151597,0.2632985 -0.0623,0.5995513 0.20258,0.7508254 0.09071,0.05376 0.19639,0.07823 0.301612,0.07415 z M 9.1229185,9.990256 c 0.2584382,0 0.4680518,-0.2084861 0.4680518,-0.4663728 0,-0.1237713 -0.04944,-0.2421432 -0.1366227,-0.3299175 C 9.3660336,9.1058947 9.247038,9.0568395 9.1229185,9.0568395 c -0.1240354,0 -0.2426834,0.05016 -0.3306253,0.1371262 -0.088313,0.088073 -0.1374508,0.2061462 -0.136659,0.3299175 0,0.2578867 0.2097218,0.4663728 0.4672843,0.4663728 z M 7.9456672,9.8727849 c 0.1084743,0 0.2128533,-0.04272 0.2889883,-0.1198718 0.077752,-0.076793 0.1193918,-0.1802997 0.1193918,-0.2876928 0,-0.1081147 -0.04224,-0.2123851 -0.1193918,-0.2883877 C 8.1576185,9.0993156 8.0540558,9.0569607 7.9456672,9.0569607 7.7202986,9.0575487 7.5380553,9.2403564 7.5380553,9.4652443 c 0,0.2242051 0.1822433,0.4067486 0.4076119,0.4075886 z m 2.5453618,-0.04908 c 0.146102,0 0.286708,-0.057237 0.389601,-0.1606442 0.103195,-0.1030737 0.161749,-0.2429596 0.161749,-0.3887133 0,-0.1457663 -0.05736,-0.2860852 -0.161749,-0.3887613 -0.102474,-0.1030743 -0.243499,-0.1614245 -0.389601,-0.1614245 -0.146078,0 -0.285832,0.057359 -0.389505,0.1614252 -0.102474,0.1024738 -0.161029,0.2429953 -0.161029,0.3887615 0,0.1457657 0.05736,0.2852441 0.161029,0.3887134 0.103194,0.1024746 0.243427,0.1606443 0.389505,0.1606432 z M 2.2769177,9.6042911 c 0.18761,-0.012 0.358031,-0.112314 0.451531,-0.2743249 0.07378,-0.1261597 0.09299,-0.2766774 0.05473,-0.4176795 -0.0385,-0.1411223 -0.13043,-0.2610421 -0.256809,-0.3339135 -0.26397,-0.1512376 -0.600079,-0.061917 -0.75249,0.2014181 -0.151478,0.2633583 -0.06299,0.598759 0.201091,0.7508007 0.0913,0.053398 0.196251,0.078234 0.301569,0.074277 z m 4.6995639,-0.065758 c 0.093952,0 0.1846074,-0.03768 0.251335,-0.1029538 C 7.2942936,9.3693423 7.3320904,9.2787979 7.3320904,9.1847969 7.3314415,8.9896311 7.1726925,8.83135 6.9762658,8.83135 c -0.1955383,0 -0.3533516,0.1582811 -0.3541796,0.3534483 0,0.1958983 0.1586413,0.3542035 0.3541796,0.3542035 z M 11.989558,9.2776113 c 0.350244,0 0.633785,-0.2829046 0.633785,-0.6324765 0,-0.3495126 -0.283541,-0.6332333 -0.633785,-0.6332333 -0.350256,0 -0.633784,0.2837207 -0.633784,0.6332333 0,0.3495719 0.283528,0.6324765 0.633784,0.6324765 z M 5.6343614,8.9320265 c 0.1585934,-0.012 0.303135,-0.094551 0.3832057,-0.2327598 C 6.1463902,8.475902 6.0700071,8.1906694 5.8456188,8.0621344 5.6225064,7.9335989 5.3366978,8.0098164 5.207083,8.2329425 5.0782838,8.4563074 5.153923,8.7415879 5.3775312,8.8700747 c 0.077875,0.04428 0.1672682,0.066479 0.2568302,0.062519 z M 4.0219977,8.7055901 c 0.159409,-0.012 0.3031,-0.095632 0.382408,-0.2336364 0.1288538,-0.2225365 0.053534,-0.5078292 -0.170399,-0.6371321 -0.107546,-0.062758 -0.23564,-0.078232 -0.354931,-0.04548 -0.120233,0.03144 -0.222336,0.1106343 -0.284321,0.217833 -0.128849,0.2226332 -0.05353,0.5079012 0.171153,0.6371563 0.078,0.04428 0.166478,0.065759 0.25609,0.06252 z M 9.0640385,8.3347912 c 0.059398,-5.4e-4 0.1178314,-0.018 0.1696323,-0.04764 C 9.4033273,8.1888772 9.4606714,7.972868 9.363262,7.8036078 9.264628,7.6342997 9.0475399,7.5771234 8.8786872,7.6743162 8.7090428,7.7725882 8.6508828,7.9893075 8.7490843,8.1578596 c 0.065157,0.1124338 0.185339,0.1802277 0.3149542,0.1770837 z m 4.4616905,-0.065277 c 0.196331,0 0.384826,-0.078234 0.5238,-0.2170887 0.139035,-0.138771 0.216801,-0.3268458 0.216801,-0.5227804 0,-0.4082961 -0.331441,-0.7397856 -0.740601,-0.7397856 -0.197122,0 -0.385641,0.077877 -0.524628,0.2162976 -0.138962,0.1387102 -0.217605,0.3267617 -0.217605,0.523488 0,0.1959346 0.078,0.3840094 0.217605,0.5235241 0.138987,0.1386741 0.327506,0.2163208 0.524628,0.2163208 z M 2.7410257,8.2146757 c 0.158687,-0.012 0.303109,-0.095511 0.38329,-0.2335403 0.128722,-0.2225488 0.05241,-0.5078771 -0.172011,-0.6371682 -0.223856,-0.1285225 -0.508969,-0.05232 -0.638547,0.1716127 -0.128839,0.2226325 -0.05329,0.5078414 0.17047,0.6371798 0.07751,0.04428 0.167319,0.066119 0.256798,0.062399 z M 6.2720221,7.8862849 c 0.138242,-0.012 0.2647495,-0.082675 0.3337687,-0.2037701 0.05448,-0.092871 0.068757,-0.2045017 0.04164,-0.3087629 C 6.6195908,7.2689966 6.5507168,7.1802054 6.457388,7.126125 6.363556,7.072368 6.2516018,7.057608 6.147161,7.084365 6.0428871,7.112205 5.9531464,7.180839 5.8989582,7.2740603 c -0.05412,0.093832 -0.068636,0.2053535 -0.0414,0.3095779 0.02916,0.103914 0.096832,0.1935712 0.1908467,0.2476756 0.066839,0.03972 0.1453464,0.057358 0.2237971,0.053758 z m 3.8121749,-0.03972 c 0.05244,-0.0024 0.102715,-0.0162 0.146894,-0.04188 0.0702,-0.04128 0.122547,-0.107276 0.143738,-0.1857116 0.02004,-0.078595 0.012,-0.1622535 -0.03072,-0.23276 -0.04176,-0.069836 -0.107514,-0.1214792 -0.186899,-0.1426576 -0.07848,-0.02052 -0.162589,-0.012 -0.2333,0.03024 -0.1460421,0.085911 -0.1963305,0.2719254 -0.1117143,0.4185195 0.05496,0.097433 0.1602133,0.1559649 0.2725253,0.1536249 z M 4.6588753,7.6577007 c 0.1390229,-0.012 0.2646547,-0.081713 0.3338183,-0.2022342 0.0546,-0.092871 0.068757,-0.2045262 0.04188,-0.309567 -0.02796,-0.1039139 -0.096713,-0.1935948 -0.1900672,-0.2476393 -0.093122,-0.05376 -0.2050045,-0.067556 -0.3101767,-0.0414 -0.1041834,0.02916 -0.193204,0.096472 -0.247443,0.1904624 -0.112567,0.1943753 -0.04477,0.4435975 0.1492877,0.5556587 0.066746,0.0396 0.1452608,0.05748 0.2230177,0.05376 z m 6.3434267,-0.0072 c 0.04284,-0.0024 0.08615,-0.0144 0.123339,-0.03456 0.12406,-0.070797 0.166525,-0.2296876 0.09479,-0.3534714 -0.03384,-0.05916 -0.09083,-0.1030735 -0.157837,-0.1207118 -0.066,-0.01812 -0.137414,-0.012 -0.197158,0.02676 -0.0594,0.0336 -0.102474,0.090476 -0.12094,0.1575255 -0.01812,0.066239 -0.012,0.1371506 0.02748,0.1967385 0.0462,0.080872 0.135831,0.1316069 0.230912,0.129279 z M 8.8221593,7.4074461 c 0.068637,-0.0024 0.1358668,-0.01872 0.1955627,-0.05376 0.09299,-0.054237 0.1617367,-0.143366 0.1900067,-0.2476154 0.02916,-0.1039139 0.01416,-0.2155651 -0.0414,-0.3096142 C 9.1122097,6.7033465 9.0225788,6.6350316 8.9181378,6.6076613 8.8139829,6.5785013 8.7021407,6.5932613 8.6087031,6.6490613 8.4131524,6.7620952 8.3463772,7.0103321 8.4587133,7.2054509 8.5339493,7.3338902 8.6723107,7.4123287 8.8214846,7.408345 Z M 3.3787777,7.1629873 c 0.138195,-0.012 0.263899,-0.081714 0.333769,-0.2022463 0.0539,-0.093592 0.06861,-0.2053058 0.0414,-0.3095904 -0.02929,-0.103914 -0.09672,-0.193499 -0.189975,-0.247603 -0.09393,-0.05376 -0.20587,-0.067557 -0.310321,-0.0414 -0.104188,0.02904 -0.193921,0.096472 -0.248109,0.190416 -0.112564,0.1943858 -0.04479,0.4435732 0.149269,0.5556571 0.06784,0.0396 0.14603,0.057239 0.22451,0.053759 z m 3.6173345,-0.03144 c 0.1209878,-0.0096 0.2301445,-0.073437 0.2906564,-0.1771556 0.0456,-0.080877 0.059398,-0.1779004 0.03456,-0.2687937 -0.02616,-0.090473 -0.085195,-0.1677244 -0.1657087,-0.2146888 -0.080995,-0.04596 -0.1782718,-0.05916 -0.2693816,-0.03444 -0.090472,0.02448 -0.1680726,0.083751 -0.2151574,0.1653845 -0.0462,0.080875 -0.059399,0.1779118 -0.03456,0.2688056 0.0246,0.090111 0.083994,0.1677368 0.1656845,0.2147013 0.058079,0.033 0.1256078,0.05088 0.1939308,0.04608 z m 3.0708418,-0.078717 c 0.0594,-0.0024 0.117831,-0.018 0.169609,-0.04608 0.169656,-0.098394 0.227792,-0.3150387 0.12959,-0.4835908 C 10.267519,6.353886 10.051283,6.295906 9.8816026,6.3939033 9.711946,6.4921753 9.6538461,6.7081377 9.7520114,6.8773985 9.8178874,6.9888728 9.937351,7.0560903 10.066954,7.0537504 Z m 1.08457,-0.069117 c 0.05244,-0.0024 0.101874,-0.0162 0.14609,-0.04188 0.06984,-0.04128 0.122511,-0.1072757 0.143738,-0.1857232 0.02088,-0.078595 0.012,-0.162253 -0.03012,-0.2327601 -0.04164,-0.069837 -0.108475,-0.1222476 -0.186971,-0.1426344 -0.07799,-0.0204 -0.162565,-0.012 -0.233216,0.03024 -0.06996,0.04128 -0.121792,0.1081145 -0.142971,0.1864313 -0.02064,0.078116 -0.012,0.1622649 0.03072,0.2327719 0.05496,0.096593 0.160285,0.1552095 0.272538,0.1528936 z M 5.383027,6.9059583 c 0.1209397,-0.012 0.230096,-0.073436 0.2905359,-0.177852 0.098634,-0.1692485 0.04092,-0.3855576 -0.1296155,-0.4836146 -0.080996,-0.04536 -0.1782476,-0.05916 -0.2693573,-0.0336 -0.09011,0.02448 -0.1680482,0.083874 -0.2151571,0.1645328 -0.098634,0.1692963 -0.04092,0.3856055 0.1296028,0.4835786 0.05796,0.0336 0.1264116,0.05148 0.1939912,0.04764 z M 8.2872837,6.4217444 c 0.078232,-0.0024 0.1547295,-0.02316 0.2230769,-0.063236 C 8.7333891,6.2299627 8.8095602,5.9447066 8.6808088,5.7214017 8.5519857,5.4988075 8.2660811,5.4220005 8.0422606,5.5505241 7.9347458,5.6130403 7.8561294,5.714301 7.8239237,5.834233 c -0.03168,0.1198718 -0.01632,0.2468462 0.0462,0.3542875 0.086152,0.1480819 0.2449754,0.2373677 0.4161677,0.2327119 z m -2.18805,0 c 0.1049949,-0.0084 0.1995103,-0.062758 0.2521145,-0.1520775 0.04164,-0.069955 0.052439,-0.1544416 0.03072,-0.2327959 -0.0204,-0.078712 -0.073675,-0.1457182 -0.1437501,-0.1864795 -0.146858,-0.08375 -0.3337692,-0.03312 -0.4186874,0.1131547 -0.04116,0.069117 -0.05244,0.1536139 -0.03036,0.2319569 0.02076,0.078953 0.073676,0.1457659 0.1429344,0.1865024 0.0516,0.02988 0.1100349,0.04248 0.1680847,0.0408 z m -1.99718,-0.012 c 0.120941,-0.0096 0.230912,-0.072237 0.2913549,-0.1771679 0.045496,-0.080274 0.057948,-0.1779118 0.0336,-0.2680017 -0.0246,-0.090593 -0.083996,-0.1684561 -0.1648919,-0.2155412 -0.08111,-0.04536 -0.179057,-0.05916 -0.269369,-0.03444 -0.09071,0.02592 -0.168819,0.084952 -0.21522,0.1653849 -0.04609,0.080753 -0.05941,0.1778877 -0.03458,0.2688296 0.02459,0.090231 0.084,0.1684444 0.164928,0.2147372 0.05809,0.03312 0.125679,0.051 0.193954,0.04608 z M 11.134269,6.1878309 c 0.05796,-0.0024 0.116992,-0.018 0.1689,-0.04776 0.08111,-0.0456 0.140547,-0.1238074 0.165709,-0.2147254 0.0246,-0.090111 0.012,-0.1873308 -0.03456,-0.2688176 -0.09863,-0.1685528 -0.314918,-0.2265087 -0.484575,-0.129303 -0.08099,0.04596 -0.141374,0.1245873 -0.165744,0.2155049 -0.0246,0.089873 -0.012,0.1872832 0.03456,0.2687937 0.06528,0.1114743 0.186107,0.1795557 0.31571,0.1763159 z M 9.8266223,6.1247169 c 0.067797,-0.0024 0.1350747,-0.0186 0.1939787,-0.053759 0.09383,-0.053758 0.162613,-0.1426102 0.190847,-0.246823 0.02784,-0.1047538 0.01416,-0.2163692 -0.04128,-0.309579 -0.05412,-0.09371 -0.14381,-0.1622164 -0.248251,-0.1904508 -0.1049949,-0.02784 -0.2167049,-0.0144 -0.3101303,0.0414 -0.093832,0.05412 -0.1626609,0.1434503 -0.190871,0.247663 -0.02808,0.103914 -0.01308,0.2155055 0.04152,0.3095551 0.075837,0.1293268 0.2151935,0.2069499 0.3644272,0.2029901 z M 4.8190776,5.9264605 C 4.923231,5.9168605 5.017784,5.8632205 5.0704,5.7736386 5.1124,5.7038016 5.12284,5.6192569 5.10112,5.5408544 5.08048,5.4622614 5.028645,5.3950405 4.9581737,5.3542911 c -0.069956,-0.04128 -0.1547052,-0.052318 -0.2332995,-0.03024 -0.078219,0.02088 -0.1459929,0.073433 -0.186843,0.1434618 -0.041784,0.069957 -0.052456,0.1535898 -0.030446,0.2327479 0.02061,0.078116 0.072334,0.1449984 0.1429431,0.1857353 0.051596,0.03012 0.1101627,0.04272 0.1689269,0.04152 z M 5.5126057,5.6490142 c 0.088192,-0.0072 0.1680608,-0.05328 0.2128654,-0.1285594 C 5.7965081,5.3966477 5.7546311,5.2383908 5.6297191,5.167007 5.5703201,5.132568 5.4993486,5.122969 5.4325725,5.140008 5.3662155,5.158367 5.3093051,5.202045 5.2746995,5.2607559 c -0.0336,0.059157 -0.0432,0.1300235 -0.02664,0.1966073 0.018,0.066477 0.062158,0.1230868 0.1209157,0.1575723 0.0432,0.02604 0.092991,0.03768 0.1429821,0.033 z M 7.3888814,5.443649 C 7.4801924,5.440049 7.5710287,5.414609 7.6511473,5.368772 7.9142176,5.2167424 8.0053031,4.8812812 7.8529618,4.6179833 7.7792848,4.491788 7.6597867,4.3993343 7.5184486,4.3617049 7.3770743,4.3225878 7.2270606,4.3434661 7.0998451,4.4160609 6.9733256,4.4894958 6.8814841,4.6088396 6.8437706,4.749914 c -0.0384,0.1410983 -0.01764,0.29158 0.05448,0.4176915 0.1011535,0.1739877 0.2882323,0.2790769 0.4900946,0.2751417 z M 10.892353,5.2634451 c 0.069,-0.0024 0.135903,-0.018719 0.195539,-0.053759 0.09311,-0.053757 0.162601,-0.1426939 0.190127,-0.2477466 0.02928,-0.1039131 0.01404,-0.2154573 -0.04176,-0.3087269 -0.05376,-0.093594 -0.142958,-0.1622529 -0.248191,-0.190463 -0.104154,-0.029278 -0.215973,-0.014399 -0.309447,0.041517 -0.09383,0.053756 -0.162577,0.1433421 -0.190835,0.2476631 -0.02916,0.1039133 -0.01428,0.2155057 0.04152,0.3095548 0.07512,0.1285235 0.213634,0.2067821 0.362831,0.2029785 z M 9.290235,5.1372621 c 0.078234,-0.0024 0.1554373,-0.023159 0.2230287,-0.062634 0.1075159,-0.063234 0.1861434,-0.1645567 0.2175691,-0.2836485 0.03156,-0.1198718 0.01632,-0.2476871 -0.0462,-0.3550558 C 9.5558586,4.2133743 9.2700024,4.1373835 9.0461336,4.2658587 8.8230691,4.3952099 8.7461182,4.6804663 8.8748814,4.9030029 8.9610344,5.0512407 9.1200006,5.1405026 9.291169,5.1366034 Z M 6.0960778,4.5463146 c 0.1058353,-0.0048 0.2097337,-0.031558 0.3016595,-0.084834 0.146006,-0.083874 0.2520665,-0.2226088 0.2960195,-0.3848137 0.0432,-0.1622289 0.02064,-0.334669 -0.063957,-0.480363 C 6.5458068,3.4504779 6.4075627,3.3446692 6.2449861,3.3015801 6.0823851,3.2586227 5.9088893,3.2811812 5.7636033,3.365416 5.4604198,3.540244 5.3567468,3.9265696 5.5318988,4.2290809 5.6472121,4.429683 5.8640601,4.5511868 6.0957642,4.5464711 Z M 10.357538,4.2767171 c 0.07799,-0.0036 0.154742,-0.023158 0.223053,-0.063716 0.223041,-0.128583 0.299223,-0.4138394 0.170436,-0.6371562 -0.128835,-0.2226687 -0.414704,-0.2994754 -0.6385,-0.1709402 -0.2238811,0.1285472 -0.3000158,0.4137676 -0.17124,0.6371923 0.08519,0.1481179 0.244987,0.2382437 0.416251,0.234332 z M 8.3917248,4.1630849 c 0.09227,-0.0036 0.1830473,-0.027838 0.2631176,-0.074515 C 8.9179726,3.9373443 9.0082664,3.6010914 8.8567049,3.3377454 8.7830279,3.211586 8.6627022,3.1190843 8.5221318,3.0815149 8.3807574,3.0431177 8.2299278,3.063516 8.1035164,3.135751 7.9771169,3.2091862 7.8843996,3.3293097 7.846686,3.4703961 7.808286,3.6107385 7.829046,3.7611601 7.901645,3.8873075 8.0026784,4.0613076 8.1898174,4.1663724 8.3909116,4.1616327 Z M 4.3635757,3.8824841 C 4.4868769,3.8776841 4.6086396,3.8440867 4.7154496,3.7825307 5.0696439,3.5787366 5.1913996,3.1265956 4.9871621,2.7731119 4.7821673,2.4196885 4.3290777,2.2981246 3.9748157,2.5027703 c -0.354219,0.203722 -0.475108,0.6558871 -0.27087,1.0093709 0.134992,0.2343319 0.387897,0.3761983 0.65963,0.3699347 z M 9.4590396,3.3017238 C 9.5504706,3.2981238 9.641271,3.2737658 9.7213654,3.2275688 9.985336,3.0763076 10.075593,2.7400313 9.923216,2.476733 9.8495398,2.3505497 9.7299928,2.2580847 9.5886306,2.2204426 9.4473045,2.1821626 9.2972905,2.2028026 9.1700754,2.2748026 9.0436036,2.3482346 8.9517503,2.4675941 8.9140129,2.60868 c -0.03876,0.1410619 -0.01788,0.2915555 0.0546,0.4177509 0.1013933,0.1739761 0.2890002,0.2789569 0.4900225,0.2742532 z M 7.0990171,3.2656062 C 7.2047314,3.2620062 7.3095189,3.2340482 7.4005805,3.1807722 7.7045798,3.0060402 7.8081805,2.6196547 7.6338804,2.316292 7.5498874,2.1714015 7.4108037,2.0648248 7.248251,2.0208956 7.08565,1.9785356 6.9128737,2.0009756 6.7668318,2.0846156 6.6207899,2.1684926 6.5147171,2.3071639 6.4715319,2.4694293 c -0.0432,0.1622643 -0.02004,0.3346322 0.063837,0.4804228 0.1161528,0.1998701 0.3322094,0.3213378 0.5639015,0.3158182 z"
     id="start-here-kde-9-7" />
</svg>
