<?xml version="1.0" encoding="UTF-8" standalone="no"?>
<svg
   xmlns:dc="http://purl.org/dc/elements/1.1/"
   xmlns:cc="http://creativecommons.org/ns#"
   xmlns:rdf="http://www.w3.org/1999/02/22-rdf-syntax-ns#"
   xmlns:svg="http://www.w3.org/2000/svg"
   xmlns="http://www.w3.org/2000/svg"
   xmlns:xlink="http://www.w3.org/1999/xlink"
   xmlns:sodipodi="http://sodipodi.sourceforge.net/DTD/sodipodi-0.dtd"
   xmlns:inkscape="http://www.inkscape.org/namespaces/inkscape"
   viewBox="0 0 256 256"
   version="1.1"
   id="svg117"
   sodipodi:docname="org.kde.plasma.analogclock.svg"
   inkscape:version="1.0.2 (e86c870879, 2021-01-15)">
  <metadata
     id="metadata121">
    <rdf:RDF>
      <cc:Work
         rdf:about="">
        <dc:format>image/svg+xml</dc:format>
        <dc:type
           rdf:resource="http://purl.org/dc/dcmitype/StillImage" />
      </cc:Work>
    </rdf:RDF>
  </metadata>
  <sodipodi:namedview
     pagecolor="#ffffff"
     bordercolor="#666666"
     borderopacity="1"
     objecttolerance="10"
     gridtolerance="10"
     guidetolerance="10"
     inkscape:pageopacity="0"
     inkscape:pageshadow="2"
     inkscape:window-width="1920"
     inkscape:window-height="1007"
     id="namedview119"
     showgrid="false"
     inkscape:zoom="1.7346213"
     inkscape:cx="119.08338"
     inkscape:cy="138.47342"
     inkscape:window-x="0"
     inkscape:window-y="0"
     inkscape:window-maximized="1"
     inkscape:current-layer="svg117"
     inkscape:document-rotation="0" />
  <defs
     id="defs21">
    <filter
       height="1.905"
       y="-.453"
       width="1.123"
       x="-.061"
       id="2"
       color-interpolation-filters="sRGB">
      <feGaussianBlur
         stdDeviation=".51095"
         id="feGaussianBlur2" />
    </filter>
    <filter
       height="1.118"
       y="-.059"
       width="1.206"
       x="-.103"
       id="1"
       color-interpolation-filters="sRGB">
      <feGaussianBlur
         stdDeviation=".87589"
         id="feGaussianBlur5" />
    </filter>
    <filter
       height="1.123"
       y="-.061"
       width="1.905"
       x="-.453"
       id="3"
       color-interpolation-filters="sRGB">
      <feGaussianBlur
         stdDeviation=".51095"
         id="feGaussianBlur8" />
    </filter>
    <linearGradient
       id="0">
      <stop
         stop-color="#232629"
         id="stop11" />
      <stop
         offset=".9"
         stop-color="#232629"
         stop-opacity=".523"
         id="stop13" />
      <stop
         offset=".96"
         stop-color="#232629"
         stop-opacity=".107"
         id="stop15" />
      <stop
         offset="1"
         stop-color="#232629"
         stop-opacity="0"
         id="stop17" />
    </linearGradient>
    <radialGradient
       r="104"
       cy="855.36"
       cx="1007"
       gradientUnits="userSpaceOnUse"
       id="4"
       xlink:href="#0" />
  </defs>
  <g
     transform="matrix(1.08344,0,0,1.08344,-963.2,-796.49)"
     id="g115">
    <path
       opacity="0.00499998"
       d="m 900,746.36 h 214 v 214 H 900 Z"
       id="path23" />
    <circle
       cx="1007"
       cy="855.35999"
       r="104"
       fill="url(#4)"
       id="circle25" />
    <circle
       r="96.610001"
       cy="853.35999"
       cx="1007"
       id="circle27"
       style="fill:#2e3440;fill-opacity:1" />
    <path
       d="m 963.39,776.51 -0.844,0.5 2.094,3.594 c 0.278,-0.163 0.564,-0.308 0.844,-0.469 z m 87.87,0 -2.031,3.531 c 0.293,0.167 0.585,0.33 0.875,0.5 l 2.031,-3.531 z m -95.69,5.03 -0.813,0.563 2.469,3.406 c 0.269,-0.199 0.541,-0.398 0.813,-0.594 z m 103.5,0 -2.375,3.281 c 0.267,0.192 0.548,0.368 0.813,0.563 l 2.375,-3.281 z m -110.75,5.813 -0.719,0.656 2.781,3.094 c 0.24,-0.219 0.508,-0.408 0.75,-0.625 z m 118,0 -2.719,3 c 0.248,0.221 0.505,0.432 0.75,0.656 l 2.719,-3 z m -124.59,6.531 -0.656,0.75 3.125,2.813 c 0.219,-0.247 0.434,-0.505 0.656,-0.75 z m 131.19,0 -3,2.688 c 0.233,0.255 0.458,0.523 0.687,0.781 l 3,-2.719 z m -137.06,7.188 -0.594,0.781 3.438,2.5 c 0.192,-0.268 0.367,-0.547 0.563,-0.813 z m 142.94,0 -3.25,2.375 c 0.19,0.259 0.375,0.52 0.562,0.781 l 3.281,-2.375 z m -148.06,7.75 -0.5,0.875 3.688,2.125 c 0.166,-0.292 0.331,-0.585 0.5,-0.875 z m 153.19,0 -3.5,2.031 c 0.17,0.29 0.333,0.582 0.5,0.875 l 3.5,-2.031 z m -157.44,8.25 -0.406,0.906 3.875,1.719 c 0.133,-0.305 0.269,-0.603 0.406,-0.906 z m 161.69,0 -3.688,1.625 c 0.136,0.301 0.274,0.603 0.406,0.906 l 3.688,-1.625 z m -165.06,8.656 -0.312,0.938 4.062,1.313 c 0.098,-0.308 0.18,-0.631 0.281,-0.938 z m 168.44,0 -3.844,1.25 c 0.102,0.31 0.214,0.626 0.313,0.938 l 3.844,-1.25 z m -170.91,8.969 -0.188,0.969 4.156,0.875 c 0.066,-0.324 0.149,-0.646 0.219,-0.969 z m 173.34,0 -3.937,0.844 c 0.069,0.321 0.122,0.647 0.187,0.969 l 3.969,-0.844 z m -174.81,9.156 -0.125,0.969 4.281,0.438 c 0.031,-0.322 0.059,-0.648 0.094,-0.969 l -4.25,-0.438 m 176.34,0 -4.063,0.438 c 0.035,0.321 0.063,0.647 0.094,0.969 l 4.062,-0.438 -0.094,-0.969 m -172.16,18.09 -4.312,0.438 0.125,1 4.281,-0.438 c -0.037,-0.333 -0.061,-0.666 -0.094,-1 m 168.16,0 c -0.033,0.334 -0.057,0.667 -0.094,1 l 4.094,0.438 0.094,-1 z m -166.84,8.719 -4.219,0.906 0.188,0.969 4.25,-0.906 c -0.071,-0.322 -0.152,-0.645 -0.219,-0.969 m 165.53,0.063 c -0.067,0.324 -0.148,0.646 -0.219,0.969 l 4,0.844 0.219,-0.969 z m -163.28,8.469 -4.125,1.344 0.312,0.969 4.125,-1.344 c -0.107,-0.323 -0.209,-0.644 -0.312,-0.969 m 161,0.063 c -0.104,0.325 -0.205,0.646 -0.313,0.969 l 3.938,1.281 0.312,-0.969 z m -157.87,8.219 -3.969,1.781 0.406,0.906 3.969,-1.781 c -0.138,-0.303 -0.272,-0.601 -0.406,-0.906 m 154.75,0.094 c -0.134,0.303 -0.269,0.605 -0.406,0.906 l 3.781,1.688 0.406,-0.906 z m -150.75,7.781 -3.813,2.188 0.5,0.875 3.813,-2.188 c -0.17,-0.289 -0.333,-0.584 -0.5,-0.875 m 146.75,0.094 c -0.168,0.292 -0.329,0.585 -0.5,0.875 l 3.625,2.094 0.5,-0.875 z m -142,7.344 -3.531,2.563 0.594,0.813 3.531,-2.563 c -0.199,-0.27 -0.397,-0.54 -0.594,-0.813 m 137.19,0.094 c -0.193,0.268 -0.366,0.547 -0.562,0.813 l 3.375,2.469 0.594,-0.813 z m -131.62,6.781 -3.281,2.938 0.656,0.75 3.281,-2.938 c -0.224,-0.246 -0.435,-0.502 -0.656,-0.75 m 126.09,0.094 c -0.226,0.253 -0.458,0.499 -0.688,0.75 l 3.156,2.844 0.687,-0.75 z m -119.94,6.188 -2.906,3.25 0.719,0.688 2.938,-3.281 c -0.248,-0.221 -0.504,-0.432 -0.75,-0.656 m 113.72,0.094 c -0.251,0.228 -0.496,0.462 -0.75,0.688 l 2.844,3.156 0.75,-0.688 z m -106.91,5.5 -2.563,3.531 0.813,0.594 2.563,-3.531 c -0.272,-0.195 -0.543,-0.395 -0.813,-0.594 m 100.06,0.094 c -0.27,0.198 -0.54,0.399 -0.813,0.594 l 2.5,3.438 0.813,-0.594 z m -92.66,4.781 -2.187,3.781 0.844,0.5 2.188,-3.813 c -0.28,-0.16 -0.566,-0.306 -0.844,-0.469 m 85.25,0.063 c -0.283,0.165 -0.559,0.338 -0.844,0.5 l 2.125,3.719 0.875,-0.5 z m -77.44,4 -1.75,3.969 0.906,0.406 1.781,-3.969 c -0.313,-0.138 -0.626,-0.265 -0.937,-0.406 m 69.62,0.094 c -0.308,0.139 -0.628,0.271 -0.938,0.406 l 1.719,3.875 0.938,-0.406 z m -61.37,3.125 -1.344,4.156 0.938,0.313 1.344,-4.156 c -0.314,-0.1 -0.625,-0.209 -0.937,-0.313 m 53.09,0.063 c -0.322,0.106 -0.645,0.21 -0.969,0.313 l 1.344,4.094 0.969,-0.313 z m -44.594,2.25 -0.906,4.25 1,0.219 0.906,-4.25 c -0.334,-0.069 -0.668,-0.146 -1,-0.219 m 36.06,0.063 c -0.326,0.071 -0.641,0.152 -0.969,0.219 l 0.906,4.188 0.969,-0.219 z m -27.312,1.375 -0.469,4.344 1,0.094 0.438,-4.313 c -0.325,-0.032 -0.645,-0.089 -0.969,-0.125 m 18.594,0.031 c -0.323,0.035 -0.645,0.062 -0.969,0.094 l 0.437,4.313 0.969,-0.094 z"
       opacity="0.6"
       color="#000000"
       id="path29"
       style="fill:#d8dee9;fill-opacity:1" />
    <path
       d="m 1012.69,766.92 c 2.747,0 4.948,0.723 6.601,2.168 1.667,1.432 2.5,3.392 2.5,5.879 0,1.693 -0.436,3.288 -1.309,4.785 -0.872,1.484 -2.213,3.197 -4.02,5.137 l -8.262,8.809 h 13.03 v 3.01 h -16.445 v -3.691 l 9.394,-10.684 c 1.276,-1.458 2.233,-2.728 2.871,-3.809 0.651,-1.094 0.977,-2.174 0.977,-3.242 0,-1.667 -0.475,-2.936 -1.426,-3.809 -0.951,-0.872 -2.285,-1.309 -4,-1.309 -2.552,0 -4.642,0.82 -6.269,2.461 l -1.133,-3.066 c 1.914,-1.758 4.414,-2.637 7.5,-2.637 m -14.88,1.23 h 3.496 v 28.555 h -3.496 v -25.293 c -1.601,1.068 -3.197,1.96 -4.785,2.676 v -3.066 c 1.25,-0.547 2.845,-1.504 4.785,-2.871"
       filter="url(#1)"
       fill-opacity="0.443"
       id="path31" />
    <path
       d="m 1012.69,765.72 c 2.747,0 4.948,0.723 6.601,2.168 1.667,1.432 2.5,3.392 2.5,5.879 0,1.693 -0.436,3.288 -1.309,4.785 -0.872,1.484 -2.213,3.197 -4.02,5.137 l -8.262,8.809 h 13.03 v 3.01 h -16.445 v -3.691 l 9.394,-10.684 c 1.276,-1.458 2.233,-2.728 2.871,-3.809 0.651,-1.094 0.977,-2.174 0.977,-3.242 0,-1.667 -0.475,-2.936 -1.426,-3.809 -0.951,-0.872 -2.285,-1.309 -4,-1.309 -2.552,0 -4.642,0.82 -6.269,2.461 l -1.133,-3.066 c 1.914,-1.758 4.414,-2.637 7.5,-2.637 m -14.88,1.23 h 3.496 v 28.555 h -3.496 v -25.293 c -1.601,1.068 -3.197,1.96 -4.785,2.676 v -3.066 c 1.25,-0.547 2.845,-1.504 4.785,-2.871"
       id="path33"
       style="fill:#8fbcbb;fill-opacity:1" />
    <path
       filter="url(#2)"
       fill-opacity="0.413"
       d="m 917.02,853.51 h 20 v 2.709 h -20 z"
       id="path35" />
    <path
       d="m 916.91,852.3 h 20 v 2.709 h -20 z"
       id="path37"
       style="fill:#8fbcbb;fill-opacity:1" />
    <path
       filter="url(#2)"
       fill-opacity="0.361"
       d="m 1078.12,853.51 h 20 v 2.709 h -20 z"
       id="path39" />
    <path
       d="m 1078.11,852.3 h 20 v 2.709 h -20 z"
       id="path41"
       style="fill:#8fbcbb;fill-opacity:1" />
    <path
       transform="rotate(90,-446.2,130.94)"
       filter="url(#3)"
       fill-opacity="0.524"
       d="m 349.03,-1323.93 h 20 v 2.71 h -20 z"
       id="path43" />
    <path
       transform="rotate(90)"
       d="m 924.95,-1008.76 h 20 v 2.71 h -20 z"
       id="path45"
       style="fill:#8fbcbb;fill-opacity:1" />
    <circle
       r="96.610001"
       cy="853.35999"
       cx="1007"
       stroke-opacity="0.677"
       fill="none"
       stroke="#70767a"
       id="circle47" />
    <g
       id="g57">
      <path
         d="m 1079.34,810.5 4.03,-2.325 1.354,2.346 -4.03,2.325 z m -149.43,86.28 4.03,-2.325 1.355,2.346 -4.03,2.325 z"
         id="path49"
         style="fill:#88c0d0;fill-opacity:1" />
      <path
         d="m 1048.11,780.27 2.325,-4.03 2.346,1.355 -2.325,4.03 z m -86.28,149.43 2.325,-4.03 2.346,1.355 -2.325,4.03 z"
         id="path51"
         style="fill:#88c0d0;fill-opacity:1" />
      <path
         d="m 933.93,812.85 -4.03,-2.325 1.355,-2.346 4.03,2.325 z m 149.43,86.28 -4.03,-2.325 1.354,-2.346 4.03,2.325 z"
         id="path53"
         style="fill:#88c0d0;fill-opacity:1" />
      <path
         d="m 964.16,781.63 -2.325,-4.03 2.346,-1.355 2.325,4.03 z m 86.28,149.43 -2.325,-4.03 2.346,-1.355 2.325,4.03 z"
         id="path55"
         style="fill:#88c0d0;fill-opacity:1" />
    </g>
    <g
       id="g89">
      <path
         d="m 991.72,882.95 c -0.188,0.762 -0.404,1.35 -0.65,1.764 -0.113,0.195 -0.225,0.293 -0.334,0.293 -0.043,0 -0.096,-0.01 -0.158,-0.029 -0.297,-0.09 -0.445,-0.197 -0.445,-0.322 0,-0.063 0.041,-0.104 0.123,-0.123 0.344,-0.516 0.547,-1.135 0.609,-1.857 -0.215,-0.191 -0.418,-0.287 -0.609,-0.287 -0.406,-0.004 -0.887,0.354 -1.441,1.072 -0.512,0.672 -0.955,1.469 -1.33,2.391 -0.391,0.961 -0.578,1.762 -0.563,2.402 0.004,0.371 0.115,0.648 0.334,0.832 0.16,0.133 0.342,0.199 0.545,0.199 0.117,0 0.252,-0.023 0.404,-0.07 0.375,-0.117 0.809,-0.344 1.301,-0.68 0.469,-0.32 0.859,-0.646 1.172,-0.979 0.098,-0.105 0.156,-0.24 0.176,-0.404 0.012,-0.086 0.051,-0.129 0.117,-0.129 0.055,0 0.096,0.035 0.123,0.105 0.141,0.352 0.211,0.596 0.211,0.732 0,0.129 -0.053,0.25 -0.158,0.363 -0.07,0.07 -0.236,0.205 -0.498,0.404 -0.828,0.621 -1.539,1.01 -2.133,1.16 -0.184,0.047 -0.352,0.07 -0.504,0.07 -0.32,0 -0.564,-0.107 -0.732,-0.322 -0.762,-0.285 -1.143,-0.721 -1.143,-1.307 0,-0.945 0.248,-1.961 0.744,-3.047 0.426,-0.941 0.951,-1.77 1.576,-2.484 0.602,-0.684 1.09,-1.039 1.465,-1.066 0.137,-0.012 0.295,0.045 0.475,0.17 0.023,0.016 0.205,0.162 0.545,0.439 0.019,-0.156 0.072,-0.234 0.158,-0.234 0.094,0 0.252,0.086 0.475,0.258 0.141,0.109 0.211,0.215 0.211,0.316 0,0.066 -0.021,0.189 -0.064,0.369"
         id="path59"
         style="fill:#d8dee9;fill-opacity:1" />
      <path
         d="m 995.61,885.99 c -0.01,0.348 -0.092,0.809 -0.252,1.383 -0.254,0.906 -0.613,1.609 -1.078,2.109 -0.246,0.266 -0.519,0.398 -0.82,0.398 -0.117,0 -0.268,-0.025 -0.451,-0.076 -0.367,-0.023 -0.666,-0.139 -0.896,-0.346 -0.25,-0.227 -0.367,-0.518 -0.351,-0.873 0.016,-0.414 0.158,-0.992 0.428,-1.734 0.297,-0.809 0.606,-1.391 0.926,-1.746 0.152,-0.172 0.277,-0.258 0.375,-0.258 0.133,0 0.348,0.137 0.644,0.41 0.082,-0.039 0.25,-0.111 0.504,-0.217 0.129,-0.043 0.227,-0.064 0.293,-0.064 0.152,0 0.322,0.143 0.51,0.428 0.121,0.176 0.178,0.371 0.17,0.586 m -0.674,0.17 c 0.027,-0.262 0.041,-0.428 0.041,-0.498 0,-0.164 -0.051,-0.246 -0.152,-0.246 -0.039,0 -0.09,0.008 -0.152,0.023 l -0.908,0.369 c -0.106,0.043 -0.166,0.064 -0.182,0.064 -0.031,0 -0.062,-0.037 -0.094,-0.111 -0.227,0.277 -0.438,0.678 -0.633,1.201 -0.152,0.41 -0.258,0.777 -0.316,1.102 -0.043,0.219 -0.065,0.418 -0.065,0.598 0,0.602 0.186,0.895 0.557,0.879 0.148,-0.004 0.308,-0.063 0.48,-0.176 0.328,-0.223 0.635,-0.668 0.92,-1.336 0.274,-0.629 0.441,-1.252 0.504,-1.869"
         id="path61"
         style="fill:#d8dee9;fill-opacity:1" />
      <path
         d="m 1003.13,887.83 c -0.254,0.379 -0.633,1.047 -1.137,2 -0.047,0.086 -0.076,0.131 -0.088,0.135 -0.035,0.019 -0.117,0.01 -0.246,-0.029 -0.27,-0.082 -0.404,-0.16 -0.404,-0.234 0,-0.043 0.018,-0.105 0.053,-0.188 0.293,-0.684 0.544,-1.413 0.753,-2.188 0.209,-0.775 0.31,-1.37 0.302,-1.784 0,-0.137 -0.049,-0.205 -0.146,-0.205 -0.066,0 -0.144,0.037 -0.234,0.111 -0.332,0.27 -0.762,0.793 -1.289,1.57 -0.633,0.938 -1.08,1.814 -1.342,2.631 -0.027,0.094 -0.051,0.146 -0.07,0.158 -0.023,0.012 -0.08,0.002 -0.17,-0.029 -0.133,-0.047 -0.26,-0.113 -0.381,-0.199 -0.059,-0.043 -0.088,-0.088 -0.088,-0.135 0,-0.008 0.029,-0.084 0.088,-0.229 0.512,-1.281 0.768,-2.521 0.768,-3.721 0,-0.121 -0.035,-0.182 -0.105,-0.182 -0.051,0 -0.115,0.033 -0.193,0.1 -0.418,0.352 -0.883,0.957 -1.394,1.816 -0.492,0.82 -0.859,1.59 -1.102,2.309 -0.062,0.184 -0.127,0.275 -0.193,0.275 -0.078,0 -0.238,-0.088 -0.481,-0.264 -0.062,-0.035 -0.094,-0.072 -0.094,-0.111 0,-0.043 0.043,-0.109 0.129,-0.199 0.16,-0.34 0.342,-0.926 0.545,-1.758 0.23,-0.949 0.33,-1.639 0.299,-2.068 -0.059,0.059 -0.158,0.155 -0.299,0.29 -0.141,0.135 -0.246,0.237 -0.316,0.308 -0.051,0.051 -0.096,0.076 -0.135,0.076 -0.059,0 -0.088,-0.039 -0.088,-0.117 0,-0.063 0.022,-0.117 0.065,-0.164 0.219,-0.227 0.436,-0.494 0.65,-0.803 0.078,-0.109 0.146,-0.164 0.205,-0.164 0.043,0 0.127,0.063 0.252,0.188 0.098,0.035 0.195,0.07 0.293,0.105 0.082,0.039 0.123,0.111 0.123,0.217 0,0.031 0,0.064 -0.012,0.1 -0.098,0.754 -0.248,1.457 -0.451,2.109 0.691,-1.242 1.334,-2.125 1.928,-2.648 0.082,-0.074 0.162,-0.111 0.24,-0.111 0.082,0 0.207,0.053 0.375,0.158 0.16,0.07 0.266,0.133 0.316,0.188 0.059,0.07 0.088,0.18 0.088,0.328 0,0.797 -0.092,1.506 -0.275,2.127 0.762,-1.207 1.455,-2.104 2.08,-2.689 0.082,-0.078 0.168,-0.117 0.258,-0.117 0.117,0 0.262,0.078 0.434,0.234 0.305,0.047 0.449,0.232 0.434,0.557 -0.047,0.941 -0.25,1.852 -0.609,2.73 0.195,-0.23 0.348,-0.43 0.457,-0.598 0.051,-0.082 0.109,-0.123 0.176,-0.123 0.059,0 0.088,0.031 0.088,0.094 0,0.039 -0.018,0.086 -0.053,0.141"
         id="path63"
         style="fill:#d8dee9;fill-opacity:1" />
      <path
         d="m 1010.84,887.83 c -0.254,0.379 -0.633,1.047 -1.137,2 -0.047,0.086 -0.076,0.131 -0.088,0.135 -0.035,0.019 -0.117,0.01 -0.246,-0.029 -0.269,-0.082 -0.404,-0.16 -0.404,-0.234 0,-0.043 0.018,-0.105 0.053,-0.188 0.293,-0.684 0.544,-1.413 0.753,-2.188 0.209,-0.775 0.309,-1.37 0.302,-1.784 0,-0.137 -0.049,-0.205 -0.146,-0.205 -0.066,0 -0.144,0.037 -0.234,0.111 -0.332,0.27 -0.762,0.793 -1.289,1.57 -0.633,0.938 -1.08,1.814 -1.342,2.631 -0.027,0.094 -0.051,0.146 -0.07,0.158 -0.024,0.012 -0.08,0.002 -0.17,-0.029 -0.133,-0.047 -0.26,-0.113 -0.381,-0.199 -0.059,-0.043 -0.088,-0.088 -0.088,-0.135 0,-0.008 0.029,-0.084 0.088,-0.229 0.512,-1.281 0.768,-2.521 0.768,-3.721 0,-0.121 -0.035,-0.182 -0.106,-0.182 -0.051,0 -0.115,0.033 -0.193,0.1 -0.418,0.352 -0.883,0.957 -1.395,1.816 -0.492,0.82 -0.859,1.59 -1.101,2.309 -0.062,0.184 -0.127,0.275 -0.193,0.275 -0.078,0 -0.238,-0.088 -0.481,-0.264 -0.062,-0.035 -0.094,-0.072 -0.094,-0.111 0,-0.043 0.043,-0.109 0.129,-0.199 0.16,-0.34 0.342,-0.926 0.545,-1.758 0.231,-0.949 0.33,-1.639 0.299,-2.068 -0.059,0.059 -0.158,0.155 -0.299,0.29 -0.141,0.135 -0.246,0.237 -0.316,0.308 -0.051,0.051 -0.096,0.076 -0.135,0.076 -0.059,0 -0.088,-0.039 -0.088,-0.117 0,-0.063 0.021,-0.117 0.064,-0.164 0.219,-0.227 0.436,-0.494 0.65,-0.803 0.078,-0.109 0.146,-0.164 0.205,-0.164 0.043,0 0.127,0.063 0.252,0.188 0.098,0.035 0.195,0.07 0.293,0.105 0.082,0.039 0.123,0.111 0.123,0.217 0,0.031 0,0.064 -0.012,0.1 -0.098,0.754 -0.248,1.457 -0.451,2.109 0.692,-1.242 1.334,-2.125 1.928,-2.648 0.082,-0.074 0.162,-0.111 0.24,-0.111 0.082,0 0.207,0.053 0.375,0.158 0.16,0.07 0.266,0.133 0.316,0.188 0.059,0.07 0.088,0.18 0.088,0.328 0,0.797 -0.092,1.506 -0.275,2.127 0.762,-1.207 1.455,-2.104 2.08,-2.689 0.082,-0.078 0.168,-0.117 0.258,-0.117 0.117,0 0.262,0.078 0.434,0.234 0.305,0.047 0.449,0.232 0.434,0.557 -0.047,0.941 -0.25,1.852 -0.609,2.73 0.195,-0.23 0.348,-0.43 0.457,-0.598 0.051,-0.082 0.109,-0.123 0.176,-0.123 0.059,0 0.088,0.031 0.088,0.094 0,0.039 -0.018,0.086 -0.053,0.141"
         id="path65"
         style="fill:#d8dee9;fill-opacity:1" />
      <path
         d="m 1015.91,885.45 c -0.519,0.965 -0.908,2.098 -1.166,3.398 0.109,-0.191 0.242,-0.436 0.398,-0.732 0.02,-0.055 0.051,-0.082 0.094,-0.082 0.059,0 0.088,0.037 0.088,0.111 0,0.023 -0.01,0.049 -0.018,0.076 -0.25,0.57 -0.414,1.01 -0.492,1.318 -0.047,0.195 -0.109,0.293 -0.188,0.293 -0.078,0 -0.231,-0.076 -0.457,-0.229 -0.121,-0.086 -0.162,-0.238 -0.123,-0.457 0.164,-0.852 0.361,-1.592 0.592,-2.221 -0.754,1.227 -1.387,2.131 -1.898,2.713 -0.113,0.129 -0.236,0.193 -0.369,0.193 -0.109,0 -0.238,-0.045 -0.387,-0.135 -0.269,-0.047 -0.404,-0.188 -0.404,-0.422 0,-0.043 0,-0.09 0.012,-0.141 0.098,-1.117 0.301,-2.045 0.609,-2.783 -0.066,0.063 -0.166,0.154 -0.299,0.275 -0.051,0.043 -0.09,0.055 -0.117,0.035 -0.031,-0.023 -0.025,-0.068 0.018,-0.135 0.211,-0.309 0.336,-0.512 0.375,-0.609 0.121,-0.305 0.248,-0.541 0.381,-0.709 0.07,-0.086 0.144,-0.129 0.223,-0.129 0.106,0 0.26,0.063 0.463,0.188 0.055,0.035 0.082,0.07 0.082,0.105 0,0 -0.043,0.064 -0.129,0.193 -0.195,0.297 -0.402,0.82 -0.621,1.57 -0.238,0.813 -0.359,1.475 -0.363,1.986 0,0.168 0.035,0.252 0.106,0.252 0.062,0 0.164,-0.072 0.305,-0.217 0.301,-0.32 0.736,-0.926 1.307,-1.816 0.504,-0.785 0.809,-1.297 0.914,-1.535 0.176,-0.398 0.318,-0.633 0.428,-0.703 0.07,-0.047 0.133,-0.07 0.188,-0.07 0.055,0 0.16,0.041 0.316,0.123 0.156,0.082 0.234,0.143 0.234,0.182 0,0.012 -0.014,0.027 -0.041,0.047 -0.027,0.019 -0.047,0.041 -0.059,0.064"
         id="path67"
         style="fill:#d8dee9;fill-opacity:1" />
      <path
         d="m 1020.65,887.62 c -0.234,0.355 -0.539,0.871 -0.914,1.547 -0.07,0.176 -0.139,0.352 -0.205,0.527 -0.055,0.121 -0.127,0.182 -0.217,0.182 -0.07,0 -0.174,-0.029 -0.311,-0.088 -0.152,-0.063 -0.229,-0.125 -0.229,-0.188 0,-0.027 0.025,-0.088 0.076,-0.182 0.254,-0.516 0.48,-1.158 0.68,-1.928 0.215,-0.809 0.307,-1.426 0.275,-1.852 -0.01,-0.172 -0.047,-0.258 -0.117,-0.258 -0.051,0 -0.127,0.049 -0.229,0.146 -0.984,0.961 -1.836,2.246 -2.555,3.855 -0.09,0.199 -0.195,0.299 -0.316,0.299 -0.086,0 -0.229,-0.049 -0.428,-0.146 -0.078,-0.035 -0.119,-0.068 -0.123,-0.1 0,-0.016 0.021,-0.07 0.064,-0.164 0.227,-0.496 0.451,-1.125 0.674,-1.887 0.238,-0.824 0.373,-1.467 0.404,-1.928 0.01,-0.141 0,-0.211 -0.012,-0.211 0,0 -0.059,0.053 -0.164,0.158 -0.106,0.105 -0.252,0.242 -0.439,0.41 -0.035,0.035 -0.074,0.053 -0.117,0.053 -0.055,0 -0.082,-0.021 -0.082,-0.064 0,-0.031 0.02,-0.066 0.059,-0.105 0.168,-0.215 0.389,-0.482 0.662,-0.803 0.059,-0.066 0.119,-0.1 0.182,-0.1 0.094,0 0.176,0.068 0.246,0.205 0.316,0.094 0.465,0.238 0.445,0.434 -0.043,0.43 -0.264,1.205 -0.662,2.326 0.262,-0.504 0.643,-1.067 1.143,-1.69 0.5,-0.623 0.871,-0.991 1.113,-1.104 0.121,-0.055 0.207,-0.082 0.258,-0.082 0.051,0 0.133,0.043 0.246,0.129 0.324,0.113 0.484,0.301 0.481,0.563 0,0.273 -0.066,0.713 -0.199,1.318 -0.105,0.5 -0.203,0.889 -0.293,1.166 0.113,-0.145 0.258,-0.332 0.434,-0.563 0.031,-0.039 0.062,-0.059 0.094,-0.059 0.059,0 0.088,0.037 0.088,0.111 0,0.023 0,0.047 -0.012,0.07"
         id="path69"
         style="fill:#d8dee9;fill-opacity:1" />
      <path
         d="m 1023.72,883.15 c 0.062,0.047 0.094,0.1 0.094,0.158 0,0.113 -0.168,0.289 -0.504,0.527 -0.223,0.152 -0.438,0.207 -0.644,0.164 -0.117,-0.023 -0.219,-0.066 -0.305,-0.129 -0.027,-0.023 -0.048,-0.048 -0.062,-0.073 -0.014,-0.025 -0.017,-0.046 -0.01,-0.062 0.012,-0.016 0.035,-0.019 0.07,-0.012 0.359,-0.312 0.596,-0.537 0.709,-0.674 0.09,-0.102 0.154,-0.152 0.193,-0.152 0.07,0 0.223,0.084 0.457,0.252 z m -0.826,2.566 c -0.094,0.527 -0.338,1.404 -0.732,2.631 0.113,-0.102 0.269,-0.287 0.469,-0.557 0.027,-0.035 0.055,-0.053 0.082,-0.053 0.062,0 0.07,0.055 0.023,0.164 -0.02,0.043 -0.184,0.311 -0.492,0.803 -0.234,0.375 -0.406,0.707 -0.516,0.996 -0.035,0.09 -0.1,0.135 -0.193,0.135 -0.094,0 -0.221,-0.045 -0.381,-0.135 -0.102,-0.055 -0.152,-0.096 -0.152,-0.123 0,-0.023 0.021,-0.074 0.064,-0.152 0.211,-0.371 0.445,-0.992 0.703,-1.863 0.246,-0.844 0.385,-1.471 0.416,-1.881 0.012,-0.176 -0.01,-0.264 -0.053,-0.264 -0.035,0 -0.098,0.043 -0.188,0.129 l -0.363,0.34 c -0.129,0.117 -0.193,0.123 -0.193,0.018 0,-0.031 0.017,-0.07 0.053,-0.117 0.184,-0.258 0.379,-0.502 0.586,-0.732 0.062,-0.066 0.123,-0.1 0.182,-0.1 0.062,0 0.154,0.043 0.275,0.129 0.18,0.047 0.279,0.076 0.299,0.088 0.09,0.055 0.135,0.156 0.135,0.305 0,0.07 -0.01,0.15 -0.024,0.24 z"
         id="path71"
         style="fill:#d8dee9;fill-opacity:1" />
      <path
         d="m 1026.83,882.22 c 0.109,0.059 0.164,0.125 0.164,0.199 0,0.051 -0.037,0.076 -0.111,0.076 -0.016,0 -0.04,-0.003 -0.073,-0.009 -0.033,-0.006 -0.058,-0.009 -0.073,-0.009 -0.149,0 -0.328,0.162 -0.539,0.486 -0.188,0.289 -0.447,0.918 -0.779,1.887 -0.031,0.086 -0.043,0.137 -0.035,0.152 0.012,0.027 0.062,0.043 0.152,0.047 0.23,0.019 0.539,0.012 0.926,-0.023 0.133,-0.012 0.199,0.045 0.199,0.17 0,0.086 -0.051,0.139 -0.152,0.158 -0.082,0.012 -0.514,0.047 -1.295,0.105 -0.469,1.371 -0.754,2.531 -0.855,3.48 0,0.051 -0.01,0.096 -0.01,0.135 0,0.133 0.033,0.199 0.1,0.199 0.105,0 0.424,-0.256 0.955,-0.768 0.062,-0.063 0.123,-0.094 0.182,-0.094 0.051,0 0.082,0.021 0.094,0.064 0.012,0.047 -0.01,0.102 -0.053,0.164 -0.316,0.418 -0.627,0.773 -0.932,1.066 -0.129,0.121 -0.236,0.182 -0.322,0.182 -0.086,0 -0.219,-0.068 -0.399,-0.205 -0.223,-0.059 -0.334,-0.176 -0.334,-0.352 0,-0.027 0,-0.059 0.012,-0.094 0.145,-1.01 0.428,-2.248 0.85,-3.721 -0.207,-0.027 -0.395,-0.055 -0.563,-0.082 -0.074,-0.012 -0.111,-0.059 -0.111,-0.141 0,-0.09 0.039,-0.145 0.117,-0.164 0.078,-0.019 0.223,-0.063 0.434,-0.129 0.129,-0.043 0.254,-0.102 0.375,-0.176 0.418,-1.293 0.746,-2.131 0.984,-2.514 0.137,-0.219 0.283,-0.328 0.439,-0.328 0.149,0 0.365,0.078 0.65,0.234 z"
         id="path73"
         style="fill:#d8dee9;fill-opacity:1" />
      <path
         d="m 1030.63,885.65 c -0.543,2.504 -1.053,4.377 -1.529,5.619 -0.922,2.414 -1.98,3.621 -3.176,3.621 -0.699,0 -1.451,-0.381 -2.256,-1.143 -0.07,-0.066 -0.106,-0.137 -0.106,-0.211 0,-0.117 0.055,-0.176 0.164,-0.176 0.055,0 0.107,0.021 0.158,0.064 0.637,0.543 1.205,0.814 1.705,0.814 0.918,0 1.752,-0.766 2.502,-2.297 0.59,-1.199 1.103,-2.809 1.541,-4.828 0.027,-0.145 0.072,-0.365 0.135,-0.662 -0.41,0.668 -0.869,1.326 -1.377,1.975 -0.488,0.625 -0.873,1.055 -1.154,1.289 -0.156,0.129 -0.281,0.193 -0.375,0.193 -0.074,0 -0.15,-0.041 -0.228,-0.123 -0.082,-0.105 -0.166,-0.209 -0.252,-0.311 -0.039,-0.047 -0.059,-0.09 -0.059,-0.129 0,-0.004 0,-0.008 0,-0.012 0.01,-0.047 0.043,-0.08 0.105,-0.1 0.188,-0.254 0.363,-0.803 0.527,-1.646 0.125,-0.664 0.211,-1.295 0.258,-1.893 0.01,-0.141 -0.01,-0.211 -0.053,-0.211 -0.012,0 -0.104,0.07 -0.275,0.211 -0.274,0.23 -0.422,0.346 -0.445,0.346 -0.055,0 -0.082,-0.027 -0.082,-0.082 0,-0.027 0.012,-0.055 0.035,-0.082 0.066,-0.082 0.215,-0.287 0.445,-0.615 0.207,-0.293 0.346,-0.439 0.416,-0.439 0.055,0 0.129,0.024 0.223,0.07 0.199,-0.031 0.311,-0.047 0.334,-0.047 0.133,0 0.199,0.102 0.199,0.305 0,0.34 -0.098,1 -0.293,1.995 -0.195,0.99 -0.355,1.63 -0.48,1.919 0.391,-0.309 0.899,-0.914 1.524,-1.816 0.609,-0.879 0.988,-1.541 1.137,-1.986 0.01,-0.262 0.064,-0.393 0.17,-0.393 0.082,0 0.234,0.084 0.457,0.252 0.125,0.094 0.16,0.27 0.105,0.527"
         id="path75"
         style="fill:#d8dee9;fill-opacity:1" />
      <path
         d="m 1003.29,898.41 c -0.121,0.906 -0.414,1.885 -0.879,2.936 -0.422,0.957 -0.891,1.776 -1.406,2.458 -0.516,0.682 -0.93,1.024 -1.242,1.028 -0.387,0 -0.938,-0.24 -1.652,-0.721 -0.055,-0.039 -0.082,-0.084 -0.082,-0.135 0,-0.125 0.072,-0.188 0.217,-0.188 0.039,0 0.078,0.01 0.117,0.029 0.293,0.184 0.617,0.285 0.973,0.305 0.488,0.023 1.113,-0.693 1.875,-2.15 0.754,-1.437 1.191,-2.721 1.313,-3.85 0.039,-0.363 -0.156,-0.633 -0.586,-0.809 -0.105,-0.039 -0.193,-0.055 -0.264,-0.047 -0.754,0.105 -1.482,0.379 -2.186,0.82 -0.367,0.875 -0.738,1.91 -1.113,3.105 -0.41,1.305 -0.707,2.434 -0.891,3.387 -0.039,0.195 -0.121,0.293 -0.246,0.293 -0.047,0 -0.101,-0.014 -0.164,-0.041 -0.203,-0.105 -0.336,-0.191 -0.399,-0.258 -0.086,-0.09 -0.129,-0.213 -0.129,-0.369 0,-0.328 0.053,-0.721 0.158,-1.178 0.027,-0.113 0.068,-0.17 0.123,-0.17 0.051,0 0.186,0.09 0.404,0.27 0.531,-1.809 1.035,-3.357 1.512,-4.646 -0.871,0.547 -1.543,1.074 -2.02,1.582 -0.109,0.121 -0.164,0.262 -0.164,0.422 0,0.145 0.047,0.309 0.141,0.492 0.094,0.184 0.141,0.289 0.141,0.316 0,0.066 -0.045,0.1 -0.135,0.1 -0.078,0 -0.137,-0.021 -0.176,-0.064 -0.488,-0.574 -0.732,-0.971 -0.732,-1.189 0,-0.23 0.156,-0.486 0.469,-0.768 0.66,-0.598 1.617,-1.258 2.871,-1.98 0.207,-0.484 0.357,-0.727 0.451,-0.727 0.07,0 0.215,0.105 0.434,0.316 0.215,-0.098 0.43,-0.195 0.644,-0.293 0.18,-0.078 0.326,-0.117 0.439,-0.117 0.188,0 0.439,0.105 0.756,0.316 0.016,-0.016 0.041,-0.023 0.076,-0.023 0.219,0 0.553,0.203 1,0.609 0.242,0.223 0.363,0.463 0.363,0.721 0,0.063 -0.01,0.135 -0.018,0.217"
         id="path77"
         style="fill:#d8dee9;fill-opacity:1" />
      <path
         d="m 1006.19,903.03 c -0.949,1.215 -1.617,1.822 -2,1.822 -0.183,0 -0.416,-0.127 -0.697,-0.381 -0.293,-0.137 -0.439,-0.32 -0.439,-0.551 0,-0.043 0,-0.088 0.012,-0.135 0.07,-0.535 0.213,-1.127 0.428,-1.775 -0.145,-0.074 -0.217,-0.145 -0.217,-0.211 0,-0.055 0.041,-0.082 0.123,-0.082 0.062,0 0.127,0.018 0.193,0.053 0.348,-0.781 0.66,-1.336 0.938,-1.664 0.18,-0.219 0.342,-0.328 0.486,-0.328 0.066,0 0.231,0.057 0.492,0.17 -0.019,-0.117 0.014,-0.186 0.1,-0.205 0,0 0.096,0 0.275,0 0.168,0 0.252,0.029 0.252,0.088 0,0.012 -0.01,0.045 -0.018,0.1 -0.012,0.055 -0.018,0.105 -0.018,0.152 0,0.141 0,0.314 0.01,0.521 0,0.207 0.01,0.346 0.01,0.416 0,0.484 -0.133,0.822 -0.398,1.014 -0.242,0.176 -0.516,0.264 -0.82,0.264 -0.16,0 -0.426,-0.043 -0.797,-0.129 -0.066,0.121 -0.141,0.357 -0.223,0.709 -0.109,0.445 -0.16,0.84 -0.152,1.184 0,0.203 0.068,0.305 0.193,0.305 0.047,0 0.107,-0.012 0.182,-0.035 0.453,-0.16 1.084,-0.648 1.893,-1.465 0.051,-0.051 0.101,-0.076 0.152,-0.076 0.074,0 0.111,0.035 0.111,0.105 0,0.043 -0.019,0.088 -0.058,0.135 z m -0.686,-2.59 c 0,-0.152 -0.033,-0.229 -0.1,-0.229 -0.043,0 -0.106,0.031 -0.188,0.094 -0.383,0.309 -0.719,0.85 -1.01,1.623 0.078,0.012 0.215,0.023 0.41,0.035 0.316,0.012 0.553,-0.061 0.709,-0.217 0.117,-0.117 0.182,-0.311 0.193,-0.58 -0.012,0.199 -0.018,-0.043 -0.018,-0.727"
         id="path79"
         style="fill:#d8dee9;fill-opacity:1" />
      <path
         d="m 1009.43,900.01 c 0,0.176 -0.047,0.457 -0.141,0.844 -0.035,0.133 -0.074,0.219 -0.117,0.258 -0.02,0.019 -0.086,0.049 -0.199,0.088 -0.145,0.055 -0.234,0.082 -0.27,0.082 -0.059,0 -0.088,-0.039 -0.088,-0.117 0,-0.043 0.01,-0.1 0.024,-0.17 0.094,-0.387 0.13,-0.655 0.108,-0.806 -0.021,-0.15 0.022,-0.245 0.132,-0.284 0.191,-0.098 0.314,-0.146 0.369,-0.146 0.121,0 0.182,0.084 0.182,0.252 m -0.938,3.363 c 0.012,0.469 -0.248,0.789 -0.779,0.961 -0.066,0.164 -0.129,0.277 -0.188,0.34 -0.09,0.094 -0.223,0.148 -0.398,0.164 -0.113,0.008 -0.234,0.002 -0.363,-0.018 -0.231,-0.035 -0.514,-0.078 -0.85,-0.129 -0.094,-0.016 -0.15,-0.072 -0.17,-0.17 0.016,-0.105 0.125,-0.168 0.328,-0.188 0.277,-0.019 0.688,-0.068 1.23,-0.146 0.203,-0.047 0.348,-0.162 0.434,-0.346 0.051,-0.094 0.076,-0.209 0.076,-0.346 0,-0.246 -0.123,-0.68 -0.369,-1.301 -0.242,-0.605 -0.356,-1.01 -0.34,-1.213 0.031,-0.488 0.482,-0.828 1.354,-1.02 0.086,-0.019 0.129,0.012 0.129,0.094 0,0.047 -0.031,0.084 -0.094,0.111 -0.422,0.184 -0.633,0.41 -0.633,0.68 0,0.105 0.019,0.237 0.059,0.396 0.039,0.158 0.156,0.538 0.351,1.14 0.145,0.434 0.219,0.764 0.223,0.99"
         id="path81"
         style="fill:#d8dee9;fill-opacity:1" />
      <path
         d="m 1012.06,898.15 c 0.062,0.047 0.094,0.1 0.094,0.158 0,0.113 -0.168,0.289 -0.504,0.527 -0.223,0.152 -0.438,0.207 -0.644,0.164 -0.117,-0.023 -0.219,-0.066 -0.305,-0.129 -0.027,-0.023 -0.048,-0.048 -0.062,-0.073 -0.014,-0.025 -0.017,-0.046 -0.01,-0.062 0.012,-0.016 0.035,-0.019 0.07,-0.012 0.359,-0.312 0.596,-0.537 0.709,-0.674 0.09,-0.102 0.154,-0.152 0.193,-0.152 0.07,0 0.223,0.084 0.457,0.252 z m -0.826,2.566 c -0.094,0.527 -0.338,1.404 -0.732,2.631 0.113,-0.102 0.269,-0.287 0.469,-0.557 0.027,-0.035 0.055,-0.053 0.082,-0.053 0.062,0 0.07,0.055 0.024,0.164 -0.02,0.043 -0.184,0.311 -0.492,0.803 -0.234,0.375 -0.406,0.707 -0.516,0.996 -0.035,0.09 -0.1,0.135 -0.193,0.135 -0.094,0 -0.221,-0.045 -0.381,-0.135 -0.101,-0.055 -0.152,-0.096 -0.152,-0.123 0,-0.023 0.021,-0.074 0.064,-0.152 0.211,-0.371 0.445,-0.992 0.703,-1.863 0.246,-0.844 0.385,-1.471 0.416,-1.881 0.012,-0.176 -0.01,-0.264 -0.053,-0.264 -0.035,0 -0.098,0.043 -0.188,0.129 l -0.363,0.34 c -0.129,0.117 -0.193,0.123 -0.193,0.018 0,-0.031 0.018,-0.07 0.053,-0.117 0.184,-0.258 0.379,-0.502 0.586,-0.732 0.062,-0.066 0.123,-0.1 0.182,-0.1 0.062,0 0.154,0.043 0.275,0.129 0.18,0.047 0.279,0.076 0.299,0.088 0.09,0.055 0.135,0.156 0.135,0.305 0,0.07 -0.01,0.15 -0.023,0.24"
         id="path83"
         style="fill:#d8dee9;fill-opacity:1" />
      <path
         d="m 1015.97,900.56 c -1.199,6.223 -2.758,9.332 -4.676,9.328 -0.691,0 -1.439,-0.381 -2.244,-1.143 -0.074,-0.07 -0.111,-0.143 -0.111,-0.217 0,-0.113 0.053,-0.17 0.158,-0.17 0.055,0 0.107,0.021 0.158,0.064 0.637,0.543 1.207,0.814 1.711,0.814 1.609,0 2.951,-2.363 4.03,-7.09 -0.652,1.121 -1.221,1.924 -1.705,2.408 -0.195,0.199 -0.369,0.299 -0.521,0.299 -0.141,0 -0.314,-0.078 -0.521,-0.234 -0.371,-0.184 -0.549,-0.484 -0.533,-0.902 0.024,-0.512 0.221,-1.146 0.592,-1.904 0.363,-0.738 0.742,-1.295 1.137,-1.67 0.223,-0.211 0.424,-0.316 0.604,-0.316 0.133,0 0.279,0.059 0.439,0.176 0.024,0.019 0.18,0.158 0.469,0.416 0.059,0.051 0.088,0.102 0.088,0.152 0,0.07 -0.047,0.105 -0.141,0.105 -0.059,0 -0.125,-0.018 -0.199,-0.053 -0.117,-0.063 -0.232,-0.094 -0.346,-0.094 -0.164,0 -0.313,0.059 -0.445,0.176 -0.285,0.25 -0.584,0.656 -0.896,1.219 -0.34,0.617 -0.549,1.18 -0.627,1.688 -0.02,0.137 -0.029,0.256 -0.029,0.357 0,0.289 0.078,0.434 0.234,0.434 0.106,0 0.217,-0.053 0.334,-0.158 0.465,-0.398 0.926,-0.975 1.383,-1.729 0.426,-0.695 0.729,-1.334 0.908,-1.916 0.067,-0.207 0.1,-0.404 0.1,-0.592 0,-0.148 0.035,-0.223 0.105,-0.223 0.074,0 0.219,0.082 0.434,0.246 0.129,0.098 0.168,0.273 0.117,0.527"
         id="path85"
         style="fill:#d8dee9;fill-opacity:1" />
      <path
         d="m 1020.97,902.62 c -0.234,0.355 -0.539,0.871 -0.914,1.547 -0.07,0.176 -0.139,0.352 -0.205,0.527 -0.055,0.121 -0.127,0.182 -0.217,0.182 -0.07,0 -0.174,-0.029 -0.311,-0.088 -0.152,-0.063 -0.229,-0.125 -0.229,-0.188 0,-0.027 0.025,-0.088 0.076,-0.182 0.254,-0.516 0.48,-1.158 0.68,-1.928 0.215,-0.809 0.307,-1.426 0.275,-1.852 -0.01,-0.172 -0.047,-0.258 -0.117,-0.258 -0.051,0 -0.127,0.049 -0.229,0.146 -0.984,0.961 -1.836,2.246 -2.555,3.855 -0.09,0.199 -0.195,0.299 -0.317,0.299 -0.086,0 -0.229,-0.049 -0.428,-0.146 -0.078,-0.035 -0.119,-0.068 -0.123,-0.1 0,-0.016 0.022,-0.07 0.064,-0.164 0.227,-0.496 0.451,-1.125 0.674,-1.887 0.238,-0.824 0.373,-1.467 0.404,-1.928 0.01,-0.141 0,-0.211 -0.012,-0.211 0,0 -0.059,0.053 -0.164,0.158 -0.106,0.105 -0.252,0.242 -0.439,0.41 -0.035,0.035 -0.074,0.053 -0.117,0.053 -0.055,0 -0.082,-0.021 -0.082,-0.064 0,-0.031 0.019,-0.066 0.059,-0.105 0.168,-0.215 0.389,-0.482 0.662,-0.803 0.059,-0.066 0.119,-0.1 0.182,-0.1 0.094,0 0.176,0.068 0.246,0.205 0.316,0.094 0.465,0.238 0.445,0.434 -0.043,0.43 -0.264,1.205 -0.662,2.326 0.262,-0.504 0.643,-1.067 1.143,-1.69 0.5,-0.623 0.871,-0.991 1.113,-1.104 0.121,-0.055 0.207,-0.082 0.258,-0.082 0.051,0 0.133,0.043 0.246,0.129 0.324,0.113 0.484,0.301 0.481,0.563 0,0.273 -0.066,0.713 -0.199,1.318 -0.105,0.5 -0.203,0.889 -0.293,1.166 0.113,-0.145 0.258,-0.332 0.434,-0.563 0.031,-0.039 0.062,-0.059 0.094,-0.059 0.059,0 0.088,0.037 0.088,0.111 0,0.023 0,0.047 -0.012,0.07"
         id="path87"
         style="fill:#d8dee9;fill-opacity:1" />
    </g>
    <path
       opacity="0.01"
       fill-opacity="0.604"
       d="m 938,844.36 h 18 v 64 h -18 z"
       id="path91" />
    <path
       d="m 1047.3,795.14 -37.89,65.58 -2.598,-1.501 37.89,-65.58 z"
       opacity="0.3"
       id="path93"
       style="fill:#808080;fill-opacity:1" />
    <g
       transform="matrix(-0.5,0.86603,-0.86603,-0.5,2251.45,411.25)"
       id="g99">
      <path
         d="m 1004.18,904.03 2.98,5.209 2.894,-5.322 h -0.062 l 0.034,-43.13 -5.812,0.082 -0.035,43.13 z"
         id="path95"
         style="fill:#81a1c1;fill-opacity:1" />
      <circle
         transform="matrix(-0.60001,-0.79999,0.79999,-0.60001,0,0)"
         cx="-1288.8"
         cy="292.23001"
         r="6.4990001"
         id="circle97"
         style="fill:#a3be8c;fill-opacity:1" />
    </g>
    <path
       opacity="0.01"
       fill-opacity="0.604"
       d="m 969,847.36 h 12 v 85 h -12 z"
       id="path101" />
    <g
       id="g107">
      <path
         d="m 1045.93,790.13 -37.89,65.58 -2.598,-1.501 37.89,-65.58 z"
         id="path103"
         style="fill:#81a1c1;fill-opacity:1" />
      <circle
         r="3.671"
         cy="-1300.66"
         cx="232.3"
         transform="matrix(-0.5033,0.86411,-0.86411,-0.5033,0,0)"
         id="circle105"
         style="fill:#81a1c1;fill-opacity:1" />
    </g>
    <g
       fill-opacity="0.00400002"
       id="g113">
      <circle
         r="6.4990001"
         cy="256.78"
         cx="-1259.36"
         transform="matrix(-0.60001,-0.79999,0.79999,-0.60001,0,0)"
         id="circle109" />
      <circle
         r="4.0619998"
         cy="-1280.66"
         cx="241.58"
         transform="matrix(-0.5033,0.86411,-0.86411,-0.5033,0,0)"
         id="circle111" />
    </g>
  </g>
</svg>
